<?xml version="1.0" standalone="no"?>
 <!DOCTYPE svg PUBLIC "-//W3C//DTD SVG 1.1//EN" 
 "http://www.w3.org/Graphics/SVG/1.1/DTD/svg11.dtd"> 
<svg xmlns="http://www.w3.org/2000/svg" version="1.1" 
    width="29.7002cm" height="21.0007cm" viewBox="0 0 116930 82680 ">
<title>SVG Picture created as LFOExpController_SMT-brd.svg date 2018/06/02 10:49:19 </title>
  <desc>Picture generated by PCBNEW </desc>
<g style="fill:#000000; fill-opacity:1;stroke:#000000; stroke-opacity:1;
stroke-linecap:round; stroke-linejoin:round; "
 transform="translate(0 0) scale(1 1)">
</g>
<g style="fill:#000000; fill-opacity:0.0; 
stroke:#000000; stroke-width:-0.000393701; stroke-opacity:1; 
stroke-linecap:round; stroke-linejoin:round;">
</g>
<g style="fill:#000000; fill-opacity:0.0; 
stroke:#000000; stroke-width:39.3701; stroke-opacity:1; 
stroke-linecap:round; stroke-linejoin:round;">
</g>
<g style="fill:#000000; fill-opacity:0.0; 
stroke:#000000; stroke-width:59.0551; stroke-opacity:1; 
stroke-linecap:round; stroke-linejoin:round;">
<rect x="69685.9" y="65357.2" width="42519.7" height="12598.4" rx="0" />
</g>
<g style="fill:#000000; fill-opacity:0.0; 
stroke:#000000; stroke-width:39.3701; stroke-opacity:1; 
stroke-linecap:round; stroke-linejoin:round;">
</g>
<g style="fill:#000000; fill-opacity:0.0; 
stroke:#000000; stroke-width:59.0551; stroke-opacity:1; 
stroke-linecap:round; stroke-linejoin:round;">
<rect x="3937.01" y="3937.01" width="109056" height="74806" rx="0" />
</g>
<g style="fill:#000000; fill-opacity:0.0; 
stroke:#000000; stroke-width:39.3701; stroke-opacity:1; 
stroke-linecap:round; stroke-linejoin:round;">
</g>
<g style="fill:#000000; fill-opacity:0.0; 
stroke:#000000; stroke-width:59.0551; stroke-opacity:1; 
stroke-linecap:round; stroke-linejoin:round;">
<rect x="4724.41" y="4724.41" width="107481" height="73231.2" rx="0" />
</g>
<g style="fill:#000000; fill-opacity:0.0; 
stroke:#000000; stroke-width:39.3701; stroke-opacity:1; 
stroke-linecap:round; stroke-linejoin:round;">
</g>
<g style="fill:#000000; fill-opacity:0.0; 
stroke:#000000; stroke-width:59.0551; stroke-opacity:1; 
stroke-linecap:round; stroke-linejoin:round;">
<path d="M23622 4724
L23622 3937
" />
</g>
<g style="fill:#000000; fill-opacity:0.0; 
stroke:#000000; stroke-width:39.3701; stroke-opacity:1; 
stroke-linecap:round; stroke-linejoin:round;">
</g>
<g style="fill:#000000; fill-opacity:0.0; 
stroke:#000000; stroke-width:59.0551; stroke-opacity:1; 
stroke-linecap:round; stroke-linejoin:round;">
<path d="M43307 4724
L43307 3937
" />
</g>
<g style="fill:#000000; fill-opacity:0.0; 
stroke:#000000; stroke-width:39.3701; stroke-opacity:1; 
stroke-linecap:round; stroke-linejoin:round;">
</g>
<g style="fill:#000000; fill-opacity:0.0; 
stroke:#000000; stroke-width:59.0551; stroke-opacity:1; 
stroke-linecap:round; stroke-linejoin:round;">
<path d="M62992 4724
L62992 3937
" />
</g>
<g style="fill:#000000; fill-opacity:0.0; 
stroke:#000000; stroke-width:39.3701; stroke-opacity:1; 
stroke-linecap:round; stroke-linejoin:round;">
</g>
<g style="fill:#000000; fill-opacity:0.0; 
stroke:#000000; stroke-width:59.0551; stroke-opacity:1; 
stroke-linecap:round; stroke-linejoin:round;">
<path d="M82677 4724
L82677 3937
" />
</g>
<g style="fill:#000000; fill-opacity:0.0; 
stroke:#000000; stroke-width:39.3701; stroke-opacity:1; 
stroke-linecap:round; stroke-linejoin:round;">
</g>
<g style="fill:#000000; fill-opacity:0.0; 
stroke:#000000; stroke-width:59.0551; stroke-opacity:1; 
stroke-linecap:round; stroke-linejoin:round;">
<path d="M102362 4724
L102362 3937
" />
</g>
<g style="fill:#000000; fill-opacity:0.0; 
stroke:#000000; stroke-width:39.3701; stroke-opacity:1; 
stroke-linecap:round; stroke-linejoin:round;">
</g>
<g style="fill:#000000; fill-opacity:0.0; 
stroke:#000000; stroke-width:59.0551; stroke-opacity:1; 
stroke-linecap:round; stroke-linejoin:round;">
<path d="M14169 4562
L13877 4562
" />
<path d="M14023 4562
L14023 4050
L13974 4123
L13925 4172
L13877 4196
" />
</g>
<g style="fill:#000000; fill-opacity:0.0; 
stroke:#000000; stroke-width:39.3701; stroke-opacity:1; 
stroke-linecap:round; stroke-linejoin:round;">
</g>
<g style="fill:#000000; fill-opacity:0.0; 
stroke:#000000; stroke-width:59.0551; stroke-opacity:1; 
stroke-linecap:round; stroke-linejoin:round;">
<path d="M33562 4099
L33586 4074
L33635 4050
L33757 4050
L33805 4074
L33830 4099
L33854 4147
L33854 4196
L33830 4269
L33537 4562
L33854 4562
" />
</g>
<g style="fill:#000000; fill-opacity:0.0; 
stroke:#000000; stroke-width:39.3701; stroke-opacity:1; 
stroke-linecap:round; stroke-linejoin:round;">
</g>
<g style="fill:#000000; fill-opacity:0.0; 
stroke:#000000; stroke-width:59.0551; stroke-opacity:1; 
stroke-linecap:round; stroke-linejoin:round;">
<path d="M53222 4050
L53539 4050
L53368 4245
L53442 4245
L53490 4269
L53515 4294
L53539 4342
L53539 4464
L53515 4513
L53490 4537
L53442 4562
L53295 4562
L53247 4537
L53222 4513
" />
</g>
<g style="fill:#000000; fill-opacity:0.0; 
stroke:#000000; stroke-width:39.3701; stroke-opacity:1; 
stroke-linecap:round; stroke-linejoin:round;">
</g>
<g style="fill:#000000; fill-opacity:0.0; 
stroke:#000000; stroke-width:59.0551; stroke-opacity:1; 
stroke-linecap:round; stroke-linejoin:round;">
<path d="M73175 4221
L73175 4562
" />
<path d="M73053 4026
L72932 4391
L73248 4391
" />
</g>
<g style="fill:#000000; fill-opacity:0.0; 
stroke:#000000; stroke-width:39.3701; stroke-opacity:1; 
stroke-linecap:round; stroke-linejoin:round;">
</g>
<g style="fill:#000000; fill-opacity:0.0; 
stroke:#000000; stroke-width:59.0551; stroke-opacity:1; 
stroke-linecap:round; stroke-linejoin:round;">
<path d="M92885 4050
L92641 4050
L92617 4294
L92641 4269
L92690 4245
L92812 4245
L92860 4269
L92885 4294
L92909 4342
L92909 4464
L92885 4513
L92860 4537
L92812 4562
L92690 4562
L92641 4537
L92617 4513
" />
</g>
<g style="fill:#000000; fill-opacity:0.0; 
stroke:#000000; stroke-width:39.3701; stroke-opacity:1; 
stroke-linecap:round; stroke-linejoin:round;">
</g>
<g style="fill:#000000; fill-opacity:0.0; 
stroke:#000000; stroke-width:59.0551; stroke-opacity:1; 
stroke-linecap:round; stroke-linejoin:round;">
<path d="M112545 4050
L112448 4050
L112399 4074
L112375 4099
L112326 4172
L112302 4269
L112302 4464
L112326 4513
L112350 4537
L112399 4562
L112497 4562
L112545 4537
L112570 4513
L112594 4464
L112594 4342
L112570 4294
L112545 4269
L112497 4245
L112399 4245
L112350 4269
L112326 4294
L112302 4342
" />
</g>
<g style="fill:#000000; fill-opacity:0.0; 
stroke:#000000; stroke-width:39.3701; stroke-opacity:1; 
stroke-linecap:round; stroke-linejoin:round;">
</g>
<g style="fill:#000000; fill-opacity:0.0; 
stroke:#000000; stroke-width:59.0551; stroke-opacity:1; 
stroke-linecap:round; stroke-linejoin:round;">
<path d="M23622 77955
L23622 78742
" />
</g>
<g style="fill:#000000; fill-opacity:0.0; 
stroke:#000000; stroke-width:39.3701; stroke-opacity:1; 
stroke-linecap:round; stroke-linejoin:round;">
</g>
<g style="fill:#000000; fill-opacity:0.0; 
stroke:#000000; stroke-width:59.0551; stroke-opacity:1; 
stroke-linecap:round; stroke-linejoin:round;">
<path d="M43307 77955
L43307 78742
" />
</g>
<g style="fill:#000000; fill-opacity:0.0; 
stroke:#000000; stroke-width:39.3701; stroke-opacity:1; 
stroke-linecap:round; stroke-linejoin:round;">
</g>
<g style="fill:#000000; fill-opacity:0.0; 
stroke:#000000; stroke-width:59.0551; stroke-opacity:1; 
stroke-linecap:round; stroke-linejoin:round;">
<path d="M62992 77955
L62992 78742
" />
</g>
<g style="fill:#000000; fill-opacity:0.0; 
stroke:#000000; stroke-width:39.3701; stroke-opacity:1; 
stroke-linecap:round; stroke-linejoin:round;">
</g>
<g style="fill:#000000; fill-opacity:0.0; 
stroke:#000000; stroke-width:59.0551; stroke-opacity:1; 
stroke-linecap:round; stroke-linejoin:round;">
<path d="M82677 77955
L82677 78742
" />
</g>
<g style="fill:#000000; fill-opacity:0.0; 
stroke:#000000; stroke-width:39.3701; stroke-opacity:1; 
stroke-linecap:round; stroke-linejoin:round;">
</g>
<g style="fill:#000000; fill-opacity:0.0; 
stroke:#000000; stroke-width:59.0551; stroke-opacity:1; 
stroke-linecap:round; stroke-linejoin:round;">
<path d="M102362 77955
L102362 78742
" />
</g>
<g style="fill:#000000; fill-opacity:0.0; 
stroke:#000000; stroke-width:39.3701; stroke-opacity:1; 
stroke-linecap:round; stroke-linejoin:round;">
</g>
<g style="fill:#000000; fill-opacity:0.0; 
stroke:#000000; stroke-width:59.0551; stroke-opacity:1; 
stroke-linecap:round; stroke-linejoin:round;">
<path d="M14169 78580
L13877 78580
" />
<path d="M14023 78580
L14023 78069
L13974 78142
L13925 78190
L13877 78215
" />
</g>
<g style="fill:#000000; fill-opacity:0.0; 
stroke:#000000; stroke-width:39.3701; stroke-opacity:1; 
stroke-linecap:round; stroke-linejoin:round;">
</g>
<g style="fill:#000000; fill-opacity:0.0; 
stroke:#000000; stroke-width:59.0551; stroke-opacity:1; 
stroke-linecap:round; stroke-linejoin:round;">
<path d="M33562 78117
L33586 78093
L33635 78069
L33757 78069
L33805 78093
L33830 78117
L33854 78166
L33854 78215
L33830 78288
L33537 78580
L33854 78580
" />
</g>
<g style="fill:#000000; fill-opacity:0.0; 
stroke:#000000; stroke-width:39.3701; stroke-opacity:1; 
stroke-linecap:round; stroke-linejoin:round;">
</g>
<g style="fill:#000000; fill-opacity:0.0; 
stroke:#000000; stroke-width:59.0551; stroke-opacity:1; 
stroke-linecap:round; stroke-linejoin:round;">
<path d="M53222 78069
L53539 78069
L53368 78263
L53442 78263
L53490 78288
L53515 78312
L53539 78361
L53539 78483
L53515 78532
L53490 78556
L53442 78580
L53295 78580
L53247 78556
L53222 78532
" />
</g>
<g style="fill:#000000; fill-opacity:0.0; 
stroke:#000000; stroke-width:39.3701; stroke-opacity:1; 
stroke-linecap:round; stroke-linejoin:round;">
</g>
<g style="fill:#000000; fill-opacity:0.0; 
stroke:#000000; stroke-width:59.0551; stroke-opacity:1; 
stroke-linecap:round; stroke-linejoin:round;">
<path d="M73175 78239
L73175 78580
" />
<path d="M73053 78044
L72932 78410
L73248 78410
" />
</g>
<g style="fill:#000000; fill-opacity:0.0; 
stroke:#000000; stroke-width:39.3701; stroke-opacity:1; 
stroke-linecap:round; stroke-linejoin:round;">
</g>
<g style="fill:#000000; fill-opacity:0.0; 
stroke:#000000; stroke-width:59.0551; stroke-opacity:1; 
stroke-linecap:round; stroke-linejoin:round;">
<path d="M92885 78069
L92641 78069
L92617 78312
L92641 78288
L92690 78263
L92812 78263
L92860 78288
L92885 78312
L92909 78361
L92909 78483
L92885 78532
L92860 78556
L92812 78580
L92690 78580
L92641 78556
L92617 78532
" />
</g>
<g style="fill:#000000; fill-opacity:0.0; 
stroke:#000000; stroke-width:39.3701; stroke-opacity:1; 
stroke-linecap:round; stroke-linejoin:round;">
</g>
<g style="fill:#000000; fill-opacity:0.0; 
stroke:#000000; stroke-width:59.0551; stroke-opacity:1; 
stroke-linecap:round; stroke-linejoin:round;">
<path d="M112545 78069
L112448 78069
L112399 78093
L112375 78117
L112326 78190
L112302 78288
L112302 78483
L112326 78532
L112350 78556
L112399 78580
L112497 78580
L112545 78556
L112570 78532
L112594 78483
L112594 78361
L112570 78312
L112545 78288
L112497 78263
L112399 78263
L112350 78288
L112326 78312
L112302 78361
" />
</g>
<g style="fill:#000000; fill-opacity:0.0; 
stroke:#000000; stroke-width:39.3701; stroke-opacity:1; 
stroke-linecap:round; stroke-linejoin:round;">
</g>
<g style="fill:#000000; fill-opacity:0.0; 
stroke:#000000; stroke-width:59.0551; stroke-opacity:1; 
stroke-linecap:round; stroke-linejoin:round;">
<path d="M3937 23622
L4724 23622
" />
</g>
<g style="fill:#000000; fill-opacity:0.0; 
stroke:#000000; stroke-width:39.3701; stroke-opacity:1; 
stroke-linecap:round; stroke-linejoin:round;">
</g>
<g style="fill:#000000; fill-opacity:0.0; 
stroke:#000000; stroke-width:59.0551; stroke-opacity:1; 
stroke-linecap:round; stroke-linejoin:round;">
<path d="M3937 43307
L4724 43307
" />
</g>
<g style="fill:#000000; fill-opacity:0.0; 
stroke:#000000; stroke-width:39.3701; stroke-opacity:1; 
stroke-linecap:round; stroke-linejoin:round;">
</g>
<g style="fill:#000000; fill-opacity:0.0; 
stroke:#000000; stroke-width:59.0551; stroke-opacity:1; 
stroke-linecap:round; stroke-linejoin:round;">
<path d="M3937 62992
L4724 62992
" />
</g>
<g style="fill:#000000; fill-opacity:0.0; 
stroke:#000000; stroke-width:39.3701; stroke-opacity:1; 
stroke-linecap:round; stroke-linejoin:round;">
</g>
<g style="fill:#000000; fill-opacity:0.0; 
stroke:#000000; stroke-width:59.0551; stroke-opacity:1; 
stroke-linecap:round; stroke-linejoin:round;">
<path d="M4208 13864
L4452 13864
" />
<path d="M4160 14011
L4330 13499
L4501 14011
" />
</g>
<g style="fill:#000000; fill-opacity:0.0; 
stroke:#000000; stroke-width:39.3701; stroke-opacity:1; 
stroke-linecap:round; stroke-linejoin:round;">
</g>
<g style="fill:#000000; fill-opacity:0.0; 
stroke:#000000; stroke-width:59.0551; stroke-opacity:1; 
stroke-linecap:round; stroke-linejoin:round;">
<path d="M4367 33428
L4440 33452
L4464 33476
L4489 33525
L4489 33598
L4464 33647
L4440 33671
L4391 33696
L4196 33696
L4196 33184
L4367 33184
L4416 33208
L4440 33233
L4464 33281
L4464 33330
L4440 33379
L4416 33403
L4367 33428
L4196 33428
" />
</g>
<g style="fill:#000000; fill-opacity:0.0; 
stroke:#000000; stroke-width:39.3701; stroke-opacity:1; 
stroke-linecap:round; stroke-linejoin:round;">
</g>
<g style="fill:#000000; fill-opacity:0.0; 
stroke:#000000; stroke-width:59.0551; stroke-opacity:1; 
stroke-linecap:round; stroke-linejoin:round;">
<path d="M4489 53332
L4464 53356
L4391 53381
L4342 53381
L4269 53356
L4221 53308
L4196 53259
L4172 53161
L4172 53088
L4196 52991
L4221 52942
L4269 52893
L4342 52869
L4391 52869
L4464 52893
L4489 52918
" />
</g>
<g style="fill:#000000; fill-opacity:0.0; 
stroke:#000000; stroke-width:39.3701; stroke-opacity:1; 
stroke-linecap:round; stroke-linejoin:round;">
</g>
<g style="fill:#000000; fill-opacity:0.0; 
stroke:#000000; stroke-width:59.0551; stroke-opacity:1; 
stroke-linecap:round; stroke-linejoin:round;">
<path d="M4196 73066
L4196 72554
L4318 72554
L4391 72578
L4440 72627
L4464 72676
L4489 72773
L4489 72846
L4464 72944
L4440 72993
L4391 73041
L4318 73066
L4196 73066
" />
</g>
<g style="fill:#000000; fill-opacity:0.0; 
stroke:#000000; stroke-width:39.3701; stroke-opacity:1; 
stroke-linecap:round; stroke-linejoin:round;">
</g>
<g style="fill:#000000; fill-opacity:0.0; 
stroke:#000000; stroke-width:59.0551; stroke-opacity:1; 
stroke-linecap:round; stroke-linejoin:round;">
<path d="M112992 23622
L112205 23622
" />
</g>
<g style="fill:#000000; fill-opacity:0.0; 
stroke:#000000; stroke-width:39.3701; stroke-opacity:1; 
stroke-linecap:round; stroke-linejoin:round;">
</g>
<g style="fill:#000000; fill-opacity:0.0; 
stroke:#000000; stroke-width:59.0551; stroke-opacity:1; 
stroke-linecap:round; stroke-linejoin:round;">
<path d="M112992 43307
L112205 43307
" />
</g>
<g style="fill:#000000; fill-opacity:0.0; 
stroke:#000000; stroke-width:39.3701; stroke-opacity:1; 
stroke-linecap:round; stroke-linejoin:round;">
</g>
<g style="fill:#000000; fill-opacity:0.0; 
stroke:#000000; stroke-width:59.0551; stroke-opacity:1; 
stroke-linecap:round; stroke-linejoin:round;">
<path d="M112992 62992
L112205 62992
" />
</g>
<g style="fill:#000000; fill-opacity:0.0; 
stroke:#000000; stroke-width:39.3701; stroke-opacity:1; 
stroke-linecap:round; stroke-linejoin:round;">
</g>
<g style="fill:#000000; fill-opacity:0.0; 
stroke:#000000; stroke-width:59.0551; stroke-opacity:1; 
stroke-linecap:round; stroke-linejoin:round;">
<path d="M112477 13864
L112721 13864
" />
<path d="M112428 14011
L112599 13499
L112769 14011
" />
</g>
<g style="fill:#000000; fill-opacity:0.0; 
stroke:#000000; stroke-width:39.3701; stroke-opacity:1; 
stroke-linecap:round; stroke-linejoin:round;">
</g>
<g style="fill:#000000; fill-opacity:0.0; 
stroke:#000000; stroke-width:59.0551; stroke-opacity:1; 
stroke-linecap:round; stroke-linejoin:round;">
<path d="M112635 33428
L112708 33452
L112733 33476
L112757 33525
L112757 33598
L112733 33647
L112708 33671
L112660 33696
L112465 33696
L112465 33184
L112635 33184
L112684 33208
L112708 33233
L112733 33281
L112733 33330
L112708 33379
L112684 33403
L112635 33428
L112465 33428
" />
</g>
<g style="fill:#000000; fill-opacity:0.0; 
stroke:#000000; stroke-width:39.3701; stroke-opacity:1; 
stroke-linecap:round; stroke-linejoin:round;">
</g>
<g style="fill:#000000; fill-opacity:0.0; 
stroke:#000000; stroke-width:59.0551; stroke-opacity:1; 
stroke-linecap:round; stroke-linejoin:round;">
<path d="M112757 53332
L112733 53356
L112660 53381
L112611 53381
L112538 53356
L112489 53308
L112465 53259
L112440 53161
L112440 53088
L112465 52991
L112489 52942
L112538 52893
L112611 52869
L112660 52869
L112733 52893
L112757 52918
" />
</g>
<g style="fill:#000000; fill-opacity:0.0; 
stroke:#000000; stroke-width:39.3701; stroke-opacity:1; 
stroke-linecap:round; stroke-linejoin:round;">
</g>
<g style="fill:#000000; fill-opacity:0.0; 
stroke:#000000; stroke-width:59.0551; stroke-opacity:1; 
stroke-linecap:round; stroke-linejoin:round;">
<path d="M112465 73066
L112465 72554
L112587 72554
L112660 72578
L112708 72627
L112733 72676
L112757 72773
L112757 72846
L112733 72944
L112708 72993
L112660 73041
L112587 73066
L112465 73066
" />
</g>
<g style="fill:#000000; fill-opacity:0.0; 
stroke:#000000; stroke-width:39.3701; stroke-opacity:1; 
stroke-linecap:round; stroke-linejoin:round;">
</g>
<g style="fill:#000000; fill-opacity:0.0; 
stroke:#000000; stroke-width:59.0551; stroke-opacity:1; 
stroke-linecap:round; stroke-linejoin:round;">
<path d="M78881 76293
L78881 75703
L79022 75703
L79106 75731
L79162 75787
L79190 75843
L79219 75956
L79219 76040
L79190 76153
L79162 76209
L79106 76265
L79022 76293
L78881 76293
" />
<path d="M79725 76293
L79725 75984
L79697 75928
L79640 75899
L79528 75899
L79472 75928
" />
<path d="M79725 76265
L79669 76293
L79528 76293
L79472 76265
L79444 76209
L79444 76153
L79472 76096
L79528 76068
L79669 76068
L79725 76040
" />
<path d="M79922 75899
L80147 75899
" />
<path d="M80006 75703
L80006 76209
L80034 76265
L80090 76293
L80147 76293
" />
<path d="M80568 76265
L80512 76293
L80400 76293
L80343 76265
L80315 76209
L80315 75984
L80343 75928
L80400 75899
L80512 75899
L80568 75928
L80597 75984
L80597 76040
L80315 76096
" />
<path d="M80850 76237
L80878 76265
L80850 76293
L80822 76265
L80850 76237
L80850 76293
" />
<path d="M80850 75928
L80878 75956
L80850 75984
L80822 75956
L80850 75928
L80850 75984
" />
<path d="M81553 75759
L81581 75731
L81637 75703
L81778 75703
L81834 75731
L81862 75759
L81890 75815
L81890 75871
L81862 75956
L81525 76293
L81890 76293
" />
<path d="M82256 75703
L82312 75703
L82368 75731
L82396 75759
L82424 75815
L82453 75928
L82453 76068
L82424 76181
L82396 76237
L82368 76265
L82312 76293
L82256 76293
L82199 76265
L82171 76237
L82143 76181
L82115 76068
L82115 75928
L82143 75815
L82171 75759
L82199 75731
L82256 75703
" />
<path d="M83015 76293
L82678 76293
" />
<path d="M82846 76293
L82846 75703
L82790 75787
L82734 75843
L82678 75871
" />
<path d="M83352 75956
L83296 75928
L83268 75899
L83240 75843
L83240 75815
L83268 75759
L83296 75731
L83352 75703
L83465 75703
L83521 75731
L83549 75759
L83577 75815
L83577 75843
L83549 75899
L83521 75928
L83465 75956
L83352 75956
L83296 75984
L83268 76012
L83240 76068
L83240 76181
L83268 76237
L83296 76265
L83352 76293
L83465 76293
L83521 76265
L83549 76237
L83577 76181
L83577 76068
L83549 76012
L83521 75984
L83465 75956
" />
<path d="M83831 76068
L84280 76068
" />
<path d="M84674 75703
L84730 75703
L84787 75731
L84815 75759
L84843 75815
L84871 75928
L84871 76068
L84843 76181
L84815 76237
L84787 76265
L84730 76293
L84674 76293
L84618 76265
L84590 76237
L84562 76181
L84534 76068
L84534 75928
L84562 75815
L84590 75759
L84618 75731
L84674 75703
" />
<path d="M85068 75703
L85433 75703
L85237 75928
L85321 75928
L85377 75956
L85405 75984
L85433 76040
L85433 76181
L85405 76237
L85377 76265
L85321 76293
L85152 76293
L85096 76265
L85068 76237
" />
<path d="M85687 76068
L86136 76068
" />
<path d="M86390 75759
L86418 75731
L86474 75703
L86615 75703
L86671 75731
L86699 75759
L86727 75815
L86727 75871
L86699 75956
L86361 76293
L86727 76293
" />
<path d="M87233 75899
L87233 76293
" />
<path d="M87093 75674
L86952 76096
L87318 76096
" />
</g>
<g style="fill:#000000; fill-opacity:0.0; 
stroke:#000000; stroke-width:39.3701; stroke-opacity:1; 
stroke-linecap:round; stroke-linejoin:round;">
</g>
<g style="fill:#000000; fill-opacity:0.0; 
stroke:#000000; stroke-width:59.0551; stroke-opacity:1; 
stroke-linecap:round; stroke-linejoin:round;">
<path d="M69685 76577
L112205 76577
" />
</g>
<g style="fill:#000000; fill-opacity:0.0; 
stroke:#000000; stroke-width:39.3701; stroke-opacity:1; 
stroke-linecap:round; stroke-linejoin:round;">
</g>
<g style="fill:#000000; fill-opacity:0.0; 
stroke:#000000; stroke-width:59.0551; stroke-opacity:1; 
stroke-linecap:round; stroke-linejoin:round;">
<path d="M70220 77395
L70220 76805
" />
<path d="M70557 77395
L70304 77058
" />
<path d="M70557 76805
L70220 77142
" />
<path d="M70810 77395
L70810 77002
" />
<path d="M70810 76805
L70782 76833
L70810 76861
L70838 76833
L70810 76805
L70810 76861
" />
<path d="M71429 77339
L71401 77367
L71316 77395
L71260 77395
L71176 77367
L71120 77311
L71091 77255
L71063 77142
L71063 77058
L71091 76946
L71120 76889
L71176 76833
L71260 76805
L71316 76805
L71401 76833
L71429 76861
" />
<path d="M71935 77395
L71935 77086
L71907 77030
L71851 77002
L71738 77002
L71682 77030
" />
<path d="M71935 77367
L71879 77395
L71738 77395
L71682 77367
L71654 77311
L71654 77255
L71682 77199
L71738 77171
L71879 77171
L71935 77142
" />
<path d="M72469 77395
L72469 76805
" />
<path d="M72469 77367
L72413 77395
L72301 77395
L72244 77367
L72216 77339
L72188 77283
L72188 77114
L72216 77058
L72244 77030
L72301 77002
L72413 77002
L72469 77030
" />
<path d="M73201 77086
L73397 77086
" />
<path d="M73482 77395
L73201 77395
L73201 76805
L73482 76805
" />
<path d="M73735 77339
L73763 77367
L73735 77395
L73707 77367
L73735 77339
L73735 77395
" />
<path d="M74016 77395
L74016 76805
L74157 76805
L74241 76833
L74297 76889
L74325 76946
L74354 77058
L74354 77142
L74325 77255
L74297 77311
L74241 77367
L74157 77395
L74016 77395
" />
<path d="M74607 77339
L74635 77367
L74607 77395
L74579 77367
L74607 77339
L74607 77395
" />
<path d="M74860 77227
L75141 77227
" />
<path d="M74804 77395
L75000 76805
L75197 77395
" />
<path d="M75394 77339
L75422 77367
L75394 77395
L75366 77367
L75394 77339
L75394 77395
" />
<path d="M76575 77395
L76575 76805
" />
<path d="M76631 77171
L76800 77395
" />
<path d="M76800 77002
L76575 77227
" />
<path d="M77053 77395
L77053 77002
" />
<path d="M77053 76805
L77025 76833
L77053 76861
L77081 76833
L77053 76805
L77053 76861
" />
<path d="M77588 77367
L77531 77395
L77419 77395
L77363 77367
L77334 77339
L77306 77283
L77306 77114
L77334 77058
L77363 77030
L77419 77002
L77531 77002
L77588 77030
" />
<path d="M78094 77395
L78094 77086
L78066 77030
L78009 77002
L77897 77002
L77841 77030
" />
<path d="M78094 77367
L78037 77395
L77897 77395
L77841 77367
L77813 77311
L77813 77255
L77841 77199
L77897 77171
L78037 77171
L78094 77142
" />
<path d="M78628 77395
L78628 76805
" />
<path d="M78628 77367
L78572 77395
L78459 77395
L78403 77367
L78375 77339
L78347 77283
L78347 77114
L78375 77058
L78403 77030
L78459 77002
L78572 77002
L78628 77030
" />
<path d="M79612 77002
L79612 77395
" />
<path d="M79472 76777
L79331 77199
L79697 77199
" />
<path d="M79922 77339
L79950 77367
L79922 77395
L79894 77367
L79922 77339
L79922 77395
" />
<path d="M80315 76805
L80372 76805
L80428 76833
L80456 76861
L80484 76917
L80512 77030
L80512 77171
L80484 77283
L80456 77339
L80428 77367
L80372 77395
L80315 77395
L80259 77367
L80231 77339
L80203 77283
L80175 77171
L80175 77030
L80203 76917
L80231 76861
L80259 76833
L80315 76805
" />
<path d="M80765 77339
L80793 77367
L80765 77395
L80737 77367
L80765 77339
L80765 77395
" />
<path d="M80990 76805
L81384 76805
L81131 77395
" />
</g>
<g style="fill:#000000; fill-opacity:0.0; 
stroke:#000000; stroke-width:39.3701; stroke-opacity:1; 
stroke-linecap:round; stroke-linejoin:round;">
</g>
<g style="fill:#000000; fill-opacity:0.0; 
stroke:#000000; stroke-width:59.0551; stroke-opacity:1; 
stroke-linecap:round; stroke-linejoin:round;">
<path d="M69685 75396
L112205 75396
" />
</g>
<g style="fill:#000000; fill-opacity:0.0; 
stroke:#000000; stroke-width:39.3701; stroke-opacity:1; 
stroke-linecap:round; stroke-linejoin:round;">
</g>
<g style="fill:#000000; fill-opacity:0.0; 
stroke:#000000; stroke-width:118.11; stroke-opacity:1; 
stroke-linecap:round; stroke-linejoin:round;">
<path d="M104022 76293
L103825 76012
" />
<path d="M103684 76293
L103684 75703
L103909 75703
L103965 75731
L103994 75759
L104022 75815
L104022 75899
L103994 75956
L103965 75984
L103909 76012
L103684 76012
" />
<path d="M104500 76265
L104444 76293
L104331 76293
L104275 76265
L104247 76209
L104247 75984
L104275 75928
L104331 75899
L104444 75899
L104500 75928
L104528 75984
L104528 76040
L104247 76096
" />
<path d="M104725 75899
L104865 76293
L105006 75899
" />
<path d="M105231 76237
L105259 76265
L105231 76293
L105203 76265
L105231 76237
L105231 76293
" />
<path d="M105231 75928
L105259 75956
L105231 75984
L105203 75956
L105231 75928
L105231 75984
" />
<path d="M105906 75703
L106271 75703
L106075 75928
L106159 75928
L106215 75956
L106243 75984
L106271 76040
L106271 76181
L106243 76237
L106215 76265
L106159 76293
L105990 76293
L105934 76265
L105906 76237
" />
</g>
<g style="fill:#000000; fill-opacity:0.0; 
stroke:#000000; stroke-width:39.3701; stroke-opacity:1; 
stroke-linecap:round; stroke-linejoin:round;">
</g>
<g style="fill:#000000; fill-opacity:0.0; 
stroke:#000000; stroke-width:59.0551; stroke-opacity:1; 
stroke-linecap:round; stroke-linejoin:round;">
<path d="M70192 76265
L70276 76293
L70417 76293
L70473 76265
L70501 76237
L70529 76181
L70529 76124
L70501 76068
L70473 76040
L70417 76012
L70304 75984
L70248 75956
L70220 75928
L70192 75871
L70192 75815
L70220 75759
L70248 75731
L70304 75703
L70445 75703
L70529 75731
" />
<path d="M70782 76293
L70782 75899
" />
<path d="M70782 75703
L70754 75731
L70782 75759
L70810 75731
L70782 75703
L70782 75759
" />
<path d="M71007 75899
L71316 75899
L71007 76293
L71316 76293
" />
<path d="M71766 76265
L71710 76293
L71598 76293
L71541 76265
L71513 76209
L71513 75984
L71541 75928
L71598 75899
L71710 75899
L71766 75928
L71795 75984
L71795 76040
L71513 76096
" />
<path d="M72048 76237
L72076 76265
L72048 76293
L72019 76265
L72048 76237
L72048 76293
" />
<path d="M72048 75928
L72076 75956
L72048 75984
L72019 75956
L72048 75928
L72048 75984
" />
<path d="M72751 76124
L73032 76124
" />
<path d="M72694 76293
L72891 75703
L73088 76293
" />
<path d="M73538 75899
L73538 76293
" />
<path d="M73397 75674
L73257 76096
L73622 76096
" />
</g>
<g style="fill:#000000; fill-opacity:0.0; 
stroke:#000000; stroke-width:39.3701; stroke-opacity:1; 
stroke-linecap:round; stroke-linejoin:round;">
</g>
<g style="fill:#000000; fill-opacity:0.0; 
stroke:#000000; stroke-width:59.0551; stroke-opacity:1; 
stroke-linecap:round; stroke-linejoin:round;">
<path d="M103684 77395
L103684 76805
" />
<path d="M104219 77395
L104219 76805
" />
<path d="M104219 77367
L104162 77395
L104050 77395
L103994 77367
L103965 77339
L103937 77283
L103937 77114
L103965 77058
L103994 77030
L104050 77002
L104162 77002
L104219 77030
" />
<path d="M104500 77339
L104528 77367
L104500 77395
L104472 77367
L104500 77339
L104500 77395
" />
<path d="M104500 77030
L104528 77058
L104500 77086
L104472 77058
L104500 77030
L104500 77086
" />
<path d="M105540 77395
L105203 77395
" />
<path d="M105372 77395
L105372 76805
L105315 76889
L105259 76946
L105203 76974
" />
<path d="M106215 76777
L105709 77536
" />
<path d="M106721 77395
L106384 77395
" />
<path d="M106553 77395
L106553 76805
L106496 76889
L106440 76946
L106384 76974
" />
</g>
<g style="fill:#000000; fill-opacity:0.0; 
stroke:#000000; stroke-width:39.3701; stroke-opacity:1; 
stroke-linecap:round; stroke-linejoin:round;">
</g>
<g style="fill:#000000; fill-opacity:0.0; 
stroke:#000000; stroke-width:59.0551; stroke-opacity:1; 
stroke-linecap:round; stroke-linejoin:round;">
<path d="M69685 73821
L112205 73821
" />
</g>
<g style="fill:#000000; fill-opacity:0.0; 
stroke:#000000; stroke-width:39.3701; stroke-opacity:1; 
stroke-linecap:round; stroke-linejoin:round;">
</g>
<g style="fill:#000000; fill-opacity:0.0; 
stroke:#000000; stroke-width:157.48; stroke-opacity:1; 
stroke-linecap:round; stroke-linejoin:round;">
<path d="M70257 74099
L70707 74099
" />
<path d="M70384 74886
L70482 74099
" />
<path d="M70871 74886
L70937 74361
" />
<path d="M70970 74099
L70927 74136
L70960 74174
L71002 74136
L70970 74099
L70960 74174
" />
<path d="M71199 74361
L71499 74361
" />
<path d="M71345 74099
L71260 74774
L71288 74849
L71359 74886
L71434 74886
" />
<path d="M71809 74886
L71738 74849
L71710 74774
L71795 74099
" />
<path d="M72413 74849
L72334 74886
L72184 74886
L72113 74849
L72085 74774
L72123 74474
L72169 74399
L72249 74361
L72399 74361
L72469 74399
L72498 74474
L72488 74549
L72104 74624
" />
<path d="M72793 74811
L72826 74849
L72783 74886
L72751 74849
L72793 74811
L72783 74886
" />
<path d="M72844 74399
L72877 74436
L72835 74474
L72802 74436
L72844 74399
L72835 74474
" />
<path d="M74133 74886
L73758 74886
L73857 74099
" />
<path d="M74710 74474
L74447 74474
" />
<path d="M74396 74886
L74494 74099
L74869 74099
" />
<path d="M75319 74099
L75469 74099
L75539 74136
L75605 74211
L75624 74361
L75591 74624
L75535 74774
L75450 74849
L75371 74886
L75221 74886
L75150 74849
L75085 74774
L75066 74624
L75099 74361
L75155 74211
L75239 74136
L75319 74099
" />
<path d="M76547 74474
L76810 74474
" />
<path d="M76870 74886
L76495 74886
L76594 74099
L76969 74099
" />
<path d="M77133 74886
L77611 74361
" />
<path d="M77199 74361
L77545 74886
" />
<path d="M77911 74361
L77813 75149
" />
<path d="M77906 74399
L77986 74361
L78136 74361
L78206 74399
L78239 74436
L78267 74511
L78239 74736
L78192 74811
L78150 74849
L78070 74886
L77920 74886
L77850 74849
" />
<path d="M78558 74886
L78623 74361
" />
<path d="M78605 74511
L78651 74436
L78694 74399
L78773 74361
L78848 74361
" />
<path d="M79350 74849
L79270 74886
L79120 74886
L79050 74849
L79022 74774
L79059 74474
L79106 74399
L79186 74361
L79336 74361
L79406 74399
L79434 74474
L79425 74549
L79040 74624
" />
<path d="M79687 74849
L79758 74886
L79908 74886
L79987 74849
L80034 74774
L80039 74736
L80011 74661
L79940 74624
L79828 74624
L79758 74586
L79729 74511
L79734 74474
L79781 74399
L79861 74361
L79973 74361
L80043 74399
" />
<path d="M80325 74849
L80395 74886
L80545 74886
L80625 74849
L80672 74774
L80676 74736
L80648 74661
L80578 74624
L80465 74624
L80395 74586
L80367 74511
L80372 74474
L80418 74399
L80498 74361
L80611 74361
L80681 74399
" />
<path d="M80995 74886
L81061 74361
" />
<path d="M81093 74099
L81051 74136
L81084 74174
L81126 74136
L81093 74099
L81084 74174
" />
<path d="M81482 74886
L81412 74849
L81379 74811
L81351 74736
L81379 74511
L81426 74436
L81468 74399
L81548 74361
L81660 74361
L81731 74399
L81764 74436
L81792 74511
L81764 74736
L81717 74811
L81675 74849
L81595 74886
L81482 74886
" />
<path d="M82148 74361
L82082 74886
" />
<path d="M82139 74436
L82181 74399
L82260 74361
L82373 74361
L82443 74399
L82471 74474
L82420 74886
" />
<path d="M83854 74811
L83812 74849
L83695 74886
L83620 74886
L83512 74849
L83446 74774
L83418 74699
L83399 74549
L83413 74436
L83470 74286
L83516 74211
L83601 74136
L83718 74099
L83793 74099
L83901 74136
L83934 74174
" />
<path d="M84295 74886
L84224 74849
L84191 74811
L84163 74736
L84191 74511
L84238 74436
L84280 74399
L84360 74361
L84473 74361
L84543 74399
L84576 74436
L84604 74511
L84576 74736
L84529 74811
L84487 74849
L84407 74886
L84295 74886
" />
<path d="M84960 74361
L84894 74886
" />
<path d="M84951 74436
L84993 74399
L85073 74361
L85185 74361
L85255 74399
L85283 74474
L85232 74886
" />
<path d="M85560 74361
L85860 74361
" />
<path d="M85705 74099
L85621 74774
L85649 74849
L85719 74886
L85794 74886
" />
<path d="M86057 74886
L86122 74361
" />
<path d="M86104 74511
L86151 74436
L86193 74399
L86272 74361
L86347 74361
" />
<path d="M86657 74886
L86586 74849
L86554 74811
L86525 74736
L86554 74511
L86600 74436
L86643 74399
L86722 74361
L86835 74361
L86905 74399
L86938 74436
L86966 74511
L86938 74736
L86891 74811
L86849 74849
L86769 74886
L86657 74886
" />
<path d="M87369 74886
L87299 74849
L87271 74774
L87355 74099
" />
<path d="M87782 74886
L87711 74849
L87683 74774
L87768 74099
" />
<path d="M88386 74849
L88307 74886
L88157 74886
L88086 74849
L88058 74774
L88096 74474
L88142 74399
L88222 74361
L88372 74361
L88442 74399
L88471 74474
L88461 74549
L88077 74624
" />
<path d="M88756 74886
L88822 74361
" />
<path d="M88803 74511
L88850 74436
L88892 74399
L88972 74361
L89047 74361
" />
<path d="M89844 74886
L89942 74099
L90242 74099
L90313 74136
L90345 74174
L90373 74249
L90359 74361
L90313 74436
L90270 74474
L90191 74511
L89891 74511
" />
<path d="M90936 74849
L90856 74886
L90706 74886
L90636 74849
L90608 74774
L90645 74474
L90692 74399
L90772 74361
L90922 74361
L90992 74399
L91020 74474
L91011 74549
L90627 74624
" />
<path d="M91644 74886
L91742 74099
" />
<path d="M91648 74849
L91569 74886
L91419 74886
L91348 74849
L91316 74811
L91287 74736
L91316 74511
L91362 74436
L91405 74399
L91484 74361
L91634 74361
L91705 74399
" />
<path d="M92356 74886
L92408 74474
L92379 74399
L92309 74361
L92159 74361
L92079 74399
" />
<path d="M92361 74849
L92281 74886
L92094 74886
L92023 74849
L91995 74774
L92004 74699
L92051 74624
L92131 74586
L92319 74586
L92398 74549
" />
<path d="M92843 74886
L92773 74849
L92745 74774
L92829 74099
" />
</g>
<g style="fill:#000000; fill-opacity:0.0; 
stroke:#000000; stroke-width:39.3701; stroke-opacity:1; 
stroke-linecap:round; stroke-linejoin:round;">
</g>
<g style="fill:#000000; fill-opacity:0.0; 
stroke:#000000; stroke-width:59.0551; stroke-opacity:1; 
stroke-linecap:round; stroke-linejoin:round;">
<path d="M70417 73070
L70220 73070
" />
<path d="M70220 73380
L70220 72789
L70501 72789
" />
<path d="M70726 73380
L70726 72986
" />
<path d="M70726 72789
L70698 72817
L70726 72845
L70754 72817
L70726 72789
L70726 72845
" />
<path d="M71091 73380
L71035 73352
L71007 73295
L71007 72789
" />
<path d="M71541 73352
L71485 73380
L71373 73380
L71316 73352
L71288 73295
L71288 73070
L71316 73014
L71373 72986
L71485 72986
L71541 73014
L71570 73070
L71570 73127
L71288 73183
" />
<path d="M71823 73323
L71851 73352
L71823 73380
L71795 73352
L71823 73323
L71823 73380
" />
<path d="M71823 73014
L71851 73042
L71823 73070
L71795 73042
L71823 73014
L71823 73070
" />
<path d="M72835 73380
L72554 73380
L72554 72789
" />
<path d="M73229 73070
L73032 73070
" />
<path d="M73032 73380
L73032 72789
L73313 72789
" />
<path d="M73651 72789
L73763 72789
L73819 72817
L73876 72874
L73904 72986
L73904 73183
L73876 73295
L73819 73352
L73763 73380
L73651 73380
L73594 73352
L73538 73295
L73510 73183
L73510 72986
L73538 72874
L73594 72817
L73651 72789
" />
<path d="M74157 73070
L74354 73070
" />
<path d="M74438 73380
L74157 73380
L74157 72789
L74438 72789
" />
<path d="M74635 73380
L74944 72986
" />
<path d="M74635 72986
L74944 73380
" />
<path d="M75169 72986
L75169 73577
" />
<path d="M75169 73014
L75225 72986
L75338 72986
L75394 73014
L75422 73042
L75450 73099
L75450 73267
L75422 73323
L75394 73352
L75338 73380
L75225 73380
L75169 73352
" />
<path d="M76041 73323
L76013 73352
L75928 73380
L75872 73380
L75788 73352
L75732 73295
L75703 73239
L75675 73127
L75675 73042
L75703 72930
L75732 72874
L75788 72817
L75872 72789
L75928 72789
L76013 72817
L76041 72845
" />
<path d="M76378 73380
L76322 73352
L76294 73323
L76266 73267
L76266 73099
L76294 73042
L76322 73014
L76378 72986
L76463 72986
L76519 73014
L76547 73042
L76575 73099
L76575 73267
L76547 73323
L76519 73352
L76463 73380
L76378 73380
" />
<path d="M76828 72986
L76828 73380
" />
<path d="M76828 73042
L76856 73014
L76913 72986
L76997 72986
L77053 73014
L77081 73070
L77081 73380
" />
<path d="M77278 72986
L77503 72986
" />
<path d="M77363 72789
L77363 73295
L77391 73352
L77447 73380
L77503 73380
" />
<path d="M77700 73380
L77700 72986
" />
<path d="M77700 73099
L77728 73042
L77756 73014
L77813 72986
L77869 72986
" />
<path d="M78150 73380
L78094 73352
L78066 73323
L78037 73267
L78037 73099
L78066 73042
L78094 73014
L78150 72986
L78234 72986
L78291 73014
L78319 73042
L78347 73099
L78347 73267
L78319 73323
L78291 73352
L78234 73380
L78150 73380
" />
<path d="M78684 73380
L78628 73352
L78600 73295
L78600 72789
" />
<path d="M78994 73380
L78937 73352
L78909 73295
L78909 72789
" />
<path d="M79444 73352
L79387 73380
L79275 73380
L79219 73352
L79190 73295
L79190 73070
L79219 73014
L79275 72986
L79387 72986
L79444 73014
L79472 73070
L79472 73127
L79190 73183
" />
<path d="M79725 73380
L79725 72986
" />
<path d="M79725 73099
L79753 73042
L79781 73014
L79837 72986
L79894 72986
" />
<path d="M79950 73436
L80400 73436
" />
<path d="M80512 73352
L80597 73380
L80737 73380
L80793 73352
L80822 73323
L80850 73267
L80850 73211
L80822 73155
L80793 73127
L80737 73099
L80625 73070
L80568 73042
L80540 73014
L80512 72958
L80512 72902
L80540 72845
L80568 72817
L80625 72789
L80765 72789
L80850 72817
" />
<path d="M81103 73380
L81103 72789
L81300 73211
L81496 72789
L81496 73380
" />
<path d="M81693 72789
L82031 72789
" />
<path d="M81862 73380
L81862 72789
" />
<path d="M82228 73323
L82256 73352
L82228 73380
L82199 73352
L82228 73323
L82228 73380
" />
<path d="M82509 73380
L82509 72789
" />
<path d="M82565 73155
L82734 73380
" />
<path d="M82734 72986
L82509 73211
" />
<path d="M82987 73380
L82987 72986
" />
<path d="M82987 72789
L82959 72817
L82987 72845
L83015 72817
L82987 72789
L82987 72845
" />
<path d="M83521 73352
L83465 73380
L83352 73380
L83296 73352
L83268 73323
L83240 73267
L83240 73099
L83268 73042
L83296 73014
L83352 72986
L83465 72986
L83521 73014
" />
<path d="M84027 73380
L84027 73070
L83999 73014
L83943 72986
L83831 72986
L83774 73014
" />
<path d="M84027 73352
L83971 73380
L83831 73380
L83774 73352
L83746 73295
L83746 73239
L83774 73183
L83831 73155
L83971 73155
L84027 73127
" />
<path d="M84562 73380
L84562 72789
" />
<path d="M84562 73352
L84505 73380
L84393 73380
L84337 73352
L84309 73323
L84280 73267
L84280 73099
L84309 73042
L84337 73014
L84393 72986
L84505 72986
L84562 73014
" />
<path d="M84702 73436
L85152 73436
" />
<path d="M85293 72986
L85293 73577
" />
<path d="M85293 73014
L85349 72986
L85462 72986
L85518 73014
L85546 73042
L85574 73099
L85574 73267
L85546 73323
L85518 73352
L85462 73380
L85349 73380
L85293 73352
" />
<path d="M86080 73352
L86024 73380
L85912 73380
L85855 73352
L85827 73323
L85799 73267
L85799 73099
L85827 73042
L85855 73014
L85912 72986
L86024 72986
L86080 73014
" />
<path d="M86333 73380
L86333 72789
" />
<path d="M86333 73014
L86390 72986
L86502 72986
L86558 73014
L86586 73042
L86615 73099
L86615 73267
L86586 73323
L86558 73352
L86502 73380
L86390 73380
L86333 73352
" />
</g>
<g style="fill:#000000; fill-opacity:0.0; 
stroke:#000000; stroke-width:39.3701; stroke-opacity:1; 
stroke-linecap:round; stroke-linejoin:round;">
</g>
<g style="fill:#000000; fill-opacity:0.0; 
stroke:#000000; stroke-width:59.0551; stroke-opacity:1; 
stroke-linecap:round; stroke-linejoin:round;">
<path d="M69685 71459
L112205 71459
" />
</g>
<g style="fill:#000000; fill-opacity:0.0; 
stroke:#000000; stroke-width:39.3701; stroke-opacity:1; 
stroke-linecap:round; stroke-linejoin:round;">
</g>
<g style="fill:#000000; fill-opacity:0.0; 
stroke:#000000; stroke-width:59.0551; stroke-opacity:1; 
stroke-linecap:round; stroke-linejoin:round;">
<path d="M70192 72289
L70276 72317
L70417 72317
L70473 72289
L70501 72260
L70529 72204
L70529 72148
L70501 72092
L70473 72064
L70417 72036
L70304 72007
L70248 71979
L70220 71951
L70192 71895
L70192 71839
L70220 71782
L70248 71754
L70304 71726
L70445 71726
L70529 71754
" />
<path d="M70782 72317
L70782 71726
" />
<path d="M71035 72317
L71035 72007
L71007 71951
L70951 71923
L70867 71923
L70810 71951
L70782 71979
" />
<path d="M71541 72289
L71485 72317
L71373 72317
L71316 72289
L71288 72232
L71288 72007
L71316 71951
L71373 71923
L71485 71923
L71541 71951
L71570 72007
L71570 72064
L71288 72120
" />
<path d="M72048 72289
L71991 72317
L71879 72317
L71823 72289
L71795 72232
L71795 72007
L71823 71951
L71879 71923
L71991 71923
L72048 71951
L72076 72007
L72076 72064
L71795 72120
" />
<path d="M72244 71923
L72469 71923
" />
<path d="M72329 71726
L72329 72232
L72357 72289
L72413 72317
L72469 72317
" />
<path d="M72666 72260
L72694 72289
L72666 72317
L72638 72289
L72666 72260
L72666 72317
" />
<path d="M72666 71951
L72694 71979
L72666 72007
L72638 71979
L72666 71951
L72666 72007
" />
</g>
<g style="fill:#000000; fill-opacity:0.0; 
stroke:#000000; stroke-width:39.3701; stroke-opacity:1; 
stroke-linecap:round; stroke-linejoin:round;">
</g>
<g style="fill:#000000; fill-opacity:0.0; 
stroke:#000000; stroke-width:59.0551; stroke-opacity:1; 
stroke-linecap:round; stroke-linejoin:round;">
<path d="M70220 68773
L70220 68183
L70360 68183
L70445 68211
L70501 68267
L70529 68323
L70557 68436
L70557 68520
L70529 68633
L70501 68689
L70445 68745
L70360 68773
L70220 68773
" />
<path d="M71035 68745
L70979 68773
L70867 68773
L70810 68745
L70782 68689
L70782 68464
L70810 68408
L70867 68380
L70979 68380
L71035 68408
L71063 68464
L71063 68520
L70782 68577
" />
<path d="M71288 68745
L71345 68773
L71457 68773
L71513 68745
L71541 68689
L71541 68661
L71513 68605
L71457 68577
L71373 68577
L71316 68548
L71288 68492
L71288 68464
L71316 68408
L71373 68380
L71457 68380
L71513 68408
" />
<path d="M71795 68773
L71795 68380
" />
<path d="M71795 68183
L71766 68211
L71795 68239
L71823 68211
L71795 68183
L71795 68239
" />
<path d="M72329 68380
L72329 68858
L72301 68914
L72273 68942
L72216 68970
L72132 68970
L72076 68942
" />
<path d="M72329 68745
L72273 68773
L72160 68773
L72104 68745
L72076 68717
L72048 68661
L72048 68492
L72076 68436
L72104 68408
L72160 68380
L72273 68380
L72329 68408
" />
<path d="M72610 68380
L72610 68773
" />
<path d="M72610 68436
L72638 68408
L72694 68380
L72779 68380
L72835 68408
L72863 68464
L72863 68773
" />
<path d="M73594 68773
L73594 68183
" />
<path d="M73594 68408
L73651 68380
L73763 68380
L73819 68408
L73847 68436
L73876 68492
L73876 68661
L73847 68717
L73819 68745
L73763 68773
L73651 68773
L73594 68745
" />
<path d="M74072 68380
L74213 68773
" />
<path d="M74354 68380
L74213 68773
L74157 68914
L74129 68942
L74072 68970
" />
<path d="M75366 68717
L75338 68745
L75253 68773
L75197 68773
L75113 68745
L75057 68689
L75028 68633
L75000 68520
L75000 68436
L75028 68323
L75057 68267
L75113 68211
L75197 68183
L75253 68183
L75338 68211
L75366 68239
" />
<path d="M75619 68773
L75619 68183
" />
<path d="M75872 68773
L75872 68464
L75844 68408
L75788 68380
L75703 68380
L75647 68408
L75619 68436
" />
<path d="M76153 68773
L76153 68380
" />
<path d="M76153 68492
L76181 68436
L76210 68408
L76266 68380
L76322 68380
" />
<path d="M76519 68773
L76519 68380
" />
<path d="M76519 68183
L76491 68211
L76519 68239
L76547 68211
L76519 68183
L76519 68239
" />
<path d="M76772 68745
L76828 68773
L76941 68773
L76997 68745
L77025 68689
L77025 68661
L76997 68605
L76941 68577
L76856 68577
L76800 68548
L76772 68492
L76772 68464
L76800 68408
L76856 68380
L76941 68380
L76997 68408
" />
<path d="M77700 68745
L77784 68773
L77925 68773
L77981 68745
L78009 68717
L78037 68661
L78037 68605
L78009 68548
L77981 68520
L77925 68492
L77813 68464
L77756 68436
L77728 68408
L77700 68352
L77700 68295
L77728 68239
L77756 68211
L77813 68183
L77953 68183
L78037 68211
" />
<path d="M78544 68380
L78544 68773
" />
<path d="M78291 68380
L78291 68689
L78319 68745
L78375 68773
L78459 68773
L78516 68745
L78544 68717
" />
<path d="M78741 68380
L78965 68380
" />
<path d="M78825 68183
L78825 68689
L78853 68745
L78909 68773
L78965 68773
" />
<path d="M79078 68380
L79303 68380
" />
<path d="M79162 68183
L79162 68689
L79190 68745
L79247 68773
L79303 68773
" />
<path d="M79584 68773
L79528 68745
L79500 68717
L79472 68661
L79472 68492
L79500 68436
L79528 68408
L79584 68380
L79669 68380
L79725 68408
L79753 68436
L79781 68492
L79781 68661
L79753 68717
L79725 68745
L79669 68773
L79584 68773
" />
<path d="M80034 68380
L80034 68773
" />
<path d="M80034 68436
L80062 68408
L80118 68380
L80203 68380
L80259 68408
L80287 68464
L80287 68773
" />
</g>
<g style="fill:#000000; fill-opacity:0.0; 
stroke:#000000; stroke-width:39.3701; stroke-opacity:1; 
stroke-linecap:round; stroke-linejoin:round;">
</g>
<g style="fill:#000000; fill-opacity:0.0; 
stroke:#000000; stroke-width:59.0551; stroke-opacity:1; 
stroke-linecap:round; stroke-linejoin:round;">
<path d="M70220 67592
L70220 67002
" />
<path d="M70473 67592
L70473 67283
L70445 67227
L70388 67199
L70304 67199
L70248 67227
L70220 67255
" />
<path d="M70670 67199
L70895 67199
" />
<path d="M70754 67002
L70754 67508
L70782 67564
L70838 67592
L70895 67592
" />
<path d="M71007 67199
L71232 67199
" />
<path d="M71091 67002
L71091 67508
L71120 67564
L71176 67592
L71232 67592
" />
<path d="M71429 67199
L71429 67789
" />
<path d="M71429 67227
L71485 67199
L71598 67199
L71654 67227
L71682 67255
L71710 67311
L71710 67480
L71682 67536
L71654 67564
L71598 67592
L71485 67592
L71429 67564
" />
<path d="M71935 67564
L71991 67592
L72104 67592
L72160 67564
L72188 67508
L72188 67480
L72160 67424
L72104 67395
L72019 67395
L71963 67367
L71935 67311
L71935 67283
L71963 67227
L72019 67199
L72104 67199
L72160 67227
" />
<path d="M72441 67536
L72469 67564
L72441 67592
L72413 67564
L72441 67536
L72441 67592
" />
<path d="M72441 67227
L72469 67255
L72441 67283
L72413 67255
L72441 67227
L72441 67283
" />
<path d="M73144 66974
L72638 67733
" />
<path d="M73763 66974
L73257 67733
" />
<path d="M74213 67199
L74213 67677
L74185 67733
L74157 67761
L74100 67789
L74016 67789
L73960 67761
" />
<path d="M74213 67564
L74157 67592
L74044 67592
L73988 67564
L73960 67536
L73932 67480
L73932 67311
L73960 67255
L73988 67227
L74044 67199
L74157 67199
L74213 67227
" />
<path d="M74494 67592
L74494 67199
" />
<path d="M74494 67002
L74466 67030
L74494 67058
L74522 67030
L74494 67002
L74494 67058
" />
<path d="M74691 67199
L74916 67199
" />
<path d="M74775 67002
L74775 67508
L74804 67564
L74860 67592
L74916 67592
" />
<path d="M75113 67592
L75113 67002
" />
<path d="M75366 67592
L75366 67283
L75338 67227
L75282 67199
L75197 67199
L75141 67227
L75113 67255
" />
<path d="M75900 67199
L75900 67592
" />
<path d="M75647 67199
L75647 67508
L75675 67564
L75732 67592
L75816 67592
L75872 67564
L75900 67536
" />
<path d="M76181 67592
L76181 67002
" />
<path d="M76181 67227
L76238 67199
L76350 67199
L76406 67227
L76435 67255
L76463 67311
L76463 67480
L76435 67536
L76406 67564
L76350 67592
L76238 67592
L76181 67564
" />
<path d="M76716 67536
L76744 67564
L76716 67592
L76688 67564
L76716 67536
L76716 67592
" />
<path d="M77250 67564
L77194 67592
L77081 67592
L77025 67564
L76997 67536
L76969 67480
L76969 67311
L76997 67255
L77025 67227
L77081 67199
L77194 67199
L77250 67227
" />
<path d="M77588 67592
L77531 67564
L77503 67536
L77475 67480
L77475 67311
L77503 67255
L77531 67227
L77588 67199
L77672 67199
L77728 67227
L77756 67255
L77784 67311
L77784 67480
L77756 67536
L77728 67564
L77672 67592
L77588 67592
" />
<path d="M78037 67592
L78037 67199
" />
<path d="M78037 67255
L78066 67227
L78122 67199
L78206 67199
L78262 67227
L78291 67283
L78291 67592
" />
<path d="M78291 67283
L78319 67227
L78375 67199
L78459 67199
L78516 67227
L78544 67283
L78544 67592
" />
<path d="M79247 66974
L78741 67733
" />
<path d="M79697 67564
L79640 67592
L79528 67592
L79472 67564
L79444 67536
L79415 67480
L79415 67311
L79444 67255
L79472 67227
L79528 67199
L79640 67199
L79697 67227
" />
<path d="M79950 67592
L79950 67199
" />
<path d="M79950 67311
L79978 67255
L80006 67227
L80062 67199
L80118 67199
" />
<path d="M80568 67592
L80568 67283
L80540 67227
L80484 67199
L80372 67199
L80315 67227
" />
<path d="M80568 67564
L80512 67592
L80372 67592
L80315 67564
L80287 67508
L80287 67452
L80315 67395
L80372 67367
L80512 67367
L80568 67339
" />
<path d="M81103 67564
L81046 67592
L80934 67592
L80878 67564
L80850 67536
L80822 67480
L80822 67311
L80850 67255
L80878 67227
L80934 67199
L81046 67199
L81103 67227
" />
<path d="M81356 67592
L81356 67002
" />
<path d="M81412 67367
L81581 67592
" />
<path d="M81581 67199
L81356 67424
" />
<path d="M82059 67564
L82003 67592
L81890 67592
L81834 67564
L81806 67508
L81806 67283
L81834 67227
L81890 67199
L82003 67199
L82059 67227
L82087 67283
L82087 67339
L81806 67395
" />
<path d="M82593 67592
L82593 67002
" />
<path d="M82593 67564
L82537 67592
L82424 67592
L82368 67564
L82340 67536
L82312 67480
L82312 67311
L82340 67255
L82368 67227
L82424 67199
L82537 67199
L82593 67227
" />
<path d="M82874 67367
L83324 67367
" />
<path d="M83606 67592
L83606 67199
" />
<path d="M83606 67255
L83634 67227
L83690 67199
L83774 67199
L83831 67227
L83859 67283
L83859 67592
" />
<path d="M83859 67283
L83887 67227
L83943 67199
L84027 67199
L84084 67227
L84112 67283
L84112 67592
" />
<path d="M84646 67592
L84646 67283
L84618 67227
L84562 67199
L84449 67199
L84393 67227
" />
<path d="M84646 67564
L84590 67592
L84449 67592
L84393 67564
L84365 67508
L84365 67452
L84393 67395
L84449 67367
L84590 67367
L84646 67339
" />
<path d="M85180 67564
L85124 67592
L85012 67592
L84955 67564
L84927 67536
L84899 67480
L84899 67311
L84927 67255
L84955 67227
L85012 67199
L85124 67199
L85180 67227
" />
<path d="M85433 67592
L85433 67002
" />
<path d="M85687 67592
L85687 67283
L85658 67227
L85602 67199
L85518 67199
L85462 67227
L85433 67255
" />
<path d="M85968 67592
L85968 67199
" />
<path d="M85968 67002
L85940 67030
L85968 67058
L85996 67030
L85968 67002
L85968 67058
" />
<path d="M86249 67199
L86249 67592
" />
<path d="M86249 67255
L86277 67227
L86333 67199
L86418 67199
L86474 67227
L86502 67283
L86502 67592
" />
<path d="M87008 67564
L86952 67592
L86840 67592
L86783 67564
L86755 67508
L86755 67283
L86783 67227
L86840 67199
L86952 67199
L87008 67227
L87036 67283
L87036 67339
L86755 67395
" />
<path d="M87711 66974
L87205 67733
" />
<path d="M88189 67592
L87908 67592
L87908 67002
" />
<path d="M88583 67283
L88386 67283
" />
<path d="M88386 67592
L88386 67002
L88667 67002
" />
<path d="M89005 67002
L89117 67002
L89174 67030
L89230 67086
L89258 67199
L89258 67395
L89230 67508
L89174 67564
L89117 67592
L89005 67592
L88949 67564
L88892 67508
L88864 67395
L88864 67199
L88892 67086
L88949 67030
L89005 67002
" />
<path d="M89511 67283
L89708 67283
" />
<path d="M89792 67592
L89511 67592
L89511 67002
L89792 67002
" />
<path d="M89989 67592
L90298 67199
" />
<path d="M89989 67199
L90298 67592
" />
<path d="M90523 67199
L90523 67789
" />
<path d="M90523 67227
L90580 67199
L90692 67199
L90748 67227
L90777 67255
L90805 67311
L90805 67480
L90777 67536
L90748 67564
L90692 67592
L90580 67592
L90523 67564
" />
<path d="M91058 67592
L91058 67199
" />
<path d="M91058 67311
L91086 67255
L91114 67227
L91170 67199
L91226 67199
" />
<path d="M91648 67564
L91592 67592
L91480 67592
L91423 67564
L91395 67508
L91395 67283
L91423 67227
L91480 67199
L91592 67199
L91648 67227
L91676 67283
L91676 67339
L91395 67395
" />
<path d="M91901 67564
L91958 67592
L92070 67592
L92126 67564
L92154 67508
L92154 67480
L92126 67424
L92070 67395
L91986 67395
L91930 67367
L91901 67311
L91901 67283
L91930 67227
L91986 67199
L92070 67199
L92126 67227
" />
<path d="M92379 67564
L92436 67592
L92548 67592
L92604 67564
L92633 67508
L92633 67480
L92604 67424
L92548 67395
L92464 67395
L92408 67367
L92379 67311
L92379 67283
L92408 67227
L92464 67199
L92548 67199
L92604 67227
" />
<path d="M92886 67592
L92886 67199
" />
<path d="M92886 67002
L92858 67030
L92886 67058
L92914 67030
L92886 67002
L92886 67058
" />
<path d="M93251 67592
L93195 67564
L93167 67536
L93139 67480
L93139 67311
L93167 67255
L93195 67227
L93251 67199
L93336 67199
L93392 67227
L93420 67255
L93448 67311
L93448 67480
L93420 67536
L93392 67564
L93336 67592
L93251 67592
" />
<path d="M93701 67199
L93701 67592
" />
<path d="M93701 67255
L93729 67227
L93786 67199
L93870 67199
L93926 67227
L93954 67283
L93954 67592
" />
<path d="M94573 67536
L94545 67564
L94460 67592
L94404 67592
L94320 67564
L94264 67508
L94235 67452
L94207 67339
L94207 67255
L94235 67142
L94264 67086
L94320 67030
L94404 67002
L94460 67002
L94545 67030
L94573 67058
" />
<path d="M94910 67592
L94854 67564
L94826 67536
L94798 67480
L94798 67311
L94826 67255
L94854 67227
L94910 67199
L94995 67199
L95051 67227
L95079 67255
L95107 67311
L95107 67480
L95079 67536
L95051 67564
L94995 67592
L94910 67592
" />
<path d="M95360 67199
L95360 67592
" />
<path d="M95360 67255
L95388 67227
L95445 67199
L95529 67199
L95585 67227
L95613 67283
L95613 67592
" />
<path d="M95810 67199
L96035 67199
" />
<path d="M95895 67002
L95895 67508
L95923 67564
L95979 67592
L96035 67592
" />
<path d="M96232 67592
L96232 67199
" />
<path d="M96232 67311
L96260 67255
L96288 67227
L96345 67199
L96401 67199
" />
<path d="M96682 67592
L96626 67564
L96598 67536
L96570 67480
L96570 67311
L96598 67255
L96626 67227
L96682 67199
L96766 67199
L96823 67227
L96851 67255
L96879 67311
L96879 67480
L96851 67536
L96823 67564
L96766 67592
L96682 67592
" />
<path d="M97216 67592
L97160 67564
L97132 67508
L97132 67002
" />
<path d="M97526 67592
L97469 67564
L97441 67508
L97441 67002
" />
<path d="M97976 67564
L97919 67592
L97807 67592
L97751 67564
L97723 67508
L97723 67283
L97751 67227
L97807 67199
L97919 67199
L97976 67227
L98004 67283
L98004 67339
L97723 67395
" />
<path d="M98257 67592
L98257 67199
" />
<path d="M98257 67311
L98285 67255
L98313 67227
L98369 67199
L98426 67199
" />
<path d="M98622 67592
L98622 67002
L98847 67002
L98904 67030
L98932 67058
L98960 67114
L98960 67199
L98932 67255
L98904 67283
L98847 67311
L98622 67311
" />
<path d="M99438 67564
L99382 67592
L99269 67592
L99213 67564
L99185 67508
L99185 67283
L99213 67227
L99269 67199
L99382 67199
L99438 67227
L99466 67283
L99466 67339
L99185 67395
" />
<path d="M99972 67592
L99972 67002
" />
<path d="M99972 67564
L99916 67592
L99804 67592
L99747 67564
L99719 67536
L99691 67480
L99691 67311
L99719 67255
L99747 67227
L99804 67199
L99916 67199
L99972 67227
" />
<path d="M100507 67592
L100507 67283
L100478 67227
L100422 67199
L100310 67199
L100253 67227
" />
<path d="M100507 67564
L100450 67592
L100310 67592
L100253 67564
L100225 67508
L100225 67452
L100253 67395
L100310 67367
L100450 67367
L100507 67339
" />
<path d="M100872 67592
L100816 67564
L100788 67508
L100788 67002
" />
</g>
<g style="fill:#000000; fill-opacity:0.0; 
stroke:#000000; stroke-width:39.3701; stroke-opacity:1; 
stroke-linecap:round; stroke-linejoin:round;">
</g>
<g style="fill:#000000; fill-opacity:0.0; 
stroke:#000000; stroke-width:59.0551; stroke-opacity:1; 
stroke-linecap:round; stroke-linejoin:round;">
<path d="M70220 65821
L70220 66299
L70248 66355
L70276 66383
L70332 66411
L70445 66411
L70501 66383
L70529 66355
L70557 66299
L70557 65821
" />
<path d="M70810 66383
L70867 66411
L70979 66411
L71035 66383
L71063 66327
L71063 66299
L71035 66242
L70979 66214
L70895 66214
L70838 66186
L70810 66130
L70810 66102
L70838 66046
L70895 66018
L70979 66018
L71035 66046
" />
<path d="M71541 66383
L71485 66411
L71373 66411
L71316 66383
L71288 66327
L71288 66102
L71316 66046
L71373 66018
L71485 66018
L71541 66046
L71570 66102
L71570 66158
L71288 66214
" />
<path d="M71795 66383
L71851 66411
L71963 66411
L72019 66383
L72048 66327
L72048 66299
L72019 66242
L71963 66214
L71879 66214
L71823 66186
L71795 66130
L71795 66102
L71823 66046
L71879 66018
L71963 66018
L72019 66046
" />
<path d="M72723 66242
L73004 66242
" />
<path d="M72666 66411
L72863 65821
L73060 66411
" />
<path d="M73172 65821
L73510 65821
" />
<path d="M73341 66411
L73341 65821
" />
<path d="M73707 66411
L73707 65821
L73904 66242
L74100 65821
L74100 66411
" />
<path d="M74382 66102
L74579 66102
" />
<path d="M74663 66411
L74382 66411
L74382 65821
L74663 65821
" />
<path d="M75225 65849
L75169 65821
L75085 65821
L75000 65849
L74944 65905
L74916 65961
L74888 66074
L74888 66158
L74916 66271
L74944 66327
L75000 66383
L75085 66411
L75141 66411
L75225 66383
L75253 66355
L75253 66158
L75141 66158
" />
<path d="M75478 66242
L75760 66242
" />
<path d="M75422 66411
L75619 65821
L75816 66411
" />
<path d="M75956 65821
L76322 65821
L76125 66046
L76210 66046
L76266 66074
L76294 66102
L76322 66158
L76322 66299
L76294 66355
L76266 66383
L76210 66411
L76041 66411
L75985 66383
L75956 66355
" />
<path d="M76547 65877
L76575 65849
L76631 65821
L76772 65821
L76828 65849
L76856 65877
L76885 65933
L76885 65989
L76856 66074
L76519 66411
L76885 66411
" />
<path d="M77222 66074
L77166 66046
L77138 66018
L77109 65961
L77109 65933
L77138 65877
L77166 65849
L77222 65821
L77334 65821
L77391 65849
L77419 65877
L77447 65933
L77447 65961
L77419 66018
L77391 66046
L77334 66074
L77222 66074
L77166 66102
L77138 66130
L77109 66186
L77109 66299
L77138 66355
L77166 66383
L77222 66411
L77334 66411
L77391 66383
L77419 66355
L77447 66299
L77447 66186
L77419 66130
L77391 66102
L77334 66074
" />
<path d="M77700 66411
L77700 65821
L77925 65821
L77981 65849
L78009 65877
L78037 65933
L78037 66018
L78009 66074
L77981 66102
L77925 66130
L77700 66130
" />
<path d="M78741 66411
L78741 65821
L78937 66242
L79134 65821
L79134 66411
" />
<path d="M79753 66355
L79725 66383
L79640 66411
L79584 66411
L79500 66383
L79444 66327
L79415 66271
L79387 66158
L79387 66074
L79415 65961
L79444 65905
L79500 65849
L79584 65821
L79640 65821
L79725 65849
L79753 65877
" />
<path d="M80006 65821
L80006 66299
L80034 66355
L80062 66383
L80118 66411
L80231 66411
L80287 66383
L80315 66355
L80343 66299
L80343 65821
" />
<path d="M80990 66018
L81215 66018
" />
<path d="M81075 65821
L81075 66327
L81103 66383
L81159 66411
L81215 66411
" />
<path d="M81496 66411
L81440 66383
L81412 66355
L81384 66299
L81384 66130
L81412 66074
L81440 66046
L81496 66018
L81581 66018
L81637 66046
L81665 66074
L81693 66130
L81693 66299
L81665 66355
L81637 66383
L81581 66411
L81496 66411
" />
<path d="M82649 66383
L82593 66411
L82481 66411
L82424 66383
L82396 66355
L82368 66299
L82368 66130
L82396 66074
L82424 66046
L82481 66018
L82593 66018
L82649 66046
" />
<path d="M82987 66411
L82931 66383
L82903 66355
L82874 66299
L82874 66130
L82903 66074
L82931 66046
L82987 66018
L83071 66018
L83127 66046
L83156 66074
L83184 66130
L83184 66299
L83156 66355
L83127 66383
L83071 66411
L82987 66411
" />
<path d="M83437 66018
L83437 66411
" />
<path d="M83437 66074
L83465 66046
L83521 66018
L83606 66018
L83662 66046
L83690 66102
L83690 66411
" />
<path d="M83887 66018
L84112 66018
" />
<path d="M83971 65821
L83971 66327
L83999 66383
L84055 66411
L84112 66411
" />
<path d="M84309 66411
L84309 66018
" />
<path d="M84309 66130
L84337 66074
L84365 66046
L84421 66018
L84477 66018
" />
<path d="M84759 66411
L84702 66383
L84674 66355
L84646 66299
L84646 66130
L84674 66074
L84702 66046
L84759 66018
L84843 66018
L84899 66046
L84927 66074
L84955 66130
L84955 66299
L84927 66355
L84899 66383
L84843 66411
L84759 66411
" />
<path d="M85293 66411
L85237 66383
L85208 66327
L85208 65821
" />
<path d="M86221 66411
L86221 65821
" />
<path d="M86221 66383
L86165 66411
L86052 66411
L85996 66383
L85968 66355
L85940 66299
L85940 66130
L85968 66074
L85996 66046
L86052 66018
L86165 66018
L86221 66046
" />
<path d="M86502 66411
L86502 66018
" />
<path d="M86502 65821
L86474 65849
L86502 65877
L86530 65849
L86502 65821
L86502 65877
" />
<path d="M87036 66018
L87036 66496
L87008 66552
L86980 66580
L86924 66608
L86840 66608
L86783 66580
" />
<path d="M87036 66383
L86980 66411
L86868 66411
L86811 66383
L86783 66355
L86755 66299
L86755 66130
L86783 66074
L86811 66046
L86868 66018
L86980 66018
L87036 66046
" />
<path d="M87318 66411
L87318 66018
" />
<path d="M87318 65821
L87289 65849
L87318 65877
L87346 65849
L87318 65821
L87318 65877
" />
<path d="M87514 66018
L87739 66018
" />
<path d="M87599 65821
L87599 66327
L87627 66383
L87683 66411
L87739 66411
" />
<path d="M88189 66411
L88189 66102
L88161 66046
L88105 66018
L87992 66018
L87936 66046
" />
<path d="M88189 66383
L88133 66411
L87992 66411
L87936 66383
L87908 66327
L87908 66271
L87936 66214
L87992 66186
L88133 66186
L88189 66158
" />
<path d="M88555 66411
L88499 66383
L88471 66327
L88471 65821
" />
<path d="M89230 66018
L89230 66608
" />
<path d="M89230 66046
L89286 66018
L89399 66018
L89455 66046
L89483 66074
L89511 66130
L89511 66299
L89483 66355
L89455 66383
L89399 66411
L89286 66411
L89230 66383
" />
<path d="M89849 66411
L89792 66383
L89764 66355
L89736 66299
L89736 66130
L89764 66074
L89792 66046
L89849 66018
L89933 66018
L89989 66046
L90017 66074
L90045 66130
L90045 66299
L90017 66355
L89989 66383
L89933 66411
L89849 66411
" />
<path d="M90214 66018
L90439 66018
" />
<path d="M90298 65821
L90298 66327
L90327 66383
L90383 66411
L90439 66411
" />
<path d="M90861 66383
L90805 66411
L90692 66411
L90636 66383
L90608 66327
L90608 66102
L90636 66046
L90692 66018
L90805 66018
L90861 66046
L90889 66102
L90889 66158
L90608 66214
" />
<path d="M91142 66018
L91142 66411
" />
<path d="M91142 66074
L91170 66046
L91226 66018
L91311 66018
L91367 66046
L91395 66102
L91395 66411
" />
<path d="M91592 66018
L91817 66018
" />
<path d="M91676 65821
L91676 66327
L91705 66383
L91761 66411
L91817 66411
" />
<path d="M92014 66411
L92014 66018
" />
<path d="M92014 65821
L91986 65849
L92014 65877
L92042 65849
L92014 65821
L92014 65877
" />
<path d="M92379 66411
L92323 66383
L92295 66355
L92267 66299
L92267 66130
L92295 66074
L92323 66046
L92379 66018
L92464 66018
L92520 66046
L92548 66074
L92576 66130
L92576 66299
L92548 66355
L92520 66383
L92464 66411
L92379 66411
" />
<path d="M92829 66411
L92829 66018
" />
<path d="M92829 66074
L92858 66046
L92914 66018
L92998 66018
L93054 66046
L93082 66102
L93082 66411
" />
<path d="M93082 66102
L93111 66046
L93167 66018
L93251 66018
L93307 66046
L93336 66102
L93336 66411
" />
<path d="M93842 66383
L93786 66411
L93673 66411
L93617 66383
L93589 66327
L93589 66102
L93617 66046
L93673 66018
L93786 66018
L93842 66046
L93870 66102
L93870 66158
L93589 66214
" />
<path d="M94039 66018
L94264 66018
" />
<path d="M94123 65821
L94123 66327
L94151 66383
L94207 66411
L94264 66411
" />
<path d="M94685 66383
L94629 66411
L94517 66411
L94460 66383
L94432 66327
L94432 66102
L94460 66046
L94517 66018
L94629 66018
L94685 66046
L94714 66102
L94714 66158
L94432 66214
" />
<path d="M94967 66411
L94967 66018
" />
<path d="M94967 66130
L94995 66074
L95023 66046
L95079 66018
L95135 66018
" />
</g>
<g style="fill:#000000; fill-opacity:0.0; 
stroke:#000000; stroke-width:39.3701; stroke-opacity:1; 
stroke-linecap:round; stroke-linejoin:round;">
</g>
<g style="fill:#000000; fill-opacity:0.0; 
stroke:#000000; stroke-width:59.0551; stroke-opacity:1; 
stroke-linecap:round; stroke-linejoin:round;">
<path d="M77559 75396
L77559 76577
" />
</g>
<g style="fill:#000000; fill-opacity:0.0; 
stroke:#000000; stroke-width:39.3701; stroke-opacity:1; 
stroke-linecap:round; stroke-linejoin:round;">
</g>
<g style="fill:#000000; fill-opacity:0.0; 
stroke:#000000; stroke-width:59.0551; stroke-opacity:1; 
stroke-linecap:round; stroke-linejoin:round;">
<path d="M102756 75396
L102756 77955
" />
</g>
<g style="fill:#000000; fill-opacity:0.0; 
stroke:#000000; stroke-width:19.685; stroke-opacity:1; 
stroke-linecap:round; stroke-linejoin:round;">
<path d="M49674 38545
L51525 38545
" />
<path d="M49674 38545
L49674 39254
" />
<path d="M51525 39254
L51525 38545
" />
<path d="M51525 39254
L49674 39254
" />
<path d="M49674 35495
L51525 35495
" />
<path d="M49674 35495
L49674 36204
" />
<path d="M51525 36204
L51525 35495
" />
<path d="M51525 36204
L49674 36204
" />
<path d="M49674 32445
L51525 32445
" />
<path d="M49674 32445
L49674 33154
" />
<path d="M51525 33154
L51525 32445
" />
<path d="M51525 33154
L49674 33154
" />
<path d="M49674 29395
L51525 29395
" />
<path d="M49674 29395
L49674 30104
" />
<path d="M51525 30104
L51525 29395
" />
<path d="M51525 30104
L49674 30104
" />
<path d="M49674 26345
L51525 26345
" />
<path d="M49674 26345
L49674 27054
" />
<path d="M51525 27054
L51525 26345
" />
<path d="M51525 27054
L49674 27054
" />
<path d="M49674 23295
L51525 23295
" />
<path d="M49674 23295
L49674 24004
" />
<path d="M51525 24004
L51525 23295
" />
<path d="M51525 24004
L49674 24004
" />
<path d="M56475 30104
L54624 30104
" />
<path d="M56475 30104
L56475 29395
" />
<path d="M54624 29395
L54624 30104
" />
<path d="M54624 29395
L56475 29395
" />
</g>
<g style="fill:#000000; fill-opacity:0.0; 
stroke:#000000; stroke-width:39.3701; stroke-opacity:1; 
stroke-linecap:round; stroke-linejoin:round;">
<circle cx="58574.3" cy="25752.8" r="1181.1" /> 
<circle cx="58560.5" cy="29664.2" r="793.529" /> 
</g>
<g style="fill:#000000; fill-opacity:0.0; 
stroke:#000000; stroke-width:59.0551; stroke-opacity:1; 
stroke-linecap:round; stroke-linejoin:round;">
<path d="M61400 41950
L64900 41950
" />
<path d="M64900 41946
L64900 37553
" />
<path d="M64900 37550
L61400 37550
" />
</g>
<g style="fill:#000000; fill-opacity:0.0; 
stroke:#000000; stroke-width:39.3701; stroke-opacity:1; 
stroke-linecap:round; stroke-linejoin:round;">
<circle cx="55250" cy="51750" r="2165" /> 
<path d="M47806 43778
L47806 47321
" />
<path d="M53514 43778
L49184 43778
" />
<path d="M49184 43778
L47806 43778
" />
<path d="M49184 47322
L47806 47322
" />
</g>
<g style="fill:#000000; fill-opacity:0.0; 
stroke:#000000; stroke-width:59.0551; stroke-opacity:1; 
stroke-linecap:round; stroke-linejoin:round;">
<path d="M61350 20650
L61350 54250
" />
<path d="M61350 20650
L49350 20650
" />
<path d="M49350 20650
L49350 54250
" />
<path d="M51700 23000
L51700 22990
" />
<path d="M49350 23000
L51700 23000
" />
<path d="M51700 20650
L51720 20650
" />
<path d="M51700 23000
L51700 20650
" />
<path d="M52740 31650
L52740 40950
" />
<path d="M52740 31650
L61340 31650
" />
<path d="M59000 23000
L59000 20650
" />
<path d="M61350 23000
L59000 23000
" />
<path d="M59000 51900
L61350 51900
" />
<path d="M59000 54250
L59000 51900
" />
<path d="M51700 51900
L51700 54250
" />
<path d="M49350 51900
L51700 51900
" />
<path d="M52741 40950
L49340 40950
" />
<path d="M61340 20650
L61340 31650
" />
<path d="M49340 20650
L49340 40950
" />
<path d="M49340 20650
L61340 20650
" />
<path d="M61350 20650
L61350 20850
" />
<path d="M61350 20650
L61350 20850
" />
<path d="M61350 20650
L61350 20850
" />
<path d="M61350 54250
L49350 54250
" />
</g> 
</svg>
