G04 #@! TF.FileFunction,Soldermask,Bot*
%FSLAX46Y46*%
G04 Gerber Fmt 4.6, Leading zero omitted, Abs format (unit mm)*
G04 Created by KiCad (PCBNEW 4.0.7) date 03/11/18 00:16:20*
%MOMM*%
%LPD*%
G01*
G04 APERTURE LIST*
%ADD10C,0.100000*%
%ADD11C,2.200000*%
%ADD12C,4.400000*%
%ADD13R,3.900000X3.900000*%
%ADD14R,2.100000X2.100000*%
%ADD15O,2.100000X2.100000*%
%ADD16O,5.400000X4.400000*%
%ADD17R,1.900000X1.700000*%
%ADD18C,2.400000*%
%ADD19C,1.900000*%
%ADD20R,1.900000X1.650000*%
%ADD21R,1.650000X1.900000*%
%ADD22R,1.700000X1.900000*%
%ADD23R,2.398980X2.398980*%
%ADD24O,3.400000X4.400000*%
%ADD25C,0.254000*%
G04 APERTURE END LIST*
D10*
D11*
X119528600Y-57912000D03*
X117028600Y-57912000D03*
X114528600Y-57912000D03*
D12*
X121428600Y-64912000D03*
X112628600Y-64912000D03*
D13*
X135128000Y-115697000D03*
X129128000Y-115697000D03*
X132128000Y-120397000D03*
D14*
X143129000Y-55499000D03*
D15*
X140589000Y-55499000D03*
X138049000Y-55499000D03*
X135509000Y-55499000D03*
D16*
X145392000Y-108965000D03*
X145265000Y-92965000D03*
X138915000Y-108965000D03*
X138915000Y-92965000D03*
X151915000Y-92965000D03*
X151892000Y-108965000D03*
D17*
X104288600Y-78867000D03*
X106988600Y-78867000D03*
X98098600Y-62992000D03*
X95398600Y-62992000D03*
X98098600Y-70612000D03*
X95398600Y-70612000D03*
X98098600Y-78867000D03*
X95398600Y-78867000D03*
X98098600Y-86487000D03*
X95398600Y-86487000D03*
X98098600Y-94107000D03*
X95398600Y-94107000D03*
X98098600Y-101727000D03*
X95398600Y-101727000D03*
X95398600Y-57912000D03*
X98098600Y-57912000D03*
X95398600Y-66167000D03*
X98098600Y-66167000D03*
X95398600Y-73787000D03*
X98098600Y-73787000D03*
X95398600Y-81407000D03*
X98098600Y-81407000D03*
X95398600Y-89027000D03*
X98098600Y-89027000D03*
X95398600Y-96647000D03*
X98098600Y-96647000D03*
D18*
X120243600Y-73097000D03*
X120243600Y-77597000D03*
X113743600Y-73097000D03*
X113743600Y-77597000D03*
D19*
X133350000Y-66675000D03*
X133350000Y-71555000D03*
D20*
X144061500Y-67246500D03*
X141561500Y-67246500D03*
D21*
X118338600Y-67457000D03*
X118338600Y-69957000D03*
D22*
X116433600Y-67357000D03*
X116433600Y-70057000D03*
X105638600Y-60118000D03*
X105638600Y-62818000D03*
D14*
X95478600Y-54737000D03*
D15*
X98018600Y-54737000D03*
X100558600Y-54737000D03*
X103098600Y-54737000D03*
X105638600Y-54737000D03*
X108178600Y-54737000D03*
X110718600Y-54737000D03*
X113258600Y-54737000D03*
D14*
X127254000Y-60706000D03*
D15*
X129794000Y-60706000D03*
X132334000Y-60706000D03*
X134874000Y-60706000D03*
X137414000Y-60706000D03*
X139954000Y-60706000D03*
X142494000Y-60706000D03*
X145034000Y-60706000D03*
D23*
X134747000Y-110109000D03*
X130937000Y-110109000D03*
X127127000Y-110109000D03*
D24*
X140335000Y-128905000D03*
X140335000Y-133985000D03*
X136334500Y-133985000D03*
X136334500Y-128905000D03*
X144335500Y-128841500D03*
X144335500Y-133985000D03*
D25*
G36*
X153289000Y-119507000D02*
X138557000Y-119507000D01*
X138557000Y-112395000D01*
X153289000Y-112395000D01*
X153289000Y-119507000D01*
X153289000Y-119507000D01*
G37*
X153289000Y-119507000D02*
X138557000Y-119507000D01*
X138557000Y-112395000D01*
X153289000Y-112395000D01*
X153289000Y-119507000D01*
M02*
