M48
;DRILL file {KiCad 4.0.7} date 03/11/18 00:16:22
;FORMAT={-:-/ absolute / metric / decimal}
FMAT,2
METRIC,TZ
T1C0.300
T2C0.400
T3C0.800
T4C1.000
T5C1.100
T6C1.500
T7C2.000
T8C2.000
%
G90
G05
M71
T1
X139.421Y-113.17
X139.421Y-114.57
X139.421Y-115.97
X139.421Y-117.37
X139.421Y-118.77
X140.821Y-113.17
X140.821Y-114.57
X140.821Y-115.97
X140.821Y-117.37
X140.821Y-118.77
X142.215Y-113.17
X142.221Y-114.57
X142.221Y-115.97
X142.221Y-117.37
X142.221Y-118.77
X143.64Y-113.17
X145.04Y-113.17
X146.44Y-113.17
X147.84Y-113.17
X149.24Y-113.17
X150.736Y-113.17
X150.736Y-114.57
X150.736Y-115.97
X150.736Y-117.37
X150.736Y-118.77
X152.136Y-113.17
X152.136Y-114.57
X152.136Y-115.97
X152.136Y-117.37
X152.136Y-118.77
T2
X99.289Y-59.182
X99.289Y-61.722
X99.289Y-66.167
X99.289Y-70.612
X99.289Y-74.422
X99.289Y-78.232
X99.289Y-82.042
X99.289Y-85.852
X99.289Y-89.662
X99.289Y-93.472
X99.289Y-97.282
X99.289Y-101.092
X103.734Y-67.437
X104.369Y-70.612
X105.639Y-58.547
X106.274Y-64.262
X107.544Y-74.422
X108.814Y-58.547
X108.814Y-59.817
X108.814Y-61.087
X109.449Y-78.232
X116.434Y-65.532
X128.27Y-129.286
X129.54Y-69.025
X136.246Y-72.517
X136.601Y-121.336
X138.532Y-76.886
X139.954Y-68.008
X139.954Y-69.596
X140.183Y-77.495
X140.208Y-83.439
X140.97Y-71.247
X142.138Y-75.692
X142.164Y-78.943
X142.291Y-123.647
X143.408Y-72.136
X144.082Y-68.77
X145.606Y-66.611
X145.732Y-68.834
X145.923Y-85.217
X147.066Y-86.36
T3
X133.35Y-66.675
X133.35Y-71.555
T4
X95.479Y-54.737
X98.019Y-54.737
X100.559Y-54.737
X103.099Y-54.737
X105.639Y-54.737
X108.179Y-54.737
X110.719Y-54.737
X113.259Y-54.737
X114.529Y-57.912
X117.029Y-57.912
X119.529Y-57.912
X127.254Y-60.706
X129.794Y-60.706
X132.334Y-60.706
X134.874Y-60.706
X135.509Y-55.499
X137.414Y-60.706
X138.049Y-55.499
X139.954Y-60.706
X140.589Y-55.499
X142.494Y-60.706
X143.129Y-55.499
X145.034Y-60.706
T5
X113.744Y-73.097
X113.744Y-77.597
X120.244Y-73.097
X120.244Y-77.597
T6
X136.334Y-128.905
X136.334Y-133.985
X140.335Y-128.905
X140.335Y-133.985
X144.335Y-128.841
X144.335Y-133.985
T7
X138.915Y-92.965
X138.915Y-108.965
X145.265Y-92.965
X145.392Y-108.965
X151.892Y-108.965
X151.915Y-92.965
T8
X112.629Y-64.912
X121.429Y-64.912
T4
X129.128Y-114.697G85X129.128Y-116.697
G05
X131.128Y-120.397G85X133.128Y-120.397
G05
X135.128Y-114.697G85X135.128Y-116.697
G05
T0
M30
