G04 #@! TF.FileFunction,Soldermask,Top*
%FSLAX46Y46*%
G04 Gerber Fmt 4.6, Leading zero omitted, Abs format (unit mm)*
G04 Created by KiCad (PCBNEW 4.0.7) date 03/24/18 16:20:00*
%MOMM*%
%LPD*%
G01*
G04 APERTURE LIST*
%ADD10C,0.100000*%
%ADD11R,2.000000X0.950000*%
%ADD12R,0.950000X2.000000*%
%ADD13C,2.200000*%
%ADD14C,4.400000*%
%ADD15R,1.900000X1.650000*%
%ADD16R,1.650000X1.900000*%
%ADD17R,1.300000X1.600000*%
%ADD18R,3.900000X3.900000*%
%ADD19R,2.100000X2.100000*%
%ADD20O,2.100000X2.100000*%
%ADD21O,5.400000X4.400000*%
%ADD22R,1.900000X1.700000*%
%ADD23C,2.400000*%
%ADD24R,4.200000X2.400000*%
%ADD25R,1.900000X2.400000*%
%ADD26R,1.900000X1.000000*%
%ADD27C,1.900000*%
%ADD28R,1.950000X1.000000*%
%ADD29O,3.400000X4.400000*%
%ADD30C,0.254000*%
G04 APERTURE END LIST*
D10*
D11*
X138625000Y-66415000D03*
X138625000Y-67215000D03*
X138625000Y-68015000D03*
X138625000Y-68815000D03*
X138625000Y-69615000D03*
X138625000Y-70415000D03*
X138625000Y-71215000D03*
X138625000Y-72015000D03*
D12*
X140075000Y-73465000D03*
X140875000Y-73465000D03*
X141675000Y-73465000D03*
X142475000Y-73465000D03*
X143275000Y-73465000D03*
X144075000Y-73465000D03*
X144875000Y-73465000D03*
X145675000Y-73465000D03*
D11*
X147125000Y-72015000D03*
X147125000Y-71215000D03*
X147125000Y-70415000D03*
X147125000Y-69615000D03*
X147125000Y-68815000D03*
X147125000Y-68015000D03*
X147125000Y-67215000D03*
X147125000Y-66415000D03*
D12*
X145675000Y-64965000D03*
X144875000Y-64965000D03*
X144075000Y-64965000D03*
X143275000Y-64965000D03*
X142475000Y-64965000D03*
X141675000Y-64965000D03*
X140875000Y-64965000D03*
X140075000Y-64965000D03*
D13*
X119528600Y-57912000D03*
X117028600Y-57912000D03*
X114528600Y-57912000D03*
D14*
X121428600Y-64912000D03*
X112628600Y-64912000D03*
D15*
X143809400Y-123647200D03*
X146309400Y-123647200D03*
X128290000Y-127889000D03*
X130790000Y-127889000D03*
D16*
X129540000Y-66655000D03*
X129540000Y-64155000D03*
X129540000Y-71521000D03*
X129540000Y-74021000D03*
D17*
X132460000Y-125222000D03*
X129160000Y-125222000D03*
D18*
X135128000Y-115697000D03*
X129128000Y-115697000D03*
X132128000Y-120397000D03*
D19*
X143129000Y-55499000D03*
D20*
X140589000Y-55499000D03*
X138049000Y-55499000D03*
X135509000Y-55499000D03*
D21*
X145392000Y-108965000D03*
X145265000Y-92965000D03*
X138915000Y-108965000D03*
X138915000Y-92965000D03*
X151915000Y-92965000D03*
X151892000Y-108965000D03*
D22*
X135302000Y-123444000D03*
X138002000Y-123444000D03*
X140719800Y-121335800D03*
X138019800Y-121335800D03*
X110697000Y-77470000D03*
X107997000Y-77470000D03*
X107997000Y-73660000D03*
X110697000Y-73660000D03*
D23*
X120243600Y-73097000D03*
X120243600Y-77597000D03*
X113743600Y-73097000D03*
X113743600Y-77597000D03*
D24*
X146431000Y-115087000D03*
D25*
X146431000Y-121387000D03*
X148731000Y-121387000D03*
X144131000Y-121387000D03*
D26*
X107703600Y-67437000D03*
X107703600Y-66167000D03*
X107703600Y-64897000D03*
X107703600Y-63627000D03*
X107703600Y-62357000D03*
X107703600Y-61087000D03*
X107703600Y-59817000D03*
X107703600Y-58547000D03*
X102303600Y-58547000D03*
X102303600Y-59817000D03*
X102303600Y-61087000D03*
X102303600Y-62357000D03*
X102303600Y-63627000D03*
X102303600Y-64897000D03*
X102303600Y-66167000D03*
X102303600Y-67437000D03*
D27*
X133350000Y-66675000D03*
X133350000Y-71555000D03*
D15*
X101848600Y-69342000D03*
X104348600Y-69342000D03*
D22*
X110697000Y-75565000D03*
X107997000Y-75565000D03*
X95424000Y-60071000D03*
X98124000Y-60071000D03*
X95424000Y-67818000D03*
X98124000Y-67818000D03*
X95424000Y-75565000D03*
X98124000Y-75565000D03*
X95424000Y-83312000D03*
X98124000Y-83312000D03*
X95424000Y-91059000D03*
X98124000Y-91059000D03*
X95424000Y-98806000D03*
X98124000Y-98806000D03*
D19*
X95478600Y-54737000D03*
D20*
X98018600Y-54737000D03*
X100558600Y-54737000D03*
X103098600Y-54737000D03*
X105638600Y-54737000D03*
X108178600Y-54737000D03*
X110718600Y-54737000D03*
X113258600Y-54737000D03*
D19*
X127254000Y-60706000D03*
D20*
X129794000Y-60706000D03*
X132334000Y-60706000D03*
X134874000Y-60706000D03*
X137414000Y-60706000D03*
X139954000Y-60706000D03*
X142494000Y-60706000D03*
X145034000Y-60706000D03*
D28*
X140175000Y-78486000D03*
X140175000Y-79756000D03*
X140175000Y-81026000D03*
X140175000Y-82296000D03*
X145575000Y-82296000D03*
X145575000Y-81026000D03*
X145575000Y-79756000D03*
X145575000Y-78486000D03*
D29*
X140335000Y-128905000D03*
X140335000Y-133985000D03*
X136334500Y-133985000D03*
X136334500Y-128905000D03*
X144335500Y-128841500D03*
X144335500Y-133985000D03*
D30*
G36*
X153238200Y-119507000D02*
X138557000Y-119507000D01*
X138557000Y-112395000D01*
X153238200Y-112395000D01*
X153238200Y-119507000D01*
X153238200Y-119507000D01*
G37*
X153238200Y-119507000D02*
X138557000Y-119507000D01*
X138557000Y-112395000D01*
X153238200Y-112395000D01*
X153238200Y-119507000D01*
M02*
