G04 #@! TF.FileFunction,Legend,Bot*
%FSLAX46Y46*%
G04 Gerber Fmt 4.6, Leading zero omitted, Abs format (unit mm)*
G04 Created by KiCad (PCBNEW 4.0.7) date 03/24/18 16:20:00*
%MOMM*%
%LPD*%
G01*
G04 APERTURE LIST*
%ADD10C,0.100000*%
%ADD11C,0.015000*%
%ADD12C,0.125000*%
%ADD13C,0.250000*%
%ADD14C,0.120000*%
G04 APERTURE END LIST*
D10*
D11*
X144013450Y-53629690D02*
X144013450Y-53129690D01*
X143846784Y-53486833D01*
X143680117Y-53129690D01*
X143680117Y-53629690D01*
X143346783Y-53129690D02*
X143251545Y-53129690D01*
X143203926Y-53153500D01*
X143156307Y-53201119D01*
X143132498Y-53296357D01*
X143132498Y-53463024D01*
X143156307Y-53558262D01*
X143203926Y-53605881D01*
X143251545Y-53629690D01*
X143346783Y-53629690D01*
X143394402Y-53605881D01*
X143442021Y-53558262D01*
X143465831Y-53463024D01*
X143465831Y-53296357D01*
X143442021Y-53201119D01*
X143394402Y-53153500D01*
X143346783Y-53129690D01*
X142942021Y-53605881D02*
X142870592Y-53629690D01*
X142751545Y-53629690D01*
X142703926Y-53605881D01*
X142680116Y-53582071D01*
X142656307Y-53534452D01*
X142656307Y-53486833D01*
X142680116Y-53439214D01*
X142703926Y-53415405D01*
X142751545Y-53391595D01*
X142846783Y-53367786D01*
X142894402Y-53343976D01*
X142918211Y-53320167D01*
X142942021Y-53272548D01*
X142942021Y-53224929D01*
X142918211Y-53177310D01*
X142894402Y-53153500D01*
X142846783Y-53129690D01*
X142727735Y-53129690D01*
X142656307Y-53153500D01*
X142442021Y-53629690D02*
X142442021Y-53129690D01*
X141442022Y-53629690D02*
X141442022Y-53129690D01*
X141275356Y-53486833D01*
X141108689Y-53129690D01*
X141108689Y-53629690D01*
X140870593Y-53629690D02*
X140870593Y-53129690D01*
X140656308Y-53605881D02*
X140584879Y-53629690D01*
X140465832Y-53629690D01*
X140418213Y-53605881D01*
X140394403Y-53582071D01*
X140370594Y-53534452D01*
X140370594Y-53486833D01*
X140394403Y-53439214D01*
X140418213Y-53415405D01*
X140465832Y-53391595D01*
X140561070Y-53367786D01*
X140608689Y-53343976D01*
X140632498Y-53320167D01*
X140656308Y-53272548D01*
X140656308Y-53224929D01*
X140632498Y-53177310D01*
X140608689Y-53153500D01*
X140561070Y-53129690D01*
X140442022Y-53129690D01*
X140370594Y-53153500D01*
X140061070Y-53129690D02*
X139965832Y-53129690D01*
X139918213Y-53153500D01*
X139870594Y-53201119D01*
X139846785Y-53296357D01*
X139846785Y-53463024D01*
X139870594Y-53558262D01*
X139918213Y-53605881D01*
X139965832Y-53629690D01*
X140061070Y-53629690D01*
X140108689Y-53605881D01*
X140156308Y-53558262D01*
X140180118Y-53463024D01*
X140180118Y-53296357D01*
X140156308Y-53201119D01*
X140108689Y-53153500D01*
X140061070Y-53129690D01*
X138513452Y-53605881D02*
X138442023Y-53629690D01*
X138322976Y-53629690D01*
X138275357Y-53605881D01*
X138251547Y-53582071D01*
X138227738Y-53534452D01*
X138227738Y-53486833D01*
X138251547Y-53439214D01*
X138275357Y-53415405D01*
X138322976Y-53391595D01*
X138418214Y-53367786D01*
X138465833Y-53343976D01*
X138489642Y-53320167D01*
X138513452Y-53272548D01*
X138513452Y-53224929D01*
X138489642Y-53177310D01*
X138465833Y-53153500D01*
X138418214Y-53129690D01*
X138299166Y-53129690D01*
X138227738Y-53153500D01*
X137727738Y-53582071D02*
X137751548Y-53605881D01*
X137822976Y-53629690D01*
X137870595Y-53629690D01*
X137942024Y-53605881D01*
X137989643Y-53558262D01*
X138013452Y-53510643D01*
X138037262Y-53415405D01*
X138037262Y-53343976D01*
X138013452Y-53248738D01*
X137989643Y-53201119D01*
X137942024Y-53153500D01*
X137870595Y-53129690D01*
X137822976Y-53129690D01*
X137751548Y-53153500D01*
X137727738Y-53177310D01*
X137513452Y-53629690D02*
X137513452Y-53129690D01*
X137227738Y-53629690D02*
X137442024Y-53343976D01*
X137227738Y-53129690D02*
X137513452Y-53415405D01*
X135584882Y-53629690D02*
X135751549Y-53391595D01*
X135870596Y-53629690D02*
X135870596Y-53129690D01*
X135680120Y-53129690D01*
X135632501Y-53153500D01*
X135608692Y-53177310D01*
X135584882Y-53224929D01*
X135584882Y-53296357D01*
X135608692Y-53343976D01*
X135632501Y-53367786D01*
X135680120Y-53391595D01*
X135870596Y-53391595D01*
X135394406Y-53605881D02*
X135322977Y-53629690D01*
X135203930Y-53629690D01*
X135156311Y-53605881D01*
X135132501Y-53582071D01*
X135108692Y-53534452D01*
X135108692Y-53486833D01*
X135132501Y-53439214D01*
X135156311Y-53415405D01*
X135203930Y-53391595D01*
X135299168Y-53367786D01*
X135346787Y-53343976D01*
X135370596Y-53320167D01*
X135394406Y-53272548D01*
X135394406Y-53224929D01*
X135370596Y-53177310D01*
X135346787Y-53153500D01*
X135299168Y-53129690D01*
X135180120Y-53129690D01*
X135108692Y-53153500D01*
X134965835Y-53129690D02*
X134680121Y-53129690D01*
X134822978Y-53629690D02*
X134822978Y-53129690D01*
X122832857Y-53944190D02*
X123070952Y-53944190D01*
X123070952Y-53444190D01*
X122499524Y-53682286D02*
X122666190Y-53682286D01*
X122666190Y-53944190D02*
X122666190Y-53444190D01*
X122428095Y-53444190D01*
X122142381Y-53444190D02*
X122047143Y-53444190D01*
X121999524Y-53468000D01*
X121951905Y-53515619D01*
X121928096Y-53610857D01*
X121928096Y-53777524D01*
X121951905Y-53872762D01*
X121999524Y-53920381D01*
X122047143Y-53944190D01*
X122142381Y-53944190D01*
X122190000Y-53920381D01*
X122237619Y-53872762D01*
X122261429Y-53777524D01*
X122261429Y-53610857D01*
X122237619Y-53515619D01*
X122190000Y-53468000D01*
X122142381Y-53444190D01*
X121332857Y-53682286D02*
X121166191Y-53682286D01*
X121094762Y-53944190D02*
X121332857Y-53944190D01*
X121332857Y-53444190D01*
X121094762Y-53444190D01*
X120928095Y-53444190D02*
X120594762Y-53944190D01*
X120594762Y-53444190D02*
X120928095Y-53944190D01*
X120404286Y-53944190D02*
X120404286Y-53444190D01*
X120213810Y-53444190D01*
X120166191Y-53468000D01*
X120142382Y-53491810D01*
X120118572Y-53539429D01*
X120118572Y-53610857D01*
X120142382Y-53658476D01*
X120166191Y-53682286D01*
X120213810Y-53706095D01*
X120404286Y-53706095D01*
X119237620Y-53896571D02*
X119261430Y-53920381D01*
X119332858Y-53944190D01*
X119380477Y-53944190D01*
X119451906Y-53920381D01*
X119499525Y-53872762D01*
X119523334Y-53825143D01*
X119547144Y-53729905D01*
X119547144Y-53658476D01*
X119523334Y-53563238D01*
X119499525Y-53515619D01*
X119451906Y-53468000D01*
X119380477Y-53444190D01*
X119332858Y-53444190D01*
X119261430Y-53468000D01*
X119237620Y-53491810D01*
X118951906Y-53944190D02*
X118999525Y-53920381D01*
X119023334Y-53896571D01*
X119047144Y-53848952D01*
X119047144Y-53706095D01*
X119023334Y-53658476D01*
X118999525Y-53634667D01*
X118951906Y-53610857D01*
X118880477Y-53610857D01*
X118832858Y-53634667D01*
X118809049Y-53658476D01*
X118785239Y-53706095D01*
X118785239Y-53848952D01*
X118809049Y-53896571D01*
X118832858Y-53920381D01*
X118880477Y-53944190D01*
X118951906Y-53944190D01*
X118570953Y-53610857D02*
X118570953Y-53944190D01*
X118570953Y-53658476D02*
X118547144Y-53634667D01*
X118499525Y-53610857D01*
X118428096Y-53610857D01*
X118380477Y-53634667D01*
X118356668Y-53682286D01*
X118356668Y-53944190D01*
X118190001Y-53610857D02*
X117999525Y-53610857D01*
X118118572Y-53444190D02*
X118118572Y-53872762D01*
X118094763Y-53920381D01*
X118047144Y-53944190D01*
X117999525Y-53944190D01*
X117832858Y-53944190D02*
X117832858Y-53610857D01*
X117832858Y-53706095D02*
X117809049Y-53658476D01*
X117785239Y-53634667D01*
X117737620Y-53610857D01*
X117690001Y-53610857D01*
X117451906Y-53944190D02*
X117499525Y-53920381D01*
X117523334Y-53896571D01*
X117547144Y-53848952D01*
X117547144Y-53706095D01*
X117523334Y-53658476D01*
X117499525Y-53634667D01*
X117451906Y-53610857D01*
X117380477Y-53610857D01*
X117332858Y-53634667D01*
X117309049Y-53658476D01*
X117285239Y-53706095D01*
X117285239Y-53848952D01*
X117309049Y-53896571D01*
X117332858Y-53920381D01*
X117380477Y-53944190D01*
X117451906Y-53944190D01*
X116999525Y-53944190D02*
X117047144Y-53920381D01*
X117070953Y-53872762D01*
X117070953Y-53444190D01*
X116737620Y-53944190D02*
X116785239Y-53920381D01*
X116809048Y-53872762D01*
X116809048Y-53444190D01*
X116356667Y-53920381D02*
X116404286Y-53944190D01*
X116499524Y-53944190D01*
X116547143Y-53920381D01*
X116570953Y-53872762D01*
X116570953Y-53682286D01*
X116547143Y-53634667D01*
X116499524Y-53610857D01*
X116404286Y-53610857D01*
X116356667Y-53634667D01*
X116332858Y-53682286D01*
X116332858Y-53729905D01*
X116570953Y-53777524D01*
X116118572Y-53944190D02*
X116118572Y-53610857D01*
X116118572Y-53706095D02*
X116094763Y-53658476D01*
X116070953Y-53634667D01*
X116023334Y-53610857D01*
X115975715Y-53610857D01*
X122785238Y-54709190D02*
X122951905Y-54471095D01*
X123070952Y-54709190D02*
X123070952Y-54209190D01*
X122880476Y-54209190D01*
X122832857Y-54233000D01*
X122809048Y-54256810D01*
X122785238Y-54304429D01*
X122785238Y-54375857D01*
X122809048Y-54423476D01*
X122832857Y-54447286D01*
X122880476Y-54471095D01*
X123070952Y-54471095D01*
X122380476Y-54685381D02*
X122428095Y-54709190D01*
X122523333Y-54709190D01*
X122570952Y-54685381D01*
X122594762Y-54637762D01*
X122594762Y-54447286D01*
X122570952Y-54399667D01*
X122523333Y-54375857D01*
X122428095Y-54375857D01*
X122380476Y-54399667D01*
X122356667Y-54447286D01*
X122356667Y-54494905D01*
X122594762Y-54542524D01*
X122190000Y-54375857D02*
X122070953Y-54709190D01*
X121951905Y-54375857D01*
X121809048Y-54209190D02*
X121499525Y-54209190D01*
X121666191Y-54399667D01*
X121594763Y-54399667D01*
X121547144Y-54423476D01*
X121523334Y-54447286D01*
X121499525Y-54494905D01*
X121499525Y-54613952D01*
X121523334Y-54661571D01*
X121547144Y-54685381D01*
X121594763Y-54709190D01*
X121737620Y-54709190D01*
X121785239Y-54685381D01*
X121809048Y-54661571D01*
X120904287Y-54709190D02*
X120904287Y-54209190D01*
X120904287Y-54399667D02*
X120856668Y-54375857D01*
X120761430Y-54375857D01*
X120713811Y-54399667D01*
X120690002Y-54423476D01*
X120666192Y-54471095D01*
X120666192Y-54613952D01*
X120690002Y-54661571D01*
X120713811Y-54685381D01*
X120761430Y-54709190D01*
X120856668Y-54709190D01*
X120904287Y-54685381D01*
X120499525Y-54375857D02*
X120380478Y-54709190D01*
X120261430Y-54375857D02*
X120380478Y-54709190D01*
X120428097Y-54828238D01*
X120451906Y-54852048D01*
X120499525Y-54875857D01*
X119404288Y-54661571D02*
X119428098Y-54685381D01*
X119499526Y-54709190D01*
X119547145Y-54709190D01*
X119618574Y-54685381D01*
X119666193Y-54637762D01*
X119690002Y-54590143D01*
X119713812Y-54494905D01*
X119713812Y-54423476D01*
X119690002Y-54328238D01*
X119666193Y-54280619D01*
X119618574Y-54233000D01*
X119547145Y-54209190D01*
X119499526Y-54209190D01*
X119428098Y-54233000D01*
X119404288Y-54256810D01*
X119190002Y-54709190D02*
X119190002Y-54209190D01*
X118975717Y-54709190D02*
X118975717Y-54447286D01*
X118999526Y-54399667D01*
X119047145Y-54375857D01*
X119118574Y-54375857D01*
X119166193Y-54399667D01*
X119190002Y-54423476D01*
X118737621Y-54709190D02*
X118737621Y-54375857D01*
X118737621Y-54471095D02*
X118713812Y-54423476D01*
X118690002Y-54399667D01*
X118642383Y-54375857D01*
X118594764Y-54375857D01*
X118428097Y-54709190D02*
X118428097Y-54375857D01*
X118428097Y-54209190D02*
X118451907Y-54233000D01*
X118428097Y-54256810D01*
X118404288Y-54233000D01*
X118428097Y-54209190D01*
X118428097Y-54256810D01*
X118213812Y-54685381D02*
X118166193Y-54709190D01*
X118070955Y-54709190D01*
X118023336Y-54685381D01*
X117999526Y-54637762D01*
X117999526Y-54613952D01*
X118023336Y-54566333D01*
X118070955Y-54542524D01*
X118142383Y-54542524D01*
X118190002Y-54518714D01*
X118213812Y-54471095D01*
X118213812Y-54447286D01*
X118190002Y-54399667D01*
X118142383Y-54375857D01*
X118070955Y-54375857D01*
X118023336Y-54399667D01*
X117428098Y-54685381D02*
X117356669Y-54709190D01*
X117237622Y-54709190D01*
X117190003Y-54685381D01*
X117166193Y-54661571D01*
X117142384Y-54613952D01*
X117142384Y-54566333D01*
X117166193Y-54518714D01*
X117190003Y-54494905D01*
X117237622Y-54471095D01*
X117332860Y-54447286D01*
X117380479Y-54423476D01*
X117404288Y-54399667D01*
X117428098Y-54352048D01*
X117428098Y-54304429D01*
X117404288Y-54256810D01*
X117380479Y-54233000D01*
X117332860Y-54209190D01*
X117213812Y-54209190D01*
X117142384Y-54233000D01*
X116713813Y-54375857D02*
X116713813Y-54709190D01*
X116928098Y-54375857D02*
X116928098Y-54637762D01*
X116904289Y-54685381D01*
X116856670Y-54709190D01*
X116785241Y-54709190D01*
X116737622Y-54685381D01*
X116713813Y-54661571D01*
X116547146Y-54375857D02*
X116356670Y-54375857D01*
X116475717Y-54209190D02*
X116475717Y-54637762D01*
X116451908Y-54685381D01*
X116404289Y-54709190D01*
X116356670Y-54709190D01*
X116261432Y-54375857D02*
X116070956Y-54375857D01*
X116190003Y-54209190D02*
X116190003Y-54637762D01*
X116166194Y-54685381D01*
X116118575Y-54709190D01*
X116070956Y-54709190D01*
X115832861Y-54709190D02*
X115880480Y-54685381D01*
X115904289Y-54661571D01*
X115928099Y-54613952D01*
X115928099Y-54471095D01*
X115904289Y-54423476D01*
X115880480Y-54399667D01*
X115832861Y-54375857D01*
X115761432Y-54375857D01*
X115713813Y-54399667D01*
X115690004Y-54423476D01*
X115666194Y-54471095D01*
X115666194Y-54613952D01*
X115690004Y-54661571D01*
X115713813Y-54685381D01*
X115761432Y-54709190D01*
X115832861Y-54709190D01*
X115451908Y-54375857D02*
X115451908Y-54709190D01*
X115451908Y-54423476D02*
X115428099Y-54399667D01*
X115380480Y-54375857D01*
X115309051Y-54375857D01*
X115261432Y-54399667D01*
X115237623Y-54447286D01*
X115237623Y-54709190D01*
X122809048Y-55474190D02*
X123094762Y-55474190D01*
X122951905Y-55474190D02*
X122951905Y-54974190D01*
X122999524Y-55045619D01*
X123047143Y-55093238D01*
X123094762Y-55117048D01*
X122618572Y-55021810D02*
X122594762Y-54998000D01*
X122547143Y-54974190D01*
X122428096Y-54974190D01*
X122380477Y-54998000D01*
X122356667Y-55021810D01*
X122332858Y-55069429D01*
X122332858Y-55117048D01*
X122356667Y-55188476D01*
X122642381Y-55474190D01*
X122332858Y-55474190D01*
X122142382Y-55021810D02*
X122118572Y-54998000D01*
X122070953Y-54974190D01*
X121951906Y-54974190D01*
X121904287Y-54998000D01*
X121880477Y-55021810D01*
X121856668Y-55069429D01*
X121856668Y-55117048D01*
X121880477Y-55188476D01*
X122166191Y-55474190D01*
X121856668Y-55474190D01*
X121547144Y-54974190D02*
X121499525Y-54974190D01*
X121451906Y-54998000D01*
X121428097Y-55021810D01*
X121404287Y-55069429D01*
X121380478Y-55164667D01*
X121380478Y-55283714D01*
X121404287Y-55378952D01*
X121428097Y-55426571D01*
X121451906Y-55450381D01*
X121499525Y-55474190D01*
X121547144Y-55474190D01*
X121594763Y-55450381D01*
X121618573Y-55426571D01*
X121642382Y-55378952D01*
X121666192Y-55283714D01*
X121666192Y-55164667D01*
X121642382Y-55069429D01*
X121618573Y-55021810D01*
X121594763Y-54998000D01*
X121547144Y-54974190D01*
X120904288Y-55474190D02*
X121190002Y-55474190D01*
X121047145Y-55474190D02*
X121047145Y-54974190D01*
X121094764Y-55045619D01*
X121142383Y-55093238D01*
X121190002Y-55117048D01*
X120618574Y-55188476D02*
X120666193Y-55164667D01*
X120690002Y-55140857D01*
X120713812Y-55093238D01*
X120713812Y-55069429D01*
X120690002Y-55021810D01*
X120666193Y-54998000D01*
X120618574Y-54974190D01*
X120523336Y-54974190D01*
X120475717Y-54998000D01*
X120451907Y-55021810D01*
X120428098Y-55069429D01*
X120428098Y-55093238D01*
X120451907Y-55140857D01*
X120475717Y-55164667D01*
X120523336Y-55188476D01*
X120618574Y-55188476D01*
X120666193Y-55212286D01*
X120690002Y-55236095D01*
X120713812Y-55283714D01*
X120713812Y-55378952D01*
X120690002Y-55426571D01*
X120666193Y-55450381D01*
X120618574Y-55474190D01*
X120523336Y-55474190D01*
X120475717Y-55450381D01*
X120451907Y-55426571D01*
X120428098Y-55378952D01*
X120428098Y-55283714D01*
X120451907Y-55236095D01*
X120475717Y-55212286D01*
X120523336Y-55188476D01*
D12*
X130274190Y-82737194D02*
X130036095Y-82570527D01*
X130274190Y-82451480D02*
X129774190Y-82451480D01*
X129774190Y-82641956D01*
X129798000Y-82689575D01*
X129821810Y-82713384D01*
X129869429Y-82737194D01*
X129940857Y-82737194D01*
X129988476Y-82713384D01*
X130012286Y-82689575D01*
X130036095Y-82641956D01*
X130036095Y-82451480D01*
X130250381Y-83141956D02*
X130274190Y-83094337D01*
X130274190Y-82999099D01*
X130250381Y-82951480D01*
X130202762Y-82927670D01*
X130012286Y-82927670D01*
X129964667Y-82951480D01*
X129940857Y-82999099D01*
X129940857Y-83094337D01*
X129964667Y-83141956D01*
X130012286Y-83165765D01*
X130059905Y-83165765D01*
X130107524Y-82927670D01*
X129940857Y-83332432D02*
X130274190Y-83451479D01*
X129940857Y-83570527D01*
X129774190Y-83713384D02*
X129774190Y-84022907D01*
X129964667Y-83856241D01*
X129964667Y-83927669D01*
X129988476Y-83975288D01*
X130012286Y-83999098D01*
X130059905Y-84022907D01*
X130178952Y-84022907D01*
X130226571Y-83999098D01*
X130250381Y-83975288D01*
X130274190Y-83927669D01*
X130274190Y-83784812D01*
X130250381Y-83737193D01*
X130226571Y-83713384D01*
X130012286Y-84784811D02*
X130036095Y-84856240D01*
X130059905Y-84880049D01*
X130107524Y-84903859D01*
X130178952Y-84903859D01*
X130226571Y-84880049D01*
X130250381Y-84856240D01*
X130274190Y-84808621D01*
X130274190Y-84618145D01*
X129774190Y-84618145D01*
X129774190Y-84784811D01*
X129798000Y-84832430D01*
X129821810Y-84856240D01*
X129869429Y-84880049D01*
X129917048Y-84880049D01*
X129964667Y-84856240D01*
X129988476Y-84832430D01*
X130012286Y-84784811D01*
X130012286Y-84618145D01*
X129940857Y-85070526D02*
X130274190Y-85189573D01*
X129940857Y-85308621D02*
X130274190Y-85189573D01*
X130393238Y-85141954D01*
X130417048Y-85118145D01*
X130440857Y-85070526D01*
X130226571Y-86165763D02*
X130250381Y-86141953D01*
X130274190Y-86070525D01*
X130274190Y-86022906D01*
X130250381Y-85951477D01*
X130202762Y-85903858D01*
X130155143Y-85880049D01*
X130059905Y-85856239D01*
X129988476Y-85856239D01*
X129893238Y-85880049D01*
X129845619Y-85903858D01*
X129798000Y-85951477D01*
X129774190Y-86022906D01*
X129774190Y-86070525D01*
X129798000Y-86141953D01*
X129821810Y-86165763D01*
X130274190Y-86380049D02*
X129774190Y-86380049D01*
X130274190Y-86594334D02*
X130012286Y-86594334D01*
X129964667Y-86570525D01*
X129940857Y-86522906D01*
X129940857Y-86451477D01*
X129964667Y-86403858D01*
X129988476Y-86380049D01*
X130274190Y-86832430D02*
X129940857Y-86832430D01*
X130036095Y-86832430D02*
X129988476Y-86856239D01*
X129964667Y-86880049D01*
X129940857Y-86927668D01*
X129940857Y-86975287D01*
X130274190Y-87141954D02*
X129940857Y-87141954D01*
X129774190Y-87141954D02*
X129798000Y-87118144D01*
X129821810Y-87141954D01*
X129798000Y-87165763D01*
X129774190Y-87141954D01*
X129821810Y-87141954D01*
X130250381Y-87356239D02*
X130274190Y-87403858D01*
X130274190Y-87499096D01*
X130250381Y-87546715D01*
X130202762Y-87570525D01*
X130178952Y-87570525D01*
X130131333Y-87546715D01*
X130107524Y-87499096D01*
X130107524Y-87427668D01*
X130083714Y-87380049D01*
X130036095Y-87356239D01*
X130012286Y-87356239D01*
X129964667Y-87380049D01*
X129940857Y-87427668D01*
X129940857Y-87499096D01*
X129964667Y-87546715D01*
X130250381Y-88141953D02*
X130274190Y-88213382D01*
X130274190Y-88332429D01*
X130250381Y-88380048D01*
X130226571Y-88403858D01*
X130178952Y-88427667D01*
X130131333Y-88427667D01*
X130083714Y-88403858D01*
X130059905Y-88380048D01*
X130036095Y-88332429D01*
X130012286Y-88237191D01*
X129988476Y-88189572D01*
X129964667Y-88165763D01*
X129917048Y-88141953D01*
X129869429Y-88141953D01*
X129821810Y-88165763D01*
X129798000Y-88189572D01*
X129774190Y-88237191D01*
X129774190Y-88356239D01*
X129798000Y-88427667D01*
X129940857Y-88856238D02*
X130274190Y-88856238D01*
X129940857Y-88641953D02*
X130202762Y-88641953D01*
X130250381Y-88665762D01*
X130274190Y-88713381D01*
X130274190Y-88784810D01*
X130250381Y-88832429D01*
X130226571Y-88856238D01*
X129940857Y-89022905D02*
X129940857Y-89213381D01*
X129774190Y-89094334D02*
X130202762Y-89094334D01*
X130250381Y-89118143D01*
X130274190Y-89165762D01*
X130274190Y-89213381D01*
X129940857Y-89308619D02*
X129940857Y-89499095D01*
X129774190Y-89380048D02*
X130202762Y-89380048D01*
X130250381Y-89403857D01*
X130274190Y-89451476D01*
X130274190Y-89499095D01*
X130274190Y-89737190D02*
X130250381Y-89689571D01*
X130226571Y-89665762D01*
X130178952Y-89641952D01*
X130036095Y-89641952D01*
X129988476Y-89665762D01*
X129964667Y-89689571D01*
X129940857Y-89737190D01*
X129940857Y-89808619D01*
X129964667Y-89856238D01*
X129988476Y-89880047D01*
X130036095Y-89903857D01*
X130178952Y-89903857D01*
X130226571Y-89880047D01*
X130250381Y-89856238D01*
X130274190Y-89808619D01*
X130274190Y-89737190D01*
X129940857Y-90118143D02*
X130274190Y-90118143D01*
X129988476Y-90118143D02*
X129964667Y-90141952D01*
X129940857Y-90189571D01*
X129940857Y-90261000D01*
X129964667Y-90308619D01*
X130012286Y-90332428D01*
X130274190Y-90332428D01*
X130274190Y-91213380D02*
X130274190Y-90927666D01*
X130274190Y-91070523D02*
X129774190Y-91070523D01*
X129845619Y-91022904D01*
X129893238Y-90975285D01*
X129917048Y-90927666D01*
X129821810Y-91403856D02*
X129798000Y-91427666D01*
X129774190Y-91475285D01*
X129774190Y-91594332D01*
X129798000Y-91641951D01*
X129821810Y-91665761D01*
X129869429Y-91689570D01*
X129917048Y-91689570D01*
X129988476Y-91665761D01*
X130274190Y-91380047D01*
X130274190Y-91689570D01*
X129821810Y-91880046D02*
X129798000Y-91903856D01*
X129774190Y-91951475D01*
X129774190Y-92070522D01*
X129798000Y-92118141D01*
X129821810Y-92141951D01*
X129869429Y-92165760D01*
X129917048Y-92165760D01*
X129988476Y-92141951D01*
X130274190Y-91856237D01*
X130274190Y-92165760D01*
X129774190Y-92475284D02*
X129774190Y-92522903D01*
X129798000Y-92570522D01*
X129821810Y-92594331D01*
X129869429Y-92618141D01*
X129964667Y-92641950D01*
X130083714Y-92641950D01*
X130178952Y-92618141D01*
X130226571Y-92594331D01*
X130250381Y-92570522D01*
X130274190Y-92522903D01*
X130274190Y-92475284D01*
X130250381Y-92427665D01*
X130226571Y-92403855D01*
X130178952Y-92380046D01*
X130083714Y-92356236D01*
X129964667Y-92356236D01*
X129869429Y-92380046D01*
X129821810Y-92403855D01*
X129798000Y-92427665D01*
X129774190Y-92475284D01*
X130274190Y-93118140D02*
X130274190Y-92832426D01*
X130274190Y-92975283D02*
X129774190Y-92975283D01*
X129845619Y-92927664D01*
X129893238Y-92880045D01*
X129917048Y-92832426D01*
X129988476Y-93403854D02*
X129964667Y-93356235D01*
X129940857Y-93332426D01*
X129893238Y-93308616D01*
X129869429Y-93308616D01*
X129821810Y-93332426D01*
X129798000Y-93356235D01*
X129774190Y-93403854D01*
X129774190Y-93499092D01*
X129798000Y-93546711D01*
X129821810Y-93570521D01*
X129869429Y-93594330D01*
X129893238Y-93594330D01*
X129940857Y-93570521D01*
X129964667Y-93546711D01*
X129988476Y-93499092D01*
X129988476Y-93403854D01*
X130012286Y-93356235D01*
X130036095Y-93332426D01*
X130083714Y-93308616D01*
X130178952Y-93308616D01*
X130226571Y-93332426D01*
X130250381Y-93356235D01*
X130274190Y-93403854D01*
X130274190Y-93499092D01*
X130250381Y-93546711D01*
X130226571Y-93570521D01*
X130178952Y-93594330D01*
X130083714Y-93594330D01*
X130036095Y-93570521D01*
X130012286Y-93546711D01*
X129988476Y-93499092D01*
D13*
X128976381Y-83082951D02*
X128976381Y-82606760D01*
X127976381Y-82606760D01*
X128452571Y-83749618D02*
X128452571Y-83416284D01*
X128976381Y-83416284D02*
X127976381Y-83416284D01*
X127976381Y-83892475D01*
X127976381Y-84463903D02*
X127976381Y-84654380D01*
X128024000Y-84749618D01*
X128119238Y-84844856D01*
X128309714Y-84892475D01*
X128643048Y-84892475D01*
X128833524Y-84844856D01*
X128928762Y-84749618D01*
X128976381Y-84654380D01*
X128976381Y-84463903D01*
X128928762Y-84368665D01*
X128833524Y-84273427D01*
X128643048Y-84225808D01*
X128309714Y-84225808D01*
X128119238Y-84273427D01*
X128024000Y-84368665D01*
X127976381Y-84463903D01*
X128452571Y-86082951D02*
X128452571Y-86416285D01*
X128976381Y-86559142D02*
X128976381Y-86082951D01*
X127976381Y-86082951D01*
X127976381Y-86559142D01*
X128976381Y-86892475D02*
X128309714Y-87416285D01*
X128309714Y-86892475D02*
X128976381Y-87416285D01*
X128309714Y-87797237D02*
X129309714Y-87797237D01*
X128357333Y-87797237D02*
X128309714Y-87892475D01*
X128309714Y-88082952D01*
X128357333Y-88178190D01*
X128404952Y-88225809D01*
X128500190Y-88273428D01*
X128785905Y-88273428D01*
X128881143Y-88225809D01*
X128928762Y-88178190D01*
X128976381Y-88082952D01*
X128976381Y-87892475D01*
X128928762Y-87797237D01*
X128976381Y-88701999D02*
X128309714Y-88701999D01*
X128500190Y-88701999D02*
X128404952Y-88749618D01*
X128357333Y-88797237D01*
X128309714Y-88892475D01*
X128309714Y-88987714D01*
X128928762Y-89702000D02*
X128976381Y-89606762D01*
X128976381Y-89416285D01*
X128928762Y-89321047D01*
X128833524Y-89273428D01*
X128452571Y-89273428D01*
X128357333Y-89321047D01*
X128309714Y-89416285D01*
X128309714Y-89606762D01*
X128357333Y-89702000D01*
X128452571Y-89749619D01*
X128547810Y-89749619D01*
X128643048Y-89273428D01*
X128928762Y-90130571D02*
X128976381Y-90225809D01*
X128976381Y-90416285D01*
X128928762Y-90511524D01*
X128833524Y-90559143D01*
X128785905Y-90559143D01*
X128690667Y-90511524D01*
X128643048Y-90416285D01*
X128643048Y-90273428D01*
X128595429Y-90178190D01*
X128500190Y-90130571D01*
X128452571Y-90130571D01*
X128357333Y-90178190D01*
X128309714Y-90273428D01*
X128309714Y-90416285D01*
X128357333Y-90511524D01*
X128928762Y-90940095D02*
X128976381Y-91035333D01*
X128976381Y-91225809D01*
X128928762Y-91321048D01*
X128833524Y-91368667D01*
X128785905Y-91368667D01*
X128690667Y-91321048D01*
X128643048Y-91225809D01*
X128643048Y-91082952D01*
X128595429Y-90987714D01*
X128500190Y-90940095D01*
X128452571Y-90940095D01*
X128357333Y-90987714D01*
X128309714Y-91082952D01*
X128309714Y-91225809D01*
X128357333Y-91321048D01*
X128976381Y-91797238D02*
X128309714Y-91797238D01*
X127976381Y-91797238D02*
X128024000Y-91749619D01*
X128071619Y-91797238D01*
X128024000Y-91844857D01*
X127976381Y-91797238D01*
X128071619Y-91797238D01*
X128976381Y-92416285D02*
X128928762Y-92321047D01*
X128881143Y-92273428D01*
X128785905Y-92225809D01*
X128500190Y-92225809D01*
X128404952Y-92273428D01*
X128357333Y-92321047D01*
X128309714Y-92416285D01*
X128309714Y-92559143D01*
X128357333Y-92654381D01*
X128404952Y-92702000D01*
X128500190Y-92749619D01*
X128785905Y-92749619D01*
X128881143Y-92702000D01*
X128928762Y-92654381D01*
X128976381Y-92559143D01*
X128976381Y-92416285D01*
X128309714Y-93178190D02*
X128976381Y-93178190D01*
X128404952Y-93178190D02*
X128357333Y-93225809D01*
X128309714Y-93321047D01*
X128309714Y-93463905D01*
X128357333Y-93559143D01*
X128452571Y-93606762D01*
X128976381Y-93606762D01*
X128881143Y-95416286D02*
X128928762Y-95368667D01*
X128976381Y-95225810D01*
X128976381Y-95130572D01*
X128928762Y-94987714D01*
X128833524Y-94892476D01*
X128738286Y-94844857D01*
X128547810Y-94797238D01*
X128404952Y-94797238D01*
X128214476Y-94844857D01*
X128119238Y-94892476D01*
X128024000Y-94987714D01*
X127976381Y-95130572D01*
X127976381Y-95225810D01*
X128024000Y-95368667D01*
X128071619Y-95416286D01*
X128976381Y-95987714D02*
X128928762Y-95892476D01*
X128881143Y-95844857D01*
X128785905Y-95797238D01*
X128500190Y-95797238D01*
X128404952Y-95844857D01*
X128357333Y-95892476D01*
X128309714Y-95987714D01*
X128309714Y-96130572D01*
X128357333Y-96225810D01*
X128404952Y-96273429D01*
X128500190Y-96321048D01*
X128785905Y-96321048D01*
X128881143Y-96273429D01*
X128928762Y-96225810D01*
X128976381Y-96130572D01*
X128976381Y-95987714D01*
X128309714Y-96749619D02*
X128976381Y-96749619D01*
X128404952Y-96749619D02*
X128357333Y-96797238D01*
X128309714Y-96892476D01*
X128309714Y-97035334D01*
X128357333Y-97130572D01*
X128452571Y-97178191D01*
X128976381Y-97178191D01*
X128309714Y-97511524D02*
X128309714Y-97892476D01*
X127976381Y-97654381D02*
X128833524Y-97654381D01*
X128928762Y-97702000D01*
X128976381Y-97797238D01*
X128976381Y-97892476D01*
X128976381Y-98225810D02*
X128309714Y-98225810D01*
X128500190Y-98225810D02*
X128404952Y-98273429D01*
X128357333Y-98321048D01*
X128309714Y-98416286D01*
X128309714Y-98511525D01*
X128976381Y-98987715D02*
X128928762Y-98892477D01*
X128881143Y-98844858D01*
X128785905Y-98797239D01*
X128500190Y-98797239D01*
X128404952Y-98844858D01*
X128357333Y-98892477D01*
X128309714Y-98987715D01*
X128309714Y-99130573D01*
X128357333Y-99225811D01*
X128404952Y-99273430D01*
X128500190Y-99321049D01*
X128785905Y-99321049D01*
X128881143Y-99273430D01*
X128928762Y-99225811D01*
X128976381Y-99130573D01*
X128976381Y-98987715D01*
X128976381Y-99892477D02*
X128928762Y-99797239D01*
X128833524Y-99749620D01*
X127976381Y-99749620D01*
X128976381Y-100416287D02*
X128928762Y-100321049D01*
X128833524Y-100273430D01*
X127976381Y-100273430D01*
X128928762Y-101178193D02*
X128976381Y-101082955D01*
X128976381Y-100892478D01*
X128928762Y-100797240D01*
X128833524Y-100749621D01*
X128452571Y-100749621D01*
X128357333Y-100797240D01*
X128309714Y-100892478D01*
X128309714Y-101082955D01*
X128357333Y-101178193D01*
X128452571Y-101225812D01*
X128547810Y-101225812D01*
X128643048Y-100749621D01*
X128976381Y-101654383D02*
X128309714Y-101654383D01*
X128500190Y-101654383D02*
X128404952Y-101702002D01*
X128357333Y-101749621D01*
X128309714Y-101844859D01*
X128309714Y-101940098D01*
D14*
X96148600Y-63872000D02*
X97348600Y-63872000D01*
X97348600Y-62112000D02*
X96148600Y-62112000D01*
X96174000Y-71746000D02*
X97374000Y-71746000D01*
X97374000Y-69986000D02*
X96174000Y-69986000D01*
X96148600Y-79747000D02*
X97348600Y-79747000D01*
X97348600Y-77987000D02*
X96148600Y-77987000D01*
X96148600Y-87367000D02*
X97348600Y-87367000D01*
X97348600Y-85607000D02*
X96148600Y-85607000D01*
X96148600Y-94987000D02*
X97348600Y-94987000D01*
X97348600Y-93227000D02*
X96148600Y-93227000D01*
X96148600Y-102607000D02*
X97348600Y-102607000D01*
X97348600Y-100847000D02*
X96148600Y-100847000D01*
X142311500Y-66396500D02*
X143311500Y-66396500D01*
X143311500Y-68096500D02*
X142311500Y-68096500D01*
X106518600Y-62068000D02*
X106518600Y-60868000D01*
X104758600Y-60868000D02*
X104758600Y-62068000D01*
X117006000Y-69080000D02*
X117006000Y-68080000D01*
X118706000Y-68080000D02*
X118706000Y-69080000D01*
X117085000Y-69053000D02*
X117085000Y-67853000D01*
X115325000Y-67853000D02*
X115325000Y-69053000D01*
D11*
X98200980Y-61948190D02*
X98367647Y-61710095D01*
X98486694Y-61948190D02*
X98486694Y-61448190D01*
X98296218Y-61448190D01*
X98248599Y-61472000D01*
X98224790Y-61495810D01*
X98200980Y-61543429D01*
X98200980Y-61614857D01*
X98224790Y-61662476D01*
X98248599Y-61686286D01*
X98296218Y-61710095D01*
X98486694Y-61710095D01*
X98105742Y-61995810D02*
X97724790Y-61995810D01*
X97653361Y-61448190D02*
X97534314Y-61948190D01*
X97439076Y-61591048D01*
X97343838Y-61948190D01*
X97224790Y-61448190D01*
X96796218Y-61948190D02*
X97034313Y-61948190D01*
X97034313Y-61448190D01*
X96629551Y-61686286D02*
X96462885Y-61686286D01*
X96391456Y-61948190D02*
X96629551Y-61948190D01*
X96629551Y-61448190D01*
X96391456Y-61448190D01*
X96177170Y-61948190D02*
X96177170Y-61448190D01*
X96058123Y-61448190D01*
X95986694Y-61472000D01*
X95939075Y-61519619D01*
X95915266Y-61567238D01*
X95891456Y-61662476D01*
X95891456Y-61733905D01*
X95915266Y-61829143D01*
X95939075Y-61876762D01*
X95986694Y-61924381D01*
X96058123Y-61948190D01*
X96177170Y-61948190D01*
X95700980Y-61805333D02*
X95462885Y-61805333D01*
X95748599Y-61948190D02*
X95581932Y-61448190D01*
X95415266Y-61948190D01*
X94986695Y-61948190D02*
X95272409Y-61948190D01*
X95129552Y-61948190D02*
X95129552Y-61448190D01*
X95177171Y-61519619D01*
X95224790Y-61567238D01*
X95272409Y-61591048D01*
X98226380Y-69822190D02*
X98393047Y-69584095D01*
X98512094Y-69822190D02*
X98512094Y-69322190D01*
X98321618Y-69322190D01*
X98273999Y-69346000D01*
X98250190Y-69369810D01*
X98226380Y-69417429D01*
X98226380Y-69488857D01*
X98250190Y-69536476D01*
X98273999Y-69560286D01*
X98321618Y-69584095D01*
X98512094Y-69584095D01*
X98131142Y-69869810D02*
X97750190Y-69869810D01*
X97678761Y-69322190D02*
X97559714Y-69822190D01*
X97464476Y-69465048D01*
X97369238Y-69822190D01*
X97250190Y-69322190D01*
X96821618Y-69822190D02*
X97059713Y-69822190D01*
X97059713Y-69322190D01*
X96654951Y-69560286D02*
X96488285Y-69560286D01*
X96416856Y-69822190D02*
X96654951Y-69822190D01*
X96654951Y-69322190D01*
X96416856Y-69322190D01*
X96202570Y-69822190D02*
X96202570Y-69322190D01*
X96083523Y-69322190D01*
X96012094Y-69346000D01*
X95964475Y-69393619D01*
X95940666Y-69441238D01*
X95916856Y-69536476D01*
X95916856Y-69607905D01*
X95940666Y-69703143D01*
X95964475Y-69750762D01*
X96012094Y-69798381D01*
X96083523Y-69822190D01*
X96202570Y-69822190D01*
X95726380Y-69679333D02*
X95488285Y-69679333D01*
X95773999Y-69822190D02*
X95607332Y-69322190D01*
X95440666Y-69822190D01*
X95297809Y-69369810D02*
X95273999Y-69346000D01*
X95226380Y-69322190D01*
X95107333Y-69322190D01*
X95059714Y-69346000D01*
X95035904Y-69369810D01*
X95012095Y-69417429D01*
X95012095Y-69465048D01*
X95035904Y-69536476D01*
X95321618Y-69822190D01*
X95012095Y-69822190D01*
X98200980Y-77823190D02*
X98367647Y-77585095D01*
X98486694Y-77823190D02*
X98486694Y-77323190D01*
X98296218Y-77323190D01*
X98248599Y-77347000D01*
X98224790Y-77370810D01*
X98200980Y-77418429D01*
X98200980Y-77489857D01*
X98224790Y-77537476D01*
X98248599Y-77561286D01*
X98296218Y-77585095D01*
X98486694Y-77585095D01*
X98105742Y-77870810D02*
X97724790Y-77870810D01*
X97653361Y-77323190D02*
X97534314Y-77823190D01*
X97439076Y-77466048D01*
X97343838Y-77823190D01*
X97224790Y-77323190D01*
X96796218Y-77823190D02*
X97034313Y-77823190D01*
X97034313Y-77323190D01*
X96629551Y-77561286D02*
X96462885Y-77561286D01*
X96391456Y-77823190D02*
X96629551Y-77823190D01*
X96629551Y-77323190D01*
X96391456Y-77323190D01*
X96177170Y-77823190D02*
X96177170Y-77323190D01*
X96058123Y-77323190D01*
X95986694Y-77347000D01*
X95939075Y-77394619D01*
X95915266Y-77442238D01*
X95891456Y-77537476D01*
X95891456Y-77608905D01*
X95915266Y-77704143D01*
X95939075Y-77751762D01*
X95986694Y-77799381D01*
X96058123Y-77823190D01*
X96177170Y-77823190D01*
X95700980Y-77680333D02*
X95462885Y-77680333D01*
X95748599Y-77823190D02*
X95581932Y-77323190D01*
X95415266Y-77823190D01*
X95296218Y-77323190D02*
X94986695Y-77323190D01*
X95153361Y-77513667D01*
X95081933Y-77513667D01*
X95034314Y-77537476D01*
X95010504Y-77561286D01*
X94986695Y-77608905D01*
X94986695Y-77727952D01*
X95010504Y-77775571D01*
X95034314Y-77799381D01*
X95081933Y-77823190D01*
X95224790Y-77823190D01*
X95272409Y-77799381D01*
X95296218Y-77775571D01*
X98200980Y-85443190D02*
X98367647Y-85205095D01*
X98486694Y-85443190D02*
X98486694Y-84943190D01*
X98296218Y-84943190D01*
X98248599Y-84967000D01*
X98224790Y-84990810D01*
X98200980Y-85038429D01*
X98200980Y-85109857D01*
X98224790Y-85157476D01*
X98248599Y-85181286D01*
X98296218Y-85205095D01*
X98486694Y-85205095D01*
X98105742Y-85490810D02*
X97724790Y-85490810D01*
X97653361Y-84943190D02*
X97534314Y-85443190D01*
X97439076Y-85086048D01*
X97343838Y-85443190D01*
X97224790Y-84943190D01*
X96796218Y-85443190D02*
X97034313Y-85443190D01*
X97034313Y-84943190D01*
X96629551Y-85181286D02*
X96462885Y-85181286D01*
X96391456Y-85443190D02*
X96629551Y-85443190D01*
X96629551Y-84943190D01*
X96391456Y-84943190D01*
X96177170Y-85443190D02*
X96177170Y-84943190D01*
X96058123Y-84943190D01*
X95986694Y-84967000D01*
X95939075Y-85014619D01*
X95915266Y-85062238D01*
X95891456Y-85157476D01*
X95891456Y-85228905D01*
X95915266Y-85324143D01*
X95939075Y-85371762D01*
X95986694Y-85419381D01*
X96058123Y-85443190D01*
X96177170Y-85443190D01*
X95700980Y-85300333D02*
X95462885Y-85300333D01*
X95748599Y-85443190D02*
X95581932Y-84943190D01*
X95415266Y-85443190D01*
X95034314Y-85109857D02*
X95034314Y-85443190D01*
X95153361Y-84919381D02*
X95272409Y-85276524D01*
X94962885Y-85276524D01*
X98200980Y-93063190D02*
X98367647Y-92825095D01*
X98486694Y-93063190D02*
X98486694Y-92563190D01*
X98296218Y-92563190D01*
X98248599Y-92587000D01*
X98224790Y-92610810D01*
X98200980Y-92658429D01*
X98200980Y-92729857D01*
X98224790Y-92777476D01*
X98248599Y-92801286D01*
X98296218Y-92825095D01*
X98486694Y-92825095D01*
X98105742Y-93110810D02*
X97724790Y-93110810D01*
X97653361Y-92563190D02*
X97534314Y-93063190D01*
X97439076Y-92706048D01*
X97343838Y-93063190D01*
X97224790Y-92563190D01*
X96796218Y-93063190D02*
X97034313Y-93063190D01*
X97034313Y-92563190D01*
X96629551Y-92801286D02*
X96462885Y-92801286D01*
X96391456Y-93063190D02*
X96629551Y-93063190D01*
X96629551Y-92563190D01*
X96391456Y-92563190D01*
X96177170Y-93063190D02*
X96177170Y-92563190D01*
X96058123Y-92563190D01*
X95986694Y-92587000D01*
X95939075Y-92634619D01*
X95915266Y-92682238D01*
X95891456Y-92777476D01*
X95891456Y-92848905D01*
X95915266Y-92944143D01*
X95939075Y-92991762D01*
X95986694Y-93039381D01*
X96058123Y-93063190D01*
X96177170Y-93063190D01*
X95700980Y-92920333D02*
X95462885Y-92920333D01*
X95748599Y-93063190D02*
X95581932Y-92563190D01*
X95415266Y-93063190D01*
X95010504Y-92563190D02*
X95248599Y-92563190D01*
X95272409Y-92801286D01*
X95248599Y-92777476D01*
X95200980Y-92753667D01*
X95081933Y-92753667D01*
X95034314Y-92777476D01*
X95010504Y-92801286D01*
X94986695Y-92848905D01*
X94986695Y-92967952D01*
X95010504Y-93015571D01*
X95034314Y-93039381D01*
X95081933Y-93063190D01*
X95200980Y-93063190D01*
X95248599Y-93039381D01*
X95272409Y-93015571D01*
X98200980Y-100683190D02*
X98367647Y-100445095D01*
X98486694Y-100683190D02*
X98486694Y-100183190D01*
X98296218Y-100183190D01*
X98248599Y-100207000D01*
X98224790Y-100230810D01*
X98200980Y-100278429D01*
X98200980Y-100349857D01*
X98224790Y-100397476D01*
X98248599Y-100421286D01*
X98296218Y-100445095D01*
X98486694Y-100445095D01*
X98105742Y-100730810D02*
X97724790Y-100730810D01*
X97653361Y-100183190D02*
X97534314Y-100683190D01*
X97439076Y-100326048D01*
X97343838Y-100683190D01*
X97224790Y-100183190D01*
X96796218Y-100683190D02*
X97034313Y-100683190D01*
X97034313Y-100183190D01*
X96629551Y-100421286D02*
X96462885Y-100421286D01*
X96391456Y-100683190D02*
X96629551Y-100683190D01*
X96629551Y-100183190D01*
X96391456Y-100183190D01*
X96177170Y-100683190D02*
X96177170Y-100183190D01*
X96058123Y-100183190D01*
X95986694Y-100207000D01*
X95939075Y-100254619D01*
X95915266Y-100302238D01*
X95891456Y-100397476D01*
X95891456Y-100468905D01*
X95915266Y-100564143D01*
X95939075Y-100611762D01*
X95986694Y-100659381D01*
X96058123Y-100683190D01*
X96177170Y-100683190D01*
X95700980Y-100540333D02*
X95462885Y-100540333D01*
X95748599Y-100683190D02*
X95581932Y-100183190D01*
X95415266Y-100683190D01*
X95034314Y-100183190D02*
X95129552Y-100183190D01*
X95177171Y-100207000D01*
X95200980Y-100230810D01*
X95248599Y-100302238D01*
X95272409Y-100397476D01*
X95272409Y-100587952D01*
X95248599Y-100635571D01*
X95224790Y-100659381D01*
X95177171Y-100683190D01*
X95081933Y-100683190D01*
X95034314Y-100659381D01*
X95010504Y-100635571D01*
X94986695Y-100587952D01*
X94986695Y-100468905D01*
X95010504Y-100421286D01*
X95034314Y-100397476D01*
X95081933Y-100373667D01*
X95177171Y-100373667D01*
X95224790Y-100397476D01*
X95248599Y-100421286D01*
X95272409Y-100468905D01*
X143585309Y-65675071D02*
X143609119Y-65698881D01*
X143680547Y-65722690D01*
X143728166Y-65722690D01*
X143799595Y-65698881D01*
X143847214Y-65651262D01*
X143871023Y-65603643D01*
X143894833Y-65508405D01*
X143894833Y-65436976D01*
X143871023Y-65341738D01*
X143847214Y-65294119D01*
X143799595Y-65246500D01*
X143728166Y-65222690D01*
X143680547Y-65222690D01*
X143609119Y-65246500D01*
X143585309Y-65270310D01*
X143490071Y-65770310D02*
X143109119Y-65770310D01*
X142823405Y-65460786D02*
X142751976Y-65484595D01*
X142728167Y-65508405D01*
X142704357Y-65556024D01*
X142704357Y-65627452D01*
X142728167Y-65675071D01*
X142751976Y-65698881D01*
X142799595Y-65722690D01*
X142990071Y-65722690D01*
X142990071Y-65222690D01*
X142823405Y-65222690D01*
X142775786Y-65246500D01*
X142751976Y-65270310D01*
X142728167Y-65317929D01*
X142728167Y-65365548D01*
X142751976Y-65413167D01*
X142775786Y-65436976D01*
X142823405Y-65460786D01*
X142990071Y-65460786D01*
X142490071Y-65722690D02*
X142490071Y-65222690D01*
X142299595Y-65222690D01*
X142251976Y-65246500D01*
X142228167Y-65270310D01*
X142204357Y-65317929D01*
X142204357Y-65389357D01*
X142228167Y-65436976D01*
X142251976Y-65460786D01*
X142299595Y-65484595D01*
X142490071Y-65484595D01*
X141728167Y-65722690D02*
X142013881Y-65722690D01*
X141871024Y-65722690D02*
X141871024Y-65222690D01*
X141918643Y-65294119D01*
X141966262Y-65341738D01*
X142013881Y-65365548D01*
X104164790Y-60027524D02*
X103926695Y-59860857D01*
X104164790Y-59741810D02*
X103664790Y-59741810D01*
X103664790Y-59932286D01*
X103688600Y-59979905D01*
X103712410Y-60003714D01*
X103760029Y-60027524D01*
X103831457Y-60027524D01*
X103879076Y-60003714D01*
X103902886Y-59979905D01*
X103926695Y-59932286D01*
X103926695Y-59741810D01*
X104212410Y-60122762D02*
X104212410Y-60503714D01*
X104164790Y-60622762D02*
X103664790Y-60622762D01*
X104021933Y-60789428D01*
X103664790Y-60956095D01*
X104164790Y-60956095D01*
X103664790Y-61194191D02*
X104069552Y-61194191D01*
X104117171Y-61218000D01*
X104140981Y-61241810D01*
X104164790Y-61289429D01*
X104164790Y-61384667D01*
X104140981Y-61432286D01*
X104117171Y-61456095D01*
X104069552Y-61479905D01*
X103664790Y-61479905D01*
X103664790Y-61670382D02*
X104164790Y-62003715D01*
X103664790Y-62003715D02*
X104164790Y-61670382D01*
X104164790Y-62194191D02*
X103664790Y-62194191D01*
X104164790Y-62432286D02*
X103664790Y-62432286D01*
X104164790Y-62718000D01*
X103664790Y-62718000D01*
X104164790Y-63218000D02*
X104164790Y-62932286D01*
X104164790Y-63075143D02*
X103664790Y-63075143D01*
X103736219Y-63027524D01*
X103783838Y-62979905D01*
X103807648Y-62932286D01*
X121307847Y-108057190D02*
X121307847Y-108414333D01*
X121331657Y-108485762D01*
X121379276Y-108533381D01*
X121450704Y-108557190D01*
X121498323Y-108557190D01*
X121069752Y-108557190D02*
X121069752Y-108057190D01*
X120879276Y-108057190D01*
X120831657Y-108081000D01*
X120807848Y-108104810D01*
X120784038Y-108152429D01*
X120784038Y-108223857D01*
X120807848Y-108271476D01*
X120831657Y-108295286D01*
X120879276Y-108319095D01*
X121069752Y-108319095D01*
X120688800Y-108604810D02*
X120307848Y-108604810D01*
X119926896Y-108081000D02*
X119974515Y-108057190D01*
X120045943Y-108057190D01*
X120117372Y-108081000D01*
X120164991Y-108128619D01*
X120188800Y-108176238D01*
X120212610Y-108271476D01*
X120212610Y-108342905D01*
X120188800Y-108438143D01*
X120164991Y-108485762D01*
X120117372Y-108533381D01*
X120045943Y-108557190D01*
X119998324Y-108557190D01*
X119926896Y-108533381D01*
X119903086Y-108509571D01*
X119903086Y-108342905D01*
X119998324Y-108342905D01*
X119688800Y-108557190D02*
X119688800Y-108057190D01*
X119403086Y-108557190D01*
X119403086Y-108057190D01*
X119164990Y-108557190D02*
X119164990Y-108057190D01*
X119045943Y-108057190D01*
X118974514Y-108081000D01*
X118926895Y-108128619D01*
X118903086Y-108176238D01*
X118879276Y-108271476D01*
X118879276Y-108342905D01*
X118903086Y-108438143D01*
X118926895Y-108485762D01*
X118974514Y-108533381D01*
X119045943Y-108557190D01*
X119164990Y-108557190D01*
X118403086Y-108557190D02*
X118688800Y-108557190D01*
X118545943Y-108557190D02*
X118545943Y-108057190D01*
X118593562Y-108128619D01*
X118641181Y-108176238D01*
X118688800Y-108200048D01*
X119812571Y-68060191D02*
X119836381Y-68036381D01*
X119860190Y-67964953D01*
X119860190Y-67917334D01*
X119836381Y-67845905D01*
X119788762Y-67798286D01*
X119741143Y-67774477D01*
X119645905Y-67750667D01*
X119574476Y-67750667D01*
X119479238Y-67774477D01*
X119431619Y-67798286D01*
X119384000Y-67845905D01*
X119360190Y-67917334D01*
X119360190Y-67964953D01*
X119384000Y-68036381D01*
X119407810Y-68060191D01*
X119907810Y-68155429D02*
X119907810Y-68536381D01*
X119860190Y-68655429D02*
X119360190Y-68655429D01*
X119360190Y-68774476D01*
X119384000Y-68845905D01*
X119431619Y-68893524D01*
X119479238Y-68917333D01*
X119574476Y-68941143D01*
X119645905Y-68941143D01*
X119741143Y-68917333D01*
X119788762Y-68893524D01*
X119836381Y-68845905D01*
X119860190Y-68774476D01*
X119860190Y-68655429D01*
X119598286Y-69322095D02*
X119622095Y-69393524D01*
X119645905Y-69417333D01*
X119693524Y-69441143D01*
X119764952Y-69441143D01*
X119812571Y-69417333D01*
X119836381Y-69393524D01*
X119860190Y-69345905D01*
X119860190Y-69155429D01*
X119360190Y-69155429D01*
X119360190Y-69322095D01*
X119384000Y-69369714D01*
X119407810Y-69393524D01*
X119455429Y-69417333D01*
X119503048Y-69417333D01*
X119550667Y-69393524D01*
X119574476Y-69369714D01*
X119598286Y-69322095D01*
X119598286Y-69155429D01*
X119860190Y-69917333D02*
X119860190Y-69631619D01*
X119860190Y-69774476D02*
X119360190Y-69774476D01*
X119431619Y-69726857D01*
X119479238Y-69679238D01*
X119503048Y-69631619D01*
X114731190Y-67679191D02*
X114493095Y-67512524D01*
X114731190Y-67393477D02*
X114231190Y-67393477D01*
X114231190Y-67583953D01*
X114255000Y-67631572D01*
X114278810Y-67655381D01*
X114326429Y-67679191D01*
X114397857Y-67679191D01*
X114445476Y-67655381D01*
X114469286Y-67631572D01*
X114493095Y-67583953D01*
X114493095Y-67393477D01*
X114778810Y-67774429D02*
X114778810Y-68155381D01*
X114731190Y-68274429D02*
X114231190Y-68274429D01*
X114231190Y-68393476D01*
X114255000Y-68464905D01*
X114302619Y-68512524D01*
X114350238Y-68536333D01*
X114445476Y-68560143D01*
X114516905Y-68560143D01*
X114612143Y-68536333D01*
X114659762Y-68512524D01*
X114707381Y-68464905D01*
X114731190Y-68393476D01*
X114731190Y-68274429D01*
X114469286Y-68941095D02*
X114493095Y-69012524D01*
X114516905Y-69036333D01*
X114564524Y-69060143D01*
X114635952Y-69060143D01*
X114683571Y-69036333D01*
X114707381Y-69012524D01*
X114731190Y-68964905D01*
X114731190Y-68774429D01*
X114231190Y-68774429D01*
X114231190Y-68941095D01*
X114255000Y-68988714D01*
X114278810Y-69012524D01*
X114326429Y-69036333D01*
X114374048Y-69036333D01*
X114421667Y-69012524D01*
X114445476Y-68988714D01*
X114469286Y-68941095D01*
X114469286Y-68774429D01*
X114731190Y-69536333D02*
X114731190Y-69250619D01*
X114731190Y-69393476D02*
X114231190Y-69393476D01*
X114302619Y-69345857D01*
X114350238Y-69298238D01*
X114374048Y-69250619D01*
M02*
