G04 #@! TF.FileFunction,Copper,L1,Top,Signal*
%FSLAX46Y46*%
G04 Gerber Fmt 4.6, Leading zero omitted, Abs format (unit mm)*
G04 Created by KiCad (PCBNEW 4.0.7) date 03/11/18 00:16:20*
%MOMM*%
%LPD*%
G01*
G04 APERTURE LIST*
%ADD10C,0.100000*%
%ADD11C,0.600000*%
%ADD12R,1.600000X0.550000*%
%ADD13R,0.550000X1.600000*%
%ADD14C,1.800000*%
%ADD15C,4.000000*%
%ADD16R,1.500000X1.250000*%
%ADD17R,1.250000X1.500000*%
%ADD18R,0.900000X1.200000*%
%ADD19R,3.500000X3.500000*%
%ADD20R,1.700000X1.700000*%
%ADD21O,1.700000X1.700000*%
%ADD22O,5.000000X4.000000*%
%ADD23R,1.500000X1.300000*%
%ADD24R,1.300000X1.500000*%
%ADD25C,2.000000*%
%ADD26R,3.800000X2.000000*%
%ADD27R,1.500000X2.000000*%
%ADD28R,1.500000X0.600000*%
%ADD29C,1.500000*%
%ADD30R,1.550000X0.600000*%
%ADD31O,3.000000X4.000000*%
%ADD32C,0.500000*%
%ADD33C,0.250000*%
%ADD34C,1.000000*%
%ADD35C,0.254000*%
G04 APERTURE END LIST*
D10*
D11*
X149240000Y-113169700D03*
X147840000Y-113169700D03*
X146440000Y-113169700D03*
X145040000Y-113169700D03*
X143640000Y-113169700D03*
X152136300Y-118769700D03*
X150736300Y-118769700D03*
X152136300Y-117369700D03*
X150736300Y-117369700D03*
X152136300Y-115969700D03*
X150736300Y-115969700D03*
X152136300Y-114569700D03*
X150736300Y-114569700D03*
X152136300Y-113169700D03*
X150736300Y-113169700D03*
X142220600Y-118769700D03*
X140820600Y-118769700D03*
X139420600Y-118769700D03*
X142220600Y-117369700D03*
X140820600Y-117369700D03*
X139420600Y-117369700D03*
X142220600Y-115969700D03*
X140820600Y-115969700D03*
X139420600Y-115969700D03*
X142220600Y-114569700D03*
X140820600Y-114569700D03*
X139420600Y-114569700D03*
X142214600Y-113169700D03*
X140820600Y-113169700D03*
D12*
X138625000Y-66415000D03*
X138625000Y-67215000D03*
X138625000Y-68015000D03*
X138625000Y-68815000D03*
X138625000Y-69615000D03*
X138625000Y-70415000D03*
X138625000Y-71215000D03*
X138625000Y-72015000D03*
D13*
X140075000Y-73465000D03*
X140875000Y-73465000D03*
X141675000Y-73465000D03*
X142475000Y-73465000D03*
X143275000Y-73465000D03*
X144075000Y-73465000D03*
X144875000Y-73465000D03*
X145675000Y-73465000D03*
D12*
X147125000Y-72015000D03*
X147125000Y-71215000D03*
X147125000Y-70415000D03*
X147125000Y-69615000D03*
X147125000Y-68815000D03*
X147125000Y-68015000D03*
X147125000Y-67215000D03*
X147125000Y-66415000D03*
D13*
X145675000Y-64965000D03*
X144875000Y-64965000D03*
X144075000Y-64965000D03*
X143275000Y-64965000D03*
X142475000Y-64965000D03*
X141675000Y-64965000D03*
X140875000Y-64965000D03*
X140075000Y-64965000D03*
D14*
X119528600Y-57912000D03*
X117028600Y-57912000D03*
X114528600Y-57912000D03*
D15*
X121428600Y-64912000D03*
X112628600Y-64912000D03*
D16*
X143809400Y-123647200D03*
X146309400Y-123647200D03*
X128290000Y-127889000D03*
X130790000Y-127889000D03*
D17*
X129540000Y-66655000D03*
X129540000Y-64155000D03*
X129540000Y-71521000D03*
X129540000Y-74021000D03*
D18*
X132460000Y-125222000D03*
X129160000Y-125222000D03*
D19*
X135128000Y-115697000D03*
X129128000Y-115697000D03*
X132128000Y-120397000D03*
D20*
X143129000Y-55499000D03*
D21*
X140589000Y-55499000D03*
X138049000Y-55499000D03*
X135509000Y-55499000D03*
D22*
X145392000Y-108965000D03*
X145265000Y-92965000D03*
X138915000Y-108965000D03*
X138915000Y-92965000D03*
X151915000Y-92965000D03*
X151892000Y-108965000D03*
D23*
X135302000Y-123444000D03*
X138002000Y-123444000D03*
X140719800Y-121335800D03*
X138019800Y-121335800D03*
D24*
X111353600Y-74342000D03*
X111353600Y-77042000D03*
D25*
X120243600Y-73097000D03*
X120243600Y-77597000D03*
X113743600Y-73097000D03*
X113743600Y-77597000D03*
D26*
X146431000Y-115087000D03*
D27*
X146431000Y-121387000D03*
X148731000Y-121387000D03*
X144131000Y-121387000D03*
D28*
X107703600Y-67437000D03*
X107703600Y-66167000D03*
X107703600Y-64897000D03*
X107703600Y-63627000D03*
X107703600Y-62357000D03*
X107703600Y-61087000D03*
X107703600Y-59817000D03*
X107703600Y-58547000D03*
X102303600Y-58547000D03*
X102303600Y-59817000D03*
X102303600Y-61087000D03*
X102303600Y-62357000D03*
X102303600Y-63627000D03*
X102303600Y-64897000D03*
X102303600Y-66167000D03*
X102303600Y-67437000D03*
D29*
X133350000Y-66675000D03*
X133350000Y-71555000D03*
D16*
X101848600Y-69342000D03*
X104348600Y-69342000D03*
D24*
X109448600Y-77042000D03*
X109448600Y-74342000D03*
X95250000Y-59610000D03*
X95250000Y-62310000D03*
X95250000Y-67230000D03*
X95250000Y-69930000D03*
X95250000Y-74850000D03*
X95250000Y-77550000D03*
X95250000Y-82470000D03*
X95250000Y-85170000D03*
X95250000Y-90090000D03*
X95250000Y-92790000D03*
X95250000Y-97710000D03*
X95250000Y-100410000D03*
D20*
X95478600Y-54737000D03*
D21*
X98018600Y-54737000D03*
X100558600Y-54737000D03*
X103098600Y-54737000D03*
X105638600Y-54737000D03*
X108178600Y-54737000D03*
X110718600Y-54737000D03*
X113258600Y-54737000D03*
D20*
X127254000Y-60706000D03*
D21*
X129794000Y-60706000D03*
X132334000Y-60706000D03*
X134874000Y-60706000D03*
X137414000Y-60706000D03*
X139954000Y-60706000D03*
X142494000Y-60706000D03*
X145034000Y-60706000D03*
D30*
X140175000Y-78486000D03*
X140175000Y-79756000D03*
X140175000Y-81026000D03*
X140175000Y-82296000D03*
X145575000Y-82296000D03*
X145575000Y-81026000D03*
X145575000Y-79756000D03*
X145575000Y-78486000D03*
D11*
X139420600Y-113169700D03*
D31*
X140335000Y-128905000D03*
X140335000Y-133985000D03*
X136334500Y-133985000D03*
X136334500Y-128905000D03*
X144335500Y-128841500D03*
X144335500Y-133985000D03*
D11*
X142290800Y-123647200D03*
X136601200Y-121335800D03*
X128270000Y-129286000D03*
X144081500Y-68770500D03*
X107543600Y-74422000D03*
X99288600Y-59182000D03*
X99288600Y-61722000D03*
X99288600Y-66167000D03*
X99288600Y-70612000D03*
X99288600Y-74422000D03*
X99288600Y-78232000D03*
X99288600Y-82042000D03*
X99288600Y-85852000D03*
X99288600Y-89662000D03*
X99288600Y-93472000D03*
X99288600Y-97282000D03*
X99288600Y-101092000D03*
X142163800Y-78943200D03*
X142138400Y-75692000D03*
X140970000Y-71247000D03*
X138531600Y-76885800D03*
X145605500Y-66611500D03*
X143408400Y-72136000D03*
X140182600Y-77495400D03*
X136245600Y-72517000D03*
X106273600Y-64262000D03*
X105638600Y-58547000D03*
X103733600Y-67437000D03*
X108813600Y-59817000D03*
X109448600Y-78232000D03*
X104368600Y-70612000D03*
X108813600Y-58547000D03*
X108813600Y-61087000D03*
X116433600Y-65532000D03*
X147066000Y-86360000D03*
X145923000Y-85217000D03*
X145732500Y-68834000D03*
X129540000Y-69024500D03*
X139954000Y-69596000D03*
X139954000Y-68008500D03*
X140208000Y-83439000D03*
D32*
X143809400Y-123647200D02*
X142290800Y-123647200D01*
X138019800Y-121335800D02*
X136601200Y-121335800D01*
D33*
X138246800Y-121108800D02*
X138019800Y-121335800D01*
D32*
X128290000Y-129266000D02*
X128270000Y-129286000D01*
X128290000Y-127889000D02*
X128290000Y-129266000D01*
X128270000Y-129286000D02*
X128290000Y-129266000D01*
D33*
X138119800Y-121235800D02*
X138019800Y-121335800D01*
D34*
X146309400Y-123647200D02*
X148132800Y-123647200D01*
X148731000Y-123049000D02*
X148731000Y-121387000D01*
X148132800Y-123647200D02*
X148731000Y-123049000D01*
X146309400Y-123647200D02*
X146309400Y-124708600D01*
X146309400Y-124708600D02*
X145796000Y-125222000D01*
X132460000Y-125222000D02*
X145796000Y-125222000D01*
X146309400Y-123647200D02*
X146456400Y-123647200D01*
D32*
X145116500Y-69615000D02*
X147125000Y-69615000D01*
X145116500Y-69615000D02*
X145116500Y-70567500D01*
D33*
X145065750Y-69564250D02*
X145116500Y-69615000D01*
D32*
X144272000Y-68770500D02*
X145065750Y-69564250D01*
D33*
X144081500Y-68770500D02*
X144272000Y-68770500D01*
D32*
X145116500Y-70567500D02*
X145764000Y-71215000D01*
X145764000Y-71215000D02*
X147125000Y-71215000D01*
X126619000Y-73787000D02*
X126619000Y-129286000D01*
X130790000Y-129560000D02*
X130790000Y-127889000D01*
X129794000Y-130556000D02*
X130790000Y-129560000D01*
X127889000Y-130556000D02*
X129794000Y-130556000D01*
X126619000Y-129286000D02*
X127889000Y-130556000D01*
X143256000Y-78486000D02*
X143129000Y-78486000D01*
X143129000Y-78486000D02*
X140589000Y-75946000D01*
X140589000Y-75946000D02*
X128778000Y-75946000D01*
X126619000Y-64262000D02*
X126619000Y-73787000D01*
X143256000Y-78486000D02*
X145575000Y-78486000D01*
X126619000Y-73787000D02*
X128778000Y-75946000D01*
X135302000Y-123444000D02*
X135302000Y-120349000D01*
X137033000Y-118618000D02*
X138684000Y-118618000D01*
X135302000Y-120349000D02*
X137033000Y-118618000D01*
X130790000Y-127889000D02*
X130790000Y-124353000D01*
X135302000Y-123444000D02*
X131699000Y-123444000D01*
X130790000Y-124353000D02*
X131699000Y-123444000D01*
X130790000Y-127889000D02*
X134874000Y-127889000D01*
X134874000Y-127889000D02*
X135890000Y-128905000D01*
X130790000Y-127889000D02*
X130790000Y-127488000D01*
X130890000Y-127989000D02*
X130937000Y-127942000D01*
D33*
X146511000Y-121467000D02*
X146431000Y-121387000D01*
X135382000Y-123524000D02*
X135302000Y-123444000D01*
D32*
X138625000Y-70415000D02*
X140214500Y-70415000D01*
X141097000Y-69532500D02*
X141097000Y-68815000D01*
X140214500Y-70415000D02*
X141097000Y-69532500D01*
X138625000Y-68815000D02*
X141097000Y-68815000D01*
X141097000Y-68815000D02*
X143806500Y-68815000D01*
D33*
X143806500Y-68815000D02*
X144081500Y-68770500D01*
X126619000Y-64262000D02*
X126873000Y-64008000D01*
D32*
X129794000Y-61087000D02*
X126873000Y-64008000D01*
X126873000Y-64008000D02*
X126619000Y-64262000D01*
D33*
X129794000Y-60706000D02*
X129794000Y-61087000D01*
D32*
X138625000Y-68815000D02*
X137522000Y-68815000D01*
X131572000Y-62484000D02*
X129794000Y-60706000D01*
X135255000Y-62484000D02*
X131572000Y-62484000D01*
X136652000Y-63881000D02*
X135255000Y-62484000D01*
X136652000Y-67945000D02*
X136652000Y-63881000D01*
X137522000Y-68815000D02*
X136652000Y-67945000D01*
D33*
X129540000Y-64155000D02*
X132163500Y-64155000D01*
X133350000Y-65341500D02*
X133350000Y-66675000D01*
X132163500Y-64155000D02*
X133350000Y-65341500D01*
X133350000Y-66675000D02*
X134366000Y-66675000D01*
X138625000Y-71215000D02*
X137636000Y-71215000D01*
X134366000Y-66675000D02*
X137287000Y-69596000D01*
X137287000Y-69596000D02*
X137287000Y-70866000D01*
X137287000Y-70866000D02*
X137636000Y-71215000D01*
X133330000Y-66655000D02*
X133350000Y-66675000D01*
X138530000Y-71120000D02*
X138625000Y-71215000D01*
X129540000Y-74021000D02*
X132163500Y-74021000D01*
X133350000Y-72834500D02*
X133350000Y-71555000D01*
X132163500Y-74021000D02*
X133350000Y-72834500D01*
X133316000Y-71521000D02*
X133350000Y-71555000D01*
X138625000Y-72015000D02*
X137547000Y-72015000D01*
X137547000Y-72015000D02*
X137087000Y-71555000D01*
X137087000Y-71555000D02*
X133350000Y-71555000D01*
X133257000Y-71648000D02*
X133350000Y-71555000D01*
X129540000Y-74021000D02*
X129487000Y-74275000D01*
D32*
X107623600Y-74342000D02*
X109448600Y-74342000D01*
D33*
X107543600Y-74422000D02*
X107623600Y-74342000D01*
D34*
X129160000Y-125222000D02*
X129160000Y-119316000D01*
X129160000Y-119316000D02*
X129128000Y-119284000D01*
X129128000Y-115697000D02*
X129128000Y-119284000D01*
D33*
X95250000Y-59610000D02*
X99178100Y-59292500D01*
X99178100Y-59292500D02*
X99288600Y-59182000D01*
X95250000Y-62310000D02*
X99018100Y-61992500D01*
X99018100Y-61992500D02*
X99288600Y-61722000D01*
X95250000Y-62310000D02*
X98924100Y-61992500D01*
X100558600Y-63627000D02*
X102303600Y-63627000D01*
X98924100Y-61992500D02*
X100558600Y-63627000D01*
X95250000Y-67230000D02*
X95520500Y-67230000D01*
X95520500Y-67230000D02*
X99288600Y-66167000D01*
X99288600Y-70612000D02*
X95774500Y-69930000D01*
X95250000Y-69930000D02*
X95774500Y-69930000D01*
X95250000Y-69930000D02*
X98764100Y-69866500D01*
X98764100Y-69866500D02*
X100558600Y-68072000D01*
X101193600Y-64897000D02*
X102303600Y-64897000D01*
X100558600Y-65532000D02*
X101193600Y-64897000D01*
X100558600Y-68072000D02*
X100558600Y-65532000D01*
X95250000Y-74850000D02*
X98924100Y-74786500D01*
X98924100Y-74786500D02*
X99288600Y-74422000D01*
X95250000Y-77550000D02*
X95774500Y-77550000D01*
X95774500Y-77550000D02*
X99288600Y-78232000D01*
X95250000Y-77550000D02*
X99399100Y-77486500D01*
X103733600Y-66167000D02*
X102303600Y-66167000D01*
X105638600Y-68072000D02*
X103733600Y-66167000D01*
X105638600Y-70612000D02*
X105638600Y-68072000D01*
X99923600Y-76327000D02*
X105638600Y-70612000D01*
X99923600Y-76962000D02*
X99923600Y-76327000D01*
X99399100Y-77486500D02*
X99923600Y-76962000D01*
X95250000Y-82470000D02*
X98924100Y-82406500D01*
X98924100Y-82406500D02*
X99288600Y-82042000D01*
X95250000Y-85170000D02*
X95774500Y-85170000D01*
X95774500Y-85170000D02*
X99288600Y-85852000D01*
X95250000Y-85170000D02*
X99399100Y-85106500D01*
X103098600Y-62357000D02*
X102303600Y-62357000D01*
X106273600Y-65532000D02*
X103098600Y-62357000D01*
X106273600Y-71247000D02*
X106273600Y-65532000D01*
X100558600Y-76962000D02*
X106273600Y-71247000D01*
X100558600Y-83947000D02*
X100558600Y-76962000D01*
X99399100Y-85106500D02*
X100558600Y-83947000D01*
X95250000Y-90090000D02*
X98924100Y-90026500D01*
X98924100Y-90026500D02*
X99288600Y-89662000D01*
X95250000Y-92790000D02*
X95774500Y-92790000D01*
X95774500Y-92790000D02*
X99288600Y-93472000D01*
X95250000Y-92790000D02*
X100034100Y-92726500D01*
X107703600Y-71087000D02*
X107703600Y-67437000D01*
X101193600Y-77597000D02*
X107703600Y-71087000D01*
X101193600Y-91567000D02*
X101193600Y-77597000D01*
X100034100Y-92726500D02*
X101193600Y-91567000D01*
X95250000Y-97710000D02*
X98924100Y-97646500D01*
X98924100Y-97646500D02*
X99288600Y-97282000D01*
X95250000Y-100410000D02*
X95774500Y-100410000D01*
X95774500Y-100410000D02*
X99288600Y-101092000D01*
X95250000Y-100410000D02*
X100034100Y-100346500D01*
X108813600Y-62357000D02*
X107703600Y-62357000D01*
X109448600Y-62992000D02*
X108813600Y-62357000D01*
X109448600Y-70612000D02*
X109448600Y-62992000D01*
X101828600Y-78232000D02*
X109448600Y-70612000D01*
X101828600Y-98552000D02*
X101828600Y-78232000D01*
X100034100Y-100346500D02*
X101828600Y-98552000D01*
X144875000Y-75057000D02*
X142773400Y-75057000D01*
X141884400Y-81026000D02*
X140175000Y-81026000D01*
X142163800Y-80746600D02*
X141884400Y-81026000D01*
X142163800Y-78943200D02*
X142163800Y-80746600D01*
X142773400Y-75057000D02*
X142138400Y-75692000D01*
X144875000Y-75057000D02*
X144875000Y-73465000D01*
X143129000Y-55499000D02*
X143129000Y-56134000D01*
X143129000Y-56134000D02*
X144653000Y-57658000D01*
X147510500Y-75057000D02*
X144875000Y-75057000D01*
X149733000Y-72834500D02*
X147510500Y-75057000D01*
X149733000Y-65024000D02*
X149733000Y-72834500D01*
X148463000Y-63754000D02*
X149733000Y-65024000D01*
X148463000Y-60198000D02*
X148463000Y-63754000D01*
X145923000Y-57658000D02*
X148463000Y-60198000D01*
X144653000Y-57658000D02*
X145923000Y-57658000D01*
X143129000Y-55499000D02*
X143891000Y-55499000D01*
X145675000Y-73465000D02*
X148277000Y-73465000D01*
X149098000Y-72644000D02*
X149098000Y-65278000D01*
X148277000Y-73465000D02*
X149098000Y-72644000D01*
X140589000Y-55499000D02*
X140589000Y-57404000D01*
X147828000Y-64008000D02*
X149098000Y-65278000D01*
X147828000Y-60452000D02*
X147828000Y-64008000D01*
X145542000Y-58166000D02*
X147828000Y-60452000D01*
X141351000Y-58166000D02*
X145542000Y-58166000D01*
X140589000Y-57404000D02*
X141351000Y-58166000D01*
X140175000Y-79756000D02*
X138988800Y-79756000D01*
X145167000Y-72015000D02*
X147125000Y-72015000D01*
X143891000Y-70739000D02*
X145167000Y-72015000D01*
X141478000Y-70739000D02*
X143891000Y-70739000D01*
X140970000Y-71247000D02*
X141478000Y-70739000D01*
X138531600Y-79298800D02*
X138531600Y-76885800D01*
X138988800Y-79756000D02*
X138531600Y-79298800D01*
X138049000Y-55499000D02*
X138049000Y-57912000D01*
X148076000Y-72015000D02*
X147125000Y-72015000D01*
X148463000Y-71628000D02*
X148076000Y-72015000D01*
X148463000Y-65659000D02*
X148463000Y-71628000D01*
X147193000Y-64389000D02*
X148463000Y-65659000D01*
X147193000Y-60706000D02*
X147193000Y-64389000D01*
X145161000Y-58674000D02*
X147193000Y-60706000D01*
X138811000Y-58674000D02*
X145161000Y-58674000D01*
X138049000Y-57912000D02*
X138811000Y-58674000D01*
X143764000Y-59690000D02*
X143256000Y-59182000D01*
X135509000Y-57277000D02*
X135509000Y-55499000D01*
X137414000Y-59182000D02*
X135509000Y-57277000D01*
X143256000Y-59182000D02*
X137414000Y-59182000D01*
X142475000Y-64965000D02*
X142475000Y-63519000D01*
X143764000Y-62230000D02*
X143764000Y-59690000D01*
X142475000Y-63519000D02*
X143764000Y-62230000D01*
X142602000Y-65043000D02*
X142475000Y-64965000D01*
D32*
X140131800Y-123444000D02*
X140766800Y-122809000D01*
X140766800Y-122809000D02*
X140766800Y-121382800D01*
D33*
X140766800Y-121382800D02*
X140719800Y-121335800D01*
D32*
X140719800Y-121335800D02*
X144079800Y-121335800D01*
D33*
X144079800Y-121335800D02*
X144131000Y-121387000D01*
X140719800Y-121335800D02*
X140719800Y-121415800D01*
D32*
X138002000Y-123444000D02*
X140131800Y-123444000D01*
D33*
X145605500Y-66611500D02*
X145605500Y-66738500D01*
X145605500Y-66738500D02*
X146082000Y-67215000D01*
X147125000Y-67215000D02*
X146082000Y-67215000D01*
X138625000Y-66415000D02*
X138625000Y-61917000D01*
X138625000Y-61917000D02*
X137414000Y-60706000D01*
X137609000Y-60901000D02*
X137414000Y-60706000D01*
X138625000Y-67215000D02*
X137827000Y-67215000D01*
X137827000Y-67215000D02*
X137414000Y-66802000D01*
X137414000Y-63246000D02*
X134874000Y-60706000D01*
X137414000Y-66802000D02*
X137414000Y-63246000D01*
X140175000Y-78486000D02*
X140175000Y-77503000D01*
X144075000Y-72269200D02*
X144075000Y-73465000D01*
X143916400Y-72110600D02*
X144075000Y-72269200D01*
X143433800Y-72110600D02*
X143916400Y-72110600D01*
X143408400Y-72136000D02*
X143433800Y-72110600D01*
X140175000Y-77503000D02*
X140182600Y-77495400D01*
X140075000Y-73465000D02*
X137193600Y-73465000D01*
X137193600Y-73465000D02*
X136245600Y-72517000D01*
X140075000Y-64965000D02*
X140075000Y-60827000D01*
X140075000Y-60827000D02*
X139954000Y-60706000D01*
X111353600Y-74342000D02*
X113133600Y-74342000D01*
X113133600Y-74342000D02*
X113743600Y-73097000D01*
X113743600Y-73097000D02*
X120243600Y-73097000D01*
X106908600Y-64897000D02*
X106273600Y-64262000D01*
X107703600Y-64897000D02*
X106908600Y-64897000D01*
D32*
X109448600Y-52832000D02*
X99923600Y-52832000D01*
X99923600Y-52832000D02*
X98018600Y-54737000D01*
D33*
X109448600Y-52832000D02*
X109448600Y-56007000D01*
D32*
X109448600Y-56007000D02*
X108178600Y-57277000D01*
X108178600Y-57277000D02*
X106273600Y-57277000D01*
X106273600Y-57277000D02*
X105638600Y-57912000D01*
X105638600Y-57912000D02*
X105638600Y-58547000D01*
X119528600Y-54657000D02*
X119528600Y-57912000D01*
X117703600Y-52832000D02*
X119528600Y-54657000D01*
X109448600Y-52832000D02*
X117703600Y-52832000D01*
X120243600Y-77597000D02*
X113743600Y-77597000D01*
X103733600Y-67437000D02*
X102303600Y-67437000D01*
X101828600Y-69362000D02*
X101828600Y-67912000D01*
D33*
X101828600Y-67912000D02*
X102303600Y-67437000D01*
D32*
X107703600Y-59817000D02*
X108813600Y-59817000D01*
X109448600Y-77042000D02*
X109448600Y-78232000D01*
X104348600Y-69342000D02*
X104348600Y-70592000D01*
D33*
X104348600Y-70592000D02*
X104368600Y-70612000D01*
D32*
X107703600Y-58547000D02*
X108813600Y-58547000D01*
X107703600Y-61087000D02*
X108813600Y-61087000D01*
D33*
X109448600Y-77042000D02*
X111353600Y-77042000D01*
X102303600Y-58547000D02*
X102303600Y-55532000D01*
X102303600Y-55532000D02*
X103098600Y-54737000D01*
X105638600Y-54737000D02*
X105638600Y-55372000D01*
X105638600Y-55372000D02*
X104368600Y-56642000D01*
X104368600Y-56642000D02*
X104368600Y-59182000D01*
X104368600Y-59182000D02*
X103733600Y-59817000D01*
X103733600Y-59817000D02*
X102303600Y-59817000D01*
X102303600Y-61087000D02*
X103733600Y-61087000D01*
X108178600Y-56007000D02*
X108178600Y-54737000D01*
X107543600Y-56642000D02*
X108178600Y-56007000D01*
X105638600Y-56642000D02*
X107543600Y-56642000D01*
X105003600Y-57277000D02*
X105638600Y-56642000D01*
X105003600Y-59817000D02*
X105003600Y-57277000D01*
X103733600Y-61087000D02*
X105003600Y-59817000D01*
X108178600Y-55372000D02*
X108178600Y-54737000D01*
X132969000Y-131445000D02*
X126619000Y-131445000D01*
X126619000Y-131445000D02*
X125730000Y-130556000D01*
X137795000Y-131445000D02*
X140335000Y-128905000D01*
X132969000Y-131445000D02*
X137795000Y-131445000D01*
X125730000Y-130556000D02*
X125730000Y-59436000D01*
X125730000Y-59436000D02*
X126365000Y-58801000D01*
X126365000Y-58801000D02*
X131699000Y-58801000D01*
X131699000Y-58801000D02*
X132334000Y-59436000D01*
X132334000Y-59436000D02*
X132334000Y-60706000D01*
X140335000Y-128905000D02*
X140589000Y-128905000D01*
X110718600Y-57734200D02*
X110718600Y-54737000D01*
X116408200Y-63423800D02*
X110718600Y-57734200D01*
X116408200Y-65506600D02*
X116408200Y-63423800D01*
X116433600Y-65532000D02*
X116408200Y-65506600D01*
X117028600Y-57912000D02*
X117028600Y-55967000D01*
X115798600Y-54737000D02*
X113258600Y-54737000D01*
X117028600Y-55967000D02*
X115798600Y-54737000D01*
X145575000Y-79756000D02*
X146812000Y-79756000D01*
X145265000Y-86891000D02*
X145265000Y-92965000D01*
X147447000Y-84709000D02*
X145265000Y-86891000D01*
X147447000Y-80391000D02*
X147447000Y-84709000D01*
X146812000Y-79756000D02*
X147447000Y-80391000D01*
X145160000Y-92965000D02*
X145265000Y-92965000D01*
X138915000Y-92965000D02*
X138915000Y-96751000D01*
X135826500Y-136461500D02*
X135826500Y-133985000D01*
X136601200Y-137236200D02*
X135826500Y-136461500D01*
X147091400Y-137236200D02*
X136601200Y-137236200D01*
X148412200Y-135915400D02*
X147091400Y-137236200D01*
X148412200Y-131394200D02*
X148412200Y-135915400D01*
X149123400Y-130683000D02*
X148412200Y-131394200D01*
X153289000Y-130683000D02*
X149123400Y-130683000D01*
X155321000Y-128651000D02*
X153289000Y-130683000D01*
X155321000Y-106426000D02*
X155321000Y-128651000D01*
X153416000Y-104521000D02*
X155321000Y-106426000D01*
X146685000Y-104521000D02*
X153416000Y-104521000D01*
X138915000Y-96751000D02*
X146685000Y-104521000D01*
X137159000Y-92965000D02*
X138915000Y-92965000D01*
X145575000Y-82296000D02*
X145575000Y-84869000D01*
X147066000Y-86360000D02*
X151915000Y-91209000D01*
X145575000Y-84869000D02*
X145923000Y-85217000D01*
X151915000Y-91209000D02*
X151915000Y-92965000D01*
X147650200Y-130784600D02*
X147650200Y-135407400D01*
X143078200Y-136728200D02*
X140335000Y-133985000D01*
X146329400Y-136728200D02*
X143078200Y-136728200D01*
X147650200Y-135407400D02*
X146329400Y-136728200D01*
X145575000Y-81026000D02*
X144780000Y-81026000D01*
X148386800Y-130048000D02*
X147650200Y-130784600D01*
X153035000Y-130048000D02*
X148386800Y-130048000D01*
X154813000Y-128270000D02*
X153035000Y-130048000D01*
X154813000Y-106934000D02*
X154813000Y-128270000D01*
X153035000Y-105156000D02*
X154813000Y-106934000D01*
X146304000Y-105156000D02*
X153035000Y-105156000D01*
X135001000Y-93853000D02*
X146304000Y-105156000D01*
X135001000Y-90805000D02*
X135001000Y-93853000D01*
X144780000Y-81026000D02*
X135001000Y-90805000D01*
X145575000Y-81026000D02*
X144907000Y-81026000D01*
X141675000Y-64965000D02*
X141802000Y-64700000D01*
D32*
X147125000Y-68815000D02*
X145751500Y-68815000D01*
D33*
X145751500Y-68815000D02*
X145732500Y-68834000D01*
D32*
X129540000Y-71521000D02*
X129540000Y-69024500D01*
X129540000Y-69024500D02*
X129540000Y-66655000D01*
X138625000Y-69615000D02*
X139935000Y-69615000D01*
D33*
X139935000Y-69615000D02*
X139954000Y-69596000D01*
D32*
X138625000Y-68015000D02*
X139947500Y-68015000D01*
D33*
X139947500Y-68015000D02*
X139954000Y-68008500D01*
D32*
X140175000Y-82296000D02*
X140175000Y-83406000D01*
D33*
X140175000Y-83406000D02*
X140208000Y-83439000D01*
D35*
G36*
X153238200Y-119507000D02*
X147320000Y-119507000D01*
X147270590Y-119517006D01*
X147228965Y-119545447D01*
X147201685Y-119587841D01*
X147193000Y-119634000D01*
X147193000Y-122301000D01*
X145669000Y-122301000D01*
X145669000Y-119634000D01*
X145658994Y-119584590D01*
X145630553Y-119542965D01*
X145588159Y-119515685D01*
X145542000Y-119507000D01*
X138557000Y-119507000D01*
X138557000Y-112395000D01*
X153238200Y-112395000D01*
X153238200Y-119507000D01*
X153238200Y-119507000D01*
G37*
X153238200Y-119507000D02*
X147320000Y-119507000D01*
X147270590Y-119517006D01*
X147228965Y-119545447D01*
X147201685Y-119587841D01*
X147193000Y-119634000D01*
X147193000Y-122301000D01*
X145669000Y-122301000D01*
X145669000Y-119634000D01*
X145658994Y-119584590D01*
X145630553Y-119542965D01*
X145588159Y-119515685D01*
X145542000Y-119507000D01*
X138557000Y-119507000D01*
X138557000Y-112395000D01*
X153238200Y-112395000D01*
X153238200Y-119507000D01*
M02*
