G04 #@! TF.FileFunction,Profile,NP*
%FSLAX46Y46*%
G04 Gerber Fmt 4.6, Leading zero omitted, Abs format (unit mm)*
G04 Created by KiCad (PCBNEW 4.0.7) date 03/11/18 00:16:20*
%MOMM*%
%LPD*%
G01*
G04 APERTURE LIST*
%ADD10C,0.100000*%
%ADD11C,0.150000*%
G04 APERTURE END LIST*
D10*
D11*
X155829000Y-52451000D02*
X155829000Y-137795000D01*
X155829000Y-52451000D02*
X125349000Y-52451000D01*
X125349000Y-52451000D02*
X125349000Y-137795000D01*
X131318000Y-58420000D02*
X131318000Y-58394600D01*
X125349000Y-58420000D02*
X131318000Y-58420000D01*
X131318000Y-52451000D02*
X131368800Y-52451000D01*
X131318000Y-58420000D02*
X131318000Y-52451000D01*
X102209600Y-80391000D02*
X102209600Y-104013000D01*
X102209600Y-80391000D02*
X124053600Y-80391000D01*
X149860000Y-58420000D02*
X149860000Y-52451000D01*
X155829000Y-58420000D02*
X149860000Y-58420000D01*
X149860000Y-131826000D02*
X155829000Y-131826000D01*
X149860000Y-137795000D02*
X149860000Y-131826000D01*
X131318000Y-131826000D02*
X131318000Y-137795000D01*
X125349000Y-131826000D02*
X131318000Y-131826000D01*
X102213600Y-104013000D02*
X93573600Y-104013000D01*
X124053600Y-52451000D02*
X124053600Y-80391000D01*
X93573600Y-52451000D02*
X93573600Y-104013000D01*
X93573600Y-52451000D02*
X124053600Y-52451000D01*
X155829000Y-52451000D02*
X155829000Y-52959000D01*
X155829000Y-52451000D02*
X155829000Y-52959000D01*
X155829000Y-52451000D02*
X155829000Y-52959000D01*
X155829000Y-137795000D02*
X125349000Y-137795000D01*
M02*
