G04 #@! TF.FileFunction,Legend,Top*
%FSLAX46Y46*%
G04 Gerber Fmt 4.6, Leading zero omitted, Abs format (unit mm)*
G04 Created by KiCad (PCBNEW 4.0.7) date 03/11/18 00:16:20*
%MOMM*%
%LPD*%
G01*
G04 APERTURE LIST*
%ADD10C,0.100000*%
%ADD11C,0.200000*%
%ADD12C,0.150000*%
%ADD13C,0.120000*%
%ADD14C,0.015000*%
G04 APERTURE END LIST*
D10*
D11*
X143217719Y-77749400D02*
G75*
G03X143217719Y-77749400I-444319J0D01*
G01*
X105461505Y-68072000D02*
G75*
G03X105461505Y-68072000I-457905J0D01*
G01*
X139124961Y-64897000D02*
G75*
G03X139124961Y-64897000I-567961J0D01*
G01*
D12*
X139250000Y-65590000D02*
X139250000Y-65815000D01*
X146500000Y-65590000D02*
X146500000Y-65915000D01*
X146500000Y-72840000D02*
X146500000Y-72515000D01*
X139250000Y-72840000D02*
X139250000Y-72515000D01*
X139250000Y-65590000D02*
X139575000Y-65590000D01*
X139250000Y-72840000D02*
X139575000Y-72840000D01*
X146500000Y-72840000D02*
X146175000Y-72840000D01*
X146500000Y-65590000D02*
X146175000Y-65590000D01*
X139250000Y-65815000D02*
X137825000Y-65815000D01*
D13*
X119791032Y-66583982D02*
G75*
G02X114266600Y-66585000I-2762432J1171982D01*
G01*
X114730847Y-63483705D02*
G75*
G02X119326600Y-63484000I2297753J-1928295D01*
G01*
X121938600Y-58852000D02*
X121938600Y-62718000D01*
X121938600Y-67107000D02*
X121938600Y-70972000D01*
X112118600Y-58852000D02*
X112118600Y-62718000D01*
X112118600Y-67107000D02*
X112118600Y-70972000D01*
X121938600Y-58852000D02*
X120353600Y-58852000D01*
X118703600Y-58852000D02*
X117853600Y-58852000D01*
X116203600Y-58852000D02*
X115353600Y-58852000D01*
X113703600Y-58852000D02*
X112118600Y-58852000D01*
X121938600Y-70972000D02*
X112118600Y-70972000D01*
X145559400Y-122797200D02*
X144559400Y-122797200D01*
X144559400Y-124497200D02*
X145559400Y-124497200D01*
X130040000Y-127039000D02*
X129040000Y-127039000D01*
X129040000Y-128739000D02*
X130040000Y-128739000D01*
X128690000Y-64905000D02*
X128690000Y-65905000D01*
X130390000Y-65905000D02*
X130390000Y-64905000D01*
X130390000Y-73271000D02*
X130390000Y-72271000D01*
X128690000Y-72271000D02*
X128690000Y-73271000D01*
X133060000Y-126222000D02*
X133060000Y-124222000D01*
X133060000Y-124222000D02*
X129160000Y-124222000D01*
X133060000Y-126222000D02*
X129160000Y-126222000D01*
X130128000Y-120297000D02*
X121328000Y-120297000D01*
X121328000Y-120297000D02*
X121328000Y-111097000D01*
X136028000Y-117597000D02*
X136028000Y-120297000D01*
X136028000Y-120297000D02*
X134128000Y-120297000D01*
X121328000Y-111097000D02*
X136028000Y-111097000D01*
X136028000Y-111097000D02*
X136028000Y-113697000D01*
X134179000Y-54169000D02*
X134179000Y-56829000D01*
X141859000Y-54169000D02*
X134179000Y-54169000D01*
X141859000Y-56829000D02*
X134179000Y-56829000D01*
X141859000Y-54169000D02*
X141859000Y-56829000D01*
X143129000Y-54169000D02*
X144459000Y-54169000D01*
X144459000Y-54169000D02*
X144459000Y-55499000D01*
D12*
X131953000Y-100965000D02*
X131953000Y-104394000D01*
X132015000Y-104394000D02*
X135001000Y-104394000D01*
X131953000Y-100965000D02*
X131953000Y-97536000D01*
X132015000Y-97536000D02*
X135001000Y-97536000D01*
X155829000Y-109975000D02*
X155829000Y-91945000D01*
X135001000Y-109975000D02*
X135001000Y-91948000D01*
X155956000Y-106553000D02*
X164846000Y-106553000D01*
X164846000Y-106545000D02*
X164846000Y-95385000D01*
X164846000Y-95377000D02*
X155956000Y-95377000D01*
X135015000Y-91948000D02*
X155815000Y-91948000D01*
X135015000Y-109982000D02*
X155815000Y-109982000D01*
D13*
X137252000Y-124324000D02*
X136052000Y-124324000D01*
X136052000Y-122564000D02*
X137252000Y-122564000D01*
X138769800Y-120455800D02*
X139969800Y-120455800D01*
X139969800Y-122215800D02*
X138769800Y-122215800D01*
X110473600Y-76292000D02*
X110473600Y-75092000D01*
X112233600Y-75092000D02*
X112233600Y-76292000D01*
X119243600Y-72097000D02*
X114743600Y-72097000D01*
X120493600Y-76097000D02*
X120493600Y-74597000D01*
X114743600Y-78597000D02*
X119243600Y-78597000D01*
X113493600Y-74597000D02*
X113493600Y-76097000D01*
X149841000Y-116327000D02*
X148581000Y-116327000D01*
X143021000Y-116327000D02*
X144281000Y-116327000D01*
X149841000Y-120087000D02*
X149841000Y-116327000D01*
X143021000Y-122337000D02*
X143021000Y-116327000D01*
D12*
X107078600Y-68067000D02*
X107078600Y-68042000D01*
X102928600Y-68067000D02*
X102928600Y-67962000D01*
X102928600Y-57917000D02*
X102928600Y-58022000D01*
X107078600Y-57917000D02*
X107078600Y-58022000D01*
X107078600Y-68067000D02*
X102928600Y-68067000D01*
X107078600Y-57917000D02*
X102928600Y-57917000D01*
X107078600Y-68042000D02*
X108453600Y-68042000D01*
D13*
X135875000Y-65915000D02*
X135875000Y-72315000D01*
X130825000Y-65915000D02*
X130825000Y-72315000D01*
X130825000Y-65915000D02*
G75*
G02X135875000Y-65915000I2525000J0D01*
G01*
X130825000Y-72315000D02*
G75*
G03X135875000Y-72315000I2525000J0D01*
G01*
X103598600Y-68492000D02*
X102598600Y-68492000D01*
X102598600Y-70192000D02*
X103598600Y-70192000D01*
X110198600Y-74692000D02*
X110198600Y-77892000D01*
X108698600Y-77892000D02*
X108698600Y-74692000D01*
X108698600Y-77892000D02*
X110198600Y-77892000D01*
X94500000Y-61960000D02*
X94500000Y-58760000D01*
X96000000Y-58760000D02*
X96000000Y-61960000D01*
X96000000Y-58760000D02*
X94500000Y-58760000D01*
X94500000Y-69580000D02*
X94500000Y-66380000D01*
X96000000Y-66380000D02*
X96000000Y-69580000D01*
X96000000Y-66380000D02*
X94500000Y-66380000D01*
X94500000Y-77200000D02*
X94500000Y-74000000D01*
X96000000Y-74000000D02*
X96000000Y-77200000D01*
X96000000Y-74000000D02*
X94500000Y-74000000D01*
X94500000Y-84820000D02*
X94500000Y-81620000D01*
X96000000Y-81620000D02*
X96000000Y-84820000D01*
X96000000Y-81620000D02*
X94500000Y-81620000D01*
X94500000Y-92440000D02*
X94500000Y-89240000D01*
X96000000Y-89240000D02*
X96000000Y-92440000D01*
X96000000Y-89240000D02*
X94500000Y-89240000D01*
X94500000Y-100060000D02*
X94500000Y-96860000D01*
X96000000Y-96860000D02*
X96000000Y-100060000D01*
X96000000Y-96860000D02*
X94500000Y-96860000D01*
X114588600Y-56067000D02*
X114588600Y-53407000D01*
X96748600Y-56067000D02*
X114588600Y-56067000D01*
X96748600Y-53407000D02*
X114588600Y-53407000D01*
X96748600Y-56067000D02*
X96748600Y-53407000D01*
X95478600Y-56067000D02*
X94148600Y-56067000D01*
X94148600Y-56067000D02*
X94148600Y-54737000D01*
X146364000Y-62036000D02*
X146364000Y-59376000D01*
X128524000Y-62036000D02*
X146364000Y-62036000D01*
X128524000Y-59376000D02*
X146364000Y-59376000D01*
X128524000Y-62036000D02*
X128524000Y-59376000D01*
X127254000Y-62036000D02*
X125924000Y-62036000D01*
X125924000Y-62036000D02*
X125924000Y-60706000D01*
D12*
X140800000Y-77816000D02*
X140800000Y-77866000D01*
X144950000Y-77816000D02*
X144950000Y-77961000D01*
X144950000Y-82966000D02*
X144950000Y-82821000D01*
X140800000Y-82966000D02*
X140800000Y-82821000D01*
X140800000Y-77816000D02*
X144950000Y-77816000D01*
X140800000Y-82966000D02*
X144950000Y-82966000D01*
X140800000Y-77866000D02*
X139400000Y-77866000D01*
X146939000Y-125349000D02*
X133731000Y-125349000D01*
X133731000Y-125349000D02*
X133731000Y-137541000D01*
X133731000Y-137541000D02*
X146939000Y-137541000D01*
X146939000Y-137541000D02*
X146939000Y-125349000D01*
D14*
X141498001Y-63099190D02*
X141498001Y-63503952D01*
X141521810Y-63551571D01*
X141545620Y-63575381D01*
X141593239Y-63599190D01*
X141688477Y-63599190D01*
X141736096Y-63575381D01*
X141759905Y-63551571D01*
X141783715Y-63503952D01*
X141783715Y-63099190D01*
X141902763Y-63646810D02*
X142283715Y-63646810D01*
X142378953Y-63456333D02*
X142617048Y-63456333D01*
X142331334Y-63599190D02*
X142498001Y-63099190D01*
X142664667Y-63599190D01*
X142759905Y-63099190D02*
X142926572Y-63599190D01*
X143093238Y-63099190D01*
X143545619Y-63599190D02*
X143378952Y-63361095D01*
X143259905Y-63599190D02*
X143259905Y-63099190D01*
X143450381Y-63099190D01*
X143498000Y-63123000D01*
X143521809Y-63146810D01*
X143545619Y-63194429D01*
X143545619Y-63265857D01*
X143521809Y-63313476D01*
X143498000Y-63337286D01*
X143450381Y-63361095D01*
X143259905Y-63361095D01*
X144021809Y-63599190D02*
X143736095Y-63599190D01*
X143878952Y-63599190D02*
X143878952Y-63099190D01*
X143831333Y-63170619D01*
X143783714Y-63218238D01*
X143736095Y-63242048D01*
X120795410Y-56487190D02*
X120628743Y-56249095D01*
X120509696Y-56487190D02*
X120509696Y-55987190D01*
X120700172Y-55987190D01*
X120747791Y-56011000D01*
X120771600Y-56034810D01*
X120795410Y-56082429D01*
X120795410Y-56153857D01*
X120771600Y-56201476D01*
X120747791Y-56225286D01*
X120700172Y-56249095D01*
X120509696Y-56249095D01*
X120890648Y-56534810D02*
X121271600Y-56534810D01*
X121557314Y-56225286D02*
X121390648Y-56225286D01*
X121390648Y-56487190D02*
X121390648Y-55987190D01*
X121628743Y-55987190D01*
X122104933Y-56487190D02*
X121938266Y-56249095D01*
X121819219Y-56487190D02*
X121819219Y-55987190D01*
X122009695Y-55987190D01*
X122057314Y-56011000D01*
X122081123Y-56034810D01*
X122104933Y-56082429D01*
X122104933Y-56153857D01*
X122081123Y-56201476D01*
X122057314Y-56225286D01*
X122009695Y-56249095D01*
X121819219Y-56249095D01*
X122319219Y-56225286D02*
X122485885Y-56225286D01*
X122557314Y-56487190D02*
X122319219Y-56487190D01*
X122319219Y-55987190D01*
X122557314Y-55987190D01*
X123104933Y-56534810D02*
X123057314Y-56511000D01*
X123009695Y-56463381D01*
X122938266Y-56391952D01*
X122890647Y-56368143D01*
X122843028Y-56368143D01*
X122866838Y-56487190D02*
X122819219Y-56463381D01*
X122771600Y-56415762D01*
X122747790Y-56320524D01*
X122747790Y-56153857D01*
X122771600Y-56058619D01*
X122819219Y-56011000D01*
X122866838Y-55987190D01*
X122962076Y-55987190D01*
X123009695Y-56011000D01*
X123057314Y-56058619D01*
X123081123Y-56153857D01*
X123081123Y-56320524D01*
X123057314Y-56415762D01*
X123009695Y-56463381D01*
X122962076Y-56487190D01*
X122866838Y-56487190D01*
X123557314Y-56487190D02*
X123271600Y-56487190D01*
X123414457Y-56487190D02*
X123414457Y-55987190D01*
X123366838Y-56058619D01*
X123319219Y-56106238D01*
X123271600Y-56130048D01*
X147820867Y-123851171D02*
X147797057Y-123874981D01*
X147725629Y-123898790D01*
X147678010Y-123898790D01*
X147606581Y-123874981D01*
X147558962Y-123827362D01*
X147535153Y-123779743D01*
X147511343Y-123684505D01*
X147511343Y-123613076D01*
X147535153Y-123517838D01*
X147558962Y-123470219D01*
X147606581Y-123422600D01*
X147678010Y-123398790D01*
X147725629Y-123398790D01*
X147797057Y-123422600D01*
X147820867Y-123446410D01*
X148297057Y-123898790D02*
X148011343Y-123898790D01*
X148154200Y-123898790D02*
X148154200Y-123398790D01*
X148106581Y-123470219D01*
X148058962Y-123517838D01*
X148011343Y-123541648D01*
X132326867Y-128042171D02*
X132303057Y-128065981D01*
X132231629Y-128089790D01*
X132184010Y-128089790D01*
X132112581Y-128065981D01*
X132064962Y-128018362D01*
X132041153Y-127970743D01*
X132017343Y-127875505D01*
X132017343Y-127804076D01*
X132041153Y-127708838D01*
X132064962Y-127661219D01*
X132112581Y-127613600D01*
X132184010Y-127589790D01*
X132231629Y-127589790D01*
X132303057Y-127613600D01*
X132326867Y-127637410D01*
X132517343Y-127637410D02*
X132541153Y-127613600D01*
X132588772Y-127589790D01*
X132707819Y-127589790D01*
X132755438Y-127613600D01*
X132779248Y-127637410D01*
X132803057Y-127685029D01*
X132803057Y-127732648D01*
X132779248Y-127804076D01*
X132493534Y-128089790D01*
X132803057Y-128089790D01*
X128448571Y-67186761D02*
X128472381Y-67210571D01*
X128496190Y-67281999D01*
X128496190Y-67329618D01*
X128472381Y-67401047D01*
X128424762Y-67448666D01*
X128377143Y-67472475D01*
X128281905Y-67496285D01*
X128210476Y-67496285D01*
X128115238Y-67472475D01*
X128067619Y-67448666D01*
X128020000Y-67401047D01*
X127996190Y-67329618D01*
X127996190Y-67281999D01*
X128020000Y-67210571D01*
X128043810Y-67186761D01*
X128543810Y-67091523D02*
X128543810Y-66710571D01*
X128353333Y-66615333D02*
X128353333Y-66377238D01*
X128496190Y-66662952D02*
X127996190Y-66496285D01*
X128496190Y-66329619D01*
X127996190Y-66234381D02*
X128496190Y-66067714D01*
X127996190Y-65901048D01*
X128496190Y-65448667D02*
X128258095Y-65615334D01*
X128496190Y-65734381D02*
X127996190Y-65734381D01*
X127996190Y-65543905D01*
X128020000Y-65496286D01*
X128043810Y-65472477D01*
X128091429Y-65448667D01*
X128162857Y-65448667D01*
X128210476Y-65472477D01*
X128234286Y-65496286D01*
X128258095Y-65543905D01*
X128258095Y-65734381D01*
X128448571Y-64948667D02*
X128472381Y-64972477D01*
X128496190Y-65043905D01*
X128496190Y-65091524D01*
X128472381Y-65162953D01*
X128424762Y-65210572D01*
X128377143Y-65234381D01*
X128281905Y-65258191D01*
X128210476Y-65258191D01*
X128115238Y-65234381D01*
X128067619Y-65210572D01*
X128020000Y-65162953D01*
X127996190Y-65091524D01*
X127996190Y-65043905D01*
X128020000Y-64972477D01*
X128043810Y-64948667D01*
X128496190Y-64496286D02*
X128496190Y-64734381D01*
X127996190Y-64734381D01*
X128496190Y-64329619D02*
X127996190Y-64329619D01*
X128496190Y-64043905D02*
X128210476Y-64258191D01*
X127996190Y-64043905D02*
X128281905Y-64329619D01*
X128496190Y-63567715D02*
X128496190Y-63853429D01*
X128496190Y-63710572D02*
X127996190Y-63710572D01*
X128067619Y-63758191D01*
X128115238Y-63805810D01*
X128139048Y-63853429D01*
X128448571Y-74425761D02*
X128472381Y-74449571D01*
X128496190Y-74520999D01*
X128496190Y-74568618D01*
X128472381Y-74640047D01*
X128424762Y-74687666D01*
X128377143Y-74711475D01*
X128281905Y-74735285D01*
X128210476Y-74735285D01*
X128115238Y-74711475D01*
X128067619Y-74687666D01*
X128020000Y-74640047D01*
X127996190Y-74568618D01*
X127996190Y-74520999D01*
X128020000Y-74449571D01*
X128043810Y-74425761D01*
X128543810Y-74330523D02*
X128543810Y-73949571D01*
X128353333Y-73854333D02*
X128353333Y-73616238D01*
X128496190Y-73901952D02*
X127996190Y-73735285D01*
X128496190Y-73568619D01*
X127996190Y-73473381D02*
X128496190Y-73306714D01*
X127996190Y-73140048D01*
X128496190Y-72687667D02*
X128258095Y-72854334D01*
X128496190Y-72973381D02*
X127996190Y-72973381D01*
X127996190Y-72782905D01*
X128020000Y-72735286D01*
X128043810Y-72711477D01*
X128091429Y-72687667D01*
X128162857Y-72687667D01*
X128210476Y-72711477D01*
X128234286Y-72735286D01*
X128258095Y-72782905D01*
X128258095Y-72973381D01*
X128448571Y-72187667D02*
X128472381Y-72211477D01*
X128496190Y-72282905D01*
X128496190Y-72330524D01*
X128472381Y-72401953D01*
X128424762Y-72449572D01*
X128377143Y-72473381D01*
X128281905Y-72497191D01*
X128210476Y-72497191D01*
X128115238Y-72473381D01*
X128067619Y-72449572D01*
X128020000Y-72401953D01*
X127996190Y-72330524D01*
X127996190Y-72282905D01*
X128020000Y-72211477D01*
X128043810Y-72187667D01*
X128496190Y-71735286D02*
X128496190Y-71973381D01*
X127996190Y-71973381D01*
X128496190Y-71568619D02*
X127996190Y-71568619D01*
X128496190Y-71282905D02*
X128210476Y-71497191D01*
X127996190Y-71282905D02*
X128281905Y-71568619D01*
X128043810Y-71092429D02*
X128020000Y-71068619D01*
X127996190Y-71021000D01*
X127996190Y-70901953D01*
X128020000Y-70854334D01*
X128043810Y-70830524D01*
X128091429Y-70806715D01*
X128139048Y-70806715D01*
X128210476Y-70830524D01*
X128496190Y-71116238D01*
X128496190Y-70806715D01*
X128560002Y-123924190D02*
X128560002Y-123424190D01*
X128679049Y-123424190D01*
X128750478Y-123448000D01*
X128798097Y-123495619D01*
X128821906Y-123543238D01*
X128845716Y-123638476D01*
X128845716Y-123709905D01*
X128821906Y-123805143D01*
X128798097Y-123852762D01*
X128750478Y-123900381D01*
X128679049Y-123924190D01*
X128560002Y-123924190D01*
X128940954Y-123971810D02*
X129321906Y-123971810D01*
X129440954Y-123924190D02*
X129440954Y-123424190D01*
X129679049Y-123590857D02*
X129679049Y-123924190D01*
X129679049Y-123638476D02*
X129702858Y-123614667D01*
X129750477Y-123590857D01*
X129821906Y-123590857D01*
X129869525Y-123614667D01*
X129893334Y-123662286D01*
X129893334Y-123924190D01*
X130131430Y-123924190D02*
X130131430Y-123424190D01*
X130321906Y-123424190D01*
X130369525Y-123448000D01*
X130393334Y-123471810D01*
X130417144Y-123519429D01*
X130417144Y-123590857D01*
X130393334Y-123638476D01*
X130369525Y-123662286D01*
X130321906Y-123686095D01*
X130131430Y-123686095D01*
X130631430Y-123924190D02*
X130631430Y-123590857D01*
X130631430Y-123686095D02*
X130655239Y-123638476D01*
X130679049Y-123614667D01*
X130726668Y-123590857D01*
X130774287Y-123590857D01*
X131012382Y-123924190D02*
X130964763Y-123900381D01*
X130940954Y-123876571D01*
X130917144Y-123828952D01*
X130917144Y-123686095D01*
X130940954Y-123638476D01*
X130964763Y-123614667D01*
X131012382Y-123590857D01*
X131083811Y-123590857D01*
X131131430Y-123614667D01*
X131155239Y-123638476D01*
X131179049Y-123686095D01*
X131179049Y-123828952D01*
X131155239Y-123876571D01*
X131131430Y-123900381D01*
X131083811Y-123924190D01*
X131012382Y-123924190D01*
X131321906Y-123590857D02*
X131512382Y-123590857D01*
X131393335Y-123424190D02*
X131393335Y-123852762D01*
X131417144Y-123900381D01*
X131464763Y-123924190D01*
X131512382Y-123924190D01*
X131869525Y-123900381D02*
X131821906Y-123924190D01*
X131726668Y-123924190D01*
X131679049Y-123900381D01*
X131655239Y-123852762D01*
X131655239Y-123662286D01*
X131679049Y-123614667D01*
X131726668Y-123590857D01*
X131821906Y-123590857D01*
X131869525Y-123614667D01*
X131893334Y-123662286D01*
X131893334Y-123709905D01*
X131655239Y-123757524D01*
X132321905Y-123900381D02*
X132274286Y-123924190D01*
X132179048Y-123924190D01*
X132131429Y-123900381D01*
X132107620Y-123876571D01*
X132083810Y-123828952D01*
X132083810Y-123686095D01*
X132107620Y-123638476D01*
X132131429Y-123614667D01*
X132179048Y-123590857D01*
X132274286Y-123590857D01*
X132321905Y-123614667D01*
X132464762Y-123590857D02*
X132655238Y-123590857D01*
X132536191Y-123424190D02*
X132536191Y-123852762D01*
X132560000Y-123900381D01*
X132607619Y-123924190D01*
X132655238Y-123924190D01*
X133083809Y-123924190D02*
X132798095Y-123924190D01*
X132940952Y-123924190D02*
X132940952Y-123424190D01*
X132893333Y-123495619D01*
X132845714Y-123543238D01*
X132798095Y-123567048D01*
X129317858Y-110089190D02*
X129317858Y-110446333D01*
X129294048Y-110517762D01*
X129246429Y-110565381D01*
X129175001Y-110589190D01*
X129127382Y-110589190D01*
X129436905Y-110636810D02*
X129817857Y-110636810D01*
X129936905Y-110589190D02*
X129936905Y-110089190D01*
X130055952Y-110089190D01*
X130127381Y-110113000D01*
X130175000Y-110160619D01*
X130198809Y-110208238D01*
X130222619Y-110303476D01*
X130222619Y-110374905D01*
X130198809Y-110470143D01*
X130175000Y-110517762D01*
X130127381Y-110565381D01*
X130055952Y-110589190D01*
X129936905Y-110589190D01*
X130722619Y-110541571D02*
X130698809Y-110565381D01*
X130627381Y-110589190D01*
X130579762Y-110589190D01*
X130508333Y-110565381D01*
X130460714Y-110517762D01*
X130436905Y-110470143D01*
X130413095Y-110374905D01*
X130413095Y-110303476D01*
X130436905Y-110208238D01*
X130460714Y-110160619D01*
X130508333Y-110113000D01*
X130579762Y-110089190D01*
X130627381Y-110089190D01*
X130698809Y-110113000D01*
X130722619Y-110136810D01*
X131198809Y-110589190D02*
X130913095Y-110589190D01*
X131055952Y-110589190D02*
X131055952Y-110089190D01*
X131008333Y-110160619D01*
X130960714Y-110208238D01*
X130913095Y-110232048D01*
X145185190Y-56463284D02*
X145542333Y-56463284D01*
X145613762Y-56487094D01*
X145661381Y-56534713D01*
X145685190Y-56606141D01*
X145685190Y-56653760D01*
X145732810Y-56344237D02*
X145732810Y-55963285D01*
X145685190Y-55844237D02*
X145185190Y-55844237D01*
X145661381Y-55629952D02*
X145685190Y-55558523D01*
X145685190Y-55439476D01*
X145661381Y-55391857D01*
X145637571Y-55368047D01*
X145589952Y-55344238D01*
X145542333Y-55344238D01*
X145494714Y-55368047D01*
X145470905Y-55391857D01*
X145447095Y-55439476D01*
X145423286Y-55534714D01*
X145399476Y-55582333D01*
X145375667Y-55606142D01*
X145328048Y-55629952D01*
X145280429Y-55629952D01*
X145232810Y-55606142D01*
X145209000Y-55582333D01*
X145185190Y-55534714D01*
X145185190Y-55415666D01*
X145209000Y-55344238D01*
X145685190Y-55129952D02*
X145185190Y-55129952D01*
X145185190Y-54939476D01*
X145209000Y-54891857D01*
X145232810Y-54868048D01*
X145280429Y-54844238D01*
X145351857Y-54844238D01*
X145399476Y-54868048D01*
X145423286Y-54891857D01*
X145447095Y-54939476D01*
X145447095Y-55129952D01*
X145685190Y-54368048D02*
X145685190Y-54653762D01*
X145685190Y-54510905D02*
X145185190Y-54510905D01*
X145256619Y-54558524D01*
X145304238Y-54606143D01*
X145328048Y-54653762D01*
X132278572Y-104755190D02*
X132278572Y-105112333D01*
X132254762Y-105183762D01*
X132207143Y-105231381D01*
X132135715Y-105255190D01*
X132088096Y-105255190D01*
X132397619Y-105302810D02*
X132778571Y-105302810D01*
X132992857Y-104755190D02*
X133088095Y-104755190D01*
X133135714Y-104779000D01*
X133183333Y-104826619D01*
X133207142Y-104921857D01*
X133207142Y-105088524D01*
X133183333Y-105183762D01*
X133135714Y-105231381D01*
X133088095Y-105255190D01*
X132992857Y-105255190D01*
X132945238Y-105231381D01*
X132897619Y-105183762D01*
X132873809Y-105088524D01*
X132873809Y-104921857D01*
X132897619Y-104826619D01*
X132945238Y-104779000D01*
X132992857Y-104755190D01*
X133421429Y-104755190D02*
X133421429Y-105159952D01*
X133445238Y-105207571D01*
X133469048Y-105231381D01*
X133516667Y-105255190D01*
X133611905Y-105255190D01*
X133659524Y-105231381D01*
X133683333Y-105207571D01*
X133707143Y-105159952D01*
X133707143Y-104755190D01*
X133873810Y-104755190D02*
X134159524Y-104755190D01*
X134016667Y-105255190D02*
X134016667Y-104755190D01*
X134588095Y-105255190D02*
X134302381Y-105255190D01*
X134445238Y-105255190D02*
X134445238Y-104755190D01*
X134397619Y-104826619D01*
X134350000Y-104874238D01*
X134302381Y-104898048D01*
X134866867Y-122349390D02*
X134700200Y-122111295D01*
X134581153Y-122349390D02*
X134581153Y-121849390D01*
X134771629Y-121849390D01*
X134819248Y-121873200D01*
X134843057Y-121897010D01*
X134866867Y-121944629D01*
X134866867Y-122016057D01*
X134843057Y-122063676D01*
X134819248Y-122087486D01*
X134771629Y-122111295D01*
X134581153Y-122111295D01*
X135343057Y-122349390D02*
X135057343Y-122349390D01*
X135200200Y-122349390D02*
X135200200Y-121849390D01*
X135152581Y-121920819D01*
X135104962Y-121968438D01*
X135057343Y-121992248D01*
X137406867Y-120241190D02*
X137240200Y-120003095D01*
X137121153Y-120241190D02*
X137121153Y-119741190D01*
X137311629Y-119741190D01*
X137359248Y-119765000D01*
X137383057Y-119788810D01*
X137406867Y-119836429D01*
X137406867Y-119907857D01*
X137383057Y-119955476D01*
X137359248Y-119979286D01*
X137311629Y-120003095D01*
X137121153Y-120003095D01*
X137573534Y-119741190D02*
X137883057Y-119741190D01*
X137716391Y-119931667D01*
X137787819Y-119931667D01*
X137835438Y-119955476D01*
X137859248Y-119979286D01*
X137883057Y-120026905D01*
X137883057Y-120145952D01*
X137859248Y-120193571D01*
X137835438Y-120217381D01*
X137787819Y-120241190D01*
X137644962Y-120241190D01*
X137597343Y-120217381D01*
X137573534Y-120193571D01*
X111579790Y-72762904D02*
X111341695Y-72929571D01*
X111579790Y-73048618D02*
X111079790Y-73048618D01*
X111079790Y-72858142D01*
X111103600Y-72810523D01*
X111127410Y-72786714D01*
X111175029Y-72762904D01*
X111246457Y-72762904D01*
X111294076Y-72786714D01*
X111317886Y-72810523D01*
X111341695Y-72858142D01*
X111341695Y-73048618D01*
X111627410Y-72667666D02*
X111627410Y-72286714D01*
X111317886Y-72001000D02*
X111317886Y-72167666D01*
X111579790Y-72167666D02*
X111079790Y-72167666D01*
X111079790Y-71929571D01*
X111079790Y-71739095D02*
X111484552Y-71739095D01*
X111532171Y-71715286D01*
X111555981Y-71691476D01*
X111579790Y-71643857D01*
X111579790Y-71548619D01*
X111555981Y-71501000D01*
X111532171Y-71477191D01*
X111484552Y-71453381D01*
X111079790Y-71453381D01*
X111579790Y-71215285D02*
X111079790Y-71215285D01*
X111579790Y-70929571D01*
X111079790Y-70929571D01*
X111532171Y-70405761D02*
X111555981Y-70429571D01*
X111579790Y-70500999D01*
X111579790Y-70548618D01*
X111555981Y-70620047D01*
X111508362Y-70667666D01*
X111460743Y-70691475D01*
X111365505Y-70715285D01*
X111294076Y-70715285D01*
X111198838Y-70691475D01*
X111151219Y-70667666D01*
X111103600Y-70620047D01*
X111079790Y-70548618D01*
X111079790Y-70500999D01*
X111103600Y-70429571D01*
X111127410Y-70405761D01*
X111579790Y-69929571D02*
X111579790Y-70215285D01*
X111579790Y-70072428D02*
X111079790Y-70072428D01*
X111151219Y-70120047D01*
X111198838Y-70167666D01*
X111222648Y-70215285D01*
X122731981Y-77410238D02*
X122755790Y-77338809D01*
X122755790Y-77219762D01*
X122731981Y-77172143D01*
X122708171Y-77148333D01*
X122660552Y-77124524D01*
X122612933Y-77124524D01*
X122565314Y-77148333D01*
X122541505Y-77172143D01*
X122517695Y-77219762D01*
X122493886Y-77315000D01*
X122470076Y-77362619D01*
X122446267Y-77386428D01*
X122398648Y-77410238D01*
X122351029Y-77410238D01*
X122303410Y-77386428D01*
X122279600Y-77362619D01*
X122255790Y-77315000D01*
X122255790Y-77195952D01*
X122279600Y-77124524D01*
X122255790Y-76957857D02*
X122755790Y-76838810D01*
X122398648Y-76743572D01*
X122755790Y-76648334D01*
X122255790Y-76529286D01*
X122803410Y-76457857D02*
X122803410Y-76076905D01*
X122493886Y-75791191D02*
X122493886Y-75957857D01*
X122755790Y-75957857D02*
X122255790Y-75957857D01*
X122255790Y-75719762D01*
X122255790Y-75529286D02*
X122660552Y-75529286D01*
X122708171Y-75505477D01*
X122731981Y-75481667D01*
X122755790Y-75434048D01*
X122755790Y-75338810D01*
X122731981Y-75291191D01*
X122708171Y-75267382D01*
X122660552Y-75243572D01*
X122255790Y-75243572D01*
X122755790Y-75005476D02*
X122255790Y-75005476D01*
X122755790Y-74719762D01*
X122255790Y-74719762D01*
X122708171Y-74195952D02*
X122731981Y-74219762D01*
X122755790Y-74291190D01*
X122755790Y-74338809D01*
X122731981Y-74410238D01*
X122684362Y-74457857D01*
X122636743Y-74481666D01*
X122541505Y-74505476D01*
X122470076Y-74505476D01*
X122374838Y-74481666D01*
X122327219Y-74457857D01*
X122279600Y-74410238D01*
X122255790Y-74338809D01*
X122255790Y-74291190D01*
X122279600Y-74219762D01*
X122303410Y-74195952D01*
X122755790Y-73719762D02*
X122755790Y-74005476D01*
X122755790Y-73862619D02*
X122255790Y-73862619D01*
X122327219Y-73910238D01*
X122374838Y-73957857D01*
X122398648Y-74005476D01*
X138519887Y-111460790D02*
X138519887Y-111865552D01*
X138543696Y-111913171D01*
X138567506Y-111936981D01*
X138615125Y-111960790D01*
X138710363Y-111960790D01*
X138757982Y-111936981D01*
X138781791Y-111913171D01*
X138805601Y-111865552D01*
X138805601Y-111460790D01*
X138924649Y-112008410D02*
X139305601Y-112008410D01*
X139448458Y-111960790D02*
X139543696Y-111960790D01*
X139591315Y-111936981D01*
X139615125Y-111913171D01*
X139662744Y-111841743D01*
X139686553Y-111746505D01*
X139686553Y-111556029D01*
X139662744Y-111508410D01*
X139638934Y-111484600D01*
X139591315Y-111460790D01*
X139496077Y-111460790D01*
X139448458Y-111484600D01*
X139424649Y-111508410D01*
X139400839Y-111556029D01*
X139400839Y-111675076D01*
X139424649Y-111722695D01*
X139448458Y-111746505D01*
X139496077Y-111770314D01*
X139591315Y-111770314D01*
X139638934Y-111746505D01*
X139662744Y-111722695D01*
X139686553Y-111675076D01*
X140186553Y-111960790D02*
X140019886Y-111722695D01*
X139900839Y-111960790D02*
X139900839Y-111460790D01*
X140091315Y-111460790D01*
X140138934Y-111484600D01*
X140162743Y-111508410D01*
X140186553Y-111556029D01*
X140186553Y-111627457D01*
X140162743Y-111675076D01*
X140138934Y-111698886D01*
X140091315Y-111722695D01*
X139900839Y-111722695D01*
X140400839Y-111698886D02*
X140567505Y-111698886D01*
X140638934Y-111960790D02*
X140400839Y-111960790D01*
X140400839Y-111460790D01*
X140638934Y-111460790D01*
X141115124Y-111484600D02*
X141067505Y-111460790D01*
X140996077Y-111460790D01*
X140924648Y-111484600D01*
X140877029Y-111532219D01*
X140853220Y-111579838D01*
X140829410Y-111675076D01*
X140829410Y-111746505D01*
X140853220Y-111841743D01*
X140877029Y-111889362D01*
X140924648Y-111936981D01*
X140996077Y-111960790D01*
X141043696Y-111960790D01*
X141115124Y-111936981D01*
X141138934Y-111913171D01*
X141138934Y-111746505D01*
X141043696Y-111746505D01*
X141591315Y-111460790D02*
X141353220Y-111460790D01*
X141329410Y-111698886D01*
X141353220Y-111675076D01*
X141400839Y-111651267D01*
X141519886Y-111651267D01*
X141567505Y-111675076D01*
X141591315Y-111698886D01*
X141615124Y-111746505D01*
X141615124Y-111865552D01*
X141591315Y-111913171D01*
X141567505Y-111936981D01*
X141519886Y-111960790D01*
X141400839Y-111960790D01*
X141353220Y-111936981D01*
X141329410Y-111913171D01*
X109047790Y-68234428D02*
X109452552Y-68234428D01*
X109500171Y-68210619D01*
X109523981Y-68186809D01*
X109547790Y-68139190D01*
X109547790Y-68043952D01*
X109523981Y-67996333D01*
X109500171Y-67972524D01*
X109452552Y-67948714D01*
X109047790Y-67948714D01*
X109595410Y-67829666D02*
X109595410Y-67448714D01*
X109047790Y-67377285D02*
X109547790Y-67258238D01*
X109190648Y-67163000D01*
X109547790Y-67067762D01*
X109047790Y-66948714D01*
X109547790Y-66520142D02*
X109547790Y-66758237D01*
X109047790Y-66758237D01*
X109285886Y-66353475D02*
X109285886Y-66186809D01*
X109547790Y-66115380D02*
X109547790Y-66353475D01*
X109047790Y-66353475D01*
X109047790Y-66115380D01*
X109547790Y-65901094D02*
X109047790Y-65901094D01*
X109047790Y-65782047D01*
X109071600Y-65710618D01*
X109119219Y-65662999D01*
X109166838Y-65639190D01*
X109262076Y-65615380D01*
X109333505Y-65615380D01*
X109428743Y-65639190D01*
X109476362Y-65662999D01*
X109523981Y-65710618D01*
X109547790Y-65782047D01*
X109547790Y-65901094D01*
X109547790Y-65401094D02*
X109047790Y-65401094D01*
X109404933Y-65234428D01*
X109047790Y-65067761D01*
X109547790Y-65067761D01*
X109047790Y-64829665D02*
X109452552Y-64829665D01*
X109500171Y-64805856D01*
X109523981Y-64782046D01*
X109547790Y-64734427D01*
X109547790Y-64639189D01*
X109523981Y-64591570D01*
X109500171Y-64567761D01*
X109452552Y-64543951D01*
X109047790Y-64543951D01*
X109047790Y-64353474D02*
X109547790Y-64020141D01*
X109047790Y-64020141D02*
X109547790Y-64353474D01*
X109547790Y-63567761D02*
X109547790Y-63853475D01*
X109547790Y-63710618D02*
X109047790Y-63710618D01*
X109119219Y-63758237D01*
X109166838Y-63805856D01*
X109190648Y-63853475D01*
X131540478Y-62726095D02*
X131540478Y-62964190D01*
X131373811Y-62464190D02*
X131540478Y-62726095D01*
X131707144Y-62464190D01*
X131754763Y-63011810D02*
X132135715Y-63011810D01*
X132230953Y-62821333D02*
X132469048Y-62821333D01*
X132183334Y-62964190D02*
X132350001Y-62464190D01*
X132516667Y-62964190D01*
X132611905Y-62464190D02*
X132778572Y-62964190D01*
X132945238Y-62464190D01*
X133397619Y-62964190D02*
X133230952Y-62726095D01*
X133111905Y-62964190D02*
X133111905Y-62464190D01*
X133302381Y-62464190D01*
X133350000Y-62488000D01*
X133373809Y-62511810D01*
X133397619Y-62559429D01*
X133397619Y-62630857D01*
X133373809Y-62678476D01*
X133350000Y-62702286D01*
X133302381Y-62726095D01*
X133111905Y-62726095D01*
X133897619Y-62916571D02*
X133873809Y-62940381D01*
X133802381Y-62964190D01*
X133754762Y-62964190D01*
X133683333Y-62940381D01*
X133635714Y-62892762D01*
X133611905Y-62845143D01*
X133588095Y-62749905D01*
X133588095Y-62678476D01*
X133611905Y-62583238D01*
X133635714Y-62535619D01*
X133683333Y-62488000D01*
X133754762Y-62464190D01*
X133802381Y-62464190D01*
X133873809Y-62488000D01*
X133897619Y-62511810D01*
X134350000Y-62964190D02*
X134111905Y-62964190D01*
X134111905Y-62464190D01*
X134516667Y-62964190D02*
X134516667Y-62464190D01*
X134802381Y-62964190D02*
X134588095Y-62678476D01*
X134802381Y-62464190D02*
X134516667Y-62749905D01*
X135278571Y-62964190D02*
X134992857Y-62964190D01*
X135135714Y-62964190D02*
X135135714Y-62464190D01*
X135088095Y-62535619D01*
X135040476Y-62583238D01*
X134992857Y-62607048D01*
X101689791Y-70790571D02*
X101665981Y-70814381D01*
X101594553Y-70838190D01*
X101546934Y-70838190D01*
X101475505Y-70814381D01*
X101427886Y-70766762D01*
X101404077Y-70719143D01*
X101380267Y-70623905D01*
X101380267Y-70552476D01*
X101404077Y-70457238D01*
X101427886Y-70409619D01*
X101475505Y-70362000D01*
X101546934Y-70338190D01*
X101594553Y-70338190D01*
X101665981Y-70362000D01*
X101689791Y-70385810D01*
X101785029Y-70885810D02*
X102165981Y-70885810D01*
X102451695Y-70576286D02*
X102523124Y-70600095D01*
X102546933Y-70623905D01*
X102570743Y-70671524D01*
X102570743Y-70742952D01*
X102546933Y-70790571D01*
X102523124Y-70814381D01*
X102475505Y-70838190D01*
X102285029Y-70838190D01*
X102285029Y-70338190D01*
X102451695Y-70338190D01*
X102499314Y-70362000D01*
X102523124Y-70385810D01*
X102546933Y-70433429D01*
X102546933Y-70481048D01*
X102523124Y-70528667D01*
X102499314Y-70552476D01*
X102451695Y-70576286D01*
X102285029Y-70576286D01*
X102785029Y-70838190D02*
X102785029Y-70338190D01*
X102975505Y-70338190D01*
X103023124Y-70362000D01*
X103046933Y-70385810D01*
X103070743Y-70433429D01*
X103070743Y-70504857D01*
X103046933Y-70552476D01*
X103023124Y-70576286D01*
X102975505Y-70600095D01*
X102785029Y-70600095D01*
X103523124Y-70338190D02*
X103285029Y-70338190D01*
X103261219Y-70576286D01*
X103285029Y-70552476D01*
X103332648Y-70528667D01*
X103451695Y-70528667D01*
X103499314Y-70552476D01*
X103523124Y-70576286D01*
X103546933Y-70623905D01*
X103546933Y-70742952D01*
X103523124Y-70790571D01*
X103499314Y-70814381D01*
X103451695Y-70838190D01*
X103332648Y-70838190D01*
X103285029Y-70814381D01*
X103261219Y-70790571D01*
X109547790Y-73056618D02*
X109047790Y-73056618D01*
X109047790Y-72937571D01*
X109071600Y-72866142D01*
X109119219Y-72818523D01*
X109166838Y-72794714D01*
X109262076Y-72770904D01*
X109333505Y-72770904D01*
X109428743Y-72794714D01*
X109476362Y-72818523D01*
X109523981Y-72866142D01*
X109547790Y-72937571D01*
X109547790Y-73056618D01*
X109595410Y-72675666D02*
X109595410Y-72294714D01*
X109285886Y-72175666D02*
X109285886Y-72009000D01*
X109547790Y-71937571D02*
X109547790Y-72175666D01*
X109047790Y-72175666D01*
X109047790Y-71937571D01*
X109547790Y-71723285D02*
X109047790Y-71723285D01*
X109547790Y-71437571D01*
X109047790Y-71437571D01*
X109547790Y-70937571D02*
X109547790Y-71223285D01*
X109547790Y-71080428D02*
X109047790Y-71080428D01*
X109119219Y-71128047D01*
X109166838Y-71175666D01*
X109190648Y-71223285D01*
X94206190Y-62293309D02*
X93706190Y-62293309D01*
X93706190Y-62174262D01*
X93730000Y-62102833D01*
X93777619Y-62055214D01*
X93825238Y-62031405D01*
X93920476Y-62007595D01*
X93991905Y-62007595D01*
X94087143Y-62031405D01*
X94134762Y-62055214D01*
X94182381Y-62102833D01*
X94206190Y-62174262D01*
X94206190Y-62293309D01*
X94253810Y-61912357D02*
X94253810Y-61531405D01*
X93706190Y-61459976D02*
X94206190Y-61340929D01*
X93849048Y-61245691D01*
X94206190Y-61150453D01*
X93706190Y-61031405D01*
X94206190Y-60602833D02*
X94206190Y-60840928D01*
X93706190Y-60840928D01*
X93944286Y-60436166D02*
X93944286Y-60269500D01*
X94206190Y-60198071D02*
X94206190Y-60436166D01*
X93706190Y-60436166D01*
X93706190Y-60198071D01*
X94206190Y-59983785D02*
X93706190Y-59983785D01*
X93706190Y-59864738D01*
X93730000Y-59793309D01*
X93777619Y-59745690D01*
X93825238Y-59721881D01*
X93920476Y-59698071D01*
X93991905Y-59698071D01*
X94087143Y-59721881D01*
X94134762Y-59745690D01*
X94182381Y-59793309D01*
X94206190Y-59864738D01*
X94206190Y-59983785D01*
X94206190Y-59221881D02*
X94206190Y-59507595D01*
X94206190Y-59364738D02*
X93706190Y-59364738D01*
X93777619Y-59412357D01*
X93825238Y-59459976D01*
X93849048Y-59507595D01*
X94206190Y-69659309D02*
X93706190Y-69659309D01*
X93706190Y-69540262D01*
X93730000Y-69468833D01*
X93777619Y-69421214D01*
X93825238Y-69397405D01*
X93920476Y-69373595D01*
X93991905Y-69373595D01*
X94087143Y-69397405D01*
X94134762Y-69421214D01*
X94182381Y-69468833D01*
X94206190Y-69540262D01*
X94206190Y-69659309D01*
X94253810Y-69278357D02*
X94253810Y-68897405D01*
X93706190Y-68825976D02*
X94206190Y-68706929D01*
X93849048Y-68611691D01*
X94206190Y-68516453D01*
X93706190Y-68397405D01*
X94206190Y-67968833D02*
X94206190Y-68206928D01*
X93706190Y-68206928D01*
X93944286Y-67802166D02*
X93944286Y-67635500D01*
X94206190Y-67564071D02*
X94206190Y-67802166D01*
X93706190Y-67802166D01*
X93706190Y-67564071D01*
X94206190Y-67349785D02*
X93706190Y-67349785D01*
X93706190Y-67230738D01*
X93730000Y-67159309D01*
X93777619Y-67111690D01*
X93825238Y-67087881D01*
X93920476Y-67064071D01*
X93991905Y-67064071D01*
X94087143Y-67087881D01*
X94134762Y-67111690D01*
X94182381Y-67159309D01*
X94206190Y-67230738D01*
X94206190Y-67349785D01*
X93753810Y-66873595D02*
X93730000Y-66849785D01*
X93706190Y-66802166D01*
X93706190Y-66683119D01*
X93730000Y-66635500D01*
X93753810Y-66611690D01*
X93801429Y-66587881D01*
X93849048Y-66587881D01*
X93920476Y-66611690D01*
X94206190Y-66897404D01*
X94206190Y-66587881D01*
X94206190Y-77914309D02*
X93706190Y-77914309D01*
X93706190Y-77795262D01*
X93730000Y-77723833D01*
X93777619Y-77676214D01*
X93825238Y-77652405D01*
X93920476Y-77628595D01*
X93991905Y-77628595D01*
X94087143Y-77652405D01*
X94134762Y-77676214D01*
X94182381Y-77723833D01*
X94206190Y-77795262D01*
X94206190Y-77914309D01*
X94253810Y-77533357D02*
X94253810Y-77152405D01*
X93706190Y-77080976D02*
X94206190Y-76961929D01*
X93849048Y-76866691D01*
X94206190Y-76771453D01*
X93706190Y-76652405D01*
X94206190Y-76223833D02*
X94206190Y-76461928D01*
X93706190Y-76461928D01*
X93944286Y-76057166D02*
X93944286Y-75890500D01*
X94206190Y-75819071D02*
X94206190Y-76057166D01*
X93706190Y-76057166D01*
X93706190Y-75819071D01*
X94206190Y-75604785D02*
X93706190Y-75604785D01*
X93706190Y-75485738D01*
X93730000Y-75414309D01*
X93777619Y-75366690D01*
X93825238Y-75342881D01*
X93920476Y-75319071D01*
X93991905Y-75319071D01*
X94087143Y-75342881D01*
X94134762Y-75366690D01*
X94182381Y-75414309D01*
X94206190Y-75485738D01*
X94206190Y-75604785D01*
X93706190Y-75152404D02*
X93706190Y-74842881D01*
X93896667Y-75009547D01*
X93896667Y-74938119D01*
X93920476Y-74890500D01*
X93944286Y-74866690D01*
X93991905Y-74842881D01*
X94110952Y-74842881D01*
X94158571Y-74866690D01*
X94182381Y-74890500D01*
X94206190Y-74938119D01*
X94206190Y-75080976D01*
X94182381Y-75128595D01*
X94158571Y-75152404D01*
X94206190Y-85534309D02*
X93706190Y-85534309D01*
X93706190Y-85415262D01*
X93730000Y-85343833D01*
X93777619Y-85296214D01*
X93825238Y-85272405D01*
X93920476Y-85248595D01*
X93991905Y-85248595D01*
X94087143Y-85272405D01*
X94134762Y-85296214D01*
X94182381Y-85343833D01*
X94206190Y-85415262D01*
X94206190Y-85534309D01*
X94253810Y-85153357D02*
X94253810Y-84772405D01*
X93706190Y-84700976D02*
X94206190Y-84581929D01*
X93849048Y-84486691D01*
X94206190Y-84391453D01*
X93706190Y-84272405D01*
X94206190Y-83843833D02*
X94206190Y-84081928D01*
X93706190Y-84081928D01*
X93944286Y-83677166D02*
X93944286Y-83510500D01*
X94206190Y-83439071D02*
X94206190Y-83677166D01*
X93706190Y-83677166D01*
X93706190Y-83439071D01*
X94206190Y-83224785D02*
X93706190Y-83224785D01*
X93706190Y-83105738D01*
X93730000Y-83034309D01*
X93777619Y-82986690D01*
X93825238Y-82962881D01*
X93920476Y-82939071D01*
X93991905Y-82939071D01*
X94087143Y-82962881D01*
X94134762Y-82986690D01*
X94182381Y-83034309D01*
X94206190Y-83105738D01*
X94206190Y-83224785D01*
X93872857Y-82510500D02*
X94206190Y-82510500D01*
X93682381Y-82629547D02*
X94039524Y-82748595D01*
X94039524Y-82439071D01*
X94206190Y-93154309D02*
X93706190Y-93154309D01*
X93706190Y-93035262D01*
X93730000Y-92963833D01*
X93777619Y-92916214D01*
X93825238Y-92892405D01*
X93920476Y-92868595D01*
X93991905Y-92868595D01*
X94087143Y-92892405D01*
X94134762Y-92916214D01*
X94182381Y-92963833D01*
X94206190Y-93035262D01*
X94206190Y-93154309D01*
X94253810Y-92773357D02*
X94253810Y-92392405D01*
X93706190Y-92320976D02*
X94206190Y-92201929D01*
X93849048Y-92106691D01*
X94206190Y-92011453D01*
X93706190Y-91892405D01*
X94206190Y-91463833D02*
X94206190Y-91701928D01*
X93706190Y-91701928D01*
X93944286Y-91297166D02*
X93944286Y-91130500D01*
X94206190Y-91059071D02*
X94206190Y-91297166D01*
X93706190Y-91297166D01*
X93706190Y-91059071D01*
X94206190Y-90844785D02*
X93706190Y-90844785D01*
X93706190Y-90725738D01*
X93730000Y-90654309D01*
X93777619Y-90606690D01*
X93825238Y-90582881D01*
X93920476Y-90559071D01*
X93991905Y-90559071D01*
X94087143Y-90582881D01*
X94134762Y-90606690D01*
X94182381Y-90654309D01*
X94206190Y-90725738D01*
X94206190Y-90844785D01*
X93706190Y-90106690D02*
X93706190Y-90344785D01*
X93944286Y-90368595D01*
X93920476Y-90344785D01*
X93896667Y-90297166D01*
X93896667Y-90178119D01*
X93920476Y-90130500D01*
X93944286Y-90106690D01*
X93991905Y-90082881D01*
X94110952Y-90082881D01*
X94158571Y-90106690D01*
X94182381Y-90130500D01*
X94206190Y-90178119D01*
X94206190Y-90297166D01*
X94182381Y-90344785D01*
X94158571Y-90368595D01*
X94206190Y-100774309D02*
X93706190Y-100774309D01*
X93706190Y-100655262D01*
X93730000Y-100583833D01*
X93777619Y-100536214D01*
X93825238Y-100512405D01*
X93920476Y-100488595D01*
X93991905Y-100488595D01*
X94087143Y-100512405D01*
X94134762Y-100536214D01*
X94182381Y-100583833D01*
X94206190Y-100655262D01*
X94206190Y-100774309D01*
X94253810Y-100393357D02*
X94253810Y-100012405D01*
X93706190Y-99940976D02*
X94206190Y-99821929D01*
X93849048Y-99726691D01*
X94206190Y-99631453D01*
X93706190Y-99512405D01*
X94206190Y-99083833D02*
X94206190Y-99321928D01*
X93706190Y-99321928D01*
X93944286Y-98917166D02*
X93944286Y-98750500D01*
X94206190Y-98679071D02*
X94206190Y-98917166D01*
X93706190Y-98917166D01*
X93706190Y-98679071D01*
X94206190Y-98464785D02*
X93706190Y-98464785D01*
X93706190Y-98345738D01*
X93730000Y-98274309D01*
X93777619Y-98226690D01*
X93825238Y-98202881D01*
X93920476Y-98179071D01*
X93991905Y-98179071D01*
X94087143Y-98202881D01*
X94134762Y-98226690D01*
X94182381Y-98274309D01*
X94206190Y-98345738D01*
X94206190Y-98464785D01*
X93706190Y-97750500D02*
X93706190Y-97845738D01*
X93730000Y-97893357D01*
X93753810Y-97917166D01*
X93825238Y-97964785D01*
X93920476Y-97988595D01*
X94110952Y-97988595D01*
X94158571Y-97964785D01*
X94182381Y-97940976D01*
X94206190Y-97893357D01*
X94206190Y-97798119D01*
X94182381Y-97750500D01*
X94158571Y-97726690D01*
X94110952Y-97702881D01*
X93991905Y-97702881D01*
X93944286Y-97726690D01*
X93920476Y-97750500D01*
X93896667Y-97798119D01*
X93896667Y-97893357D01*
X93920476Y-97940976D01*
X93944286Y-97964785D01*
X93991905Y-97988595D01*
X92029790Y-59467475D02*
X92386933Y-59467475D01*
X92458362Y-59491285D01*
X92505981Y-59538904D01*
X92529790Y-59610332D01*
X92529790Y-59657951D01*
X92577410Y-59348428D02*
X92577410Y-58967476D01*
X92386933Y-58872238D02*
X92386933Y-58634143D01*
X92529790Y-58919857D02*
X92029790Y-58753190D01*
X92529790Y-58586524D01*
X92029790Y-58419857D02*
X92434552Y-58419857D01*
X92482171Y-58396048D01*
X92505981Y-58372238D01*
X92529790Y-58324619D01*
X92529790Y-58229381D01*
X92505981Y-58181762D01*
X92482171Y-58157953D01*
X92434552Y-58134143D01*
X92029790Y-58134143D01*
X92029790Y-57943666D02*
X92529790Y-57610333D01*
X92029790Y-57610333D02*
X92529790Y-57943666D01*
X92077410Y-57443667D02*
X92053600Y-57419857D01*
X92029790Y-57372238D01*
X92029790Y-57253191D01*
X92053600Y-57205572D01*
X92077410Y-57181762D01*
X92125029Y-57157953D01*
X92172648Y-57157953D01*
X92244076Y-57181762D01*
X92529790Y-57467476D01*
X92529790Y-57157953D01*
X92529790Y-56943667D02*
X92029790Y-56943667D01*
X92386933Y-56777001D01*
X92029790Y-56610334D01*
X92529790Y-56610334D01*
X92386933Y-56396048D02*
X92386933Y-56157953D01*
X92529790Y-56443667D02*
X92029790Y-56277000D01*
X92529790Y-56110334D01*
X92529790Y-55943667D02*
X92029790Y-55943667D01*
X92529790Y-55705572D02*
X92029790Y-55705572D01*
X92529790Y-55419858D01*
X92029790Y-55419858D01*
X92529790Y-54919858D02*
X92529790Y-55205572D01*
X92529790Y-55062715D02*
X92029790Y-55062715D01*
X92101219Y-55110334D01*
X92148838Y-55157953D01*
X92172648Y-55205572D01*
X132683525Y-58654190D02*
X132683525Y-59011333D01*
X132659715Y-59082762D01*
X132612096Y-59130381D01*
X132540668Y-59154190D01*
X132493049Y-59154190D01*
X132802572Y-59201810D02*
X133183524Y-59201810D01*
X133302572Y-59154190D02*
X133302572Y-58654190D01*
X133469238Y-59011333D01*
X133635905Y-58654190D01*
X133635905Y-59154190D01*
X133850191Y-59011333D02*
X134088286Y-59011333D01*
X133802572Y-59154190D02*
X133969239Y-58654190D01*
X134135905Y-59154190D01*
X134302572Y-59154190D02*
X134302572Y-58654190D01*
X134540667Y-59154190D02*
X134540667Y-58654190D01*
X134826381Y-59154190D01*
X134826381Y-58654190D01*
X135040667Y-58701810D02*
X135064477Y-58678000D01*
X135112096Y-58654190D01*
X135231143Y-58654190D01*
X135278762Y-58678000D01*
X135302572Y-58701810D01*
X135326381Y-58749429D01*
X135326381Y-58797048D01*
X135302572Y-58868476D01*
X135016858Y-59154190D01*
X135326381Y-59154190D01*
X135516857Y-59011333D02*
X135754952Y-59011333D01*
X135469238Y-59154190D02*
X135635905Y-58654190D01*
X135802571Y-59154190D01*
X135969238Y-58654190D02*
X135969238Y-59058952D01*
X135993047Y-59106571D01*
X136016857Y-59130381D01*
X136064476Y-59154190D01*
X136159714Y-59154190D01*
X136207333Y-59130381D01*
X136231142Y-59106571D01*
X136254952Y-59058952D01*
X136254952Y-58654190D01*
X136445429Y-58654190D02*
X136778762Y-59154190D01*
X136778762Y-58654190D02*
X136445429Y-59154190D01*
X137231142Y-59154190D02*
X136945428Y-59154190D01*
X137088285Y-59154190D02*
X137088285Y-58654190D01*
X137040666Y-58725619D01*
X136993047Y-58773238D01*
X136945428Y-58797048D01*
X140982144Y-76617190D02*
X140982144Y-77021952D01*
X141005953Y-77069571D01*
X141029763Y-77093381D01*
X141077382Y-77117190D01*
X141172620Y-77117190D01*
X141220239Y-77093381D01*
X141244048Y-77069571D01*
X141267858Y-77021952D01*
X141267858Y-76617190D01*
X141386906Y-77164810D02*
X141767858Y-77164810D01*
X141886906Y-77117190D02*
X141886906Y-76617190D01*
X142005953Y-76617190D01*
X142077382Y-76641000D01*
X142125001Y-76688619D01*
X142148810Y-76736238D01*
X142172620Y-76831476D01*
X142172620Y-76902905D01*
X142148810Y-76998143D01*
X142125001Y-77045762D01*
X142077382Y-77093381D01*
X142005953Y-77117190D01*
X141886906Y-77117190D01*
X142386906Y-77117190D02*
X142386906Y-76617190D01*
X142886905Y-76641000D02*
X142839286Y-76617190D01*
X142767858Y-76617190D01*
X142696429Y-76641000D01*
X142648810Y-76688619D01*
X142625001Y-76736238D01*
X142601191Y-76831476D01*
X142601191Y-76902905D01*
X142625001Y-76998143D01*
X142648810Y-77045762D01*
X142696429Y-77093381D01*
X142767858Y-77117190D01*
X142815477Y-77117190D01*
X142886905Y-77093381D01*
X142910715Y-77069571D01*
X142910715Y-76902905D01*
X142815477Y-76902905D01*
X143125001Y-77117190D02*
X143125001Y-76617190D01*
X143315477Y-76617190D01*
X143363096Y-76641000D01*
X143386905Y-76664810D01*
X143410715Y-76712429D01*
X143410715Y-76783857D01*
X143386905Y-76831476D01*
X143363096Y-76855286D01*
X143315477Y-76879095D01*
X143125001Y-76879095D01*
X143720239Y-76617190D02*
X143815477Y-76617190D01*
X143863096Y-76641000D01*
X143910715Y-76688619D01*
X143934524Y-76783857D01*
X143934524Y-76950524D01*
X143910715Y-77045762D01*
X143863096Y-77093381D01*
X143815477Y-77117190D01*
X143720239Y-77117190D01*
X143672620Y-77093381D01*
X143625001Y-77045762D01*
X143601191Y-76950524D01*
X143601191Y-76783857D01*
X143625001Y-76688619D01*
X143672620Y-76641000D01*
X143720239Y-76617190D01*
X144077382Y-76617190D02*
X144363096Y-76617190D01*
X144220239Y-77117190D02*
X144220239Y-76617190D01*
X144791667Y-77117190D02*
X144505953Y-77117190D01*
X144648810Y-77117190D02*
X144648810Y-76617190D01*
X144601191Y-76688619D01*
X144553572Y-76736238D01*
X144505953Y-76760048D01*
X133552381Y-137489238D02*
X133576190Y-137417809D01*
X133576190Y-137298762D01*
X133552381Y-137251143D01*
X133528571Y-137227333D01*
X133480952Y-137203524D01*
X133433333Y-137203524D01*
X133385714Y-137227333D01*
X133361905Y-137251143D01*
X133338095Y-137298762D01*
X133314286Y-137394000D01*
X133290476Y-137441619D01*
X133266667Y-137465428D01*
X133219048Y-137489238D01*
X133171429Y-137489238D01*
X133123810Y-137465428D01*
X133100000Y-137441619D01*
X133076190Y-137394000D01*
X133076190Y-137274952D01*
X133100000Y-137203524D01*
X133076190Y-137036857D02*
X133576190Y-136917810D01*
X133219048Y-136822572D01*
X133576190Y-136727334D01*
X133076190Y-136608286D01*
X133623810Y-136536857D02*
X133623810Y-136155905D01*
X133314286Y-136036857D02*
X133314286Y-135870191D01*
X133576190Y-135798762D02*
X133576190Y-136036857D01*
X133076190Y-136036857D01*
X133076190Y-135798762D01*
X133576190Y-135584476D02*
X133076190Y-135584476D01*
X133576190Y-135298762D01*
X133076190Y-135298762D01*
X133576190Y-134798762D02*
X133576190Y-135084476D01*
X133576190Y-134941619D02*
X133076190Y-134941619D01*
X133147619Y-134989238D01*
X133195238Y-135036857D01*
X133219048Y-135084476D01*
M02*
