G04 #@! TF.FileFunction,Copper,L2,Bot,Signal*
%FSLAX46Y46*%
G04 Gerber Fmt 4.6, Leading zero omitted, Abs format (unit mm)*
G04 Created by KiCad (PCBNEW 4.0.7) date 03/24/18 16:20:00*
%MOMM*%
%LPD*%
G01*
G04 APERTURE LIST*
%ADD10C,0.100000*%
%ADD11C,2.000000*%
%ADD12C,0.600000*%
%ADD13C,1.800000*%
%ADD14C,4.000000*%
%ADD15R,3.500000X3.500000*%
%ADD16R,1.700000X1.700000*%
%ADD17O,1.700000X1.700000*%
%ADD18O,5.000000X4.000000*%
%ADD19R,1.500000X1.300000*%
%ADD20C,2.000000*%
%ADD21C,1.500000*%
%ADD22R,1.500000X1.250000*%
%ADD23R,1.300000X1.500000*%
%ADD24R,1.998980X1.998980*%
%ADD25O,3.000000X4.000000*%
%ADD26R,1.250000X1.500000*%
%ADD27C,1.000000*%
%ADD28C,0.500000*%
%ADD29C,0.250000*%
%ADD30C,0.254000*%
G04 APERTURE END LIST*
D10*
D11*
X127913000Y-110109000D02*
X129413000Y-110109000D01*
X133985000Y-110109000D02*
X132485000Y-110109000D01*
D12*
X149240000Y-113169700D03*
X147840000Y-113169700D03*
X146440000Y-113169700D03*
X145040000Y-113169700D03*
X143640000Y-113169700D03*
X152136300Y-118769700D03*
X150736300Y-118769700D03*
X152136300Y-117369700D03*
X150736300Y-117369700D03*
X152136300Y-115969700D03*
X150736300Y-115969700D03*
X152136300Y-114569700D03*
X150736300Y-114569700D03*
X152136300Y-113169700D03*
X150736300Y-113169700D03*
X142220600Y-118769700D03*
X140820600Y-118769700D03*
X139420600Y-118769700D03*
X142220600Y-117369700D03*
X140820600Y-117369700D03*
X139420600Y-117369700D03*
X142220600Y-115969700D03*
X140820600Y-115969700D03*
X139420600Y-115969700D03*
X142220600Y-114569700D03*
X140820600Y-114569700D03*
X139420600Y-114569700D03*
X142214600Y-113169700D03*
X140820600Y-113169700D03*
D13*
X119528600Y-57912000D03*
X117028600Y-57912000D03*
X114528600Y-57912000D03*
D14*
X121428600Y-64912000D03*
X112628600Y-64912000D03*
D15*
X135128000Y-115697000D03*
X129128000Y-115697000D03*
X132128000Y-120397000D03*
D16*
X143129000Y-55499000D03*
D17*
X140589000Y-55499000D03*
X138049000Y-55499000D03*
X135509000Y-55499000D03*
D18*
X145392000Y-108965000D03*
X145265000Y-92965000D03*
X138915000Y-108965000D03*
X138915000Y-92965000D03*
X151915000Y-92965000D03*
X151892000Y-108965000D03*
D19*
X98098600Y-62992000D03*
X95398600Y-62992000D03*
X98124000Y-70866000D03*
X95424000Y-70866000D03*
X98098600Y-78867000D03*
X95398600Y-78867000D03*
X98098600Y-86487000D03*
X95398600Y-86487000D03*
X98098600Y-94107000D03*
X95398600Y-94107000D03*
X98098600Y-101727000D03*
X95398600Y-101727000D03*
D20*
X120243600Y-73097000D03*
X120243600Y-77597000D03*
X113743600Y-73097000D03*
X113743600Y-77597000D03*
D21*
X133350000Y-66675000D03*
X133350000Y-71555000D03*
D22*
X144061500Y-67246500D03*
X141561500Y-67246500D03*
D23*
X105638600Y-60118000D03*
X105638600Y-62818000D03*
D16*
X95478600Y-54737000D03*
D17*
X98018600Y-54737000D03*
X100558600Y-54737000D03*
X103098600Y-54737000D03*
X105638600Y-54737000D03*
X108178600Y-54737000D03*
X110718600Y-54737000D03*
X113258600Y-54737000D03*
D16*
X127254000Y-60706000D03*
D17*
X129794000Y-60706000D03*
X132334000Y-60706000D03*
X134874000Y-60706000D03*
X137414000Y-60706000D03*
X139954000Y-60706000D03*
X142494000Y-60706000D03*
X145034000Y-60706000D03*
D24*
X134747000Y-110109000D03*
X130937000Y-110109000D03*
X127127000Y-110109000D03*
D12*
X139420600Y-113169700D03*
D25*
X140335000Y-128905000D03*
X140335000Y-133985000D03*
X136334500Y-133985000D03*
X136334500Y-128905000D03*
X144335500Y-128841500D03*
X144335500Y-133985000D03*
D26*
X117856000Y-67330000D03*
X117856000Y-69830000D03*
D23*
X116205000Y-67103000D03*
X116205000Y-69803000D03*
D12*
X142290800Y-123647200D03*
X136601200Y-121335800D03*
X128270000Y-129286000D03*
X144081500Y-68770500D03*
X98107500Y-61404500D03*
X98107500Y-69024500D03*
X98171000Y-77216000D03*
X98107500Y-84709000D03*
X98107500Y-92519500D03*
X98107500Y-100203000D03*
X142163800Y-78943200D03*
X142138400Y-75692000D03*
X140970000Y-71247000D03*
X138531600Y-76885800D03*
X145605500Y-66611500D03*
X143408400Y-72136000D03*
X140182600Y-77495400D03*
X136245600Y-72517000D03*
X106273600Y-64262000D03*
X119824500Y-68135500D03*
X105638600Y-58547000D03*
X103733600Y-67437000D03*
X112141000Y-75565000D03*
X95440500Y-58293000D03*
X95440500Y-65913000D03*
X95440500Y-73469500D03*
X95440500Y-81153000D03*
X95440500Y-88773000D03*
X95440500Y-96393000D03*
X108813600Y-59817000D03*
X104368600Y-70612000D03*
X108813600Y-58547000D03*
X108813600Y-61087000D03*
X103568500Y-76708000D03*
X145732500Y-68834000D03*
X129540000Y-69024500D03*
X139954000Y-69596000D03*
X139954000Y-68008500D03*
X147066000Y-86360000D03*
X145923000Y-85217000D03*
X140208000Y-83439000D03*
D27*
X130937000Y-110109000D02*
X130937000Y-112903000D01*
D28*
X144061500Y-67246500D02*
X144081500Y-68770500D01*
D29*
X98098600Y-61413400D02*
X98098600Y-62992000D01*
X98107500Y-61404500D02*
X98098600Y-61413400D01*
X98124000Y-70866000D02*
X98107500Y-69024500D01*
X98171000Y-77216000D02*
X98171000Y-78794600D01*
X98107500Y-84709000D02*
X98107500Y-86478100D01*
X98107500Y-86478100D02*
X98098600Y-86487000D01*
X98098600Y-94107000D02*
X98098600Y-92528400D01*
X98098600Y-92528400D02*
X98107500Y-92519500D01*
X98107500Y-100203000D02*
X98107500Y-101718100D01*
X98107500Y-101718100D02*
X98098600Y-101727000D01*
X142163800Y-75717400D02*
X142163800Y-78943200D01*
X142138400Y-75692000D02*
X142163800Y-75717400D01*
X138506200Y-73710800D02*
X140970000Y-71247000D01*
X138506200Y-76860400D02*
X138506200Y-73710800D01*
X138531600Y-76885800D02*
X138506200Y-76860400D01*
X145605500Y-66611500D02*
X145605500Y-61277500D01*
X145605500Y-61277500D02*
X145034000Y-60706000D01*
X142976600Y-72136000D02*
X143408400Y-72136000D01*
X140182600Y-74930000D02*
X142976600Y-72136000D01*
X140182600Y-77495400D02*
X140182600Y-74930000D01*
X142494000Y-62230000D02*
X142494000Y-60706000D01*
X141655800Y-63068200D02*
X142494000Y-62230000D01*
X136779000Y-63068200D02*
X141655800Y-63068200D01*
X135636000Y-64211200D02*
X136779000Y-63068200D01*
X135636000Y-71907400D02*
X135636000Y-64211200D01*
X136245600Y-72517000D02*
X135636000Y-71907400D01*
X117856000Y-69830000D02*
X119169500Y-69830000D01*
X120243600Y-70904100D02*
X120243600Y-73097000D01*
X119169500Y-69830000D02*
X120243600Y-70904100D01*
X116205000Y-69803000D02*
X117829000Y-69803000D01*
X117829000Y-69803000D02*
X117856000Y-69830000D01*
X106273600Y-64262000D02*
X105638600Y-63627000D01*
X105638600Y-63627000D02*
X105638600Y-62818000D01*
X119019000Y-67330000D02*
X119824500Y-68135500D01*
X117856000Y-67330000D02*
X119019000Y-67330000D01*
X117856000Y-62103000D02*
X119528600Y-60430400D01*
X119528600Y-60430400D02*
X119528600Y-57912000D01*
X117856000Y-67330000D02*
X117856000Y-62103000D01*
D28*
X103733600Y-67437000D02*
X103733600Y-62023000D01*
X103733600Y-62023000D02*
X105638600Y-60118000D01*
X105638600Y-58547000D02*
X105638600Y-60118000D01*
D29*
X98018600Y-54737000D02*
X98018600Y-54102000D01*
X98018600Y-55372000D02*
X98018600Y-54737000D01*
X100558600Y-54737000D02*
X100558600Y-73698100D01*
X103568500Y-76708000D02*
X100965000Y-74104500D01*
X100558600Y-73698100D02*
X100965000Y-74104500D01*
X116205000Y-67103000D02*
X116205000Y-63119000D01*
X116205000Y-63119000D02*
X110718600Y-57632600D01*
X110718600Y-57632600D02*
X110718600Y-54737000D01*
D27*
X127127000Y-110109000D02*
X127127000Y-107442000D01*
D29*
X145923000Y-85217000D02*
X147066000Y-86360000D01*
D27*
X134747000Y-110109000D02*
X134747000Y-107442000D01*
D30*
G36*
X123343600Y-63100636D02*
X122923157Y-62679458D01*
X121955033Y-62277458D01*
X120906766Y-62276543D01*
X119937942Y-62676853D01*
X119196058Y-63417443D01*
X118794058Y-64385567D01*
X118793143Y-65433834D01*
X119193453Y-66402658D01*
X119934043Y-67144542D01*
X120902167Y-67546542D01*
X121950434Y-67547457D01*
X122919258Y-67147147D01*
X123343600Y-66723545D01*
X123343600Y-79681000D01*
X102209600Y-79681000D01*
X101937895Y-79735046D01*
X101707554Y-79888954D01*
X101553646Y-80119295D01*
X101499600Y-80391000D01*
X101499600Y-103303000D01*
X94283600Y-103303000D01*
X94283600Y-102910025D01*
X94288902Y-102915327D01*
X94522291Y-103012000D01*
X95112850Y-103012000D01*
X95271600Y-102853250D01*
X95271600Y-101854000D01*
X95251600Y-101854000D01*
X95251600Y-101600000D01*
X95271600Y-101600000D01*
X95271600Y-100600750D01*
X95525600Y-100600750D01*
X95525600Y-101600000D01*
X95545600Y-101600000D01*
X95545600Y-101854000D01*
X95525600Y-101854000D01*
X95525600Y-102853250D01*
X95684350Y-103012000D01*
X96274909Y-103012000D01*
X96508298Y-102915327D01*
X96686927Y-102736699D01*
X96743254Y-102600713D01*
X96745438Y-102612317D01*
X96884510Y-102828441D01*
X97096710Y-102973431D01*
X97348600Y-103024440D01*
X98848600Y-103024440D01*
X99083917Y-102980162D01*
X99300041Y-102841090D01*
X99445031Y-102628890D01*
X99496040Y-102377000D01*
X99496040Y-101077000D01*
X99451762Y-100841683D01*
X99312690Y-100625559D01*
X99100490Y-100480569D01*
X99012081Y-100462666D01*
X99042338Y-100389799D01*
X99042662Y-100017833D01*
X98900617Y-99674057D01*
X98637827Y-99410808D01*
X98294299Y-99268162D01*
X97922333Y-99267838D01*
X97578557Y-99409883D01*
X97315308Y-99672673D01*
X97172662Y-100016201D01*
X97172338Y-100388167D01*
X97200923Y-100457347D01*
X97113283Y-100473838D01*
X96897159Y-100612910D01*
X96752169Y-100825110D01*
X96745409Y-100858490D01*
X96686927Y-100717301D01*
X96508298Y-100538673D01*
X96274909Y-100442000D01*
X95684350Y-100442000D01*
X95525600Y-100600750D01*
X95271600Y-100600750D01*
X95112850Y-100442000D01*
X94522291Y-100442000D01*
X94288902Y-100538673D01*
X94283600Y-100543975D01*
X94283600Y-95290025D01*
X94288902Y-95295327D01*
X94522291Y-95392000D01*
X95112850Y-95392000D01*
X95271600Y-95233250D01*
X95271600Y-94234000D01*
X95251600Y-94234000D01*
X95251600Y-93980000D01*
X95271600Y-93980000D01*
X95271600Y-92980750D01*
X95525600Y-92980750D01*
X95525600Y-93980000D01*
X95545600Y-93980000D01*
X95545600Y-94234000D01*
X95525600Y-94234000D01*
X95525600Y-95233250D01*
X95684350Y-95392000D01*
X96274909Y-95392000D01*
X96508298Y-95295327D01*
X96686927Y-95116699D01*
X96743254Y-94980713D01*
X96745438Y-94992317D01*
X96884510Y-95208441D01*
X97096710Y-95353431D01*
X97348600Y-95404440D01*
X98848600Y-95404440D01*
X99083917Y-95360162D01*
X99300041Y-95221090D01*
X99445031Y-95008890D01*
X99496040Y-94757000D01*
X99496040Y-93457000D01*
X99451762Y-93221683D01*
X99312690Y-93005559D01*
X99100490Y-92860569D01*
X98987759Y-92837740D01*
X99042338Y-92706299D01*
X99042662Y-92334333D01*
X98900617Y-91990557D01*
X98637827Y-91727308D01*
X98294299Y-91584662D01*
X97922333Y-91584338D01*
X97578557Y-91726383D01*
X97315308Y-91989173D01*
X97172662Y-92332701D01*
X97172338Y-92704667D01*
X97225268Y-92832767D01*
X97113283Y-92853838D01*
X96897159Y-92992910D01*
X96752169Y-93205110D01*
X96745409Y-93238490D01*
X96686927Y-93097301D01*
X96508298Y-92918673D01*
X96274909Y-92822000D01*
X95684350Y-92822000D01*
X95525600Y-92980750D01*
X95271600Y-92980750D01*
X95112850Y-92822000D01*
X94522291Y-92822000D01*
X94288902Y-92918673D01*
X94283600Y-92923975D01*
X94283600Y-87670025D01*
X94288902Y-87675327D01*
X94522291Y-87772000D01*
X95112850Y-87772000D01*
X95271600Y-87613250D01*
X95271600Y-86614000D01*
X95251600Y-86614000D01*
X95251600Y-86360000D01*
X95271600Y-86360000D01*
X95271600Y-85360750D01*
X95525600Y-85360750D01*
X95525600Y-86360000D01*
X95545600Y-86360000D01*
X95545600Y-86614000D01*
X95525600Y-86614000D01*
X95525600Y-87613250D01*
X95684350Y-87772000D01*
X96274909Y-87772000D01*
X96508298Y-87675327D01*
X96686927Y-87496699D01*
X96743254Y-87360713D01*
X96745438Y-87372317D01*
X96884510Y-87588441D01*
X97096710Y-87733431D01*
X97348600Y-87784440D01*
X98848600Y-87784440D01*
X99083917Y-87740162D01*
X99300041Y-87601090D01*
X99445031Y-87388890D01*
X99496040Y-87137000D01*
X99496040Y-85837000D01*
X99451762Y-85601683D01*
X99312690Y-85385559D01*
X99100490Y-85240569D01*
X98914791Y-85202964D01*
X99042338Y-84895799D01*
X99042662Y-84523833D01*
X98900617Y-84180057D01*
X98637827Y-83916808D01*
X98294299Y-83774162D01*
X97922333Y-83773838D01*
X97578557Y-83915883D01*
X97315308Y-84178673D01*
X97172662Y-84522201D01*
X97172338Y-84894167D01*
X97298302Y-85199024D01*
X97113283Y-85233838D01*
X96897159Y-85372910D01*
X96752169Y-85585110D01*
X96745409Y-85618490D01*
X96686927Y-85477301D01*
X96508298Y-85298673D01*
X96274909Y-85202000D01*
X95684350Y-85202000D01*
X95525600Y-85360750D01*
X95271600Y-85360750D01*
X95112850Y-85202000D01*
X94522291Y-85202000D01*
X94288902Y-85298673D01*
X94283600Y-85303975D01*
X94283600Y-80050025D01*
X94288902Y-80055327D01*
X94522291Y-80152000D01*
X95112850Y-80152000D01*
X95271600Y-79993250D01*
X95271600Y-78994000D01*
X95251600Y-78994000D01*
X95251600Y-78740000D01*
X95271600Y-78740000D01*
X95271600Y-77740750D01*
X95525600Y-77740750D01*
X95525600Y-78740000D01*
X95545600Y-78740000D01*
X95545600Y-78994000D01*
X95525600Y-78994000D01*
X95525600Y-79993250D01*
X95684350Y-80152000D01*
X96274909Y-80152000D01*
X96508298Y-80055327D01*
X96686927Y-79876699D01*
X96743254Y-79740713D01*
X96745438Y-79752317D01*
X96884510Y-79968441D01*
X97096710Y-80113431D01*
X97348600Y-80164440D01*
X98848600Y-80164440D01*
X99083917Y-80120162D01*
X99300041Y-79981090D01*
X99445031Y-79768890D01*
X99496040Y-79517000D01*
X99496040Y-78217000D01*
X99451762Y-77981683D01*
X99412582Y-77920795D01*
X112108316Y-77920795D01*
X112356706Y-78521943D01*
X112816237Y-78982278D01*
X113416952Y-79231716D01*
X114067395Y-79232284D01*
X114668543Y-78983894D01*
X115128878Y-78524363D01*
X115378316Y-77923648D01*
X115378318Y-77920795D01*
X118608316Y-77920795D01*
X118856706Y-78521943D01*
X119316237Y-78982278D01*
X119916952Y-79231716D01*
X120567395Y-79232284D01*
X121168543Y-78983894D01*
X121628878Y-78524363D01*
X121878316Y-77923648D01*
X121878884Y-77273205D01*
X121630494Y-76672057D01*
X121170963Y-76211722D01*
X120570248Y-75962284D01*
X119919805Y-75961716D01*
X119318657Y-76210106D01*
X118858322Y-76669637D01*
X118608884Y-77270352D01*
X118608316Y-77920795D01*
X115378318Y-77920795D01*
X115378884Y-77273205D01*
X115130494Y-76672057D01*
X114670963Y-76211722D01*
X114070248Y-75962284D01*
X113419805Y-75961716D01*
X112818657Y-76210106D01*
X112358322Y-76669637D01*
X112108884Y-77270352D01*
X112108316Y-77920795D01*
X99412582Y-77920795D01*
X99312690Y-77765559D01*
X99100490Y-77620569D01*
X99022011Y-77604677D01*
X99105838Y-77402799D01*
X99106162Y-77030833D01*
X98964117Y-76687057D01*
X98701327Y-76423808D01*
X98357799Y-76281162D01*
X97985833Y-76280838D01*
X97642057Y-76422883D01*
X97378808Y-76685673D01*
X97236162Y-77029201D01*
X97235838Y-77401167D01*
X97308532Y-77577099D01*
X97113283Y-77613838D01*
X96897159Y-77752910D01*
X96752169Y-77965110D01*
X96745409Y-77998490D01*
X96686927Y-77857301D01*
X96508298Y-77678673D01*
X96274909Y-77582000D01*
X95684350Y-77582000D01*
X95525600Y-77740750D01*
X95271600Y-77740750D01*
X95112850Y-77582000D01*
X94522291Y-77582000D01*
X94288902Y-77678673D01*
X94283600Y-77683975D01*
X94283600Y-72023625D01*
X94314302Y-72054327D01*
X94547691Y-72151000D01*
X95138250Y-72151000D01*
X95297000Y-71992250D01*
X95297000Y-70993000D01*
X95277000Y-70993000D01*
X95277000Y-70739000D01*
X95297000Y-70739000D01*
X95297000Y-69739750D01*
X95551000Y-69739750D01*
X95551000Y-70739000D01*
X95571000Y-70739000D01*
X95571000Y-70993000D01*
X95551000Y-70993000D01*
X95551000Y-71992250D01*
X95709750Y-72151000D01*
X96300309Y-72151000D01*
X96533698Y-72054327D01*
X96712327Y-71875699D01*
X96768654Y-71739713D01*
X96770838Y-71751317D01*
X96909910Y-71967441D01*
X97122110Y-72112431D01*
X97374000Y-72163440D01*
X98874000Y-72163440D01*
X99109317Y-72119162D01*
X99325441Y-71980090D01*
X99470431Y-71767890D01*
X99521440Y-71516000D01*
X99521440Y-70216000D01*
X99477162Y-69980683D01*
X99338090Y-69764559D01*
X99125890Y-69619569D01*
X98883922Y-69570569D01*
X98899692Y-69554827D01*
X99042338Y-69211299D01*
X99042662Y-68839333D01*
X98900617Y-68495557D01*
X98637827Y-68232308D01*
X98294299Y-68089662D01*
X97922333Y-68089338D01*
X97578557Y-68231383D01*
X97315308Y-68494173D01*
X97172662Y-68837701D01*
X97172338Y-69209667D01*
X97314383Y-69553443D01*
X97336515Y-69575613D01*
X97138683Y-69612838D01*
X96922559Y-69751910D01*
X96777569Y-69964110D01*
X96770809Y-69997490D01*
X96712327Y-69856301D01*
X96533698Y-69677673D01*
X96300309Y-69581000D01*
X95709750Y-69581000D01*
X95551000Y-69739750D01*
X95297000Y-69739750D01*
X95138250Y-69581000D01*
X94547691Y-69581000D01*
X94314302Y-69677673D01*
X94283600Y-69708375D01*
X94283600Y-64175025D01*
X94288902Y-64180327D01*
X94522291Y-64277000D01*
X95112850Y-64277000D01*
X95271600Y-64118250D01*
X95271600Y-63119000D01*
X95251600Y-63119000D01*
X95251600Y-62865000D01*
X95271600Y-62865000D01*
X95271600Y-61865750D01*
X95525600Y-61865750D01*
X95525600Y-62865000D01*
X95545600Y-62865000D01*
X95545600Y-63119000D01*
X95525600Y-63119000D01*
X95525600Y-64118250D01*
X95684350Y-64277000D01*
X96274909Y-64277000D01*
X96508298Y-64180327D01*
X96686927Y-64001699D01*
X96743254Y-63865713D01*
X96745438Y-63877317D01*
X96884510Y-64093441D01*
X97096710Y-64238431D01*
X97348600Y-64289440D01*
X98848600Y-64289440D01*
X99083917Y-64245162D01*
X99300041Y-64106090D01*
X99445031Y-63893890D01*
X99496040Y-63642000D01*
X99496040Y-62342000D01*
X99451762Y-62106683D01*
X99312690Y-61890559D01*
X99100490Y-61745569D01*
X98987759Y-61722740D01*
X99042338Y-61591299D01*
X99042662Y-61219333D01*
X98900617Y-60875557D01*
X98637827Y-60612308D01*
X98294299Y-60469662D01*
X97922333Y-60469338D01*
X97578557Y-60611383D01*
X97315308Y-60874173D01*
X97172662Y-61217701D01*
X97172338Y-61589667D01*
X97225268Y-61717767D01*
X97113283Y-61738838D01*
X96897159Y-61877910D01*
X96752169Y-62090110D01*
X96745409Y-62123490D01*
X96686927Y-61982301D01*
X96508298Y-61803673D01*
X96274909Y-61707000D01*
X95684350Y-61707000D01*
X95525600Y-61865750D01*
X95271600Y-61865750D01*
X95112850Y-61707000D01*
X94522291Y-61707000D01*
X94288902Y-61803673D01*
X94283600Y-61808975D01*
X94283600Y-56131416D01*
X94502290Y-56222000D01*
X95192850Y-56222000D01*
X95351600Y-56063250D01*
X95351600Y-54864000D01*
X95331600Y-54864000D01*
X95331600Y-54610000D01*
X95351600Y-54610000D01*
X95351600Y-53410750D01*
X95605600Y-53410750D01*
X95605600Y-54610000D01*
X95625600Y-54610000D01*
X95625600Y-54864000D01*
X95605600Y-54864000D01*
X95605600Y-56063250D01*
X95764350Y-56222000D01*
X96454910Y-56222000D01*
X96688299Y-56125327D01*
X96866927Y-55946698D01*
X96939197Y-55772223D01*
X96968546Y-55816147D01*
X97450315Y-56138054D01*
X98018600Y-56251093D01*
X98586885Y-56138054D01*
X99068654Y-55816147D01*
X99288600Y-55486974D01*
X99508546Y-55816147D01*
X99798600Y-56009954D01*
X99798600Y-73698100D01*
X99856452Y-73988939D01*
X100021199Y-74235501D01*
X102633378Y-76847680D01*
X102633338Y-76893167D01*
X102775383Y-77236943D01*
X103038173Y-77500192D01*
X103381701Y-77642838D01*
X103753667Y-77643162D01*
X104097443Y-77501117D01*
X104360692Y-77238327D01*
X104503338Y-76894799D01*
X104503662Y-76522833D01*
X104361617Y-76179057D01*
X104098827Y-75915808D01*
X103755299Y-75773162D01*
X103708423Y-75773121D01*
X101356097Y-73420795D01*
X112108316Y-73420795D01*
X112356706Y-74021943D01*
X112816237Y-74482278D01*
X113416952Y-74731716D01*
X114067395Y-74732284D01*
X114668543Y-74483894D01*
X115128878Y-74024363D01*
X115378316Y-73423648D01*
X115378884Y-72773205D01*
X115130494Y-72172057D01*
X114670963Y-71711722D01*
X114070248Y-71462284D01*
X113419805Y-71461716D01*
X112818657Y-71710106D01*
X112358322Y-72169637D01*
X112108884Y-72770352D01*
X112108316Y-73420795D01*
X101356097Y-73420795D01*
X101318600Y-73383298D01*
X101318600Y-67622167D01*
X102798438Y-67622167D01*
X102940483Y-67965943D01*
X103203273Y-68229192D01*
X103546801Y-68371838D01*
X103918767Y-68372162D01*
X104262543Y-68230117D01*
X104525792Y-67967327D01*
X104668438Y-67623799D01*
X104668762Y-67251833D01*
X104618600Y-67130431D01*
X104618600Y-64083730D01*
X104736710Y-64164431D01*
X104988600Y-64215440D01*
X105152238Y-64215440D01*
X105338478Y-64401680D01*
X105338438Y-64447167D01*
X105480483Y-64790943D01*
X105743273Y-65054192D01*
X106086801Y-65196838D01*
X106458767Y-65197162D01*
X106802543Y-65055117D01*
X107065792Y-64792327D01*
X107208438Y-64448799D01*
X107208762Y-64076833D01*
X107066717Y-63733057D01*
X106930290Y-63596392D01*
X106936040Y-63568000D01*
X106936040Y-62068000D01*
X106891762Y-61832683D01*
X106752690Y-61616559D01*
X106540490Y-61471569D01*
X106527403Y-61468919D01*
X106740041Y-61332090D01*
X106885031Y-61119890D01*
X106936040Y-60868000D01*
X106936040Y-59368000D01*
X106891762Y-59132683D01*
X106752690Y-58916559D01*
X106553939Y-58780758D01*
X106573438Y-58733799D01*
X106573762Y-58361833D01*
X106431717Y-58018057D01*
X106168927Y-57754808D01*
X105825399Y-57612162D01*
X105453433Y-57611838D01*
X105109657Y-57753883D01*
X104846408Y-58016673D01*
X104703762Y-58360201D01*
X104703438Y-58732167D01*
X104724571Y-58783314D01*
X104537159Y-58903910D01*
X104392169Y-59116110D01*
X104341160Y-59368000D01*
X104341160Y-60163861D01*
X103107810Y-61397210D01*
X102915967Y-61684325D01*
X102915967Y-61684326D01*
X102848599Y-62023000D01*
X102848600Y-62023005D01*
X102848600Y-67130178D01*
X102798762Y-67250201D01*
X102798438Y-67622167D01*
X101318600Y-67622167D01*
X101318600Y-56009954D01*
X101608654Y-55816147D01*
X101828600Y-55486974D01*
X102048546Y-55816147D01*
X102530315Y-56138054D01*
X103098600Y-56251093D01*
X103666885Y-56138054D01*
X104148654Y-55816147D01*
X104368600Y-55486974D01*
X104588546Y-55816147D01*
X105070315Y-56138054D01*
X105638600Y-56251093D01*
X106206885Y-56138054D01*
X106688654Y-55816147D01*
X106908600Y-55486974D01*
X107128546Y-55816147D01*
X107610315Y-56138054D01*
X108178600Y-56251093D01*
X108746885Y-56138054D01*
X109228654Y-55816147D01*
X109448600Y-55486974D01*
X109668546Y-55816147D01*
X109958600Y-56009954D01*
X109958600Y-57632600D01*
X110016452Y-57923439D01*
X110181199Y-58170001D01*
X115445000Y-63433802D01*
X115445000Y-65726258D01*
X115319683Y-65749838D01*
X115103559Y-65888910D01*
X115033529Y-65991402D01*
X115263142Y-65438433D01*
X115264057Y-64390166D01*
X114863747Y-63421342D01*
X114123157Y-62679458D01*
X113155033Y-62277458D01*
X112106766Y-62276543D01*
X111137942Y-62676853D01*
X110396058Y-63417443D01*
X109994058Y-64385567D01*
X109993143Y-65433834D01*
X110393453Y-66402658D01*
X111134043Y-67144542D01*
X112102167Y-67546542D01*
X113150434Y-67547457D01*
X114119258Y-67147147D01*
X114861142Y-66406557D01*
X114930577Y-66239339D01*
X114907560Y-66353000D01*
X114907560Y-67853000D01*
X114951838Y-68088317D01*
X115090910Y-68304441D01*
X115303110Y-68449431D01*
X115316197Y-68452081D01*
X115103559Y-68588910D01*
X114958569Y-68801110D01*
X114907560Y-69053000D01*
X114907560Y-70553000D01*
X114951838Y-70788317D01*
X115090910Y-71004441D01*
X115303110Y-71149431D01*
X115555000Y-71200440D01*
X116855000Y-71200440D01*
X116980789Y-71176771D01*
X117231000Y-71227440D01*
X118481000Y-71227440D01*
X118716317Y-71183162D01*
X118932441Y-71044090D01*
X119077431Y-70831890D01*
X119080657Y-70815959D01*
X119483600Y-71218902D01*
X119483600Y-71641953D01*
X119318657Y-71710106D01*
X118858322Y-72169637D01*
X118608884Y-72770352D01*
X118608316Y-73420795D01*
X118856706Y-74021943D01*
X119316237Y-74482278D01*
X119916952Y-74731716D01*
X120567395Y-74732284D01*
X121168543Y-74483894D01*
X121628878Y-74024363D01*
X121878316Y-73423648D01*
X121878884Y-72773205D01*
X121630494Y-72172057D01*
X121170963Y-71711722D01*
X121003600Y-71642227D01*
X121003600Y-70904100D01*
X120945748Y-70613261D01*
X120781001Y-70366699D01*
X119706901Y-69292599D01*
X119460339Y-69127852D01*
X119169500Y-69070000D01*
X119126558Y-69070000D01*
X119084162Y-68844683D01*
X118945090Y-68628559D01*
X118875289Y-68580866D01*
X118932441Y-68544090D01*
X118963109Y-68499206D01*
X119031383Y-68664443D01*
X119294173Y-68927692D01*
X119637701Y-69070338D01*
X120009667Y-69070662D01*
X120353443Y-68928617D01*
X120616692Y-68665827D01*
X120759338Y-68322299D01*
X120759662Y-67950333D01*
X120617617Y-67606557D01*
X120354827Y-67343308D01*
X120011299Y-67200662D01*
X119964423Y-67200621D01*
X119556401Y-66792599D01*
X119309839Y-66627852D01*
X119128440Y-66591769D01*
X119128440Y-66580000D01*
X119084162Y-66344683D01*
X118945090Y-66128559D01*
X118732890Y-65983569D01*
X118616000Y-65959898D01*
X118616000Y-62417802D01*
X120066001Y-60967801D01*
X120230748Y-60721239D01*
X120288600Y-60430400D01*
X120288600Y-59258846D01*
X120396971Y-59214068D01*
X120829151Y-58782643D01*
X121063333Y-58218670D01*
X121063865Y-57608009D01*
X120830668Y-57043629D01*
X120399243Y-56611449D01*
X119835270Y-56377267D01*
X119224609Y-56376735D01*
X118660229Y-56609932D01*
X118278312Y-56991182D01*
X117899243Y-56611449D01*
X117335270Y-56377267D01*
X116724609Y-56376735D01*
X116160229Y-56609932D01*
X115728049Y-57041357D01*
X115724306Y-57050372D01*
X115608759Y-57011446D01*
X114708205Y-57912000D01*
X115608759Y-58812554D01*
X115723814Y-58773793D01*
X115726532Y-58780371D01*
X116157957Y-59212551D01*
X116721930Y-59446733D01*
X117332591Y-59447265D01*
X117896971Y-59214068D01*
X118278888Y-58832818D01*
X118657957Y-59212551D01*
X118768600Y-59258494D01*
X118768600Y-60115598D01*
X117318599Y-61565599D01*
X117153852Y-61812161D01*
X117096000Y-62103000D01*
X117096000Y-65754364D01*
X116965000Y-65727836D01*
X116965000Y-63119000D01*
X116907148Y-62828161D01*
X116907148Y-62828160D01*
X116742401Y-62581599D01*
X113152961Y-58992159D01*
X113628046Y-58992159D01*
X113714452Y-59248643D01*
X114287936Y-59458458D01*
X114898060Y-59432839D01*
X115342748Y-59248643D01*
X115429154Y-58992159D01*
X114528600Y-58091605D01*
X113628046Y-58992159D01*
X113152961Y-58992159D01*
X111832138Y-57671336D01*
X112982142Y-57671336D01*
X113007761Y-58281460D01*
X113191957Y-58726148D01*
X113448441Y-58812554D01*
X114348995Y-57912000D01*
X113448441Y-57011446D01*
X113191957Y-57097852D01*
X112982142Y-57671336D01*
X111832138Y-57671336D01*
X111478600Y-57317798D01*
X111478600Y-56831841D01*
X113628046Y-56831841D01*
X114528600Y-57732395D01*
X115429154Y-56831841D01*
X115342748Y-56575357D01*
X114769264Y-56365542D01*
X114159140Y-56391161D01*
X113714452Y-56575357D01*
X113628046Y-56831841D01*
X111478600Y-56831841D01*
X111478600Y-56009954D01*
X111768654Y-55816147D01*
X111988600Y-55486974D01*
X112208546Y-55816147D01*
X112690315Y-56138054D01*
X113258600Y-56251093D01*
X113826885Y-56138054D01*
X114308654Y-55816147D01*
X114630561Y-55334378D01*
X114743600Y-54766093D01*
X114743600Y-54707907D01*
X114630561Y-54139622D01*
X114308654Y-53657853D01*
X113826885Y-53335946D01*
X113258600Y-53222907D01*
X112690315Y-53335946D01*
X112208546Y-53657853D01*
X111988600Y-53987026D01*
X111768654Y-53657853D01*
X111286885Y-53335946D01*
X110718600Y-53222907D01*
X110150315Y-53335946D01*
X109668546Y-53657853D01*
X109448600Y-53987026D01*
X109228654Y-53657853D01*
X108746885Y-53335946D01*
X108178600Y-53222907D01*
X107610315Y-53335946D01*
X107128546Y-53657853D01*
X106908600Y-53987026D01*
X106688654Y-53657853D01*
X106206885Y-53335946D01*
X105638600Y-53222907D01*
X105070315Y-53335946D01*
X104588546Y-53657853D01*
X104368600Y-53987026D01*
X104148654Y-53657853D01*
X103666885Y-53335946D01*
X103098600Y-53222907D01*
X102530315Y-53335946D01*
X102048546Y-53657853D01*
X101828600Y-53987026D01*
X101608654Y-53657853D01*
X101126885Y-53335946D01*
X100558600Y-53222907D01*
X99990315Y-53335946D01*
X99508546Y-53657853D01*
X99288600Y-53987026D01*
X99068654Y-53657853D01*
X98586885Y-53335946D01*
X98018600Y-53222907D01*
X97450315Y-53335946D01*
X96968546Y-53657853D01*
X96939197Y-53701777D01*
X96866927Y-53527302D01*
X96688299Y-53348673D01*
X96454910Y-53252000D01*
X95764350Y-53252000D01*
X95605600Y-53410750D01*
X95351600Y-53410750D01*
X95192850Y-53252000D01*
X94502290Y-53252000D01*
X94283600Y-53342584D01*
X94283600Y-53161000D01*
X123343600Y-53161000D01*
X123343600Y-63100636D01*
X123343600Y-63100636D01*
G37*
X123343600Y-63100636D02*
X122923157Y-62679458D01*
X121955033Y-62277458D01*
X120906766Y-62276543D01*
X119937942Y-62676853D01*
X119196058Y-63417443D01*
X118794058Y-64385567D01*
X118793143Y-65433834D01*
X119193453Y-66402658D01*
X119934043Y-67144542D01*
X120902167Y-67546542D01*
X121950434Y-67547457D01*
X122919258Y-67147147D01*
X123343600Y-66723545D01*
X123343600Y-79681000D01*
X102209600Y-79681000D01*
X101937895Y-79735046D01*
X101707554Y-79888954D01*
X101553646Y-80119295D01*
X101499600Y-80391000D01*
X101499600Y-103303000D01*
X94283600Y-103303000D01*
X94283600Y-102910025D01*
X94288902Y-102915327D01*
X94522291Y-103012000D01*
X95112850Y-103012000D01*
X95271600Y-102853250D01*
X95271600Y-101854000D01*
X95251600Y-101854000D01*
X95251600Y-101600000D01*
X95271600Y-101600000D01*
X95271600Y-100600750D01*
X95525600Y-100600750D01*
X95525600Y-101600000D01*
X95545600Y-101600000D01*
X95545600Y-101854000D01*
X95525600Y-101854000D01*
X95525600Y-102853250D01*
X95684350Y-103012000D01*
X96274909Y-103012000D01*
X96508298Y-102915327D01*
X96686927Y-102736699D01*
X96743254Y-102600713D01*
X96745438Y-102612317D01*
X96884510Y-102828441D01*
X97096710Y-102973431D01*
X97348600Y-103024440D01*
X98848600Y-103024440D01*
X99083917Y-102980162D01*
X99300041Y-102841090D01*
X99445031Y-102628890D01*
X99496040Y-102377000D01*
X99496040Y-101077000D01*
X99451762Y-100841683D01*
X99312690Y-100625559D01*
X99100490Y-100480569D01*
X99012081Y-100462666D01*
X99042338Y-100389799D01*
X99042662Y-100017833D01*
X98900617Y-99674057D01*
X98637827Y-99410808D01*
X98294299Y-99268162D01*
X97922333Y-99267838D01*
X97578557Y-99409883D01*
X97315308Y-99672673D01*
X97172662Y-100016201D01*
X97172338Y-100388167D01*
X97200923Y-100457347D01*
X97113283Y-100473838D01*
X96897159Y-100612910D01*
X96752169Y-100825110D01*
X96745409Y-100858490D01*
X96686927Y-100717301D01*
X96508298Y-100538673D01*
X96274909Y-100442000D01*
X95684350Y-100442000D01*
X95525600Y-100600750D01*
X95271600Y-100600750D01*
X95112850Y-100442000D01*
X94522291Y-100442000D01*
X94288902Y-100538673D01*
X94283600Y-100543975D01*
X94283600Y-95290025D01*
X94288902Y-95295327D01*
X94522291Y-95392000D01*
X95112850Y-95392000D01*
X95271600Y-95233250D01*
X95271600Y-94234000D01*
X95251600Y-94234000D01*
X95251600Y-93980000D01*
X95271600Y-93980000D01*
X95271600Y-92980750D01*
X95525600Y-92980750D01*
X95525600Y-93980000D01*
X95545600Y-93980000D01*
X95545600Y-94234000D01*
X95525600Y-94234000D01*
X95525600Y-95233250D01*
X95684350Y-95392000D01*
X96274909Y-95392000D01*
X96508298Y-95295327D01*
X96686927Y-95116699D01*
X96743254Y-94980713D01*
X96745438Y-94992317D01*
X96884510Y-95208441D01*
X97096710Y-95353431D01*
X97348600Y-95404440D01*
X98848600Y-95404440D01*
X99083917Y-95360162D01*
X99300041Y-95221090D01*
X99445031Y-95008890D01*
X99496040Y-94757000D01*
X99496040Y-93457000D01*
X99451762Y-93221683D01*
X99312690Y-93005559D01*
X99100490Y-92860569D01*
X98987759Y-92837740D01*
X99042338Y-92706299D01*
X99042662Y-92334333D01*
X98900617Y-91990557D01*
X98637827Y-91727308D01*
X98294299Y-91584662D01*
X97922333Y-91584338D01*
X97578557Y-91726383D01*
X97315308Y-91989173D01*
X97172662Y-92332701D01*
X97172338Y-92704667D01*
X97225268Y-92832767D01*
X97113283Y-92853838D01*
X96897159Y-92992910D01*
X96752169Y-93205110D01*
X96745409Y-93238490D01*
X96686927Y-93097301D01*
X96508298Y-92918673D01*
X96274909Y-92822000D01*
X95684350Y-92822000D01*
X95525600Y-92980750D01*
X95271600Y-92980750D01*
X95112850Y-92822000D01*
X94522291Y-92822000D01*
X94288902Y-92918673D01*
X94283600Y-92923975D01*
X94283600Y-87670025D01*
X94288902Y-87675327D01*
X94522291Y-87772000D01*
X95112850Y-87772000D01*
X95271600Y-87613250D01*
X95271600Y-86614000D01*
X95251600Y-86614000D01*
X95251600Y-86360000D01*
X95271600Y-86360000D01*
X95271600Y-85360750D01*
X95525600Y-85360750D01*
X95525600Y-86360000D01*
X95545600Y-86360000D01*
X95545600Y-86614000D01*
X95525600Y-86614000D01*
X95525600Y-87613250D01*
X95684350Y-87772000D01*
X96274909Y-87772000D01*
X96508298Y-87675327D01*
X96686927Y-87496699D01*
X96743254Y-87360713D01*
X96745438Y-87372317D01*
X96884510Y-87588441D01*
X97096710Y-87733431D01*
X97348600Y-87784440D01*
X98848600Y-87784440D01*
X99083917Y-87740162D01*
X99300041Y-87601090D01*
X99445031Y-87388890D01*
X99496040Y-87137000D01*
X99496040Y-85837000D01*
X99451762Y-85601683D01*
X99312690Y-85385559D01*
X99100490Y-85240569D01*
X98914791Y-85202964D01*
X99042338Y-84895799D01*
X99042662Y-84523833D01*
X98900617Y-84180057D01*
X98637827Y-83916808D01*
X98294299Y-83774162D01*
X97922333Y-83773838D01*
X97578557Y-83915883D01*
X97315308Y-84178673D01*
X97172662Y-84522201D01*
X97172338Y-84894167D01*
X97298302Y-85199024D01*
X97113283Y-85233838D01*
X96897159Y-85372910D01*
X96752169Y-85585110D01*
X96745409Y-85618490D01*
X96686927Y-85477301D01*
X96508298Y-85298673D01*
X96274909Y-85202000D01*
X95684350Y-85202000D01*
X95525600Y-85360750D01*
X95271600Y-85360750D01*
X95112850Y-85202000D01*
X94522291Y-85202000D01*
X94288902Y-85298673D01*
X94283600Y-85303975D01*
X94283600Y-80050025D01*
X94288902Y-80055327D01*
X94522291Y-80152000D01*
X95112850Y-80152000D01*
X95271600Y-79993250D01*
X95271600Y-78994000D01*
X95251600Y-78994000D01*
X95251600Y-78740000D01*
X95271600Y-78740000D01*
X95271600Y-77740750D01*
X95525600Y-77740750D01*
X95525600Y-78740000D01*
X95545600Y-78740000D01*
X95545600Y-78994000D01*
X95525600Y-78994000D01*
X95525600Y-79993250D01*
X95684350Y-80152000D01*
X96274909Y-80152000D01*
X96508298Y-80055327D01*
X96686927Y-79876699D01*
X96743254Y-79740713D01*
X96745438Y-79752317D01*
X96884510Y-79968441D01*
X97096710Y-80113431D01*
X97348600Y-80164440D01*
X98848600Y-80164440D01*
X99083917Y-80120162D01*
X99300041Y-79981090D01*
X99445031Y-79768890D01*
X99496040Y-79517000D01*
X99496040Y-78217000D01*
X99451762Y-77981683D01*
X99412582Y-77920795D01*
X112108316Y-77920795D01*
X112356706Y-78521943D01*
X112816237Y-78982278D01*
X113416952Y-79231716D01*
X114067395Y-79232284D01*
X114668543Y-78983894D01*
X115128878Y-78524363D01*
X115378316Y-77923648D01*
X115378318Y-77920795D01*
X118608316Y-77920795D01*
X118856706Y-78521943D01*
X119316237Y-78982278D01*
X119916952Y-79231716D01*
X120567395Y-79232284D01*
X121168543Y-78983894D01*
X121628878Y-78524363D01*
X121878316Y-77923648D01*
X121878884Y-77273205D01*
X121630494Y-76672057D01*
X121170963Y-76211722D01*
X120570248Y-75962284D01*
X119919805Y-75961716D01*
X119318657Y-76210106D01*
X118858322Y-76669637D01*
X118608884Y-77270352D01*
X118608316Y-77920795D01*
X115378318Y-77920795D01*
X115378884Y-77273205D01*
X115130494Y-76672057D01*
X114670963Y-76211722D01*
X114070248Y-75962284D01*
X113419805Y-75961716D01*
X112818657Y-76210106D01*
X112358322Y-76669637D01*
X112108884Y-77270352D01*
X112108316Y-77920795D01*
X99412582Y-77920795D01*
X99312690Y-77765559D01*
X99100490Y-77620569D01*
X99022011Y-77604677D01*
X99105838Y-77402799D01*
X99106162Y-77030833D01*
X98964117Y-76687057D01*
X98701327Y-76423808D01*
X98357799Y-76281162D01*
X97985833Y-76280838D01*
X97642057Y-76422883D01*
X97378808Y-76685673D01*
X97236162Y-77029201D01*
X97235838Y-77401167D01*
X97308532Y-77577099D01*
X97113283Y-77613838D01*
X96897159Y-77752910D01*
X96752169Y-77965110D01*
X96745409Y-77998490D01*
X96686927Y-77857301D01*
X96508298Y-77678673D01*
X96274909Y-77582000D01*
X95684350Y-77582000D01*
X95525600Y-77740750D01*
X95271600Y-77740750D01*
X95112850Y-77582000D01*
X94522291Y-77582000D01*
X94288902Y-77678673D01*
X94283600Y-77683975D01*
X94283600Y-72023625D01*
X94314302Y-72054327D01*
X94547691Y-72151000D01*
X95138250Y-72151000D01*
X95297000Y-71992250D01*
X95297000Y-70993000D01*
X95277000Y-70993000D01*
X95277000Y-70739000D01*
X95297000Y-70739000D01*
X95297000Y-69739750D01*
X95551000Y-69739750D01*
X95551000Y-70739000D01*
X95571000Y-70739000D01*
X95571000Y-70993000D01*
X95551000Y-70993000D01*
X95551000Y-71992250D01*
X95709750Y-72151000D01*
X96300309Y-72151000D01*
X96533698Y-72054327D01*
X96712327Y-71875699D01*
X96768654Y-71739713D01*
X96770838Y-71751317D01*
X96909910Y-71967441D01*
X97122110Y-72112431D01*
X97374000Y-72163440D01*
X98874000Y-72163440D01*
X99109317Y-72119162D01*
X99325441Y-71980090D01*
X99470431Y-71767890D01*
X99521440Y-71516000D01*
X99521440Y-70216000D01*
X99477162Y-69980683D01*
X99338090Y-69764559D01*
X99125890Y-69619569D01*
X98883922Y-69570569D01*
X98899692Y-69554827D01*
X99042338Y-69211299D01*
X99042662Y-68839333D01*
X98900617Y-68495557D01*
X98637827Y-68232308D01*
X98294299Y-68089662D01*
X97922333Y-68089338D01*
X97578557Y-68231383D01*
X97315308Y-68494173D01*
X97172662Y-68837701D01*
X97172338Y-69209667D01*
X97314383Y-69553443D01*
X97336515Y-69575613D01*
X97138683Y-69612838D01*
X96922559Y-69751910D01*
X96777569Y-69964110D01*
X96770809Y-69997490D01*
X96712327Y-69856301D01*
X96533698Y-69677673D01*
X96300309Y-69581000D01*
X95709750Y-69581000D01*
X95551000Y-69739750D01*
X95297000Y-69739750D01*
X95138250Y-69581000D01*
X94547691Y-69581000D01*
X94314302Y-69677673D01*
X94283600Y-69708375D01*
X94283600Y-64175025D01*
X94288902Y-64180327D01*
X94522291Y-64277000D01*
X95112850Y-64277000D01*
X95271600Y-64118250D01*
X95271600Y-63119000D01*
X95251600Y-63119000D01*
X95251600Y-62865000D01*
X95271600Y-62865000D01*
X95271600Y-61865750D01*
X95525600Y-61865750D01*
X95525600Y-62865000D01*
X95545600Y-62865000D01*
X95545600Y-63119000D01*
X95525600Y-63119000D01*
X95525600Y-64118250D01*
X95684350Y-64277000D01*
X96274909Y-64277000D01*
X96508298Y-64180327D01*
X96686927Y-64001699D01*
X96743254Y-63865713D01*
X96745438Y-63877317D01*
X96884510Y-64093441D01*
X97096710Y-64238431D01*
X97348600Y-64289440D01*
X98848600Y-64289440D01*
X99083917Y-64245162D01*
X99300041Y-64106090D01*
X99445031Y-63893890D01*
X99496040Y-63642000D01*
X99496040Y-62342000D01*
X99451762Y-62106683D01*
X99312690Y-61890559D01*
X99100490Y-61745569D01*
X98987759Y-61722740D01*
X99042338Y-61591299D01*
X99042662Y-61219333D01*
X98900617Y-60875557D01*
X98637827Y-60612308D01*
X98294299Y-60469662D01*
X97922333Y-60469338D01*
X97578557Y-60611383D01*
X97315308Y-60874173D01*
X97172662Y-61217701D01*
X97172338Y-61589667D01*
X97225268Y-61717767D01*
X97113283Y-61738838D01*
X96897159Y-61877910D01*
X96752169Y-62090110D01*
X96745409Y-62123490D01*
X96686927Y-61982301D01*
X96508298Y-61803673D01*
X96274909Y-61707000D01*
X95684350Y-61707000D01*
X95525600Y-61865750D01*
X95271600Y-61865750D01*
X95112850Y-61707000D01*
X94522291Y-61707000D01*
X94288902Y-61803673D01*
X94283600Y-61808975D01*
X94283600Y-56131416D01*
X94502290Y-56222000D01*
X95192850Y-56222000D01*
X95351600Y-56063250D01*
X95351600Y-54864000D01*
X95331600Y-54864000D01*
X95331600Y-54610000D01*
X95351600Y-54610000D01*
X95351600Y-53410750D01*
X95605600Y-53410750D01*
X95605600Y-54610000D01*
X95625600Y-54610000D01*
X95625600Y-54864000D01*
X95605600Y-54864000D01*
X95605600Y-56063250D01*
X95764350Y-56222000D01*
X96454910Y-56222000D01*
X96688299Y-56125327D01*
X96866927Y-55946698D01*
X96939197Y-55772223D01*
X96968546Y-55816147D01*
X97450315Y-56138054D01*
X98018600Y-56251093D01*
X98586885Y-56138054D01*
X99068654Y-55816147D01*
X99288600Y-55486974D01*
X99508546Y-55816147D01*
X99798600Y-56009954D01*
X99798600Y-73698100D01*
X99856452Y-73988939D01*
X100021199Y-74235501D01*
X102633378Y-76847680D01*
X102633338Y-76893167D01*
X102775383Y-77236943D01*
X103038173Y-77500192D01*
X103381701Y-77642838D01*
X103753667Y-77643162D01*
X104097443Y-77501117D01*
X104360692Y-77238327D01*
X104503338Y-76894799D01*
X104503662Y-76522833D01*
X104361617Y-76179057D01*
X104098827Y-75915808D01*
X103755299Y-75773162D01*
X103708423Y-75773121D01*
X101356097Y-73420795D01*
X112108316Y-73420795D01*
X112356706Y-74021943D01*
X112816237Y-74482278D01*
X113416952Y-74731716D01*
X114067395Y-74732284D01*
X114668543Y-74483894D01*
X115128878Y-74024363D01*
X115378316Y-73423648D01*
X115378884Y-72773205D01*
X115130494Y-72172057D01*
X114670963Y-71711722D01*
X114070248Y-71462284D01*
X113419805Y-71461716D01*
X112818657Y-71710106D01*
X112358322Y-72169637D01*
X112108884Y-72770352D01*
X112108316Y-73420795D01*
X101356097Y-73420795D01*
X101318600Y-73383298D01*
X101318600Y-67622167D01*
X102798438Y-67622167D01*
X102940483Y-67965943D01*
X103203273Y-68229192D01*
X103546801Y-68371838D01*
X103918767Y-68372162D01*
X104262543Y-68230117D01*
X104525792Y-67967327D01*
X104668438Y-67623799D01*
X104668762Y-67251833D01*
X104618600Y-67130431D01*
X104618600Y-64083730D01*
X104736710Y-64164431D01*
X104988600Y-64215440D01*
X105152238Y-64215440D01*
X105338478Y-64401680D01*
X105338438Y-64447167D01*
X105480483Y-64790943D01*
X105743273Y-65054192D01*
X106086801Y-65196838D01*
X106458767Y-65197162D01*
X106802543Y-65055117D01*
X107065792Y-64792327D01*
X107208438Y-64448799D01*
X107208762Y-64076833D01*
X107066717Y-63733057D01*
X106930290Y-63596392D01*
X106936040Y-63568000D01*
X106936040Y-62068000D01*
X106891762Y-61832683D01*
X106752690Y-61616559D01*
X106540490Y-61471569D01*
X106527403Y-61468919D01*
X106740041Y-61332090D01*
X106885031Y-61119890D01*
X106936040Y-60868000D01*
X106936040Y-59368000D01*
X106891762Y-59132683D01*
X106752690Y-58916559D01*
X106553939Y-58780758D01*
X106573438Y-58733799D01*
X106573762Y-58361833D01*
X106431717Y-58018057D01*
X106168927Y-57754808D01*
X105825399Y-57612162D01*
X105453433Y-57611838D01*
X105109657Y-57753883D01*
X104846408Y-58016673D01*
X104703762Y-58360201D01*
X104703438Y-58732167D01*
X104724571Y-58783314D01*
X104537159Y-58903910D01*
X104392169Y-59116110D01*
X104341160Y-59368000D01*
X104341160Y-60163861D01*
X103107810Y-61397210D01*
X102915967Y-61684325D01*
X102915967Y-61684326D01*
X102848599Y-62023000D01*
X102848600Y-62023005D01*
X102848600Y-67130178D01*
X102798762Y-67250201D01*
X102798438Y-67622167D01*
X101318600Y-67622167D01*
X101318600Y-56009954D01*
X101608654Y-55816147D01*
X101828600Y-55486974D01*
X102048546Y-55816147D01*
X102530315Y-56138054D01*
X103098600Y-56251093D01*
X103666885Y-56138054D01*
X104148654Y-55816147D01*
X104368600Y-55486974D01*
X104588546Y-55816147D01*
X105070315Y-56138054D01*
X105638600Y-56251093D01*
X106206885Y-56138054D01*
X106688654Y-55816147D01*
X106908600Y-55486974D01*
X107128546Y-55816147D01*
X107610315Y-56138054D01*
X108178600Y-56251093D01*
X108746885Y-56138054D01*
X109228654Y-55816147D01*
X109448600Y-55486974D01*
X109668546Y-55816147D01*
X109958600Y-56009954D01*
X109958600Y-57632600D01*
X110016452Y-57923439D01*
X110181199Y-58170001D01*
X115445000Y-63433802D01*
X115445000Y-65726258D01*
X115319683Y-65749838D01*
X115103559Y-65888910D01*
X115033529Y-65991402D01*
X115263142Y-65438433D01*
X115264057Y-64390166D01*
X114863747Y-63421342D01*
X114123157Y-62679458D01*
X113155033Y-62277458D01*
X112106766Y-62276543D01*
X111137942Y-62676853D01*
X110396058Y-63417443D01*
X109994058Y-64385567D01*
X109993143Y-65433834D01*
X110393453Y-66402658D01*
X111134043Y-67144542D01*
X112102167Y-67546542D01*
X113150434Y-67547457D01*
X114119258Y-67147147D01*
X114861142Y-66406557D01*
X114930577Y-66239339D01*
X114907560Y-66353000D01*
X114907560Y-67853000D01*
X114951838Y-68088317D01*
X115090910Y-68304441D01*
X115303110Y-68449431D01*
X115316197Y-68452081D01*
X115103559Y-68588910D01*
X114958569Y-68801110D01*
X114907560Y-69053000D01*
X114907560Y-70553000D01*
X114951838Y-70788317D01*
X115090910Y-71004441D01*
X115303110Y-71149431D01*
X115555000Y-71200440D01*
X116855000Y-71200440D01*
X116980789Y-71176771D01*
X117231000Y-71227440D01*
X118481000Y-71227440D01*
X118716317Y-71183162D01*
X118932441Y-71044090D01*
X119077431Y-70831890D01*
X119080657Y-70815959D01*
X119483600Y-71218902D01*
X119483600Y-71641953D01*
X119318657Y-71710106D01*
X118858322Y-72169637D01*
X118608884Y-72770352D01*
X118608316Y-73420795D01*
X118856706Y-74021943D01*
X119316237Y-74482278D01*
X119916952Y-74731716D01*
X120567395Y-74732284D01*
X121168543Y-74483894D01*
X121628878Y-74024363D01*
X121878316Y-73423648D01*
X121878884Y-72773205D01*
X121630494Y-72172057D01*
X121170963Y-71711722D01*
X121003600Y-71642227D01*
X121003600Y-70904100D01*
X120945748Y-70613261D01*
X120781001Y-70366699D01*
X119706901Y-69292599D01*
X119460339Y-69127852D01*
X119169500Y-69070000D01*
X119126558Y-69070000D01*
X119084162Y-68844683D01*
X118945090Y-68628559D01*
X118875289Y-68580866D01*
X118932441Y-68544090D01*
X118963109Y-68499206D01*
X119031383Y-68664443D01*
X119294173Y-68927692D01*
X119637701Y-69070338D01*
X120009667Y-69070662D01*
X120353443Y-68928617D01*
X120616692Y-68665827D01*
X120759338Y-68322299D01*
X120759662Y-67950333D01*
X120617617Y-67606557D01*
X120354827Y-67343308D01*
X120011299Y-67200662D01*
X119964423Y-67200621D01*
X119556401Y-66792599D01*
X119309839Y-66627852D01*
X119128440Y-66591769D01*
X119128440Y-66580000D01*
X119084162Y-66344683D01*
X118945090Y-66128559D01*
X118732890Y-65983569D01*
X118616000Y-65959898D01*
X118616000Y-62417802D01*
X120066001Y-60967801D01*
X120230748Y-60721239D01*
X120288600Y-60430400D01*
X120288600Y-59258846D01*
X120396971Y-59214068D01*
X120829151Y-58782643D01*
X121063333Y-58218670D01*
X121063865Y-57608009D01*
X120830668Y-57043629D01*
X120399243Y-56611449D01*
X119835270Y-56377267D01*
X119224609Y-56376735D01*
X118660229Y-56609932D01*
X118278312Y-56991182D01*
X117899243Y-56611449D01*
X117335270Y-56377267D01*
X116724609Y-56376735D01*
X116160229Y-56609932D01*
X115728049Y-57041357D01*
X115724306Y-57050372D01*
X115608759Y-57011446D01*
X114708205Y-57912000D01*
X115608759Y-58812554D01*
X115723814Y-58773793D01*
X115726532Y-58780371D01*
X116157957Y-59212551D01*
X116721930Y-59446733D01*
X117332591Y-59447265D01*
X117896971Y-59214068D01*
X118278888Y-58832818D01*
X118657957Y-59212551D01*
X118768600Y-59258494D01*
X118768600Y-60115598D01*
X117318599Y-61565599D01*
X117153852Y-61812161D01*
X117096000Y-62103000D01*
X117096000Y-65754364D01*
X116965000Y-65727836D01*
X116965000Y-63119000D01*
X116907148Y-62828161D01*
X116907148Y-62828160D01*
X116742401Y-62581599D01*
X113152961Y-58992159D01*
X113628046Y-58992159D01*
X113714452Y-59248643D01*
X114287936Y-59458458D01*
X114898060Y-59432839D01*
X115342748Y-59248643D01*
X115429154Y-58992159D01*
X114528600Y-58091605D01*
X113628046Y-58992159D01*
X113152961Y-58992159D01*
X111832138Y-57671336D01*
X112982142Y-57671336D01*
X113007761Y-58281460D01*
X113191957Y-58726148D01*
X113448441Y-58812554D01*
X114348995Y-57912000D01*
X113448441Y-57011446D01*
X113191957Y-57097852D01*
X112982142Y-57671336D01*
X111832138Y-57671336D01*
X111478600Y-57317798D01*
X111478600Y-56831841D01*
X113628046Y-56831841D01*
X114528600Y-57732395D01*
X115429154Y-56831841D01*
X115342748Y-56575357D01*
X114769264Y-56365542D01*
X114159140Y-56391161D01*
X113714452Y-56575357D01*
X113628046Y-56831841D01*
X111478600Y-56831841D01*
X111478600Y-56009954D01*
X111768654Y-55816147D01*
X111988600Y-55486974D01*
X112208546Y-55816147D01*
X112690315Y-56138054D01*
X113258600Y-56251093D01*
X113826885Y-56138054D01*
X114308654Y-55816147D01*
X114630561Y-55334378D01*
X114743600Y-54766093D01*
X114743600Y-54707907D01*
X114630561Y-54139622D01*
X114308654Y-53657853D01*
X113826885Y-53335946D01*
X113258600Y-53222907D01*
X112690315Y-53335946D01*
X112208546Y-53657853D01*
X111988600Y-53987026D01*
X111768654Y-53657853D01*
X111286885Y-53335946D01*
X110718600Y-53222907D01*
X110150315Y-53335946D01*
X109668546Y-53657853D01*
X109448600Y-53987026D01*
X109228654Y-53657853D01*
X108746885Y-53335946D01*
X108178600Y-53222907D01*
X107610315Y-53335946D01*
X107128546Y-53657853D01*
X106908600Y-53987026D01*
X106688654Y-53657853D01*
X106206885Y-53335946D01*
X105638600Y-53222907D01*
X105070315Y-53335946D01*
X104588546Y-53657853D01*
X104368600Y-53987026D01*
X104148654Y-53657853D01*
X103666885Y-53335946D01*
X103098600Y-53222907D01*
X102530315Y-53335946D01*
X102048546Y-53657853D01*
X101828600Y-53987026D01*
X101608654Y-53657853D01*
X101126885Y-53335946D01*
X100558600Y-53222907D01*
X99990315Y-53335946D01*
X99508546Y-53657853D01*
X99288600Y-53987026D01*
X99068654Y-53657853D01*
X98586885Y-53335946D01*
X98018600Y-53222907D01*
X97450315Y-53335946D01*
X96968546Y-53657853D01*
X96939197Y-53701777D01*
X96866927Y-53527302D01*
X96688299Y-53348673D01*
X96454910Y-53252000D01*
X95764350Y-53252000D01*
X95605600Y-53410750D01*
X95351600Y-53410750D01*
X95192850Y-53252000D01*
X94502290Y-53252000D01*
X94283600Y-53342584D01*
X94283600Y-53161000D01*
X123343600Y-53161000D01*
X123343600Y-63100636D01*
G36*
X137795000Y-120370600D02*
X137805006Y-120420010D01*
X137833447Y-120461635D01*
X137875841Y-120488915D01*
X137922000Y-120497600D01*
X144907000Y-120497600D01*
X144907000Y-122910600D01*
X144917006Y-122960010D01*
X144945447Y-123001635D01*
X144987841Y-123028915D01*
X145034000Y-123037600D01*
X147828000Y-123037600D01*
X147877410Y-123027594D01*
X147919035Y-122999153D01*
X147946315Y-122956759D01*
X147955000Y-122910600D01*
X147955000Y-120497600D01*
X150596600Y-120497600D01*
X150596600Y-125881761D01*
X145669638Y-125857002D01*
X145669000Y-125857000D01*
X141909800Y-125857000D01*
X141860390Y-125867006D01*
X141818765Y-125895447D01*
X141791485Y-125937841D01*
X141782802Y-125984655D01*
X141787032Y-126805189D01*
X141152029Y-126380894D01*
X140335000Y-126218377D01*
X139517971Y-126380894D01*
X138825327Y-126843704D01*
X138362517Y-127536348D01*
X138334750Y-127675942D01*
X138306983Y-127536348D01*
X137844173Y-126843704D01*
X137151529Y-126380894D01*
X136334500Y-126218377D01*
X135517471Y-126380894D01*
X134824827Y-126843704D01*
X134362017Y-127536348D01*
X134199500Y-128353377D01*
X134199500Y-129456623D01*
X134362017Y-130273652D01*
X134703422Y-130784600D01*
X126059000Y-130784600D01*
X126059000Y-113947000D01*
X126730560Y-113947000D01*
X126730560Y-117447000D01*
X126774838Y-117682317D01*
X126913910Y-117898441D01*
X127126110Y-118043431D01*
X127378000Y-118094440D01*
X130064045Y-118094440D01*
X129926559Y-118182910D01*
X129781569Y-118395110D01*
X129730560Y-118647000D01*
X129730560Y-122147000D01*
X129774838Y-122382317D01*
X129913910Y-122598441D01*
X130126110Y-122743431D01*
X130378000Y-122794440D01*
X133878000Y-122794440D01*
X134113317Y-122750162D01*
X134329441Y-122611090D01*
X134474431Y-122398890D01*
X134525440Y-122147000D01*
X134525440Y-118647000D01*
X134481162Y-118411683D01*
X134342090Y-118195559D01*
X134175891Y-118082000D01*
X134842250Y-118082000D01*
X135001000Y-117923250D01*
X135001000Y-115824000D01*
X135255000Y-115824000D01*
X135255000Y-117923250D01*
X135413750Y-118082000D01*
X137004309Y-118082000D01*
X137237698Y-117985327D01*
X137416327Y-117806699D01*
X137513000Y-117573310D01*
X137513000Y-115982750D01*
X137354250Y-115824000D01*
X135255000Y-115824000D01*
X135001000Y-115824000D01*
X132901750Y-115824000D01*
X132743000Y-115982750D01*
X132743000Y-117573310D01*
X132839673Y-117806699D01*
X133018302Y-117985327D01*
X133052663Y-117999560D01*
X131191955Y-117999560D01*
X131329441Y-117911090D01*
X131474431Y-117698890D01*
X131525440Y-117447000D01*
X131525440Y-113947000D01*
X131501674Y-113820690D01*
X132743000Y-113820690D01*
X132743000Y-115411250D01*
X132901750Y-115570000D01*
X135001000Y-115570000D01*
X135001000Y-113470750D01*
X135255000Y-113470750D01*
X135255000Y-115570000D01*
X137354250Y-115570000D01*
X137513000Y-115411250D01*
X137513000Y-113820690D01*
X137416327Y-113587301D01*
X137237698Y-113408673D01*
X137004309Y-113312000D01*
X135413750Y-113312000D01*
X135255000Y-113470750D01*
X135001000Y-113470750D01*
X134842250Y-113312000D01*
X133251691Y-113312000D01*
X133018302Y-113408673D01*
X132839673Y-113587301D01*
X132743000Y-113820690D01*
X131501674Y-113820690D01*
X131481162Y-113711683D01*
X131342090Y-113495559D01*
X131129890Y-113350569D01*
X130878000Y-113299560D01*
X127378000Y-113299560D01*
X127142683Y-113343838D01*
X126926559Y-113482910D01*
X126781569Y-113695110D01*
X126730560Y-113947000D01*
X126059000Y-113947000D01*
X126059000Y-111963200D01*
X137795000Y-111963200D01*
X137795000Y-120370600D01*
X137795000Y-120370600D01*
G37*
X137795000Y-120370600D02*
X137805006Y-120420010D01*
X137833447Y-120461635D01*
X137875841Y-120488915D01*
X137922000Y-120497600D01*
X144907000Y-120497600D01*
X144907000Y-122910600D01*
X144917006Y-122960010D01*
X144945447Y-123001635D01*
X144987841Y-123028915D01*
X145034000Y-123037600D01*
X147828000Y-123037600D01*
X147877410Y-123027594D01*
X147919035Y-122999153D01*
X147946315Y-122956759D01*
X147955000Y-122910600D01*
X147955000Y-120497600D01*
X150596600Y-120497600D01*
X150596600Y-125881761D01*
X145669638Y-125857002D01*
X145669000Y-125857000D01*
X141909800Y-125857000D01*
X141860390Y-125867006D01*
X141818765Y-125895447D01*
X141791485Y-125937841D01*
X141782802Y-125984655D01*
X141787032Y-126805189D01*
X141152029Y-126380894D01*
X140335000Y-126218377D01*
X139517971Y-126380894D01*
X138825327Y-126843704D01*
X138362517Y-127536348D01*
X138334750Y-127675942D01*
X138306983Y-127536348D01*
X137844173Y-126843704D01*
X137151529Y-126380894D01*
X136334500Y-126218377D01*
X135517471Y-126380894D01*
X134824827Y-126843704D01*
X134362017Y-127536348D01*
X134199500Y-128353377D01*
X134199500Y-129456623D01*
X134362017Y-130273652D01*
X134703422Y-130784600D01*
X126059000Y-130784600D01*
X126059000Y-113947000D01*
X126730560Y-113947000D01*
X126730560Y-117447000D01*
X126774838Y-117682317D01*
X126913910Y-117898441D01*
X127126110Y-118043431D01*
X127378000Y-118094440D01*
X130064045Y-118094440D01*
X129926559Y-118182910D01*
X129781569Y-118395110D01*
X129730560Y-118647000D01*
X129730560Y-122147000D01*
X129774838Y-122382317D01*
X129913910Y-122598441D01*
X130126110Y-122743431D01*
X130378000Y-122794440D01*
X133878000Y-122794440D01*
X134113317Y-122750162D01*
X134329441Y-122611090D01*
X134474431Y-122398890D01*
X134525440Y-122147000D01*
X134525440Y-118647000D01*
X134481162Y-118411683D01*
X134342090Y-118195559D01*
X134175891Y-118082000D01*
X134842250Y-118082000D01*
X135001000Y-117923250D01*
X135001000Y-115824000D01*
X135255000Y-115824000D01*
X135255000Y-117923250D01*
X135413750Y-118082000D01*
X137004309Y-118082000D01*
X137237698Y-117985327D01*
X137416327Y-117806699D01*
X137513000Y-117573310D01*
X137513000Y-115982750D01*
X137354250Y-115824000D01*
X135255000Y-115824000D01*
X135001000Y-115824000D01*
X132901750Y-115824000D01*
X132743000Y-115982750D01*
X132743000Y-117573310D01*
X132839673Y-117806699D01*
X133018302Y-117985327D01*
X133052663Y-117999560D01*
X131191955Y-117999560D01*
X131329441Y-117911090D01*
X131474431Y-117698890D01*
X131525440Y-117447000D01*
X131525440Y-113947000D01*
X131501674Y-113820690D01*
X132743000Y-113820690D01*
X132743000Y-115411250D01*
X132901750Y-115570000D01*
X135001000Y-115570000D01*
X135001000Y-113470750D01*
X135255000Y-113470750D01*
X135255000Y-115570000D01*
X137354250Y-115570000D01*
X137513000Y-115411250D01*
X137513000Y-113820690D01*
X137416327Y-113587301D01*
X137237698Y-113408673D01*
X137004309Y-113312000D01*
X135413750Y-113312000D01*
X135255000Y-113470750D01*
X135001000Y-113470750D01*
X134842250Y-113312000D01*
X133251691Y-113312000D01*
X133018302Y-113408673D01*
X132839673Y-113587301D01*
X132743000Y-113820690D01*
X131501674Y-113820690D01*
X131481162Y-113711683D01*
X131342090Y-113495559D01*
X131129890Y-113350569D01*
X130878000Y-113299560D01*
X127378000Y-113299560D01*
X127142683Y-113343838D01*
X126926559Y-113482910D01*
X126781569Y-113695110D01*
X126730560Y-113947000D01*
X126059000Y-113947000D01*
X126059000Y-111963200D01*
X137795000Y-111963200D01*
X137795000Y-120370600D01*
G36*
X149150000Y-58420000D02*
X149204046Y-58691705D01*
X149357954Y-58922046D01*
X149588295Y-59075954D01*
X149860000Y-59130000D01*
X155119000Y-59130000D01*
X155119000Y-78740000D01*
X143256000Y-78740000D01*
X143206590Y-78750006D01*
X143164965Y-78778447D01*
X143137685Y-78820841D01*
X143129000Y-78867000D01*
X143129000Y-81280000D01*
X133096000Y-81280000D01*
X133046590Y-81290006D01*
X133004965Y-81318447D01*
X132977685Y-81360841D01*
X132969000Y-81407000D01*
X132969000Y-107950000D01*
X126059000Y-107950000D01*
X126059000Y-77070967D01*
X137596438Y-77070967D01*
X137738483Y-77414743D01*
X138001273Y-77677992D01*
X138344801Y-77820638D01*
X138716767Y-77820962D01*
X139060543Y-77678917D01*
X139247602Y-77492184D01*
X139247438Y-77680567D01*
X139389483Y-78024343D01*
X139652273Y-78287592D01*
X139995801Y-78430238D01*
X140367767Y-78430562D01*
X140711543Y-78288517D01*
X140974792Y-78025727D01*
X141117438Y-77682199D01*
X141117762Y-77310233D01*
X140975717Y-76966457D01*
X140942600Y-76933282D01*
X140942600Y-75877167D01*
X141203238Y-75877167D01*
X141345283Y-76220943D01*
X141403800Y-76279562D01*
X141403800Y-78380737D01*
X141371608Y-78412873D01*
X141228962Y-78756401D01*
X141228638Y-79128367D01*
X141370683Y-79472143D01*
X141633473Y-79735392D01*
X141977001Y-79878038D01*
X142348967Y-79878362D01*
X142692743Y-79736317D01*
X142955992Y-79473527D01*
X143098638Y-79129999D01*
X143098962Y-78758033D01*
X142956917Y-78414257D01*
X142923800Y-78381082D01*
X142923800Y-76229107D01*
X142930592Y-76222327D01*
X143073238Y-75878799D01*
X143073562Y-75506833D01*
X142931517Y-75163057D01*
X142668727Y-74899808D01*
X142325199Y-74757162D01*
X141953233Y-74756838D01*
X141609457Y-74898883D01*
X141346208Y-75161673D01*
X141203562Y-75505201D01*
X141203238Y-75877167D01*
X140942600Y-75877167D01*
X140942600Y-75244802D01*
X143147382Y-73040020D01*
X143221601Y-73070838D01*
X143593567Y-73071162D01*
X143937343Y-72929117D01*
X144200592Y-72666327D01*
X144343238Y-72322799D01*
X144343562Y-71950833D01*
X144201517Y-71607057D01*
X143938727Y-71343808D01*
X143595199Y-71201162D01*
X143223233Y-71200838D01*
X142879457Y-71342883D01*
X142813853Y-71408373D01*
X142685761Y-71433852D01*
X142439199Y-71598599D01*
X139645199Y-74392599D01*
X139480452Y-74639161D01*
X139422600Y-74930000D01*
X139422600Y-76593753D01*
X139324717Y-76356857D01*
X139266200Y-76298238D01*
X139266200Y-74025602D01*
X141109680Y-72182122D01*
X141155167Y-72182162D01*
X141498943Y-72040117D01*
X141762192Y-71777327D01*
X141904838Y-71433799D01*
X141905162Y-71061833D01*
X141763117Y-70718057D01*
X141500327Y-70454808D01*
X141156799Y-70312162D01*
X140784833Y-70311838D01*
X140441057Y-70453883D01*
X140177808Y-70716673D01*
X140035162Y-71060201D01*
X140035121Y-71107077D01*
X137968799Y-73173399D01*
X137804052Y-73419961D01*
X137746200Y-73710800D01*
X137746200Y-76348693D01*
X137739408Y-76355473D01*
X137596762Y-76699001D01*
X137596438Y-77070967D01*
X126059000Y-77070967D01*
X126059000Y-71829285D01*
X131964760Y-71829285D01*
X132175169Y-72338515D01*
X132564436Y-72728461D01*
X133073298Y-72939759D01*
X133624285Y-72940240D01*
X134133515Y-72729831D01*
X134523461Y-72340564D01*
X134734759Y-71831702D01*
X134735240Y-71280715D01*
X134524831Y-70771485D01*
X134135564Y-70381539D01*
X133626702Y-70170241D01*
X133075715Y-70169760D01*
X132566485Y-70380169D01*
X132176539Y-70769436D01*
X131965241Y-71278298D01*
X131964760Y-71829285D01*
X126059000Y-71829285D01*
X126059000Y-66949285D01*
X131964760Y-66949285D01*
X132175169Y-67458515D01*
X132564436Y-67848461D01*
X133073298Y-68059759D01*
X133624285Y-68060240D01*
X134133515Y-67849831D01*
X134523461Y-67460564D01*
X134734759Y-66951702D01*
X134735240Y-66400715D01*
X134524831Y-65891485D01*
X134135564Y-65501539D01*
X133626702Y-65290241D01*
X133075715Y-65289760D01*
X132566485Y-65500169D01*
X132176539Y-65889436D01*
X131965241Y-66398298D01*
X131964760Y-66949285D01*
X126059000Y-66949285D01*
X126059000Y-62100416D01*
X126277690Y-62191000D01*
X126968250Y-62191000D01*
X127127000Y-62032250D01*
X127127000Y-60833000D01*
X127107000Y-60833000D01*
X127107000Y-60579000D01*
X127127000Y-60579000D01*
X127127000Y-59379750D01*
X127381000Y-59379750D01*
X127381000Y-60579000D01*
X127401000Y-60579000D01*
X127401000Y-60833000D01*
X127381000Y-60833000D01*
X127381000Y-62032250D01*
X127539750Y-62191000D01*
X128230310Y-62191000D01*
X128463699Y-62094327D01*
X128642327Y-61915698D01*
X128714597Y-61741223D01*
X128743946Y-61785147D01*
X129225715Y-62107054D01*
X129794000Y-62220093D01*
X130362285Y-62107054D01*
X130844054Y-61785147D01*
X131064000Y-61455974D01*
X131283946Y-61785147D01*
X131765715Y-62107054D01*
X132334000Y-62220093D01*
X132902285Y-62107054D01*
X133384054Y-61785147D01*
X133604000Y-61455974D01*
X133823946Y-61785147D01*
X134305715Y-62107054D01*
X134874000Y-62220093D01*
X135442285Y-62107054D01*
X135924054Y-61785147D01*
X136144000Y-61455974D01*
X136363946Y-61785147D01*
X136845715Y-62107054D01*
X137414000Y-62220093D01*
X137982285Y-62107054D01*
X138464054Y-61785147D01*
X138684000Y-61455974D01*
X138903946Y-61785147D01*
X139385715Y-62107054D01*
X139954000Y-62220093D01*
X140522285Y-62107054D01*
X141004054Y-61785147D01*
X141224000Y-61455974D01*
X141443946Y-61785147D01*
X141695781Y-61953417D01*
X141340998Y-62308200D01*
X136779000Y-62308200D01*
X136488161Y-62366052D01*
X136241599Y-62530799D01*
X135098599Y-63673799D01*
X134933852Y-63920361D01*
X134876000Y-64211200D01*
X134876000Y-71907400D01*
X134933852Y-72198239D01*
X135098599Y-72444801D01*
X135310478Y-72656680D01*
X135310438Y-72702167D01*
X135452483Y-73045943D01*
X135715273Y-73309192D01*
X136058801Y-73451838D01*
X136430767Y-73452162D01*
X136774543Y-73310117D01*
X137037792Y-73047327D01*
X137180438Y-72703799D01*
X137180762Y-72331833D01*
X137038717Y-71988057D01*
X136775927Y-71724808D01*
X136432399Y-71582162D01*
X136396000Y-71582130D01*
X136396000Y-67532250D01*
X140176500Y-67532250D01*
X140176500Y-67997810D01*
X140273173Y-68231199D01*
X140451802Y-68409827D01*
X140685191Y-68506500D01*
X141275750Y-68506500D01*
X141434500Y-68347750D01*
X141434500Y-67373500D01*
X140335250Y-67373500D01*
X140176500Y-67532250D01*
X136396000Y-67532250D01*
X136396000Y-66495190D01*
X140176500Y-66495190D01*
X140176500Y-66960750D01*
X140335250Y-67119500D01*
X141434500Y-67119500D01*
X141434500Y-66145250D01*
X141275750Y-65986500D01*
X140685191Y-65986500D01*
X140451802Y-66083173D01*
X140273173Y-66261801D01*
X140176500Y-66495190D01*
X136396000Y-66495190D01*
X136396000Y-64526002D01*
X137093802Y-63828200D01*
X141655800Y-63828200D01*
X141946639Y-63770348D01*
X142193201Y-63605601D01*
X143031401Y-62767401D01*
X143196148Y-62520839D01*
X143254000Y-62230000D01*
X143254000Y-61978954D01*
X143544054Y-61785147D01*
X143764000Y-61455974D01*
X143983946Y-61785147D01*
X144465715Y-62107054D01*
X144845500Y-62182598D01*
X144845500Y-65980945D01*
X144811500Y-65974060D01*
X143311500Y-65974060D01*
X143076183Y-66018338D01*
X142860059Y-66157410D01*
X142813531Y-66225506D01*
X142671198Y-66083173D01*
X142437809Y-65986500D01*
X141847250Y-65986500D01*
X141688500Y-66145250D01*
X141688500Y-67119500D01*
X141708500Y-67119500D01*
X141708500Y-67373500D01*
X141688500Y-67373500D01*
X141688500Y-68347750D01*
X141847250Y-68506500D01*
X142437809Y-68506500D01*
X142671198Y-68409827D01*
X142812436Y-68268590D01*
X142847410Y-68322941D01*
X143059610Y-68467931D01*
X143184253Y-68493172D01*
X143146662Y-68583701D01*
X143146338Y-68955667D01*
X143288383Y-69299443D01*
X143551173Y-69562692D01*
X143894701Y-69705338D01*
X144266667Y-69705662D01*
X144610443Y-69563617D01*
X144873692Y-69300827D01*
X145016338Y-68957299D01*
X145016662Y-68585333D01*
X144976408Y-68487910D01*
X145046817Y-68474662D01*
X145262941Y-68335590D01*
X145407931Y-68123390D01*
X145458940Y-67871500D01*
X145458940Y-67546373D01*
X145790667Y-67546662D01*
X146134443Y-67404617D01*
X146397692Y-67141827D01*
X146540338Y-66798299D01*
X146540662Y-66426333D01*
X146398617Y-66082557D01*
X146365500Y-66049382D01*
X146365500Y-61363932D01*
X146405961Y-61303378D01*
X146519000Y-60735093D01*
X146519000Y-60676907D01*
X146405961Y-60108622D01*
X146084054Y-59626853D01*
X145602285Y-59304946D01*
X145034000Y-59191907D01*
X144465715Y-59304946D01*
X143983946Y-59626853D01*
X143764000Y-59956026D01*
X143544054Y-59626853D01*
X143062285Y-59304946D01*
X142494000Y-59191907D01*
X141925715Y-59304946D01*
X141443946Y-59626853D01*
X141224000Y-59956026D01*
X141004054Y-59626853D01*
X140522285Y-59304946D01*
X139954000Y-59191907D01*
X139385715Y-59304946D01*
X138903946Y-59626853D01*
X138684000Y-59956026D01*
X138464054Y-59626853D01*
X137982285Y-59304946D01*
X137414000Y-59191907D01*
X136845715Y-59304946D01*
X136363946Y-59626853D01*
X136144000Y-59956026D01*
X135924054Y-59626853D01*
X135442285Y-59304946D01*
X134874000Y-59191907D01*
X134305715Y-59304946D01*
X133823946Y-59626853D01*
X133604000Y-59956026D01*
X133384054Y-59626853D01*
X132902285Y-59304946D01*
X132334000Y-59191907D01*
X131765715Y-59304946D01*
X131283946Y-59626853D01*
X131064000Y-59956026D01*
X130844054Y-59626853D01*
X130362285Y-59304946D01*
X129794000Y-59191907D01*
X129225715Y-59304946D01*
X128743946Y-59626853D01*
X128714597Y-59670777D01*
X128642327Y-59496302D01*
X128463699Y-59317673D01*
X128230310Y-59221000D01*
X127539750Y-59221000D01*
X127381000Y-59379750D01*
X127127000Y-59379750D01*
X126968250Y-59221000D01*
X126277690Y-59221000D01*
X126059000Y-59311584D01*
X126059000Y-59130000D01*
X131318000Y-59130000D01*
X131589705Y-59075954D01*
X131820046Y-58922046D01*
X131973954Y-58691705D01*
X132028000Y-58420000D01*
X132028000Y-55469907D01*
X134024000Y-55469907D01*
X134024000Y-55528093D01*
X134137039Y-56096378D01*
X134458946Y-56578147D01*
X134940715Y-56900054D01*
X135509000Y-57013093D01*
X136077285Y-56900054D01*
X136559054Y-56578147D01*
X136779000Y-56248974D01*
X136998946Y-56578147D01*
X137480715Y-56900054D01*
X138049000Y-57013093D01*
X138617285Y-56900054D01*
X139099054Y-56578147D01*
X139319000Y-56248974D01*
X139538946Y-56578147D01*
X140020715Y-56900054D01*
X140589000Y-57013093D01*
X141157285Y-56900054D01*
X141639054Y-56578147D01*
X141666850Y-56536548D01*
X141675838Y-56584317D01*
X141814910Y-56800441D01*
X142027110Y-56945431D01*
X142279000Y-56996440D01*
X143979000Y-56996440D01*
X144214317Y-56952162D01*
X144430441Y-56813090D01*
X144575431Y-56600890D01*
X144626440Y-56349000D01*
X144626440Y-54649000D01*
X144582162Y-54413683D01*
X144443090Y-54197559D01*
X144230890Y-54052569D01*
X143979000Y-54001560D01*
X142279000Y-54001560D01*
X142043683Y-54045838D01*
X141827559Y-54184910D01*
X141682569Y-54397110D01*
X141668914Y-54464541D01*
X141639054Y-54419853D01*
X141157285Y-54097946D01*
X140589000Y-53984907D01*
X140020715Y-54097946D01*
X139538946Y-54419853D01*
X139319000Y-54749026D01*
X139099054Y-54419853D01*
X138617285Y-54097946D01*
X138049000Y-53984907D01*
X137480715Y-54097946D01*
X136998946Y-54419853D01*
X136779000Y-54749026D01*
X136559054Y-54419853D01*
X136077285Y-54097946D01*
X135509000Y-53984907D01*
X134940715Y-54097946D01*
X134458946Y-54419853D01*
X134137039Y-54901622D01*
X134024000Y-55469907D01*
X132028000Y-55469907D01*
X132028000Y-53161000D01*
X149150000Y-53161000D01*
X149150000Y-58420000D01*
X149150000Y-58420000D01*
G37*
X149150000Y-58420000D02*
X149204046Y-58691705D01*
X149357954Y-58922046D01*
X149588295Y-59075954D01*
X149860000Y-59130000D01*
X155119000Y-59130000D01*
X155119000Y-78740000D01*
X143256000Y-78740000D01*
X143206590Y-78750006D01*
X143164965Y-78778447D01*
X143137685Y-78820841D01*
X143129000Y-78867000D01*
X143129000Y-81280000D01*
X133096000Y-81280000D01*
X133046590Y-81290006D01*
X133004965Y-81318447D01*
X132977685Y-81360841D01*
X132969000Y-81407000D01*
X132969000Y-107950000D01*
X126059000Y-107950000D01*
X126059000Y-77070967D01*
X137596438Y-77070967D01*
X137738483Y-77414743D01*
X138001273Y-77677992D01*
X138344801Y-77820638D01*
X138716767Y-77820962D01*
X139060543Y-77678917D01*
X139247602Y-77492184D01*
X139247438Y-77680567D01*
X139389483Y-78024343D01*
X139652273Y-78287592D01*
X139995801Y-78430238D01*
X140367767Y-78430562D01*
X140711543Y-78288517D01*
X140974792Y-78025727D01*
X141117438Y-77682199D01*
X141117762Y-77310233D01*
X140975717Y-76966457D01*
X140942600Y-76933282D01*
X140942600Y-75877167D01*
X141203238Y-75877167D01*
X141345283Y-76220943D01*
X141403800Y-76279562D01*
X141403800Y-78380737D01*
X141371608Y-78412873D01*
X141228962Y-78756401D01*
X141228638Y-79128367D01*
X141370683Y-79472143D01*
X141633473Y-79735392D01*
X141977001Y-79878038D01*
X142348967Y-79878362D01*
X142692743Y-79736317D01*
X142955992Y-79473527D01*
X143098638Y-79129999D01*
X143098962Y-78758033D01*
X142956917Y-78414257D01*
X142923800Y-78381082D01*
X142923800Y-76229107D01*
X142930592Y-76222327D01*
X143073238Y-75878799D01*
X143073562Y-75506833D01*
X142931517Y-75163057D01*
X142668727Y-74899808D01*
X142325199Y-74757162D01*
X141953233Y-74756838D01*
X141609457Y-74898883D01*
X141346208Y-75161673D01*
X141203562Y-75505201D01*
X141203238Y-75877167D01*
X140942600Y-75877167D01*
X140942600Y-75244802D01*
X143147382Y-73040020D01*
X143221601Y-73070838D01*
X143593567Y-73071162D01*
X143937343Y-72929117D01*
X144200592Y-72666327D01*
X144343238Y-72322799D01*
X144343562Y-71950833D01*
X144201517Y-71607057D01*
X143938727Y-71343808D01*
X143595199Y-71201162D01*
X143223233Y-71200838D01*
X142879457Y-71342883D01*
X142813853Y-71408373D01*
X142685761Y-71433852D01*
X142439199Y-71598599D01*
X139645199Y-74392599D01*
X139480452Y-74639161D01*
X139422600Y-74930000D01*
X139422600Y-76593753D01*
X139324717Y-76356857D01*
X139266200Y-76298238D01*
X139266200Y-74025602D01*
X141109680Y-72182122D01*
X141155167Y-72182162D01*
X141498943Y-72040117D01*
X141762192Y-71777327D01*
X141904838Y-71433799D01*
X141905162Y-71061833D01*
X141763117Y-70718057D01*
X141500327Y-70454808D01*
X141156799Y-70312162D01*
X140784833Y-70311838D01*
X140441057Y-70453883D01*
X140177808Y-70716673D01*
X140035162Y-71060201D01*
X140035121Y-71107077D01*
X137968799Y-73173399D01*
X137804052Y-73419961D01*
X137746200Y-73710800D01*
X137746200Y-76348693D01*
X137739408Y-76355473D01*
X137596762Y-76699001D01*
X137596438Y-77070967D01*
X126059000Y-77070967D01*
X126059000Y-71829285D01*
X131964760Y-71829285D01*
X132175169Y-72338515D01*
X132564436Y-72728461D01*
X133073298Y-72939759D01*
X133624285Y-72940240D01*
X134133515Y-72729831D01*
X134523461Y-72340564D01*
X134734759Y-71831702D01*
X134735240Y-71280715D01*
X134524831Y-70771485D01*
X134135564Y-70381539D01*
X133626702Y-70170241D01*
X133075715Y-70169760D01*
X132566485Y-70380169D01*
X132176539Y-70769436D01*
X131965241Y-71278298D01*
X131964760Y-71829285D01*
X126059000Y-71829285D01*
X126059000Y-66949285D01*
X131964760Y-66949285D01*
X132175169Y-67458515D01*
X132564436Y-67848461D01*
X133073298Y-68059759D01*
X133624285Y-68060240D01*
X134133515Y-67849831D01*
X134523461Y-67460564D01*
X134734759Y-66951702D01*
X134735240Y-66400715D01*
X134524831Y-65891485D01*
X134135564Y-65501539D01*
X133626702Y-65290241D01*
X133075715Y-65289760D01*
X132566485Y-65500169D01*
X132176539Y-65889436D01*
X131965241Y-66398298D01*
X131964760Y-66949285D01*
X126059000Y-66949285D01*
X126059000Y-62100416D01*
X126277690Y-62191000D01*
X126968250Y-62191000D01*
X127127000Y-62032250D01*
X127127000Y-60833000D01*
X127107000Y-60833000D01*
X127107000Y-60579000D01*
X127127000Y-60579000D01*
X127127000Y-59379750D01*
X127381000Y-59379750D01*
X127381000Y-60579000D01*
X127401000Y-60579000D01*
X127401000Y-60833000D01*
X127381000Y-60833000D01*
X127381000Y-62032250D01*
X127539750Y-62191000D01*
X128230310Y-62191000D01*
X128463699Y-62094327D01*
X128642327Y-61915698D01*
X128714597Y-61741223D01*
X128743946Y-61785147D01*
X129225715Y-62107054D01*
X129794000Y-62220093D01*
X130362285Y-62107054D01*
X130844054Y-61785147D01*
X131064000Y-61455974D01*
X131283946Y-61785147D01*
X131765715Y-62107054D01*
X132334000Y-62220093D01*
X132902285Y-62107054D01*
X133384054Y-61785147D01*
X133604000Y-61455974D01*
X133823946Y-61785147D01*
X134305715Y-62107054D01*
X134874000Y-62220093D01*
X135442285Y-62107054D01*
X135924054Y-61785147D01*
X136144000Y-61455974D01*
X136363946Y-61785147D01*
X136845715Y-62107054D01*
X137414000Y-62220093D01*
X137982285Y-62107054D01*
X138464054Y-61785147D01*
X138684000Y-61455974D01*
X138903946Y-61785147D01*
X139385715Y-62107054D01*
X139954000Y-62220093D01*
X140522285Y-62107054D01*
X141004054Y-61785147D01*
X141224000Y-61455974D01*
X141443946Y-61785147D01*
X141695781Y-61953417D01*
X141340998Y-62308200D01*
X136779000Y-62308200D01*
X136488161Y-62366052D01*
X136241599Y-62530799D01*
X135098599Y-63673799D01*
X134933852Y-63920361D01*
X134876000Y-64211200D01*
X134876000Y-71907400D01*
X134933852Y-72198239D01*
X135098599Y-72444801D01*
X135310478Y-72656680D01*
X135310438Y-72702167D01*
X135452483Y-73045943D01*
X135715273Y-73309192D01*
X136058801Y-73451838D01*
X136430767Y-73452162D01*
X136774543Y-73310117D01*
X137037792Y-73047327D01*
X137180438Y-72703799D01*
X137180762Y-72331833D01*
X137038717Y-71988057D01*
X136775927Y-71724808D01*
X136432399Y-71582162D01*
X136396000Y-71582130D01*
X136396000Y-67532250D01*
X140176500Y-67532250D01*
X140176500Y-67997810D01*
X140273173Y-68231199D01*
X140451802Y-68409827D01*
X140685191Y-68506500D01*
X141275750Y-68506500D01*
X141434500Y-68347750D01*
X141434500Y-67373500D01*
X140335250Y-67373500D01*
X140176500Y-67532250D01*
X136396000Y-67532250D01*
X136396000Y-66495190D01*
X140176500Y-66495190D01*
X140176500Y-66960750D01*
X140335250Y-67119500D01*
X141434500Y-67119500D01*
X141434500Y-66145250D01*
X141275750Y-65986500D01*
X140685191Y-65986500D01*
X140451802Y-66083173D01*
X140273173Y-66261801D01*
X140176500Y-66495190D01*
X136396000Y-66495190D01*
X136396000Y-64526002D01*
X137093802Y-63828200D01*
X141655800Y-63828200D01*
X141946639Y-63770348D01*
X142193201Y-63605601D01*
X143031401Y-62767401D01*
X143196148Y-62520839D01*
X143254000Y-62230000D01*
X143254000Y-61978954D01*
X143544054Y-61785147D01*
X143764000Y-61455974D01*
X143983946Y-61785147D01*
X144465715Y-62107054D01*
X144845500Y-62182598D01*
X144845500Y-65980945D01*
X144811500Y-65974060D01*
X143311500Y-65974060D01*
X143076183Y-66018338D01*
X142860059Y-66157410D01*
X142813531Y-66225506D01*
X142671198Y-66083173D01*
X142437809Y-65986500D01*
X141847250Y-65986500D01*
X141688500Y-66145250D01*
X141688500Y-67119500D01*
X141708500Y-67119500D01*
X141708500Y-67373500D01*
X141688500Y-67373500D01*
X141688500Y-68347750D01*
X141847250Y-68506500D01*
X142437809Y-68506500D01*
X142671198Y-68409827D01*
X142812436Y-68268590D01*
X142847410Y-68322941D01*
X143059610Y-68467931D01*
X143184253Y-68493172D01*
X143146662Y-68583701D01*
X143146338Y-68955667D01*
X143288383Y-69299443D01*
X143551173Y-69562692D01*
X143894701Y-69705338D01*
X144266667Y-69705662D01*
X144610443Y-69563617D01*
X144873692Y-69300827D01*
X145016338Y-68957299D01*
X145016662Y-68585333D01*
X144976408Y-68487910D01*
X145046817Y-68474662D01*
X145262941Y-68335590D01*
X145407931Y-68123390D01*
X145458940Y-67871500D01*
X145458940Y-67546373D01*
X145790667Y-67546662D01*
X146134443Y-67404617D01*
X146397692Y-67141827D01*
X146540338Y-66798299D01*
X146540662Y-66426333D01*
X146398617Y-66082557D01*
X146365500Y-66049382D01*
X146365500Y-61363932D01*
X146405961Y-61303378D01*
X146519000Y-60735093D01*
X146519000Y-60676907D01*
X146405961Y-60108622D01*
X146084054Y-59626853D01*
X145602285Y-59304946D01*
X145034000Y-59191907D01*
X144465715Y-59304946D01*
X143983946Y-59626853D01*
X143764000Y-59956026D01*
X143544054Y-59626853D01*
X143062285Y-59304946D01*
X142494000Y-59191907D01*
X141925715Y-59304946D01*
X141443946Y-59626853D01*
X141224000Y-59956026D01*
X141004054Y-59626853D01*
X140522285Y-59304946D01*
X139954000Y-59191907D01*
X139385715Y-59304946D01*
X138903946Y-59626853D01*
X138684000Y-59956026D01*
X138464054Y-59626853D01*
X137982285Y-59304946D01*
X137414000Y-59191907D01*
X136845715Y-59304946D01*
X136363946Y-59626853D01*
X136144000Y-59956026D01*
X135924054Y-59626853D01*
X135442285Y-59304946D01*
X134874000Y-59191907D01*
X134305715Y-59304946D01*
X133823946Y-59626853D01*
X133604000Y-59956026D01*
X133384054Y-59626853D01*
X132902285Y-59304946D01*
X132334000Y-59191907D01*
X131765715Y-59304946D01*
X131283946Y-59626853D01*
X131064000Y-59956026D01*
X130844054Y-59626853D01*
X130362285Y-59304946D01*
X129794000Y-59191907D01*
X129225715Y-59304946D01*
X128743946Y-59626853D01*
X128714597Y-59670777D01*
X128642327Y-59496302D01*
X128463699Y-59317673D01*
X128230310Y-59221000D01*
X127539750Y-59221000D01*
X127381000Y-59379750D01*
X127127000Y-59379750D01*
X126968250Y-59221000D01*
X126277690Y-59221000D01*
X126059000Y-59311584D01*
X126059000Y-59130000D01*
X131318000Y-59130000D01*
X131589705Y-59075954D01*
X131820046Y-58922046D01*
X131973954Y-58691705D01*
X132028000Y-58420000D01*
X132028000Y-55469907D01*
X134024000Y-55469907D01*
X134024000Y-55528093D01*
X134137039Y-56096378D01*
X134458946Y-56578147D01*
X134940715Y-56900054D01*
X135509000Y-57013093D01*
X136077285Y-56900054D01*
X136559054Y-56578147D01*
X136779000Y-56248974D01*
X136998946Y-56578147D01*
X137480715Y-56900054D01*
X138049000Y-57013093D01*
X138617285Y-56900054D01*
X139099054Y-56578147D01*
X139319000Y-56248974D01*
X139538946Y-56578147D01*
X140020715Y-56900054D01*
X140589000Y-57013093D01*
X141157285Y-56900054D01*
X141639054Y-56578147D01*
X141666850Y-56536548D01*
X141675838Y-56584317D01*
X141814910Y-56800441D01*
X142027110Y-56945431D01*
X142279000Y-56996440D01*
X143979000Y-56996440D01*
X144214317Y-56952162D01*
X144430441Y-56813090D01*
X144575431Y-56600890D01*
X144626440Y-56349000D01*
X144626440Y-54649000D01*
X144582162Y-54413683D01*
X144443090Y-54197559D01*
X144230890Y-54052569D01*
X143979000Y-54001560D01*
X142279000Y-54001560D01*
X142043683Y-54045838D01*
X141827559Y-54184910D01*
X141682569Y-54397110D01*
X141668914Y-54464541D01*
X141639054Y-54419853D01*
X141157285Y-54097946D01*
X140589000Y-53984907D01*
X140020715Y-54097946D01*
X139538946Y-54419853D01*
X139319000Y-54749026D01*
X139099054Y-54419853D01*
X138617285Y-54097946D01*
X138049000Y-53984907D01*
X137480715Y-54097946D01*
X136998946Y-54419853D01*
X136779000Y-54749026D01*
X136559054Y-54419853D01*
X136077285Y-54097946D01*
X135509000Y-53984907D01*
X134940715Y-54097946D01*
X134458946Y-54419853D01*
X134137039Y-54901622D01*
X134024000Y-55469907D01*
X132028000Y-55469907D01*
X132028000Y-53161000D01*
X149150000Y-53161000D01*
X149150000Y-58420000D01*
G36*
X155119000Y-131116000D02*
X149860000Y-131116000D01*
X149588295Y-131170046D01*
X149357954Y-131323954D01*
X149204046Y-131554295D01*
X149150000Y-131826000D01*
X149150000Y-137085000D01*
X132028000Y-137085000D01*
X132028000Y-132100437D01*
X134718090Y-132083447D01*
X134362017Y-132616348D01*
X134199500Y-133433377D01*
X134199500Y-134536623D01*
X134362017Y-135353652D01*
X134824827Y-136046296D01*
X135517471Y-136509106D01*
X136334500Y-136671623D01*
X137151529Y-136509106D01*
X137844173Y-136046296D01*
X138306983Y-135353652D01*
X138334750Y-135214058D01*
X138362517Y-135353652D01*
X138825327Y-136046296D01*
X139517971Y-136509106D01*
X140335000Y-136671623D01*
X141152029Y-136509106D01*
X141844673Y-136046296D01*
X142307483Y-135353652D01*
X142335250Y-135214058D01*
X142363017Y-135353652D01*
X142825827Y-136046296D01*
X143518471Y-136509106D01*
X144335500Y-136671623D01*
X145152529Y-136509106D01*
X145845173Y-136046296D01*
X146307983Y-135353652D01*
X146470500Y-134536623D01*
X146470500Y-133433377D01*
X146307983Y-132616348D01*
X145845173Y-131923704D01*
X145152529Y-131460894D01*
X144913006Y-131413250D01*
X145152529Y-131365606D01*
X145845173Y-130902796D01*
X146307983Y-130210152D01*
X146470500Y-129393123D01*
X146470500Y-128289877D01*
X146307983Y-127472848D01*
X145877540Y-126828645D01*
X151509427Y-126898390D01*
X151558958Y-126888997D01*
X151600931Y-126861074D01*
X151628734Y-126819021D01*
X151638000Y-126771400D01*
X151638000Y-120484900D01*
X154000200Y-120484900D01*
X154049610Y-120474894D01*
X154091235Y-120446453D01*
X154118515Y-120404059D01*
X154127200Y-120357900D01*
X154127200Y-111201200D01*
X154117194Y-111151790D01*
X154088753Y-111110165D01*
X154046359Y-111082885D01*
X154000200Y-111074200D01*
X153948519Y-111074200D01*
X154316644Y-110828226D01*
X154887841Y-109973371D01*
X155088418Y-108965000D01*
X154887841Y-107956629D01*
X154316644Y-107101774D01*
X153461789Y-106530577D01*
X152453418Y-106330000D01*
X151330582Y-106330000D01*
X150322211Y-106530577D01*
X149467356Y-107101774D01*
X148896159Y-107956629D01*
X148695582Y-108965000D01*
X148896159Y-109973371D01*
X149467356Y-110828226D01*
X149835481Y-111074200D01*
X147448519Y-111074200D01*
X147816644Y-110828226D01*
X148387841Y-109973371D01*
X148588418Y-108965000D01*
X148387841Y-107956629D01*
X147816644Y-107101774D01*
X146961789Y-106530577D01*
X145953418Y-106330000D01*
X144830582Y-106330000D01*
X143822211Y-106530577D01*
X142967356Y-107101774D01*
X142396159Y-107956629D01*
X142195582Y-108965000D01*
X142396159Y-109973371D01*
X142967356Y-110828226D01*
X143335481Y-111074200D01*
X140971519Y-111074200D01*
X141339644Y-110828226D01*
X141910841Y-109973371D01*
X142111418Y-108965000D01*
X141910841Y-107956629D01*
X141339644Y-107101774D01*
X140484789Y-106530577D01*
X139476418Y-106330000D01*
X138353582Y-106330000D01*
X137345211Y-106530577D01*
X136490356Y-107101774D01*
X135919159Y-107956629D01*
X135915425Y-107975400D01*
X133884696Y-107975400D01*
X134037171Y-92965000D01*
X135718582Y-92965000D01*
X135919159Y-93973371D01*
X136490356Y-94828226D01*
X137345211Y-95399423D01*
X138353582Y-95600000D01*
X139476418Y-95600000D01*
X140484789Y-95399423D01*
X141339644Y-94828226D01*
X141910841Y-93973371D01*
X142090000Y-93072676D01*
X142269159Y-93973371D01*
X142840356Y-94828226D01*
X143695211Y-95399423D01*
X144703582Y-95600000D01*
X145826418Y-95600000D01*
X146834789Y-95399423D01*
X147689644Y-94828226D01*
X148260841Y-93973371D01*
X148354570Y-93502162D01*
X148835333Y-93502162D01*
X148931976Y-93856038D01*
X149461971Y-94738424D01*
X150289296Y-95350822D01*
X151288000Y-95600000D01*
X151788000Y-95600000D01*
X151788000Y-93092000D01*
X152042000Y-93092000D01*
X152042000Y-95600000D01*
X152542000Y-95600000D01*
X153540704Y-95350822D01*
X154368029Y-94738424D01*
X154898024Y-93856038D01*
X154994667Y-93502162D01*
X154887991Y-93092000D01*
X152042000Y-93092000D01*
X151788000Y-93092000D01*
X148942009Y-93092000D01*
X148835333Y-93502162D01*
X148354570Y-93502162D01*
X148461418Y-92965000D01*
X148354571Y-92427838D01*
X148835333Y-92427838D01*
X148942009Y-92838000D01*
X151788000Y-92838000D01*
X151788000Y-90330000D01*
X152042000Y-90330000D01*
X152042000Y-92838000D01*
X154887991Y-92838000D01*
X154994667Y-92427838D01*
X154898024Y-92073962D01*
X154368029Y-91191576D01*
X153540704Y-90579178D01*
X152542000Y-90330000D01*
X152042000Y-90330000D01*
X151788000Y-90330000D01*
X151288000Y-90330000D01*
X150289296Y-90579178D01*
X149461971Y-91191576D01*
X148931976Y-92073962D01*
X148835333Y-92427838D01*
X148354571Y-92427838D01*
X148260841Y-91956629D01*
X147689644Y-91101774D01*
X146834789Y-90530577D01*
X145826418Y-90330000D01*
X144703582Y-90330000D01*
X143695211Y-90530577D01*
X142840356Y-91101774D01*
X142269159Y-91956629D01*
X142090000Y-92857324D01*
X141910841Y-91956629D01*
X141339644Y-91101774D01*
X140484789Y-90530577D01*
X139476418Y-90330000D01*
X138353582Y-90330000D01*
X137345211Y-90530577D01*
X136490356Y-91101774D01*
X135919159Y-91956629D01*
X135718582Y-92965000D01*
X134037171Y-92965000D01*
X134111993Y-85599290D01*
X134112000Y-85598000D01*
X134112000Y-82042000D01*
X143764000Y-82042000D01*
X143813410Y-82031994D01*
X143855035Y-82003553D01*
X143882315Y-81961159D01*
X143891000Y-81915000D01*
X143891000Y-79502000D01*
X155119000Y-79502000D01*
X155119000Y-131116000D01*
X155119000Y-131116000D01*
G37*
X155119000Y-131116000D02*
X149860000Y-131116000D01*
X149588295Y-131170046D01*
X149357954Y-131323954D01*
X149204046Y-131554295D01*
X149150000Y-131826000D01*
X149150000Y-137085000D01*
X132028000Y-137085000D01*
X132028000Y-132100437D01*
X134718090Y-132083447D01*
X134362017Y-132616348D01*
X134199500Y-133433377D01*
X134199500Y-134536623D01*
X134362017Y-135353652D01*
X134824827Y-136046296D01*
X135517471Y-136509106D01*
X136334500Y-136671623D01*
X137151529Y-136509106D01*
X137844173Y-136046296D01*
X138306983Y-135353652D01*
X138334750Y-135214058D01*
X138362517Y-135353652D01*
X138825327Y-136046296D01*
X139517971Y-136509106D01*
X140335000Y-136671623D01*
X141152029Y-136509106D01*
X141844673Y-136046296D01*
X142307483Y-135353652D01*
X142335250Y-135214058D01*
X142363017Y-135353652D01*
X142825827Y-136046296D01*
X143518471Y-136509106D01*
X144335500Y-136671623D01*
X145152529Y-136509106D01*
X145845173Y-136046296D01*
X146307983Y-135353652D01*
X146470500Y-134536623D01*
X146470500Y-133433377D01*
X146307983Y-132616348D01*
X145845173Y-131923704D01*
X145152529Y-131460894D01*
X144913006Y-131413250D01*
X145152529Y-131365606D01*
X145845173Y-130902796D01*
X146307983Y-130210152D01*
X146470500Y-129393123D01*
X146470500Y-128289877D01*
X146307983Y-127472848D01*
X145877540Y-126828645D01*
X151509427Y-126898390D01*
X151558958Y-126888997D01*
X151600931Y-126861074D01*
X151628734Y-126819021D01*
X151638000Y-126771400D01*
X151638000Y-120484900D01*
X154000200Y-120484900D01*
X154049610Y-120474894D01*
X154091235Y-120446453D01*
X154118515Y-120404059D01*
X154127200Y-120357900D01*
X154127200Y-111201200D01*
X154117194Y-111151790D01*
X154088753Y-111110165D01*
X154046359Y-111082885D01*
X154000200Y-111074200D01*
X153948519Y-111074200D01*
X154316644Y-110828226D01*
X154887841Y-109973371D01*
X155088418Y-108965000D01*
X154887841Y-107956629D01*
X154316644Y-107101774D01*
X153461789Y-106530577D01*
X152453418Y-106330000D01*
X151330582Y-106330000D01*
X150322211Y-106530577D01*
X149467356Y-107101774D01*
X148896159Y-107956629D01*
X148695582Y-108965000D01*
X148896159Y-109973371D01*
X149467356Y-110828226D01*
X149835481Y-111074200D01*
X147448519Y-111074200D01*
X147816644Y-110828226D01*
X148387841Y-109973371D01*
X148588418Y-108965000D01*
X148387841Y-107956629D01*
X147816644Y-107101774D01*
X146961789Y-106530577D01*
X145953418Y-106330000D01*
X144830582Y-106330000D01*
X143822211Y-106530577D01*
X142967356Y-107101774D01*
X142396159Y-107956629D01*
X142195582Y-108965000D01*
X142396159Y-109973371D01*
X142967356Y-110828226D01*
X143335481Y-111074200D01*
X140971519Y-111074200D01*
X141339644Y-110828226D01*
X141910841Y-109973371D01*
X142111418Y-108965000D01*
X141910841Y-107956629D01*
X141339644Y-107101774D01*
X140484789Y-106530577D01*
X139476418Y-106330000D01*
X138353582Y-106330000D01*
X137345211Y-106530577D01*
X136490356Y-107101774D01*
X135919159Y-107956629D01*
X135915425Y-107975400D01*
X133884696Y-107975400D01*
X134037171Y-92965000D01*
X135718582Y-92965000D01*
X135919159Y-93973371D01*
X136490356Y-94828226D01*
X137345211Y-95399423D01*
X138353582Y-95600000D01*
X139476418Y-95600000D01*
X140484789Y-95399423D01*
X141339644Y-94828226D01*
X141910841Y-93973371D01*
X142090000Y-93072676D01*
X142269159Y-93973371D01*
X142840356Y-94828226D01*
X143695211Y-95399423D01*
X144703582Y-95600000D01*
X145826418Y-95600000D01*
X146834789Y-95399423D01*
X147689644Y-94828226D01*
X148260841Y-93973371D01*
X148354570Y-93502162D01*
X148835333Y-93502162D01*
X148931976Y-93856038D01*
X149461971Y-94738424D01*
X150289296Y-95350822D01*
X151288000Y-95600000D01*
X151788000Y-95600000D01*
X151788000Y-93092000D01*
X152042000Y-93092000D01*
X152042000Y-95600000D01*
X152542000Y-95600000D01*
X153540704Y-95350822D01*
X154368029Y-94738424D01*
X154898024Y-93856038D01*
X154994667Y-93502162D01*
X154887991Y-93092000D01*
X152042000Y-93092000D01*
X151788000Y-93092000D01*
X148942009Y-93092000D01*
X148835333Y-93502162D01*
X148354570Y-93502162D01*
X148461418Y-92965000D01*
X148354571Y-92427838D01*
X148835333Y-92427838D01*
X148942009Y-92838000D01*
X151788000Y-92838000D01*
X151788000Y-90330000D01*
X152042000Y-90330000D01*
X152042000Y-92838000D01*
X154887991Y-92838000D01*
X154994667Y-92427838D01*
X154898024Y-92073962D01*
X154368029Y-91191576D01*
X153540704Y-90579178D01*
X152542000Y-90330000D01*
X152042000Y-90330000D01*
X151788000Y-90330000D01*
X151288000Y-90330000D01*
X150289296Y-90579178D01*
X149461971Y-91191576D01*
X148931976Y-92073962D01*
X148835333Y-92427838D01*
X148354571Y-92427838D01*
X148260841Y-91956629D01*
X147689644Y-91101774D01*
X146834789Y-90530577D01*
X145826418Y-90330000D01*
X144703582Y-90330000D01*
X143695211Y-90530577D01*
X142840356Y-91101774D01*
X142269159Y-91956629D01*
X142090000Y-92857324D01*
X141910841Y-91956629D01*
X141339644Y-91101774D01*
X140484789Y-90530577D01*
X139476418Y-90330000D01*
X138353582Y-90330000D01*
X137345211Y-90530577D01*
X136490356Y-91101774D01*
X135919159Y-91956629D01*
X135718582Y-92965000D01*
X134037171Y-92965000D01*
X134111993Y-85599290D01*
X134112000Y-85598000D01*
X134112000Y-82042000D01*
X143764000Y-82042000D01*
X143813410Y-82031994D01*
X143855035Y-82003553D01*
X143882315Y-81961159D01*
X143891000Y-81915000D01*
X143891000Y-79502000D01*
X155119000Y-79502000D01*
X155119000Y-131116000D01*
G36*
X153289000Y-119507000D02*
X138557000Y-119507000D01*
X138557000Y-112395000D01*
X153289000Y-112395000D01*
X153289000Y-119507000D01*
X153289000Y-119507000D01*
G37*
X153289000Y-119507000D02*
X138557000Y-119507000D01*
X138557000Y-112395000D01*
X153289000Y-112395000D01*
X153289000Y-119507000D01*
M02*
