G04 #@! TF.FileFunction,Soldermask,Top*
%FSLAX46Y46*%
G04 Gerber Fmt 4.6, Leading zero omitted, Abs format (unit mm)*
G04 Created by KiCad (PCBNEW 4.0.7) date 06/02/18 16:03:12*
%MOMM*%
%LPD*%
G01*
G04 APERTURE LIST*
%ADD10C,0.100000*%
%ADD11R,2.100000X2.100000*%
%ADD12O,2.100000X2.100000*%
%ADD13C,2.200000*%
%ADD14C,4.400000*%
%ADD15R,1.700000X1.900000*%
%ADD16R,2.000000X0.950000*%
%ADD17R,0.950000X2.000000*%
%ADD18R,1.900000X1.650000*%
%ADD19R,1.650000X1.900000*%
%ADD20R,1.300000X1.600000*%
%ADD21R,1.900000X1.700000*%
%ADD22R,4.200000X2.400000*%
%ADD23R,1.900000X2.400000*%
%ADD24R,1.900000X1.000000*%
%ADD25C,1.900000*%
%ADD26R,1.950000X1.000000*%
%ADD27C,2.400000*%
%ADD28O,5.400000X4.400000*%
%ADD29O,3.400000X4.400000*%
%ADD30R,3.900000X3.900000*%
%ADD31C,0.254000*%
G04 APERTURE END LIST*
D10*
D11*
X94716600Y-60833000D03*
D12*
X97256600Y-60833000D03*
X99796600Y-60833000D03*
X102336600Y-60833000D03*
X104876600Y-60833000D03*
X107416600Y-60833000D03*
X109956600Y-60833000D03*
X112496600Y-60833000D03*
D13*
X113781200Y-76123800D03*
X116281200Y-76123800D03*
X118781200Y-76123800D03*
D14*
X111881200Y-69123800D03*
X120681200Y-69123800D03*
D15*
X94488000Y-67390000D03*
X94488000Y-64690000D03*
D16*
X138625000Y-66415000D03*
X138625000Y-67215000D03*
X138625000Y-68015000D03*
X138625000Y-68815000D03*
X138625000Y-69615000D03*
X138625000Y-70415000D03*
X138625000Y-71215000D03*
X138625000Y-72015000D03*
D17*
X140075000Y-73465000D03*
X140875000Y-73465000D03*
X141675000Y-73465000D03*
X142475000Y-73465000D03*
X143275000Y-73465000D03*
X144075000Y-73465000D03*
X144875000Y-73465000D03*
X145675000Y-73465000D03*
D16*
X147125000Y-72015000D03*
X147125000Y-71215000D03*
X147125000Y-70415000D03*
X147125000Y-69615000D03*
X147125000Y-68815000D03*
X147125000Y-68015000D03*
X147125000Y-67215000D03*
X147125000Y-66415000D03*
D17*
X145675000Y-64965000D03*
X144875000Y-64965000D03*
X144075000Y-64965000D03*
X143275000Y-64965000D03*
X142475000Y-64965000D03*
X141675000Y-64965000D03*
X140875000Y-64965000D03*
X140075000Y-64965000D03*
D18*
X143809400Y-123647200D03*
X146309400Y-123647200D03*
X128290000Y-127889000D03*
X130790000Y-127889000D03*
D19*
X129540000Y-66655000D03*
X129540000Y-64155000D03*
X129540000Y-71521000D03*
X129540000Y-74021000D03*
D20*
X132460000Y-125222000D03*
X129160000Y-125222000D03*
D11*
X143129000Y-55499000D03*
D12*
X140589000Y-55499000D03*
X138049000Y-55499000D03*
X135509000Y-55499000D03*
D21*
X135302000Y-123444000D03*
X138002000Y-123444000D03*
X140719800Y-121335800D03*
X138019800Y-121335800D03*
D15*
X109982000Y-82630000D03*
X109982000Y-79930000D03*
D22*
X146431000Y-115087000D03*
D23*
X146431000Y-121387000D03*
X148731000Y-121387000D03*
X144131000Y-121387000D03*
D24*
X106941600Y-73533000D03*
X106941600Y-72263000D03*
X106941600Y-70993000D03*
X106941600Y-69723000D03*
X106941600Y-68453000D03*
X106941600Y-67183000D03*
X106941600Y-65913000D03*
X106941600Y-64643000D03*
X101541600Y-64643000D03*
X101541600Y-65913000D03*
X101541600Y-67183000D03*
X101541600Y-68453000D03*
X101541600Y-69723000D03*
X101541600Y-70993000D03*
X101541600Y-72263000D03*
X101541600Y-73533000D03*
D25*
X133350000Y-66675000D03*
X133350000Y-71555000D03*
D19*
X101473000Y-75204000D03*
X101473000Y-77704000D03*
D11*
X127254000Y-60706000D03*
D12*
X129794000Y-60706000D03*
X132334000Y-60706000D03*
X134874000Y-60706000D03*
X137414000Y-60706000D03*
X139954000Y-60706000D03*
X142494000Y-60706000D03*
X145034000Y-60706000D03*
D26*
X140175000Y-78486000D03*
X140175000Y-79756000D03*
X140175000Y-81026000D03*
X140175000Y-82296000D03*
X145575000Y-82296000D03*
X145575000Y-81026000D03*
X145575000Y-79756000D03*
X145575000Y-78486000D03*
D15*
X94488000Y-104982000D03*
X94488000Y-102282000D03*
X94488000Y-97362000D03*
X94488000Y-94662000D03*
X94488000Y-89996000D03*
X94488000Y-87296000D03*
X94488000Y-82376000D03*
X94488000Y-79676000D03*
X94488000Y-75010000D03*
X94488000Y-72310000D03*
X107442000Y-82630000D03*
X107442000Y-79930000D03*
D27*
X119481600Y-79193000D03*
X119481600Y-83693000D03*
X112981600Y-79193000D03*
X112981600Y-83693000D03*
D28*
X145392000Y-108965000D03*
X145265000Y-92965000D03*
X138915000Y-108965000D03*
X138915000Y-92965000D03*
X151915000Y-92965000D03*
X151892000Y-108965000D03*
D29*
X140335000Y-128905000D03*
X140335000Y-133985000D03*
X136334500Y-133985000D03*
X136334500Y-128905000D03*
X144335500Y-128841500D03*
X144335500Y-133985000D03*
D30*
X135128000Y-115697000D03*
X129128000Y-115697000D03*
X132128000Y-120397000D03*
D31*
G36*
X153238200Y-119507000D02*
X138557000Y-119507000D01*
X138557000Y-112395000D01*
X153238200Y-112395000D01*
X153238200Y-119507000D01*
X153238200Y-119507000D01*
G37*
X153238200Y-119507000D02*
X138557000Y-119507000D01*
X138557000Y-112395000D01*
X153238200Y-112395000D01*
X153238200Y-119507000D01*
M02*
