M48
;DRILL file {KiCad 4.0.7} date 06/02/18 16:03:15
;FORMAT={-:-/ absolute / metric / decimal}
FMAT,2
METRIC,TZ
T1C0.300
T2C0.400
T3C0.800
T4C1.000
T5C1.100
T6C1.500
T7C2.000
T8C2.000
%
G90
G05
M71
T1
X139.421Y-113.17
X139.421Y-114.57
X139.421Y-115.97
X139.421Y-117.37
X139.421Y-118.77
X140.821Y-113.17
X140.821Y-114.57
X140.821Y-115.97
X140.821Y-117.37
X140.821Y-118.77
X142.215Y-113.17
X142.221Y-114.57
X142.221Y-115.97
X142.221Y-117.37
X142.221Y-118.77
X143.64Y-113.17
X145.04Y-113.17
X146.44Y-113.17
X147.84Y-113.17
X149.24Y-113.17
X150.736Y-113.17
X150.736Y-114.57
X150.736Y-115.97
X150.736Y-117.37
X150.736Y-118.77
X152.136Y-113.17
X152.136Y-114.57
X152.136Y-115.97
X152.136Y-117.37
X152.136Y-118.77
T2
X94.488Y-68.961
X94.488Y-76.454
X94.488Y-83.947
X94.488Y-91.567
X94.488Y-99.06
X94.488Y-106.807
X95.834Y-94.666
X95.86Y-102.286
X95.86Y-72.314
X95.885Y-79.676
X95.936Y-87.3
X96.012Y-64.262
X99.797Y-81.763
X102.87Y-77.699
X102.972Y-73.533
X105.156Y-70.663
X105.512Y-63.373
X107.442Y-84.201
X108.585Y-67.183
X115.316Y-63.373
X116.84Y-59.436
X128.27Y-129.286
X129.54Y-69.025
X136.246Y-72.517
X136.601Y-121.336
X138.532Y-76.886
X139.954Y-68.008
X139.954Y-69.596
X140.183Y-77.495
X140.208Y-83.439
X140.97Y-71.247
X142.138Y-75.692
X142.164Y-78.943
X142.291Y-123.647
X143.408Y-72.136
X144.082Y-68.77
X145.606Y-66.611
X145.732Y-68.834
X145.923Y-85.217
X147.066Y-86.36
T3
X133.35Y-66.675
X133.35Y-71.555
T4
X94.717Y-60.833
X97.257Y-60.833
X99.797Y-60.833
X102.337Y-60.833
X104.877Y-60.833
X107.417Y-60.833
X109.957Y-60.833
X112.497Y-60.833
X113.781Y-76.124
X116.281Y-76.124
X118.781Y-76.124
X127.254Y-60.706
X129.794Y-60.706
X132.334Y-60.706
X134.874Y-60.706
X135.509Y-55.499
X137.414Y-60.706
X138.049Y-55.499
X139.954Y-60.706
X140.589Y-55.499
X142.494Y-60.706
X143.129Y-55.499
X145.034Y-60.706
T5
X112.982Y-79.193
X112.982Y-83.693
X119.482Y-79.193
X119.482Y-83.693
T6
X136.334Y-128.905
X136.334Y-133.985
X140.335Y-128.905
X140.335Y-133.985
X144.335Y-128.841
X144.335Y-133.985
T7
X138.915Y-92.965
X138.915Y-108.965
X145.265Y-92.965
X145.392Y-108.965
X151.892Y-108.965
X151.915Y-92.965
T8
X111.881Y-69.124
X120.681Y-69.124
T4
X129.128Y-114.697G85X129.128Y-116.697
G05
X131.128Y-120.397G85X133.128Y-120.397
G05
X135.128Y-114.697G85X135.128Y-116.697
G05
T0
M30
