G04 #@! TF.FileFunction,Legend,Bot*
%FSLAX46Y46*%
G04 Gerber Fmt 4.6, Leading zero omitted, Abs format (unit mm)*
G04 Created by KiCad (PCBNEW 4.0.7) date 06/02/18 16:03:12*
%MOMM*%
%LPD*%
G01*
G04 APERTURE LIST*
%ADD10C,0.100000*%
%ADD11C,0.015000*%
%ADD12C,0.125000*%
%ADD13C,0.250000*%
%ADD14C,0.120000*%
G04 APERTURE END LIST*
D10*
D11*
X144013450Y-53629690D02*
X144013450Y-53129690D01*
X143846784Y-53486833D01*
X143680117Y-53129690D01*
X143680117Y-53629690D01*
X143346783Y-53129690D02*
X143251545Y-53129690D01*
X143203926Y-53153500D01*
X143156307Y-53201119D01*
X143132498Y-53296357D01*
X143132498Y-53463024D01*
X143156307Y-53558262D01*
X143203926Y-53605881D01*
X143251545Y-53629690D01*
X143346783Y-53629690D01*
X143394402Y-53605881D01*
X143442021Y-53558262D01*
X143465831Y-53463024D01*
X143465831Y-53296357D01*
X143442021Y-53201119D01*
X143394402Y-53153500D01*
X143346783Y-53129690D01*
X142942021Y-53605881D02*
X142870592Y-53629690D01*
X142751545Y-53629690D01*
X142703926Y-53605881D01*
X142680116Y-53582071D01*
X142656307Y-53534452D01*
X142656307Y-53486833D01*
X142680116Y-53439214D01*
X142703926Y-53415405D01*
X142751545Y-53391595D01*
X142846783Y-53367786D01*
X142894402Y-53343976D01*
X142918211Y-53320167D01*
X142942021Y-53272548D01*
X142942021Y-53224929D01*
X142918211Y-53177310D01*
X142894402Y-53153500D01*
X142846783Y-53129690D01*
X142727735Y-53129690D01*
X142656307Y-53153500D01*
X142442021Y-53629690D02*
X142442021Y-53129690D01*
X141442022Y-53629690D02*
X141442022Y-53129690D01*
X141275356Y-53486833D01*
X141108689Y-53129690D01*
X141108689Y-53629690D01*
X140870593Y-53629690D02*
X140870593Y-53129690D01*
X140656308Y-53605881D02*
X140584879Y-53629690D01*
X140465832Y-53629690D01*
X140418213Y-53605881D01*
X140394403Y-53582071D01*
X140370594Y-53534452D01*
X140370594Y-53486833D01*
X140394403Y-53439214D01*
X140418213Y-53415405D01*
X140465832Y-53391595D01*
X140561070Y-53367786D01*
X140608689Y-53343976D01*
X140632498Y-53320167D01*
X140656308Y-53272548D01*
X140656308Y-53224929D01*
X140632498Y-53177310D01*
X140608689Y-53153500D01*
X140561070Y-53129690D01*
X140442022Y-53129690D01*
X140370594Y-53153500D01*
X140061070Y-53129690D02*
X139965832Y-53129690D01*
X139918213Y-53153500D01*
X139870594Y-53201119D01*
X139846785Y-53296357D01*
X139846785Y-53463024D01*
X139870594Y-53558262D01*
X139918213Y-53605881D01*
X139965832Y-53629690D01*
X140061070Y-53629690D01*
X140108689Y-53605881D01*
X140156308Y-53558262D01*
X140180118Y-53463024D01*
X140180118Y-53296357D01*
X140156308Y-53201119D01*
X140108689Y-53153500D01*
X140061070Y-53129690D01*
X138513452Y-53605881D02*
X138442023Y-53629690D01*
X138322976Y-53629690D01*
X138275357Y-53605881D01*
X138251547Y-53582071D01*
X138227738Y-53534452D01*
X138227738Y-53486833D01*
X138251547Y-53439214D01*
X138275357Y-53415405D01*
X138322976Y-53391595D01*
X138418214Y-53367786D01*
X138465833Y-53343976D01*
X138489642Y-53320167D01*
X138513452Y-53272548D01*
X138513452Y-53224929D01*
X138489642Y-53177310D01*
X138465833Y-53153500D01*
X138418214Y-53129690D01*
X138299166Y-53129690D01*
X138227738Y-53153500D01*
X137727738Y-53582071D02*
X137751548Y-53605881D01*
X137822976Y-53629690D01*
X137870595Y-53629690D01*
X137942024Y-53605881D01*
X137989643Y-53558262D01*
X138013452Y-53510643D01*
X138037262Y-53415405D01*
X138037262Y-53343976D01*
X138013452Y-53248738D01*
X137989643Y-53201119D01*
X137942024Y-53153500D01*
X137870595Y-53129690D01*
X137822976Y-53129690D01*
X137751548Y-53153500D01*
X137727738Y-53177310D01*
X137513452Y-53629690D02*
X137513452Y-53129690D01*
X137227738Y-53629690D02*
X137442024Y-53343976D01*
X137227738Y-53129690D02*
X137513452Y-53415405D01*
X135584882Y-53629690D02*
X135751549Y-53391595D01*
X135870596Y-53629690D02*
X135870596Y-53129690D01*
X135680120Y-53129690D01*
X135632501Y-53153500D01*
X135608692Y-53177310D01*
X135584882Y-53224929D01*
X135584882Y-53296357D01*
X135608692Y-53343976D01*
X135632501Y-53367786D01*
X135680120Y-53391595D01*
X135870596Y-53391595D01*
X135394406Y-53605881D02*
X135322977Y-53629690D01*
X135203930Y-53629690D01*
X135156311Y-53605881D01*
X135132501Y-53582071D01*
X135108692Y-53534452D01*
X135108692Y-53486833D01*
X135132501Y-53439214D01*
X135156311Y-53415405D01*
X135203930Y-53391595D01*
X135299168Y-53367786D01*
X135346787Y-53343976D01*
X135370596Y-53320167D01*
X135394406Y-53272548D01*
X135394406Y-53224929D01*
X135370596Y-53177310D01*
X135346787Y-53153500D01*
X135299168Y-53129690D01*
X135180120Y-53129690D01*
X135108692Y-53153500D01*
X134965835Y-53129690D02*
X134680121Y-53129690D01*
X134822978Y-53629690D02*
X134822978Y-53129690D01*
X105713257Y-83535190D02*
X105951352Y-83535190D01*
X105951352Y-83035190D01*
X105379924Y-83273286D02*
X105546590Y-83273286D01*
X105546590Y-83535190D02*
X105546590Y-83035190D01*
X105308495Y-83035190D01*
X105022781Y-83035190D02*
X104927543Y-83035190D01*
X104879924Y-83059000D01*
X104832305Y-83106619D01*
X104808496Y-83201857D01*
X104808496Y-83368524D01*
X104832305Y-83463762D01*
X104879924Y-83511381D01*
X104927543Y-83535190D01*
X105022781Y-83535190D01*
X105070400Y-83511381D01*
X105118019Y-83463762D01*
X105141829Y-83368524D01*
X105141829Y-83201857D01*
X105118019Y-83106619D01*
X105070400Y-83059000D01*
X105022781Y-83035190D01*
X104213257Y-83273286D02*
X104046591Y-83273286D01*
X103975162Y-83535190D02*
X104213257Y-83535190D01*
X104213257Y-83035190D01*
X103975162Y-83035190D01*
X103808495Y-83035190D02*
X103475162Y-83535190D01*
X103475162Y-83035190D02*
X103808495Y-83535190D01*
X103284686Y-83535190D02*
X103284686Y-83035190D01*
X103094210Y-83035190D01*
X103046591Y-83059000D01*
X103022782Y-83082810D01*
X102998972Y-83130429D01*
X102998972Y-83201857D01*
X103022782Y-83249476D01*
X103046591Y-83273286D01*
X103094210Y-83297095D01*
X103284686Y-83297095D01*
X102118020Y-83487571D02*
X102141830Y-83511381D01*
X102213258Y-83535190D01*
X102260877Y-83535190D01*
X102332306Y-83511381D01*
X102379925Y-83463762D01*
X102403734Y-83416143D01*
X102427544Y-83320905D01*
X102427544Y-83249476D01*
X102403734Y-83154238D01*
X102379925Y-83106619D01*
X102332306Y-83059000D01*
X102260877Y-83035190D01*
X102213258Y-83035190D01*
X102141830Y-83059000D01*
X102118020Y-83082810D01*
X101832306Y-83535190D02*
X101879925Y-83511381D01*
X101903734Y-83487571D01*
X101927544Y-83439952D01*
X101927544Y-83297095D01*
X101903734Y-83249476D01*
X101879925Y-83225667D01*
X101832306Y-83201857D01*
X101760877Y-83201857D01*
X101713258Y-83225667D01*
X101689449Y-83249476D01*
X101665639Y-83297095D01*
X101665639Y-83439952D01*
X101689449Y-83487571D01*
X101713258Y-83511381D01*
X101760877Y-83535190D01*
X101832306Y-83535190D01*
X101451353Y-83201857D02*
X101451353Y-83535190D01*
X101451353Y-83249476D02*
X101427544Y-83225667D01*
X101379925Y-83201857D01*
X101308496Y-83201857D01*
X101260877Y-83225667D01*
X101237068Y-83273286D01*
X101237068Y-83535190D01*
X101070401Y-83201857D02*
X100879925Y-83201857D01*
X100998972Y-83035190D02*
X100998972Y-83463762D01*
X100975163Y-83511381D01*
X100927544Y-83535190D01*
X100879925Y-83535190D01*
X100713258Y-83535190D02*
X100713258Y-83201857D01*
X100713258Y-83297095D02*
X100689449Y-83249476D01*
X100665639Y-83225667D01*
X100618020Y-83201857D01*
X100570401Y-83201857D01*
X100332306Y-83535190D02*
X100379925Y-83511381D01*
X100403734Y-83487571D01*
X100427544Y-83439952D01*
X100427544Y-83297095D01*
X100403734Y-83249476D01*
X100379925Y-83225667D01*
X100332306Y-83201857D01*
X100260877Y-83201857D01*
X100213258Y-83225667D01*
X100189449Y-83249476D01*
X100165639Y-83297095D01*
X100165639Y-83439952D01*
X100189449Y-83487571D01*
X100213258Y-83511381D01*
X100260877Y-83535190D01*
X100332306Y-83535190D01*
X99879925Y-83535190D02*
X99927544Y-83511381D01*
X99951353Y-83463762D01*
X99951353Y-83035190D01*
X99618020Y-83535190D02*
X99665639Y-83511381D01*
X99689448Y-83463762D01*
X99689448Y-83035190D01*
X99237067Y-83511381D02*
X99284686Y-83535190D01*
X99379924Y-83535190D01*
X99427543Y-83511381D01*
X99451353Y-83463762D01*
X99451353Y-83273286D01*
X99427543Y-83225667D01*
X99379924Y-83201857D01*
X99284686Y-83201857D01*
X99237067Y-83225667D01*
X99213258Y-83273286D01*
X99213258Y-83320905D01*
X99451353Y-83368524D01*
X98998972Y-83535190D02*
X98998972Y-83201857D01*
X98998972Y-83297095D02*
X98975163Y-83249476D01*
X98951353Y-83225667D01*
X98903734Y-83201857D01*
X98856115Y-83201857D01*
X105665638Y-84300190D02*
X105832305Y-84062095D01*
X105951352Y-84300190D02*
X105951352Y-83800190D01*
X105760876Y-83800190D01*
X105713257Y-83824000D01*
X105689448Y-83847810D01*
X105665638Y-83895429D01*
X105665638Y-83966857D01*
X105689448Y-84014476D01*
X105713257Y-84038286D01*
X105760876Y-84062095D01*
X105951352Y-84062095D01*
X105260876Y-84276381D02*
X105308495Y-84300190D01*
X105403733Y-84300190D01*
X105451352Y-84276381D01*
X105475162Y-84228762D01*
X105475162Y-84038286D01*
X105451352Y-83990667D01*
X105403733Y-83966857D01*
X105308495Y-83966857D01*
X105260876Y-83990667D01*
X105237067Y-84038286D01*
X105237067Y-84085905D01*
X105475162Y-84133524D01*
X105070400Y-83966857D02*
X104951353Y-84300190D01*
X104832305Y-83966857D01*
X104689448Y-83800190D02*
X104379925Y-83800190D01*
X104546591Y-83990667D01*
X104475163Y-83990667D01*
X104427544Y-84014476D01*
X104403734Y-84038286D01*
X104379925Y-84085905D01*
X104379925Y-84204952D01*
X104403734Y-84252571D01*
X104427544Y-84276381D01*
X104475163Y-84300190D01*
X104618020Y-84300190D01*
X104665639Y-84276381D01*
X104689448Y-84252571D01*
X103784687Y-84300190D02*
X103784687Y-83800190D01*
X103784687Y-83990667D02*
X103737068Y-83966857D01*
X103641830Y-83966857D01*
X103594211Y-83990667D01*
X103570402Y-84014476D01*
X103546592Y-84062095D01*
X103546592Y-84204952D01*
X103570402Y-84252571D01*
X103594211Y-84276381D01*
X103641830Y-84300190D01*
X103737068Y-84300190D01*
X103784687Y-84276381D01*
X103379925Y-83966857D02*
X103260878Y-84300190D01*
X103141830Y-83966857D02*
X103260878Y-84300190D01*
X103308497Y-84419238D01*
X103332306Y-84443048D01*
X103379925Y-84466857D01*
X102284688Y-84252571D02*
X102308498Y-84276381D01*
X102379926Y-84300190D01*
X102427545Y-84300190D01*
X102498974Y-84276381D01*
X102546593Y-84228762D01*
X102570402Y-84181143D01*
X102594212Y-84085905D01*
X102594212Y-84014476D01*
X102570402Y-83919238D01*
X102546593Y-83871619D01*
X102498974Y-83824000D01*
X102427545Y-83800190D01*
X102379926Y-83800190D01*
X102308498Y-83824000D01*
X102284688Y-83847810D01*
X102070402Y-84300190D02*
X102070402Y-83800190D01*
X101856117Y-84300190D02*
X101856117Y-84038286D01*
X101879926Y-83990667D01*
X101927545Y-83966857D01*
X101998974Y-83966857D01*
X102046593Y-83990667D01*
X102070402Y-84014476D01*
X101618021Y-84300190D02*
X101618021Y-83966857D01*
X101618021Y-84062095D02*
X101594212Y-84014476D01*
X101570402Y-83990667D01*
X101522783Y-83966857D01*
X101475164Y-83966857D01*
X101308497Y-84300190D02*
X101308497Y-83966857D01*
X101308497Y-83800190D02*
X101332307Y-83824000D01*
X101308497Y-83847810D01*
X101284688Y-83824000D01*
X101308497Y-83800190D01*
X101308497Y-83847810D01*
X101094212Y-84276381D02*
X101046593Y-84300190D01*
X100951355Y-84300190D01*
X100903736Y-84276381D01*
X100879926Y-84228762D01*
X100879926Y-84204952D01*
X100903736Y-84157333D01*
X100951355Y-84133524D01*
X101022783Y-84133524D01*
X101070402Y-84109714D01*
X101094212Y-84062095D01*
X101094212Y-84038286D01*
X101070402Y-83990667D01*
X101022783Y-83966857D01*
X100951355Y-83966857D01*
X100903736Y-83990667D01*
X100308498Y-84276381D02*
X100237069Y-84300190D01*
X100118022Y-84300190D01*
X100070403Y-84276381D01*
X100046593Y-84252571D01*
X100022784Y-84204952D01*
X100022784Y-84157333D01*
X100046593Y-84109714D01*
X100070403Y-84085905D01*
X100118022Y-84062095D01*
X100213260Y-84038286D01*
X100260879Y-84014476D01*
X100284688Y-83990667D01*
X100308498Y-83943048D01*
X100308498Y-83895429D01*
X100284688Y-83847810D01*
X100260879Y-83824000D01*
X100213260Y-83800190D01*
X100094212Y-83800190D01*
X100022784Y-83824000D01*
X99594213Y-83966857D02*
X99594213Y-84300190D01*
X99808498Y-83966857D02*
X99808498Y-84228762D01*
X99784689Y-84276381D01*
X99737070Y-84300190D01*
X99665641Y-84300190D01*
X99618022Y-84276381D01*
X99594213Y-84252571D01*
X99427546Y-83966857D02*
X99237070Y-83966857D01*
X99356117Y-83800190D02*
X99356117Y-84228762D01*
X99332308Y-84276381D01*
X99284689Y-84300190D01*
X99237070Y-84300190D01*
X99141832Y-83966857D02*
X98951356Y-83966857D01*
X99070403Y-83800190D02*
X99070403Y-84228762D01*
X99046594Y-84276381D01*
X98998975Y-84300190D01*
X98951356Y-84300190D01*
X98713261Y-84300190D02*
X98760880Y-84276381D01*
X98784689Y-84252571D01*
X98808499Y-84204952D01*
X98808499Y-84062095D01*
X98784689Y-84014476D01*
X98760880Y-83990667D01*
X98713261Y-83966857D01*
X98641832Y-83966857D01*
X98594213Y-83990667D01*
X98570404Y-84014476D01*
X98546594Y-84062095D01*
X98546594Y-84204952D01*
X98570404Y-84252571D01*
X98594213Y-84276381D01*
X98641832Y-84300190D01*
X98713261Y-84300190D01*
X98332308Y-83966857D02*
X98332308Y-84300190D01*
X98332308Y-84014476D02*
X98308499Y-83990667D01*
X98260880Y-83966857D01*
X98189451Y-83966857D01*
X98141832Y-83990667D01*
X98118023Y-84038286D01*
X98118023Y-84300190D01*
X105689448Y-85065190D02*
X105975162Y-85065190D01*
X105832305Y-85065190D02*
X105832305Y-84565190D01*
X105879924Y-84636619D01*
X105927543Y-84684238D01*
X105975162Y-84708048D01*
X105498972Y-84612810D02*
X105475162Y-84589000D01*
X105427543Y-84565190D01*
X105308496Y-84565190D01*
X105260877Y-84589000D01*
X105237067Y-84612810D01*
X105213258Y-84660429D01*
X105213258Y-84708048D01*
X105237067Y-84779476D01*
X105522781Y-85065190D01*
X105213258Y-85065190D01*
X105022782Y-84612810D02*
X104998972Y-84589000D01*
X104951353Y-84565190D01*
X104832306Y-84565190D01*
X104784687Y-84589000D01*
X104760877Y-84612810D01*
X104737068Y-84660429D01*
X104737068Y-84708048D01*
X104760877Y-84779476D01*
X105046591Y-85065190D01*
X104737068Y-85065190D01*
X104427544Y-84565190D02*
X104379925Y-84565190D01*
X104332306Y-84589000D01*
X104308497Y-84612810D01*
X104284687Y-84660429D01*
X104260878Y-84755667D01*
X104260878Y-84874714D01*
X104284687Y-84969952D01*
X104308497Y-85017571D01*
X104332306Y-85041381D01*
X104379925Y-85065190D01*
X104427544Y-85065190D01*
X104475163Y-85041381D01*
X104498973Y-85017571D01*
X104522782Y-84969952D01*
X104546592Y-84874714D01*
X104546592Y-84755667D01*
X104522782Y-84660429D01*
X104498973Y-84612810D01*
X104475163Y-84589000D01*
X104427544Y-84565190D01*
X103784688Y-85065190D02*
X104070402Y-85065190D01*
X103927545Y-85065190D02*
X103927545Y-84565190D01*
X103975164Y-84636619D01*
X104022783Y-84684238D01*
X104070402Y-84708048D01*
X103498974Y-84779476D02*
X103546593Y-84755667D01*
X103570402Y-84731857D01*
X103594212Y-84684238D01*
X103594212Y-84660429D01*
X103570402Y-84612810D01*
X103546593Y-84589000D01*
X103498974Y-84565190D01*
X103403736Y-84565190D01*
X103356117Y-84589000D01*
X103332307Y-84612810D01*
X103308498Y-84660429D01*
X103308498Y-84684238D01*
X103332307Y-84731857D01*
X103356117Y-84755667D01*
X103403736Y-84779476D01*
X103498974Y-84779476D01*
X103546593Y-84803286D01*
X103570402Y-84827095D01*
X103594212Y-84874714D01*
X103594212Y-84969952D01*
X103570402Y-85017571D01*
X103546593Y-85041381D01*
X103498974Y-85065190D01*
X103403736Y-85065190D01*
X103356117Y-85041381D01*
X103332307Y-85017571D01*
X103308498Y-84969952D01*
X103308498Y-84874714D01*
X103332307Y-84827095D01*
X103356117Y-84803286D01*
X103403736Y-84779476D01*
D12*
X130274190Y-82737194D02*
X130036095Y-82570527D01*
X130274190Y-82451480D02*
X129774190Y-82451480D01*
X129774190Y-82641956D01*
X129798000Y-82689575D01*
X129821810Y-82713384D01*
X129869429Y-82737194D01*
X129940857Y-82737194D01*
X129988476Y-82713384D01*
X130012286Y-82689575D01*
X130036095Y-82641956D01*
X130036095Y-82451480D01*
X130250381Y-83141956D02*
X130274190Y-83094337D01*
X130274190Y-82999099D01*
X130250381Y-82951480D01*
X130202762Y-82927670D01*
X130012286Y-82927670D01*
X129964667Y-82951480D01*
X129940857Y-82999099D01*
X129940857Y-83094337D01*
X129964667Y-83141956D01*
X130012286Y-83165765D01*
X130059905Y-83165765D01*
X130107524Y-82927670D01*
X129940857Y-83332432D02*
X130274190Y-83451479D01*
X129940857Y-83570527D01*
X129774190Y-83713384D02*
X129774190Y-84022907D01*
X129964667Y-83856241D01*
X129964667Y-83927669D01*
X129988476Y-83975288D01*
X130012286Y-83999098D01*
X130059905Y-84022907D01*
X130178952Y-84022907D01*
X130226571Y-83999098D01*
X130250381Y-83975288D01*
X130274190Y-83927669D01*
X130274190Y-83784812D01*
X130250381Y-83737193D01*
X130226571Y-83713384D01*
X130012286Y-84784811D02*
X130036095Y-84856240D01*
X130059905Y-84880049D01*
X130107524Y-84903859D01*
X130178952Y-84903859D01*
X130226571Y-84880049D01*
X130250381Y-84856240D01*
X130274190Y-84808621D01*
X130274190Y-84618145D01*
X129774190Y-84618145D01*
X129774190Y-84784811D01*
X129798000Y-84832430D01*
X129821810Y-84856240D01*
X129869429Y-84880049D01*
X129917048Y-84880049D01*
X129964667Y-84856240D01*
X129988476Y-84832430D01*
X130012286Y-84784811D01*
X130012286Y-84618145D01*
X129940857Y-85070526D02*
X130274190Y-85189573D01*
X129940857Y-85308621D02*
X130274190Y-85189573D01*
X130393238Y-85141954D01*
X130417048Y-85118145D01*
X130440857Y-85070526D01*
X130226571Y-86165763D02*
X130250381Y-86141953D01*
X130274190Y-86070525D01*
X130274190Y-86022906D01*
X130250381Y-85951477D01*
X130202762Y-85903858D01*
X130155143Y-85880049D01*
X130059905Y-85856239D01*
X129988476Y-85856239D01*
X129893238Y-85880049D01*
X129845619Y-85903858D01*
X129798000Y-85951477D01*
X129774190Y-86022906D01*
X129774190Y-86070525D01*
X129798000Y-86141953D01*
X129821810Y-86165763D01*
X130274190Y-86380049D02*
X129774190Y-86380049D01*
X130274190Y-86594334D02*
X130012286Y-86594334D01*
X129964667Y-86570525D01*
X129940857Y-86522906D01*
X129940857Y-86451477D01*
X129964667Y-86403858D01*
X129988476Y-86380049D01*
X130274190Y-86832430D02*
X129940857Y-86832430D01*
X130036095Y-86832430D02*
X129988476Y-86856239D01*
X129964667Y-86880049D01*
X129940857Y-86927668D01*
X129940857Y-86975287D01*
X130274190Y-87141954D02*
X129940857Y-87141954D01*
X129774190Y-87141954D02*
X129798000Y-87118144D01*
X129821810Y-87141954D01*
X129798000Y-87165763D01*
X129774190Y-87141954D01*
X129821810Y-87141954D01*
X130250381Y-87356239D02*
X130274190Y-87403858D01*
X130274190Y-87499096D01*
X130250381Y-87546715D01*
X130202762Y-87570525D01*
X130178952Y-87570525D01*
X130131333Y-87546715D01*
X130107524Y-87499096D01*
X130107524Y-87427668D01*
X130083714Y-87380049D01*
X130036095Y-87356239D01*
X130012286Y-87356239D01*
X129964667Y-87380049D01*
X129940857Y-87427668D01*
X129940857Y-87499096D01*
X129964667Y-87546715D01*
X130250381Y-88141953D02*
X130274190Y-88213382D01*
X130274190Y-88332429D01*
X130250381Y-88380048D01*
X130226571Y-88403858D01*
X130178952Y-88427667D01*
X130131333Y-88427667D01*
X130083714Y-88403858D01*
X130059905Y-88380048D01*
X130036095Y-88332429D01*
X130012286Y-88237191D01*
X129988476Y-88189572D01*
X129964667Y-88165763D01*
X129917048Y-88141953D01*
X129869429Y-88141953D01*
X129821810Y-88165763D01*
X129798000Y-88189572D01*
X129774190Y-88237191D01*
X129774190Y-88356239D01*
X129798000Y-88427667D01*
X129940857Y-88856238D02*
X130274190Y-88856238D01*
X129940857Y-88641953D02*
X130202762Y-88641953D01*
X130250381Y-88665762D01*
X130274190Y-88713381D01*
X130274190Y-88784810D01*
X130250381Y-88832429D01*
X130226571Y-88856238D01*
X129940857Y-89022905D02*
X129940857Y-89213381D01*
X129774190Y-89094334D02*
X130202762Y-89094334D01*
X130250381Y-89118143D01*
X130274190Y-89165762D01*
X130274190Y-89213381D01*
X129940857Y-89308619D02*
X129940857Y-89499095D01*
X129774190Y-89380048D02*
X130202762Y-89380048D01*
X130250381Y-89403857D01*
X130274190Y-89451476D01*
X130274190Y-89499095D01*
X130274190Y-89737190D02*
X130250381Y-89689571D01*
X130226571Y-89665762D01*
X130178952Y-89641952D01*
X130036095Y-89641952D01*
X129988476Y-89665762D01*
X129964667Y-89689571D01*
X129940857Y-89737190D01*
X129940857Y-89808619D01*
X129964667Y-89856238D01*
X129988476Y-89880047D01*
X130036095Y-89903857D01*
X130178952Y-89903857D01*
X130226571Y-89880047D01*
X130250381Y-89856238D01*
X130274190Y-89808619D01*
X130274190Y-89737190D01*
X129940857Y-90118143D02*
X130274190Y-90118143D01*
X129988476Y-90118143D02*
X129964667Y-90141952D01*
X129940857Y-90189571D01*
X129940857Y-90261000D01*
X129964667Y-90308619D01*
X130012286Y-90332428D01*
X130274190Y-90332428D01*
X130274190Y-91213380D02*
X130274190Y-90927666D01*
X130274190Y-91070523D02*
X129774190Y-91070523D01*
X129845619Y-91022904D01*
X129893238Y-90975285D01*
X129917048Y-90927666D01*
X129821810Y-91403856D02*
X129798000Y-91427666D01*
X129774190Y-91475285D01*
X129774190Y-91594332D01*
X129798000Y-91641951D01*
X129821810Y-91665761D01*
X129869429Y-91689570D01*
X129917048Y-91689570D01*
X129988476Y-91665761D01*
X130274190Y-91380047D01*
X130274190Y-91689570D01*
X129821810Y-91880046D02*
X129798000Y-91903856D01*
X129774190Y-91951475D01*
X129774190Y-92070522D01*
X129798000Y-92118141D01*
X129821810Y-92141951D01*
X129869429Y-92165760D01*
X129917048Y-92165760D01*
X129988476Y-92141951D01*
X130274190Y-91856237D01*
X130274190Y-92165760D01*
X129774190Y-92475284D02*
X129774190Y-92522903D01*
X129798000Y-92570522D01*
X129821810Y-92594331D01*
X129869429Y-92618141D01*
X129964667Y-92641950D01*
X130083714Y-92641950D01*
X130178952Y-92618141D01*
X130226571Y-92594331D01*
X130250381Y-92570522D01*
X130274190Y-92522903D01*
X130274190Y-92475284D01*
X130250381Y-92427665D01*
X130226571Y-92403855D01*
X130178952Y-92380046D01*
X130083714Y-92356236D01*
X129964667Y-92356236D01*
X129869429Y-92380046D01*
X129821810Y-92403855D01*
X129798000Y-92427665D01*
X129774190Y-92475284D01*
X130274190Y-93118140D02*
X130274190Y-92832426D01*
X130274190Y-92975283D02*
X129774190Y-92975283D01*
X129845619Y-92927664D01*
X129893238Y-92880045D01*
X129917048Y-92832426D01*
X129988476Y-93403854D02*
X129964667Y-93356235D01*
X129940857Y-93332426D01*
X129893238Y-93308616D01*
X129869429Y-93308616D01*
X129821810Y-93332426D01*
X129798000Y-93356235D01*
X129774190Y-93403854D01*
X129774190Y-93499092D01*
X129798000Y-93546711D01*
X129821810Y-93570521D01*
X129869429Y-93594330D01*
X129893238Y-93594330D01*
X129940857Y-93570521D01*
X129964667Y-93546711D01*
X129988476Y-93499092D01*
X129988476Y-93403854D01*
X130012286Y-93356235D01*
X130036095Y-93332426D01*
X130083714Y-93308616D01*
X130178952Y-93308616D01*
X130226571Y-93332426D01*
X130250381Y-93356235D01*
X130274190Y-93403854D01*
X130274190Y-93499092D01*
X130250381Y-93546711D01*
X130226571Y-93570521D01*
X130178952Y-93594330D01*
X130083714Y-93594330D01*
X130036095Y-93570521D01*
X130012286Y-93546711D01*
X129988476Y-93499092D01*
D13*
X128976381Y-83082951D02*
X128976381Y-82606760D01*
X127976381Y-82606760D01*
X128452571Y-83749618D02*
X128452571Y-83416284D01*
X128976381Y-83416284D02*
X127976381Y-83416284D01*
X127976381Y-83892475D01*
X127976381Y-84463903D02*
X127976381Y-84654380D01*
X128024000Y-84749618D01*
X128119238Y-84844856D01*
X128309714Y-84892475D01*
X128643048Y-84892475D01*
X128833524Y-84844856D01*
X128928762Y-84749618D01*
X128976381Y-84654380D01*
X128976381Y-84463903D01*
X128928762Y-84368665D01*
X128833524Y-84273427D01*
X128643048Y-84225808D01*
X128309714Y-84225808D01*
X128119238Y-84273427D01*
X128024000Y-84368665D01*
X127976381Y-84463903D01*
X128452571Y-86082951D02*
X128452571Y-86416285D01*
X128976381Y-86559142D02*
X128976381Y-86082951D01*
X127976381Y-86082951D01*
X127976381Y-86559142D01*
X128976381Y-86892475D02*
X128309714Y-87416285D01*
X128309714Y-86892475D02*
X128976381Y-87416285D01*
X128309714Y-87797237D02*
X129309714Y-87797237D01*
X128357333Y-87797237D02*
X128309714Y-87892475D01*
X128309714Y-88082952D01*
X128357333Y-88178190D01*
X128404952Y-88225809D01*
X128500190Y-88273428D01*
X128785905Y-88273428D01*
X128881143Y-88225809D01*
X128928762Y-88178190D01*
X128976381Y-88082952D01*
X128976381Y-87892475D01*
X128928762Y-87797237D01*
X128976381Y-88701999D02*
X128309714Y-88701999D01*
X128500190Y-88701999D02*
X128404952Y-88749618D01*
X128357333Y-88797237D01*
X128309714Y-88892475D01*
X128309714Y-88987714D01*
X128928762Y-89702000D02*
X128976381Y-89606762D01*
X128976381Y-89416285D01*
X128928762Y-89321047D01*
X128833524Y-89273428D01*
X128452571Y-89273428D01*
X128357333Y-89321047D01*
X128309714Y-89416285D01*
X128309714Y-89606762D01*
X128357333Y-89702000D01*
X128452571Y-89749619D01*
X128547810Y-89749619D01*
X128643048Y-89273428D01*
X128928762Y-90130571D02*
X128976381Y-90225809D01*
X128976381Y-90416285D01*
X128928762Y-90511524D01*
X128833524Y-90559143D01*
X128785905Y-90559143D01*
X128690667Y-90511524D01*
X128643048Y-90416285D01*
X128643048Y-90273428D01*
X128595429Y-90178190D01*
X128500190Y-90130571D01*
X128452571Y-90130571D01*
X128357333Y-90178190D01*
X128309714Y-90273428D01*
X128309714Y-90416285D01*
X128357333Y-90511524D01*
X128928762Y-90940095D02*
X128976381Y-91035333D01*
X128976381Y-91225809D01*
X128928762Y-91321048D01*
X128833524Y-91368667D01*
X128785905Y-91368667D01*
X128690667Y-91321048D01*
X128643048Y-91225809D01*
X128643048Y-91082952D01*
X128595429Y-90987714D01*
X128500190Y-90940095D01*
X128452571Y-90940095D01*
X128357333Y-90987714D01*
X128309714Y-91082952D01*
X128309714Y-91225809D01*
X128357333Y-91321048D01*
X128976381Y-91797238D02*
X128309714Y-91797238D01*
X127976381Y-91797238D02*
X128024000Y-91749619D01*
X128071619Y-91797238D01*
X128024000Y-91844857D01*
X127976381Y-91797238D01*
X128071619Y-91797238D01*
X128976381Y-92416285D02*
X128928762Y-92321047D01*
X128881143Y-92273428D01*
X128785905Y-92225809D01*
X128500190Y-92225809D01*
X128404952Y-92273428D01*
X128357333Y-92321047D01*
X128309714Y-92416285D01*
X128309714Y-92559143D01*
X128357333Y-92654381D01*
X128404952Y-92702000D01*
X128500190Y-92749619D01*
X128785905Y-92749619D01*
X128881143Y-92702000D01*
X128928762Y-92654381D01*
X128976381Y-92559143D01*
X128976381Y-92416285D01*
X128309714Y-93178190D02*
X128976381Y-93178190D01*
X128404952Y-93178190D02*
X128357333Y-93225809D01*
X128309714Y-93321047D01*
X128309714Y-93463905D01*
X128357333Y-93559143D01*
X128452571Y-93606762D01*
X128976381Y-93606762D01*
X128881143Y-95416286D02*
X128928762Y-95368667D01*
X128976381Y-95225810D01*
X128976381Y-95130572D01*
X128928762Y-94987714D01*
X128833524Y-94892476D01*
X128738286Y-94844857D01*
X128547810Y-94797238D01*
X128404952Y-94797238D01*
X128214476Y-94844857D01*
X128119238Y-94892476D01*
X128024000Y-94987714D01*
X127976381Y-95130572D01*
X127976381Y-95225810D01*
X128024000Y-95368667D01*
X128071619Y-95416286D01*
X128976381Y-95987714D02*
X128928762Y-95892476D01*
X128881143Y-95844857D01*
X128785905Y-95797238D01*
X128500190Y-95797238D01*
X128404952Y-95844857D01*
X128357333Y-95892476D01*
X128309714Y-95987714D01*
X128309714Y-96130572D01*
X128357333Y-96225810D01*
X128404952Y-96273429D01*
X128500190Y-96321048D01*
X128785905Y-96321048D01*
X128881143Y-96273429D01*
X128928762Y-96225810D01*
X128976381Y-96130572D01*
X128976381Y-95987714D01*
X128309714Y-96749619D02*
X128976381Y-96749619D01*
X128404952Y-96749619D02*
X128357333Y-96797238D01*
X128309714Y-96892476D01*
X128309714Y-97035334D01*
X128357333Y-97130572D01*
X128452571Y-97178191D01*
X128976381Y-97178191D01*
X128309714Y-97511524D02*
X128309714Y-97892476D01*
X127976381Y-97654381D02*
X128833524Y-97654381D01*
X128928762Y-97702000D01*
X128976381Y-97797238D01*
X128976381Y-97892476D01*
X128976381Y-98225810D02*
X128309714Y-98225810D01*
X128500190Y-98225810D02*
X128404952Y-98273429D01*
X128357333Y-98321048D01*
X128309714Y-98416286D01*
X128309714Y-98511525D01*
X128976381Y-98987715D02*
X128928762Y-98892477D01*
X128881143Y-98844858D01*
X128785905Y-98797239D01*
X128500190Y-98797239D01*
X128404952Y-98844858D01*
X128357333Y-98892477D01*
X128309714Y-98987715D01*
X128309714Y-99130573D01*
X128357333Y-99225811D01*
X128404952Y-99273430D01*
X128500190Y-99321049D01*
X128785905Y-99321049D01*
X128881143Y-99273430D01*
X128928762Y-99225811D01*
X128976381Y-99130573D01*
X128976381Y-98987715D01*
X128976381Y-99892477D02*
X128928762Y-99797239D01*
X128833524Y-99749620D01*
X127976381Y-99749620D01*
X128976381Y-100416287D02*
X128928762Y-100321049D01*
X128833524Y-100273430D01*
X127976381Y-100273430D01*
X128928762Y-101178193D02*
X128976381Y-101082955D01*
X128976381Y-100892478D01*
X128928762Y-100797240D01*
X128833524Y-100749621D01*
X128452571Y-100749621D01*
X128357333Y-100797240D01*
X128309714Y-100892478D01*
X128309714Y-101082955D01*
X128357333Y-101178193D01*
X128452571Y-101225812D01*
X128547810Y-101225812D01*
X128643048Y-100749621D01*
X128976381Y-101654383D02*
X128309714Y-101654383D01*
X128500190Y-101654383D02*
X128404952Y-101702002D01*
X128357333Y-101749621D01*
X128309714Y-101844859D01*
X128309714Y-101940098D01*
D14*
X118610000Y-64350000D02*
X117610000Y-64350000D01*
X117610000Y-62650000D02*
X118610000Y-62650000D01*
X122800000Y-75530000D02*
X122800000Y-74330000D01*
X121040000Y-74330000D02*
X121040000Y-75530000D01*
X98162000Y-66640000D02*
X98162000Y-65440000D01*
X96402000Y-65440000D02*
X96402000Y-66640000D01*
X98162000Y-74260000D02*
X98162000Y-73060000D01*
X96402000Y-73060000D02*
X96402000Y-74260000D01*
X98162000Y-81626000D02*
X98162000Y-80426000D01*
X96402000Y-80426000D02*
X96402000Y-81626000D01*
X98162000Y-89246000D02*
X98162000Y-88046000D01*
X96402000Y-88046000D02*
X96402000Y-89246000D01*
X98162000Y-96612000D02*
X98162000Y-95412000D01*
X96402000Y-95412000D02*
X96402000Y-96612000D01*
X98162000Y-104232000D02*
X98162000Y-103032000D01*
X96402000Y-103032000D02*
X96402000Y-104232000D01*
X142311500Y-66396500D02*
X143311500Y-66396500D01*
X143311500Y-68096500D02*
X142311500Y-68096500D01*
X105756600Y-68164000D02*
X105756600Y-66964000D01*
X103996600Y-66964000D02*
X103996600Y-68164000D01*
X118710000Y-60156200D02*
X117510000Y-60156200D01*
X117510000Y-61916200D02*
X118710000Y-61916200D01*
D11*
X119137809Y-61900571D02*
X119161619Y-61924381D01*
X119233047Y-61948190D01*
X119280666Y-61948190D01*
X119352095Y-61924381D01*
X119399714Y-61876762D01*
X119423523Y-61829143D01*
X119447333Y-61733905D01*
X119447333Y-61662476D01*
X119423523Y-61567238D01*
X119399714Y-61519619D01*
X119352095Y-61472000D01*
X119280666Y-61448190D01*
X119233047Y-61448190D01*
X119161619Y-61472000D01*
X119137809Y-61495810D01*
X119042571Y-61995810D02*
X118661619Y-61995810D01*
X118542571Y-61948190D02*
X118542571Y-61448190D01*
X118423524Y-61448190D01*
X118352095Y-61472000D01*
X118304476Y-61519619D01*
X118280667Y-61567238D01*
X118256857Y-61662476D01*
X118256857Y-61733905D01*
X118280667Y-61829143D01*
X118304476Y-61876762D01*
X118352095Y-61924381D01*
X118423524Y-61948190D01*
X118542571Y-61948190D01*
X117875905Y-61686286D02*
X117804476Y-61710095D01*
X117780667Y-61733905D01*
X117756857Y-61781524D01*
X117756857Y-61852952D01*
X117780667Y-61900571D01*
X117804476Y-61924381D01*
X117852095Y-61948190D01*
X118042571Y-61948190D01*
X118042571Y-61448190D01*
X117875905Y-61448190D01*
X117828286Y-61472000D01*
X117804476Y-61495810D01*
X117780667Y-61543429D01*
X117780667Y-61591048D01*
X117804476Y-61638667D01*
X117828286Y-61662476D01*
X117875905Y-61686286D01*
X118042571Y-61686286D01*
X117280667Y-61948190D02*
X117566381Y-61948190D01*
X117423524Y-61948190D02*
X117423524Y-61448190D01*
X117471143Y-61519619D01*
X117518762Y-61567238D01*
X117566381Y-61591048D01*
X120749190Y-73871296D02*
X120511095Y-73704629D01*
X120749190Y-73585582D02*
X120249190Y-73585582D01*
X120249190Y-73776058D01*
X120273000Y-73823677D01*
X120296810Y-73847486D01*
X120344429Y-73871296D01*
X120415857Y-73871296D01*
X120463476Y-73847486D01*
X120487286Y-73823677D01*
X120511095Y-73776058D01*
X120511095Y-73585582D01*
X120796810Y-73966534D02*
X120796810Y-74347486D01*
X120487286Y-74633200D02*
X120487286Y-74466534D01*
X120749190Y-74466534D02*
X120249190Y-74466534D01*
X120249190Y-74704629D01*
X120249190Y-74895105D02*
X120653952Y-74895105D01*
X120701571Y-74918914D01*
X120725381Y-74942724D01*
X120749190Y-74990343D01*
X120749190Y-75085581D01*
X120725381Y-75133200D01*
X120701571Y-75157009D01*
X120653952Y-75180819D01*
X120249190Y-75180819D01*
X120749190Y-75418915D02*
X120249190Y-75418915D01*
X120749190Y-75704629D01*
X120249190Y-75704629D01*
X120701571Y-76228439D02*
X120725381Y-76204629D01*
X120749190Y-76133201D01*
X120749190Y-76085582D01*
X120725381Y-76014153D01*
X120677762Y-75966534D01*
X120630143Y-75942725D01*
X120534905Y-75918915D01*
X120463476Y-75918915D01*
X120368238Y-75942725D01*
X120320619Y-75966534D01*
X120273000Y-76014153D01*
X120249190Y-76085582D01*
X120249190Y-76133201D01*
X120273000Y-76204629D01*
X120296810Y-76228439D01*
X120749190Y-76704629D02*
X120749190Y-76418915D01*
X120749190Y-76561772D02*
X120249190Y-76561772D01*
X120320619Y-76514153D01*
X120368238Y-76466534D01*
X120392048Y-76418915D01*
X96085790Y-65298820D02*
X95847695Y-65132153D01*
X96085790Y-65013106D02*
X95585790Y-65013106D01*
X95585790Y-65203582D01*
X95609600Y-65251201D01*
X95633410Y-65275010D01*
X95681029Y-65298820D01*
X95752457Y-65298820D01*
X95800076Y-65275010D01*
X95823886Y-65251201D01*
X95847695Y-65203582D01*
X95847695Y-65013106D01*
X96133410Y-65394058D02*
X96133410Y-65775010D01*
X95585790Y-65846439D02*
X96085790Y-65965486D01*
X95728648Y-66060724D01*
X96085790Y-66155962D01*
X95585790Y-66275010D01*
X96085790Y-66703582D02*
X96085790Y-66465487D01*
X95585790Y-66465487D01*
X95823886Y-66870249D02*
X95823886Y-67036915D01*
X96085790Y-67108344D02*
X96085790Y-66870249D01*
X95585790Y-66870249D01*
X95585790Y-67108344D01*
X96085790Y-67322630D02*
X95585790Y-67322630D01*
X95585790Y-67441677D01*
X95609600Y-67513106D01*
X95657219Y-67560725D01*
X95704838Y-67584534D01*
X95800076Y-67608344D01*
X95871505Y-67608344D01*
X95966743Y-67584534D01*
X96014362Y-67560725D01*
X96061981Y-67513106D01*
X96085790Y-67441677D01*
X96085790Y-67322630D01*
X95942933Y-67798820D02*
X95942933Y-68036915D01*
X96085790Y-67751201D02*
X95585790Y-67917868D01*
X96085790Y-68084534D01*
X96085790Y-68513105D02*
X96085790Y-68227391D01*
X96085790Y-68370248D02*
X95585790Y-68370248D01*
X95657219Y-68322629D01*
X95704838Y-68275010D01*
X95728648Y-68227391D01*
X96085790Y-73122020D02*
X95847695Y-72955353D01*
X96085790Y-72836306D02*
X95585790Y-72836306D01*
X95585790Y-73026782D01*
X95609600Y-73074401D01*
X95633410Y-73098210D01*
X95681029Y-73122020D01*
X95752457Y-73122020D01*
X95800076Y-73098210D01*
X95823886Y-73074401D01*
X95847695Y-73026782D01*
X95847695Y-72836306D01*
X96133410Y-73217258D02*
X96133410Y-73598210D01*
X95585790Y-73669639D02*
X96085790Y-73788686D01*
X95728648Y-73883924D01*
X96085790Y-73979162D01*
X95585790Y-74098210D01*
X96085790Y-74526782D02*
X96085790Y-74288687D01*
X95585790Y-74288687D01*
X95823886Y-74693449D02*
X95823886Y-74860115D01*
X96085790Y-74931544D02*
X96085790Y-74693449D01*
X95585790Y-74693449D01*
X95585790Y-74931544D01*
X96085790Y-75145830D02*
X95585790Y-75145830D01*
X95585790Y-75264877D01*
X95609600Y-75336306D01*
X95657219Y-75383925D01*
X95704838Y-75407734D01*
X95800076Y-75431544D01*
X95871505Y-75431544D01*
X95966743Y-75407734D01*
X96014362Y-75383925D01*
X96061981Y-75336306D01*
X96085790Y-75264877D01*
X96085790Y-75145830D01*
X95942933Y-75622020D02*
X95942933Y-75860115D01*
X96085790Y-75574401D02*
X95585790Y-75741068D01*
X96085790Y-75907734D01*
X95633410Y-76050591D02*
X95609600Y-76074401D01*
X95585790Y-76122020D01*
X95585790Y-76241067D01*
X95609600Y-76288686D01*
X95633410Y-76312496D01*
X95681029Y-76336305D01*
X95728648Y-76336305D01*
X95800076Y-76312496D01*
X96085790Y-76026782D01*
X96085790Y-76336305D01*
X96111190Y-80564220D02*
X95873095Y-80397553D01*
X96111190Y-80278506D02*
X95611190Y-80278506D01*
X95611190Y-80468982D01*
X95635000Y-80516601D01*
X95658810Y-80540410D01*
X95706429Y-80564220D01*
X95777857Y-80564220D01*
X95825476Y-80540410D01*
X95849286Y-80516601D01*
X95873095Y-80468982D01*
X95873095Y-80278506D01*
X96158810Y-80659458D02*
X96158810Y-81040410D01*
X95611190Y-81111839D02*
X96111190Y-81230886D01*
X95754048Y-81326124D01*
X96111190Y-81421362D01*
X95611190Y-81540410D01*
X96111190Y-81968982D02*
X96111190Y-81730887D01*
X95611190Y-81730887D01*
X95849286Y-82135649D02*
X95849286Y-82302315D01*
X96111190Y-82373744D02*
X96111190Y-82135649D01*
X95611190Y-82135649D01*
X95611190Y-82373744D01*
X96111190Y-82588030D02*
X95611190Y-82588030D01*
X95611190Y-82707077D01*
X95635000Y-82778506D01*
X95682619Y-82826125D01*
X95730238Y-82849934D01*
X95825476Y-82873744D01*
X95896905Y-82873744D01*
X95992143Y-82849934D01*
X96039762Y-82826125D01*
X96087381Y-82778506D01*
X96111190Y-82707077D01*
X96111190Y-82588030D01*
X95968333Y-83064220D02*
X95968333Y-83302315D01*
X96111190Y-83016601D02*
X95611190Y-83183268D01*
X96111190Y-83349934D01*
X95611190Y-83468982D02*
X95611190Y-83778505D01*
X95801667Y-83611839D01*
X95801667Y-83683267D01*
X95825476Y-83730886D01*
X95849286Y-83754696D01*
X95896905Y-83778505D01*
X96015952Y-83778505D01*
X96063571Y-83754696D01*
X96087381Y-83730886D01*
X96111190Y-83683267D01*
X96111190Y-83540410D01*
X96087381Y-83492791D01*
X96063571Y-83468982D01*
X96111190Y-88209620D02*
X95873095Y-88042953D01*
X96111190Y-87923906D02*
X95611190Y-87923906D01*
X95611190Y-88114382D01*
X95635000Y-88162001D01*
X95658810Y-88185810D01*
X95706429Y-88209620D01*
X95777857Y-88209620D01*
X95825476Y-88185810D01*
X95849286Y-88162001D01*
X95873095Y-88114382D01*
X95873095Y-87923906D01*
X96158810Y-88304858D02*
X96158810Y-88685810D01*
X95611190Y-88757239D02*
X96111190Y-88876286D01*
X95754048Y-88971524D01*
X96111190Y-89066762D01*
X95611190Y-89185810D01*
X96111190Y-89614382D02*
X96111190Y-89376287D01*
X95611190Y-89376287D01*
X95849286Y-89781049D02*
X95849286Y-89947715D01*
X96111190Y-90019144D02*
X96111190Y-89781049D01*
X95611190Y-89781049D01*
X95611190Y-90019144D01*
X96111190Y-90233430D02*
X95611190Y-90233430D01*
X95611190Y-90352477D01*
X95635000Y-90423906D01*
X95682619Y-90471525D01*
X95730238Y-90495334D01*
X95825476Y-90519144D01*
X95896905Y-90519144D01*
X95992143Y-90495334D01*
X96039762Y-90471525D01*
X96087381Y-90423906D01*
X96111190Y-90352477D01*
X96111190Y-90233430D01*
X95968333Y-90709620D02*
X95968333Y-90947715D01*
X96111190Y-90662001D02*
X95611190Y-90828668D01*
X96111190Y-90995334D01*
X95777857Y-91376286D02*
X96111190Y-91376286D01*
X95587381Y-91257239D02*
X95944524Y-91138191D01*
X95944524Y-91447715D01*
X96111190Y-95524820D02*
X95873095Y-95358153D01*
X96111190Y-95239106D02*
X95611190Y-95239106D01*
X95611190Y-95429582D01*
X95635000Y-95477201D01*
X95658810Y-95501010D01*
X95706429Y-95524820D01*
X95777857Y-95524820D01*
X95825476Y-95501010D01*
X95849286Y-95477201D01*
X95873095Y-95429582D01*
X95873095Y-95239106D01*
X96158810Y-95620058D02*
X96158810Y-96001010D01*
X95611190Y-96072439D02*
X96111190Y-96191486D01*
X95754048Y-96286724D01*
X96111190Y-96381962D01*
X95611190Y-96501010D01*
X96111190Y-96929582D02*
X96111190Y-96691487D01*
X95611190Y-96691487D01*
X95849286Y-97096249D02*
X95849286Y-97262915D01*
X96111190Y-97334344D02*
X96111190Y-97096249D01*
X95611190Y-97096249D01*
X95611190Y-97334344D01*
X96111190Y-97548630D02*
X95611190Y-97548630D01*
X95611190Y-97667677D01*
X95635000Y-97739106D01*
X95682619Y-97786725D01*
X95730238Y-97810534D01*
X95825476Y-97834344D01*
X95896905Y-97834344D01*
X95992143Y-97810534D01*
X96039762Y-97786725D01*
X96087381Y-97739106D01*
X96111190Y-97667677D01*
X96111190Y-97548630D01*
X95968333Y-98024820D02*
X95968333Y-98262915D01*
X96111190Y-97977201D02*
X95611190Y-98143868D01*
X96111190Y-98310534D01*
X95611190Y-98715296D02*
X95611190Y-98477201D01*
X95849286Y-98453391D01*
X95825476Y-98477201D01*
X95801667Y-98524820D01*
X95801667Y-98643867D01*
X95825476Y-98691486D01*
X95849286Y-98715296D01*
X95896905Y-98739105D01*
X96015952Y-98739105D01*
X96063571Y-98715296D01*
X96087381Y-98691486D01*
X96111190Y-98643867D01*
X96111190Y-98524820D01*
X96087381Y-98477201D01*
X96063571Y-98453391D01*
X96111190Y-103221020D02*
X95873095Y-103054353D01*
X96111190Y-102935306D02*
X95611190Y-102935306D01*
X95611190Y-103125782D01*
X95635000Y-103173401D01*
X95658810Y-103197210D01*
X95706429Y-103221020D01*
X95777857Y-103221020D01*
X95825476Y-103197210D01*
X95849286Y-103173401D01*
X95873095Y-103125782D01*
X95873095Y-102935306D01*
X96158810Y-103316258D02*
X96158810Y-103697210D01*
X95611190Y-103768639D02*
X96111190Y-103887686D01*
X95754048Y-103982924D01*
X96111190Y-104078162D01*
X95611190Y-104197210D01*
X96111190Y-104625782D02*
X96111190Y-104387687D01*
X95611190Y-104387687D01*
X95849286Y-104792449D02*
X95849286Y-104959115D01*
X96111190Y-105030544D02*
X96111190Y-104792449D01*
X95611190Y-104792449D01*
X95611190Y-105030544D01*
X96111190Y-105244830D02*
X95611190Y-105244830D01*
X95611190Y-105363877D01*
X95635000Y-105435306D01*
X95682619Y-105482925D01*
X95730238Y-105506734D01*
X95825476Y-105530544D01*
X95896905Y-105530544D01*
X95992143Y-105506734D01*
X96039762Y-105482925D01*
X96087381Y-105435306D01*
X96111190Y-105363877D01*
X96111190Y-105244830D01*
X95968333Y-105721020D02*
X95968333Y-105959115D01*
X96111190Y-105673401D02*
X95611190Y-105840068D01*
X96111190Y-106006734D01*
X95611190Y-106387686D02*
X95611190Y-106292448D01*
X95635000Y-106244829D01*
X95658810Y-106221020D01*
X95730238Y-106173401D01*
X95825476Y-106149591D01*
X96015952Y-106149591D01*
X96063571Y-106173401D01*
X96087381Y-106197210D01*
X96111190Y-106244829D01*
X96111190Y-106340067D01*
X96087381Y-106387686D01*
X96063571Y-106411496D01*
X96015952Y-106435305D01*
X95896905Y-106435305D01*
X95849286Y-106411496D01*
X95825476Y-106387686D01*
X95801667Y-106340067D01*
X95801667Y-106244829D01*
X95825476Y-106197210D01*
X95849286Y-106173401D01*
X95896905Y-106149591D01*
X143585309Y-65675071D02*
X143609119Y-65698881D01*
X143680547Y-65722690D01*
X143728166Y-65722690D01*
X143799595Y-65698881D01*
X143847214Y-65651262D01*
X143871023Y-65603643D01*
X143894833Y-65508405D01*
X143894833Y-65436976D01*
X143871023Y-65341738D01*
X143847214Y-65294119D01*
X143799595Y-65246500D01*
X143728166Y-65222690D01*
X143680547Y-65222690D01*
X143609119Y-65246500D01*
X143585309Y-65270310D01*
X143490071Y-65770310D02*
X143109119Y-65770310D01*
X142823405Y-65460786D02*
X142751976Y-65484595D01*
X142728167Y-65508405D01*
X142704357Y-65556024D01*
X142704357Y-65627452D01*
X142728167Y-65675071D01*
X142751976Y-65698881D01*
X142799595Y-65722690D01*
X142990071Y-65722690D01*
X142990071Y-65222690D01*
X142823405Y-65222690D01*
X142775786Y-65246500D01*
X142751976Y-65270310D01*
X142728167Y-65317929D01*
X142728167Y-65365548D01*
X142751976Y-65413167D01*
X142775786Y-65436976D01*
X142823405Y-65460786D01*
X142990071Y-65460786D01*
X142490071Y-65722690D02*
X142490071Y-65222690D01*
X142299595Y-65222690D01*
X142251976Y-65246500D01*
X142228167Y-65270310D01*
X142204357Y-65317929D01*
X142204357Y-65389357D01*
X142228167Y-65436976D01*
X142251976Y-65460786D01*
X142299595Y-65484595D01*
X142490071Y-65484595D01*
X141728167Y-65722690D02*
X142013881Y-65722690D01*
X141871024Y-65722690D02*
X141871024Y-65222690D01*
X141918643Y-65294119D01*
X141966262Y-65341738D01*
X142013881Y-65365548D01*
X103832790Y-66148924D02*
X103594695Y-65982257D01*
X103832790Y-65863210D02*
X103332790Y-65863210D01*
X103332790Y-66053686D01*
X103356600Y-66101305D01*
X103380410Y-66125114D01*
X103428029Y-66148924D01*
X103499457Y-66148924D01*
X103547076Y-66125114D01*
X103570886Y-66101305D01*
X103594695Y-66053686D01*
X103594695Y-65863210D01*
X103880410Y-66244162D02*
X103880410Y-66625114D01*
X103832790Y-66744162D02*
X103332790Y-66744162D01*
X103689933Y-66910828D01*
X103332790Y-67077495D01*
X103832790Y-67077495D01*
X103332790Y-67315591D02*
X103737552Y-67315591D01*
X103785171Y-67339400D01*
X103808981Y-67363210D01*
X103832790Y-67410829D01*
X103832790Y-67506067D01*
X103808981Y-67553686D01*
X103785171Y-67577495D01*
X103737552Y-67601305D01*
X103332790Y-67601305D01*
X103332790Y-67791782D02*
X103832790Y-68125115D01*
X103332790Y-68125115D02*
X103832790Y-67791782D01*
X103832790Y-68315591D02*
X103332790Y-68315591D01*
X103832790Y-68553686D02*
X103332790Y-68553686D01*
X103832790Y-68839400D01*
X103332790Y-68839400D01*
X103832790Y-69339400D02*
X103832790Y-69053686D01*
X103832790Y-69196543D02*
X103332790Y-69196543D01*
X103404219Y-69148924D01*
X103451838Y-69101305D01*
X103475648Y-69053686D01*
X121307847Y-108057190D02*
X121307847Y-108414333D01*
X121331657Y-108485762D01*
X121379276Y-108533381D01*
X121450704Y-108557190D01*
X121498323Y-108557190D01*
X121069752Y-108557190D02*
X121069752Y-108057190D01*
X120879276Y-108057190D01*
X120831657Y-108081000D01*
X120807848Y-108104810D01*
X120784038Y-108152429D01*
X120784038Y-108223857D01*
X120807848Y-108271476D01*
X120831657Y-108295286D01*
X120879276Y-108319095D01*
X121069752Y-108319095D01*
X120688800Y-108604810D02*
X120307848Y-108604810D01*
X119926896Y-108081000D02*
X119974515Y-108057190D01*
X120045943Y-108057190D01*
X120117372Y-108081000D01*
X120164991Y-108128619D01*
X120188800Y-108176238D01*
X120212610Y-108271476D01*
X120212610Y-108342905D01*
X120188800Y-108438143D01*
X120164991Y-108485762D01*
X120117372Y-108533381D01*
X120045943Y-108557190D01*
X119998324Y-108557190D01*
X119926896Y-108533381D01*
X119903086Y-108509571D01*
X119903086Y-108342905D01*
X119998324Y-108342905D01*
X119688800Y-108557190D02*
X119688800Y-108057190D01*
X119403086Y-108557190D01*
X119403086Y-108057190D01*
X119164990Y-108557190D02*
X119164990Y-108057190D01*
X119045943Y-108057190D01*
X118974514Y-108081000D01*
X118926895Y-108128619D01*
X118903086Y-108176238D01*
X118879276Y-108271476D01*
X118879276Y-108342905D01*
X118903086Y-108438143D01*
X118926895Y-108485762D01*
X118974514Y-108533381D01*
X119045943Y-108557190D01*
X119164990Y-108557190D01*
X118403086Y-108557190D02*
X118688800Y-108557190D01*
X118545943Y-108557190D02*
X118545943Y-108057190D01*
X118593562Y-108128619D01*
X118641181Y-108176238D01*
X118688800Y-108200048D01*
X118883809Y-62962390D02*
X119050476Y-62724295D01*
X119169523Y-62962390D02*
X119169523Y-62462390D01*
X118979047Y-62462390D01*
X118931428Y-62486200D01*
X118907619Y-62510010D01*
X118883809Y-62557629D01*
X118883809Y-62629057D01*
X118907619Y-62676676D01*
X118931428Y-62700486D01*
X118979047Y-62724295D01*
X119169523Y-62724295D01*
X118788571Y-63010010D02*
X118407619Y-63010010D01*
X118288571Y-62962390D02*
X118288571Y-62462390D01*
X118169524Y-62462390D01*
X118098095Y-62486200D01*
X118050476Y-62533819D01*
X118026667Y-62581438D01*
X118002857Y-62676676D01*
X118002857Y-62748105D01*
X118026667Y-62843343D01*
X118050476Y-62890962D01*
X118098095Y-62938581D01*
X118169524Y-62962390D01*
X118288571Y-62962390D01*
X117621905Y-62700486D02*
X117550476Y-62724295D01*
X117526667Y-62748105D01*
X117502857Y-62795724D01*
X117502857Y-62867152D01*
X117526667Y-62914771D01*
X117550476Y-62938581D01*
X117598095Y-62962390D01*
X117788571Y-62962390D01*
X117788571Y-62462390D01*
X117621905Y-62462390D01*
X117574286Y-62486200D01*
X117550476Y-62510010D01*
X117526667Y-62557629D01*
X117526667Y-62605248D01*
X117550476Y-62652867D01*
X117574286Y-62676676D01*
X117621905Y-62700486D01*
X117788571Y-62700486D01*
X117026667Y-62962390D02*
X117312381Y-62962390D01*
X117169524Y-62962390D02*
X117169524Y-62462390D01*
X117217143Y-62533819D01*
X117264762Y-62581438D01*
X117312381Y-62605248D01*
M02*
