G04 #@! TF.FileFunction,Legend,Top*
%FSLAX46Y46*%
G04 Gerber Fmt 4.6, Leading zero omitted, Abs format (unit mm)*
G04 Created by KiCad (PCBNEW 4.0.7) date 06/02/18 16:03:12*
%MOMM*%
%LPD*%
G01*
G04 APERTURE LIST*
%ADD10C,0.100000*%
%ADD11C,0.015000*%
%ADD12C,0.200000*%
%ADD13C,0.120000*%
%ADD14C,0.150000*%
G04 APERTURE END LIST*
D10*
D11*
X135164240Y-53629690D02*
X134997573Y-53391595D01*
X134878526Y-53629690D02*
X134878526Y-53129690D01*
X135069002Y-53129690D01*
X135116621Y-53153500D01*
X135140430Y-53177310D01*
X135164240Y-53224929D01*
X135164240Y-53296357D01*
X135140430Y-53343976D01*
X135116621Y-53367786D01*
X135069002Y-53391595D01*
X134878526Y-53391595D01*
X135354716Y-53605881D02*
X135426145Y-53629690D01*
X135545192Y-53629690D01*
X135592811Y-53605881D01*
X135616621Y-53582071D01*
X135640430Y-53534452D01*
X135640430Y-53486833D01*
X135616621Y-53439214D01*
X135592811Y-53415405D01*
X135545192Y-53391595D01*
X135449954Y-53367786D01*
X135402335Y-53343976D01*
X135378526Y-53320167D01*
X135354716Y-53272548D01*
X135354716Y-53224929D01*
X135378526Y-53177310D01*
X135402335Y-53153500D01*
X135449954Y-53129690D01*
X135569002Y-53129690D01*
X135640430Y-53153500D01*
X135783287Y-53129690D02*
X136069001Y-53129690D01*
X135926144Y-53629690D02*
X135926144Y-53129690D01*
X137354714Y-53605881D02*
X137426143Y-53629690D01*
X137545190Y-53629690D01*
X137592809Y-53605881D01*
X137616619Y-53582071D01*
X137640428Y-53534452D01*
X137640428Y-53486833D01*
X137616619Y-53439214D01*
X137592809Y-53415405D01*
X137545190Y-53391595D01*
X137449952Y-53367786D01*
X137402333Y-53343976D01*
X137378524Y-53320167D01*
X137354714Y-53272548D01*
X137354714Y-53224929D01*
X137378524Y-53177310D01*
X137402333Y-53153500D01*
X137449952Y-53129690D01*
X137569000Y-53129690D01*
X137640428Y-53153500D01*
X138140428Y-53582071D02*
X138116618Y-53605881D01*
X138045190Y-53629690D01*
X137997571Y-53629690D01*
X137926142Y-53605881D01*
X137878523Y-53558262D01*
X137854714Y-53510643D01*
X137830904Y-53415405D01*
X137830904Y-53343976D01*
X137854714Y-53248738D01*
X137878523Y-53201119D01*
X137926142Y-53153500D01*
X137997571Y-53129690D01*
X138045190Y-53129690D01*
X138116618Y-53153500D01*
X138140428Y-53177310D01*
X138354714Y-53629690D02*
X138354714Y-53129690D01*
X138640428Y-53629690D02*
X138426142Y-53343976D01*
X138640428Y-53129690D02*
X138354714Y-53415405D01*
X139616618Y-53629690D02*
X139616618Y-53129690D01*
X139783284Y-53486833D01*
X139949951Y-53129690D01*
X139949951Y-53629690D01*
X140188047Y-53629690D02*
X140188047Y-53129690D01*
X140402332Y-53605881D02*
X140473761Y-53629690D01*
X140592808Y-53629690D01*
X140640427Y-53605881D01*
X140664237Y-53582071D01*
X140688046Y-53534452D01*
X140688046Y-53486833D01*
X140664237Y-53439214D01*
X140640427Y-53415405D01*
X140592808Y-53391595D01*
X140497570Y-53367786D01*
X140449951Y-53343976D01*
X140426142Y-53320167D01*
X140402332Y-53272548D01*
X140402332Y-53224929D01*
X140426142Y-53177310D01*
X140449951Y-53153500D01*
X140497570Y-53129690D01*
X140616618Y-53129690D01*
X140688046Y-53153500D01*
X140997570Y-53129690D02*
X141092808Y-53129690D01*
X141140427Y-53153500D01*
X141188046Y-53201119D01*
X141211855Y-53296357D01*
X141211855Y-53463024D01*
X141188046Y-53558262D01*
X141140427Y-53605881D01*
X141092808Y-53629690D01*
X140997570Y-53629690D01*
X140949951Y-53605881D01*
X140902332Y-53558262D01*
X140878522Y-53463024D01*
X140878522Y-53296357D01*
X140902332Y-53201119D01*
X140949951Y-53153500D01*
X140997570Y-53129690D01*
X142188046Y-53629690D02*
X142188046Y-53129690D01*
X142354712Y-53486833D01*
X142521379Y-53129690D01*
X142521379Y-53629690D01*
X142854713Y-53129690D02*
X142949951Y-53129690D01*
X142997570Y-53153500D01*
X143045189Y-53201119D01*
X143068998Y-53296357D01*
X143068998Y-53463024D01*
X143045189Y-53558262D01*
X142997570Y-53605881D01*
X142949951Y-53629690D01*
X142854713Y-53629690D01*
X142807094Y-53605881D01*
X142759475Y-53558262D01*
X142735665Y-53463024D01*
X142735665Y-53296357D01*
X142759475Y-53201119D01*
X142807094Y-53153500D01*
X142854713Y-53129690D01*
X143259475Y-53605881D02*
X143330904Y-53629690D01*
X143449951Y-53629690D01*
X143497570Y-53605881D01*
X143521380Y-53582071D01*
X143545189Y-53534452D01*
X143545189Y-53486833D01*
X143521380Y-53439214D01*
X143497570Y-53415405D01*
X143449951Y-53391595D01*
X143354713Y-53367786D01*
X143307094Y-53343976D01*
X143283285Y-53320167D01*
X143259475Y-53272548D01*
X143259475Y-53224929D01*
X143283285Y-53177310D01*
X143307094Y-53153500D01*
X143354713Y-53129690D01*
X143473761Y-53129690D01*
X143545189Y-53153500D01*
X143759475Y-53629690D02*
X143759475Y-53129690D01*
D12*
X143217719Y-77749400D02*
G75*
G03X143217719Y-77749400I-444319J0D01*
G01*
X104699505Y-74168000D02*
G75*
G03X104699505Y-74168000I-457905J0D01*
G01*
X139124961Y-64897000D02*
G75*
G03X139124961Y-64897000I-567961J0D01*
G01*
D13*
X113826600Y-62163000D02*
X113826600Y-59503000D01*
X95986600Y-62163000D02*
X113826600Y-62163000D01*
X95986600Y-59503000D02*
X113826600Y-59503000D01*
X95986600Y-62163000D02*
X95986600Y-59503000D01*
X94716600Y-62163000D02*
X93386600Y-62163000D01*
X93386600Y-62163000D02*
X93386600Y-60833000D01*
X113518768Y-67451818D02*
G75*
G02X119043200Y-67450800I2762432J-1171982D01*
G01*
X118578953Y-70552095D02*
G75*
G02X113983200Y-70551800I-2297753J1928295D01*
G01*
X111371200Y-75183800D02*
X111371200Y-71317800D01*
X111371200Y-66928800D02*
X111371200Y-63063800D01*
X121191200Y-75183800D02*
X121191200Y-71317800D01*
X121191200Y-66928800D02*
X121191200Y-63063800D01*
X111371200Y-75183800D02*
X112956200Y-75183800D01*
X114606200Y-75183800D02*
X115456200Y-75183800D01*
X117106200Y-75183800D02*
X117956200Y-75183800D01*
X119606200Y-75183800D02*
X121191200Y-75183800D01*
X111371200Y-63063800D02*
X121191200Y-63063800D01*
X95238000Y-65040000D02*
X95238000Y-68240000D01*
X93738000Y-68240000D02*
X93738000Y-65040000D01*
X93738000Y-68240000D02*
X95238000Y-68240000D01*
D14*
X139250000Y-65590000D02*
X139250000Y-65815000D01*
X146500000Y-65590000D02*
X146500000Y-65915000D01*
X146500000Y-72840000D02*
X146500000Y-72515000D01*
X139250000Y-72840000D02*
X139250000Y-72515000D01*
X139250000Y-65590000D02*
X139575000Y-65590000D01*
X139250000Y-72840000D02*
X139575000Y-72840000D01*
X146500000Y-72840000D02*
X146175000Y-72840000D01*
X146500000Y-65590000D02*
X146175000Y-65590000D01*
X139250000Y-65815000D02*
X137825000Y-65815000D01*
D13*
X145559400Y-122797200D02*
X144559400Y-122797200D01*
X144559400Y-124497200D02*
X145559400Y-124497200D01*
X130040000Y-127039000D02*
X129040000Y-127039000D01*
X129040000Y-128739000D02*
X130040000Y-128739000D01*
X128690000Y-64905000D02*
X128690000Y-65905000D01*
X130390000Y-65905000D02*
X130390000Y-64905000D01*
X130390000Y-73271000D02*
X130390000Y-72271000D01*
X128690000Y-72271000D02*
X128690000Y-73271000D01*
X133060000Y-126222000D02*
X133060000Y-124222000D01*
X133060000Y-124222000D02*
X129160000Y-124222000D01*
X133060000Y-126222000D02*
X129160000Y-126222000D01*
X134179000Y-54169000D02*
X134179000Y-56829000D01*
X141859000Y-54169000D02*
X134179000Y-54169000D01*
X141859000Y-56829000D02*
X134179000Y-56829000D01*
X141859000Y-54169000D02*
X141859000Y-56829000D01*
X143129000Y-54169000D02*
X144459000Y-54169000D01*
X144459000Y-54169000D02*
X144459000Y-55499000D01*
X137252000Y-124324000D02*
X136052000Y-124324000D01*
X136052000Y-122564000D02*
X137252000Y-122564000D01*
X138769800Y-120455800D02*
X139969800Y-120455800D01*
X139969800Y-122215800D02*
X138769800Y-122215800D01*
X110862000Y-80680000D02*
X110862000Y-81880000D01*
X109102000Y-81880000D02*
X109102000Y-80680000D01*
X149841000Y-116327000D02*
X148581000Y-116327000D01*
X143021000Y-116327000D02*
X144281000Y-116327000D01*
X149841000Y-120087000D02*
X149841000Y-116327000D01*
X143021000Y-122337000D02*
X143021000Y-116327000D01*
D14*
X106316600Y-74163000D02*
X106316600Y-74138000D01*
X102166600Y-74163000D02*
X102166600Y-74058000D01*
X102166600Y-64013000D02*
X102166600Y-64118000D01*
X106316600Y-64013000D02*
X106316600Y-64118000D01*
X106316600Y-74163000D02*
X102166600Y-74163000D01*
X106316600Y-64013000D02*
X102166600Y-64013000D01*
X106316600Y-74138000D02*
X107691600Y-74138000D01*
D13*
X135875000Y-65915000D02*
X135875000Y-72315000D01*
X130825000Y-65915000D02*
X130825000Y-72315000D01*
X130825000Y-65915000D02*
G75*
G02X135875000Y-65915000I2525000J0D01*
G01*
X130825000Y-72315000D02*
G75*
G03X135875000Y-72315000I2525000J0D01*
G01*
X102323000Y-76954000D02*
X102323000Y-75954000D01*
X100623000Y-75954000D02*
X100623000Y-76954000D01*
X146364000Y-62036000D02*
X146364000Y-59376000D01*
X128524000Y-62036000D02*
X146364000Y-62036000D01*
X128524000Y-59376000D02*
X146364000Y-59376000D01*
X128524000Y-62036000D02*
X128524000Y-59376000D01*
X127254000Y-62036000D02*
X125924000Y-62036000D01*
X125924000Y-62036000D02*
X125924000Y-60706000D01*
D14*
X140800000Y-77816000D02*
X140800000Y-77866000D01*
X144950000Y-77816000D02*
X144950000Y-77961000D01*
X144950000Y-82966000D02*
X144950000Y-82821000D01*
X140800000Y-82966000D02*
X140800000Y-82821000D01*
X140800000Y-77816000D02*
X144950000Y-77816000D01*
X140800000Y-82966000D02*
X144950000Y-82966000D01*
X140800000Y-77866000D02*
X139400000Y-77866000D01*
D13*
X95238000Y-102632000D02*
X95238000Y-105832000D01*
X93738000Y-105832000D02*
X93738000Y-102632000D01*
X93738000Y-105832000D02*
X95238000Y-105832000D01*
X95238000Y-95012000D02*
X95238000Y-98212000D01*
X93738000Y-98212000D02*
X93738000Y-95012000D01*
X93738000Y-98212000D02*
X95238000Y-98212000D01*
X95238000Y-87646000D02*
X95238000Y-90846000D01*
X93738000Y-90846000D02*
X93738000Y-87646000D01*
X93738000Y-90846000D02*
X95238000Y-90846000D01*
X95238000Y-80026000D02*
X95238000Y-83226000D01*
X93738000Y-83226000D02*
X93738000Y-80026000D01*
X93738000Y-83226000D02*
X95238000Y-83226000D01*
X95238000Y-72660000D02*
X95238000Y-75860000D01*
X93738000Y-75860000D02*
X93738000Y-72660000D01*
X93738000Y-75860000D02*
X95238000Y-75860000D01*
X108192000Y-80280000D02*
X108192000Y-83480000D01*
X106692000Y-83480000D02*
X106692000Y-80280000D01*
X106692000Y-83480000D02*
X108192000Y-83480000D01*
X118481600Y-78193000D02*
X113981600Y-78193000D01*
X119731600Y-82193000D02*
X119731600Y-80693000D01*
X113981600Y-84693000D02*
X118481600Y-84693000D01*
X112731600Y-80693000D02*
X112731600Y-82193000D01*
D14*
X131953000Y-100965000D02*
X131953000Y-104394000D01*
X132015000Y-104394000D02*
X135001000Y-104394000D01*
X131953000Y-100965000D02*
X131953000Y-97536000D01*
X132015000Y-97536000D02*
X135001000Y-97536000D01*
X155829000Y-109975000D02*
X155829000Y-91945000D01*
X135001000Y-109975000D02*
X135001000Y-91948000D01*
X135015000Y-91948000D02*
X155815000Y-91948000D01*
X135015000Y-109982000D02*
X155815000Y-109982000D01*
X146939000Y-125349000D02*
X133731000Y-125349000D01*
X133731000Y-125349000D02*
X133731000Y-137541000D01*
X133731000Y-137541000D02*
X146939000Y-137541000D01*
X146939000Y-137541000D02*
X146939000Y-125349000D01*
D13*
X130128000Y-120297000D02*
X121328000Y-120297000D01*
X121328000Y-120297000D02*
X121328000Y-111097000D01*
X136028000Y-117597000D02*
X136028000Y-120297000D01*
X136028000Y-120297000D02*
X134128000Y-120297000D01*
X121328000Y-111097000D02*
X136028000Y-111097000D01*
X136028000Y-111097000D02*
X136028000Y-113697000D01*
D11*
X91267790Y-65563475D02*
X91624933Y-65563475D01*
X91696362Y-65587285D01*
X91743981Y-65634904D01*
X91767790Y-65706332D01*
X91767790Y-65753951D01*
X91815410Y-65444428D02*
X91815410Y-65063476D01*
X91624933Y-64968238D02*
X91624933Y-64730143D01*
X91767790Y-65015857D02*
X91267790Y-64849190D01*
X91767790Y-64682524D01*
X91267790Y-64515857D02*
X91672552Y-64515857D01*
X91720171Y-64492048D01*
X91743981Y-64468238D01*
X91767790Y-64420619D01*
X91767790Y-64325381D01*
X91743981Y-64277762D01*
X91720171Y-64253953D01*
X91672552Y-64230143D01*
X91267790Y-64230143D01*
X91267790Y-64039666D02*
X91767790Y-63706333D01*
X91267790Y-63706333D02*
X91767790Y-64039666D01*
X91315410Y-63539667D02*
X91291600Y-63515857D01*
X91267790Y-63468238D01*
X91267790Y-63349191D01*
X91291600Y-63301572D01*
X91315410Y-63277762D01*
X91363029Y-63253953D01*
X91410648Y-63253953D01*
X91482076Y-63277762D01*
X91767790Y-63563476D01*
X91767790Y-63253953D01*
X91767790Y-63039667D02*
X91267790Y-63039667D01*
X91624933Y-62873001D01*
X91267790Y-62706334D01*
X91767790Y-62706334D01*
X91624933Y-62492048D02*
X91624933Y-62253953D01*
X91767790Y-62539667D02*
X91267790Y-62373000D01*
X91767790Y-62206334D01*
X91767790Y-62039667D02*
X91267790Y-62039667D01*
X91767790Y-61801572D02*
X91267790Y-61801572D01*
X91767790Y-61515858D01*
X91267790Y-61515858D01*
X91767790Y-61015858D02*
X91767790Y-61301572D01*
X91767790Y-61158715D02*
X91267790Y-61158715D01*
X91339219Y-61206334D01*
X91386838Y-61253953D01*
X91410648Y-61301572D01*
X109395390Y-76867390D02*
X109157295Y-77034057D01*
X109395390Y-77153104D02*
X108895390Y-77153104D01*
X108895390Y-76962628D01*
X108919200Y-76915009D01*
X108943010Y-76891200D01*
X108990629Y-76867390D01*
X109062057Y-76867390D01*
X109109676Y-76891200D01*
X109133486Y-76915009D01*
X109157295Y-76962628D01*
X109157295Y-77153104D01*
X109443010Y-76772152D02*
X109443010Y-76391200D01*
X109133486Y-76105486D02*
X109133486Y-76272152D01*
X109395390Y-76272152D02*
X108895390Y-76272152D01*
X108895390Y-76034057D01*
X109395390Y-75557867D02*
X109157295Y-75724534D01*
X109395390Y-75843581D02*
X108895390Y-75843581D01*
X108895390Y-75653105D01*
X108919200Y-75605486D01*
X108943010Y-75581677D01*
X108990629Y-75557867D01*
X109062057Y-75557867D01*
X109109676Y-75581677D01*
X109133486Y-75605486D01*
X109157295Y-75653105D01*
X109157295Y-75843581D01*
X109133486Y-75343581D02*
X109133486Y-75176915D01*
X109395390Y-75105486D02*
X109395390Y-75343581D01*
X108895390Y-75343581D01*
X108895390Y-75105486D01*
X109443010Y-74557867D02*
X109419200Y-74605486D01*
X109371581Y-74653105D01*
X109300152Y-74724534D01*
X109276343Y-74772153D01*
X109276343Y-74819772D01*
X109395390Y-74795962D02*
X109371581Y-74843581D01*
X109323962Y-74891200D01*
X109228724Y-74915010D01*
X109062057Y-74915010D01*
X108966819Y-74891200D01*
X108919200Y-74843581D01*
X108895390Y-74795962D01*
X108895390Y-74700724D01*
X108919200Y-74653105D01*
X108966819Y-74605486D01*
X109062057Y-74581677D01*
X109228724Y-74581677D01*
X109323962Y-74605486D01*
X109371581Y-74653105D01*
X109395390Y-74700724D01*
X109395390Y-74795962D01*
X109395390Y-74105486D02*
X109395390Y-74391200D01*
X109395390Y-74248343D02*
X108895390Y-74248343D01*
X108966819Y-74295962D01*
X109014438Y-74343581D01*
X109038248Y-74391200D01*
X96111190Y-68300409D02*
X95611190Y-68300409D01*
X95611190Y-68181362D01*
X95635000Y-68109933D01*
X95682619Y-68062314D01*
X95730238Y-68038505D01*
X95825476Y-68014695D01*
X95896905Y-68014695D01*
X95992143Y-68038505D01*
X96039762Y-68062314D01*
X96087381Y-68109933D01*
X96111190Y-68181362D01*
X96111190Y-68300409D01*
X96158810Y-67919457D02*
X96158810Y-67538505D01*
X95611190Y-67467076D02*
X96111190Y-67348029D01*
X95754048Y-67252791D01*
X96111190Y-67157553D01*
X95611190Y-67038505D01*
X96111190Y-66609933D02*
X96111190Y-66848028D01*
X95611190Y-66848028D01*
X95849286Y-66443266D02*
X95849286Y-66276600D01*
X96111190Y-66205171D02*
X96111190Y-66443266D01*
X95611190Y-66443266D01*
X95611190Y-66205171D01*
X96111190Y-65990885D02*
X95611190Y-65990885D01*
X95611190Y-65871838D01*
X95635000Y-65800409D01*
X95682619Y-65752790D01*
X95730238Y-65728981D01*
X95825476Y-65705171D01*
X95896905Y-65705171D01*
X95992143Y-65728981D01*
X96039762Y-65752790D01*
X96087381Y-65800409D01*
X96111190Y-65871838D01*
X96111190Y-65990885D01*
X96111190Y-65228981D02*
X96111190Y-65514695D01*
X96111190Y-65371838D02*
X95611190Y-65371838D01*
X95682619Y-65419457D01*
X95730238Y-65467076D01*
X95754048Y-65514695D01*
X141498001Y-63099190D02*
X141498001Y-63503952D01*
X141521810Y-63551571D01*
X141545620Y-63575381D01*
X141593239Y-63599190D01*
X141688477Y-63599190D01*
X141736096Y-63575381D01*
X141759905Y-63551571D01*
X141783715Y-63503952D01*
X141783715Y-63099190D01*
X141902763Y-63646810D02*
X142283715Y-63646810D01*
X142378953Y-63456333D02*
X142617048Y-63456333D01*
X142331334Y-63599190D02*
X142498001Y-63099190D01*
X142664667Y-63599190D01*
X142759905Y-63099190D02*
X142926572Y-63599190D01*
X143093238Y-63099190D01*
X143545619Y-63599190D02*
X143378952Y-63361095D01*
X143259905Y-63599190D02*
X143259905Y-63099190D01*
X143450381Y-63099190D01*
X143498000Y-63123000D01*
X143521809Y-63146810D01*
X143545619Y-63194429D01*
X143545619Y-63265857D01*
X143521809Y-63313476D01*
X143498000Y-63337286D01*
X143450381Y-63361095D01*
X143259905Y-63361095D01*
X144021809Y-63599190D02*
X143736095Y-63599190D01*
X143878952Y-63599190D02*
X143878952Y-63099190D01*
X143831333Y-63170619D01*
X143783714Y-63218238D01*
X143736095Y-63242048D01*
X147820867Y-123851171D02*
X147797057Y-123874981D01*
X147725629Y-123898790D01*
X147678010Y-123898790D01*
X147606581Y-123874981D01*
X147558962Y-123827362D01*
X147535153Y-123779743D01*
X147511343Y-123684505D01*
X147511343Y-123613076D01*
X147535153Y-123517838D01*
X147558962Y-123470219D01*
X147606581Y-123422600D01*
X147678010Y-123398790D01*
X147725629Y-123398790D01*
X147797057Y-123422600D01*
X147820867Y-123446410D01*
X148297057Y-123898790D02*
X148011343Y-123898790D01*
X148154200Y-123898790D02*
X148154200Y-123398790D01*
X148106581Y-123470219D01*
X148058962Y-123517838D01*
X148011343Y-123541648D01*
X132326867Y-128042171D02*
X132303057Y-128065981D01*
X132231629Y-128089790D01*
X132184010Y-128089790D01*
X132112581Y-128065981D01*
X132064962Y-128018362D01*
X132041153Y-127970743D01*
X132017343Y-127875505D01*
X132017343Y-127804076D01*
X132041153Y-127708838D01*
X132064962Y-127661219D01*
X132112581Y-127613600D01*
X132184010Y-127589790D01*
X132231629Y-127589790D01*
X132303057Y-127613600D01*
X132326867Y-127637410D01*
X132517343Y-127637410D02*
X132541153Y-127613600D01*
X132588772Y-127589790D01*
X132707819Y-127589790D01*
X132755438Y-127613600D01*
X132779248Y-127637410D01*
X132803057Y-127685029D01*
X132803057Y-127732648D01*
X132779248Y-127804076D01*
X132493534Y-128089790D01*
X132803057Y-128089790D01*
X128448571Y-67186761D02*
X128472381Y-67210571D01*
X128496190Y-67281999D01*
X128496190Y-67329618D01*
X128472381Y-67401047D01*
X128424762Y-67448666D01*
X128377143Y-67472475D01*
X128281905Y-67496285D01*
X128210476Y-67496285D01*
X128115238Y-67472475D01*
X128067619Y-67448666D01*
X128020000Y-67401047D01*
X127996190Y-67329618D01*
X127996190Y-67281999D01*
X128020000Y-67210571D01*
X128043810Y-67186761D01*
X128543810Y-67091523D02*
X128543810Y-66710571D01*
X128353333Y-66615333D02*
X128353333Y-66377238D01*
X128496190Y-66662952D02*
X127996190Y-66496285D01*
X128496190Y-66329619D01*
X127996190Y-66234381D02*
X128496190Y-66067714D01*
X127996190Y-65901048D01*
X128496190Y-65448667D02*
X128258095Y-65615334D01*
X128496190Y-65734381D02*
X127996190Y-65734381D01*
X127996190Y-65543905D01*
X128020000Y-65496286D01*
X128043810Y-65472477D01*
X128091429Y-65448667D01*
X128162857Y-65448667D01*
X128210476Y-65472477D01*
X128234286Y-65496286D01*
X128258095Y-65543905D01*
X128258095Y-65734381D01*
X128448571Y-64948667D02*
X128472381Y-64972477D01*
X128496190Y-65043905D01*
X128496190Y-65091524D01*
X128472381Y-65162953D01*
X128424762Y-65210572D01*
X128377143Y-65234381D01*
X128281905Y-65258191D01*
X128210476Y-65258191D01*
X128115238Y-65234381D01*
X128067619Y-65210572D01*
X128020000Y-65162953D01*
X127996190Y-65091524D01*
X127996190Y-65043905D01*
X128020000Y-64972477D01*
X128043810Y-64948667D01*
X128496190Y-64496286D02*
X128496190Y-64734381D01*
X127996190Y-64734381D01*
X128496190Y-64329619D02*
X127996190Y-64329619D01*
X128496190Y-64043905D02*
X128210476Y-64258191D01*
X127996190Y-64043905D02*
X128281905Y-64329619D01*
X128496190Y-63567715D02*
X128496190Y-63853429D01*
X128496190Y-63710572D02*
X127996190Y-63710572D01*
X128067619Y-63758191D01*
X128115238Y-63805810D01*
X128139048Y-63853429D01*
X128448571Y-74425761D02*
X128472381Y-74449571D01*
X128496190Y-74520999D01*
X128496190Y-74568618D01*
X128472381Y-74640047D01*
X128424762Y-74687666D01*
X128377143Y-74711475D01*
X128281905Y-74735285D01*
X128210476Y-74735285D01*
X128115238Y-74711475D01*
X128067619Y-74687666D01*
X128020000Y-74640047D01*
X127996190Y-74568618D01*
X127996190Y-74520999D01*
X128020000Y-74449571D01*
X128043810Y-74425761D01*
X128543810Y-74330523D02*
X128543810Y-73949571D01*
X128353333Y-73854333D02*
X128353333Y-73616238D01*
X128496190Y-73901952D02*
X127996190Y-73735285D01*
X128496190Y-73568619D01*
X127996190Y-73473381D02*
X128496190Y-73306714D01*
X127996190Y-73140048D01*
X128496190Y-72687667D02*
X128258095Y-72854334D01*
X128496190Y-72973381D02*
X127996190Y-72973381D01*
X127996190Y-72782905D01*
X128020000Y-72735286D01*
X128043810Y-72711477D01*
X128091429Y-72687667D01*
X128162857Y-72687667D01*
X128210476Y-72711477D01*
X128234286Y-72735286D01*
X128258095Y-72782905D01*
X128258095Y-72973381D01*
X128448571Y-72187667D02*
X128472381Y-72211477D01*
X128496190Y-72282905D01*
X128496190Y-72330524D01*
X128472381Y-72401953D01*
X128424762Y-72449572D01*
X128377143Y-72473381D01*
X128281905Y-72497191D01*
X128210476Y-72497191D01*
X128115238Y-72473381D01*
X128067619Y-72449572D01*
X128020000Y-72401953D01*
X127996190Y-72330524D01*
X127996190Y-72282905D01*
X128020000Y-72211477D01*
X128043810Y-72187667D01*
X128496190Y-71735286D02*
X128496190Y-71973381D01*
X127996190Y-71973381D01*
X128496190Y-71568619D02*
X127996190Y-71568619D01*
X128496190Y-71282905D02*
X128210476Y-71497191D01*
X127996190Y-71282905D02*
X128281905Y-71568619D01*
X128043810Y-71092429D02*
X128020000Y-71068619D01*
X127996190Y-71021000D01*
X127996190Y-70901953D01*
X128020000Y-70854334D01*
X128043810Y-70830524D01*
X128091429Y-70806715D01*
X128139048Y-70806715D01*
X128210476Y-70830524D01*
X128496190Y-71116238D01*
X128496190Y-70806715D01*
X128560002Y-123924190D02*
X128560002Y-123424190D01*
X128679049Y-123424190D01*
X128750478Y-123448000D01*
X128798097Y-123495619D01*
X128821906Y-123543238D01*
X128845716Y-123638476D01*
X128845716Y-123709905D01*
X128821906Y-123805143D01*
X128798097Y-123852762D01*
X128750478Y-123900381D01*
X128679049Y-123924190D01*
X128560002Y-123924190D01*
X128940954Y-123971810D02*
X129321906Y-123971810D01*
X129440954Y-123924190D02*
X129440954Y-123424190D01*
X129679049Y-123590857D02*
X129679049Y-123924190D01*
X129679049Y-123638476D02*
X129702858Y-123614667D01*
X129750477Y-123590857D01*
X129821906Y-123590857D01*
X129869525Y-123614667D01*
X129893334Y-123662286D01*
X129893334Y-123924190D01*
X130131430Y-123924190D02*
X130131430Y-123424190D01*
X130321906Y-123424190D01*
X130369525Y-123448000D01*
X130393334Y-123471810D01*
X130417144Y-123519429D01*
X130417144Y-123590857D01*
X130393334Y-123638476D01*
X130369525Y-123662286D01*
X130321906Y-123686095D01*
X130131430Y-123686095D01*
X130631430Y-123924190D02*
X130631430Y-123590857D01*
X130631430Y-123686095D02*
X130655239Y-123638476D01*
X130679049Y-123614667D01*
X130726668Y-123590857D01*
X130774287Y-123590857D01*
X131012382Y-123924190D02*
X130964763Y-123900381D01*
X130940954Y-123876571D01*
X130917144Y-123828952D01*
X130917144Y-123686095D01*
X130940954Y-123638476D01*
X130964763Y-123614667D01*
X131012382Y-123590857D01*
X131083811Y-123590857D01*
X131131430Y-123614667D01*
X131155239Y-123638476D01*
X131179049Y-123686095D01*
X131179049Y-123828952D01*
X131155239Y-123876571D01*
X131131430Y-123900381D01*
X131083811Y-123924190D01*
X131012382Y-123924190D01*
X131321906Y-123590857D02*
X131512382Y-123590857D01*
X131393335Y-123424190D02*
X131393335Y-123852762D01*
X131417144Y-123900381D01*
X131464763Y-123924190D01*
X131512382Y-123924190D01*
X131869525Y-123900381D02*
X131821906Y-123924190D01*
X131726668Y-123924190D01*
X131679049Y-123900381D01*
X131655239Y-123852762D01*
X131655239Y-123662286D01*
X131679049Y-123614667D01*
X131726668Y-123590857D01*
X131821906Y-123590857D01*
X131869525Y-123614667D01*
X131893334Y-123662286D01*
X131893334Y-123709905D01*
X131655239Y-123757524D01*
X132321905Y-123900381D02*
X132274286Y-123924190D01*
X132179048Y-123924190D01*
X132131429Y-123900381D01*
X132107620Y-123876571D01*
X132083810Y-123828952D01*
X132083810Y-123686095D01*
X132107620Y-123638476D01*
X132131429Y-123614667D01*
X132179048Y-123590857D01*
X132274286Y-123590857D01*
X132321905Y-123614667D01*
X132464762Y-123590857D02*
X132655238Y-123590857D01*
X132536191Y-123424190D02*
X132536191Y-123852762D01*
X132560000Y-123900381D01*
X132607619Y-123924190D01*
X132655238Y-123924190D01*
X133083809Y-123924190D02*
X132798095Y-123924190D01*
X132940952Y-123924190D02*
X132940952Y-123424190D01*
X132893333Y-123495619D01*
X132845714Y-123543238D01*
X132798095Y-123567048D01*
X145185190Y-56463284D02*
X145542333Y-56463284D01*
X145613762Y-56487094D01*
X145661381Y-56534713D01*
X145685190Y-56606141D01*
X145685190Y-56653760D01*
X145732810Y-56344237D02*
X145732810Y-55963285D01*
X145685190Y-55844237D02*
X145185190Y-55844237D01*
X145661381Y-55629952D02*
X145685190Y-55558523D01*
X145685190Y-55439476D01*
X145661381Y-55391857D01*
X145637571Y-55368047D01*
X145589952Y-55344238D01*
X145542333Y-55344238D01*
X145494714Y-55368047D01*
X145470905Y-55391857D01*
X145447095Y-55439476D01*
X145423286Y-55534714D01*
X145399476Y-55582333D01*
X145375667Y-55606142D01*
X145328048Y-55629952D01*
X145280429Y-55629952D01*
X145232810Y-55606142D01*
X145209000Y-55582333D01*
X145185190Y-55534714D01*
X145185190Y-55415666D01*
X145209000Y-55344238D01*
X145685190Y-55129952D02*
X145185190Y-55129952D01*
X145185190Y-54939476D01*
X145209000Y-54891857D01*
X145232810Y-54868048D01*
X145280429Y-54844238D01*
X145351857Y-54844238D01*
X145399476Y-54868048D01*
X145423286Y-54891857D01*
X145447095Y-54939476D01*
X145447095Y-55129952D01*
X145685190Y-54368048D02*
X145685190Y-54653762D01*
X145685190Y-54510905D02*
X145185190Y-54510905D01*
X145256619Y-54558524D01*
X145304238Y-54606143D01*
X145328048Y-54653762D01*
X134866867Y-122349390D02*
X134700200Y-122111295D01*
X134581153Y-122349390D02*
X134581153Y-121849390D01*
X134771629Y-121849390D01*
X134819248Y-121873200D01*
X134843057Y-121897010D01*
X134866867Y-121944629D01*
X134866867Y-122016057D01*
X134843057Y-122063676D01*
X134819248Y-122087486D01*
X134771629Y-122111295D01*
X134581153Y-122111295D01*
X135343057Y-122349390D02*
X135057343Y-122349390D01*
X135200200Y-122349390D02*
X135200200Y-121849390D01*
X135152581Y-121920819D01*
X135104962Y-121968438D01*
X135057343Y-121992248D01*
X137406867Y-120241190D02*
X137240200Y-120003095D01*
X137121153Y-120241190D02*
X137121153Y-119741190D01*
X137311629Y-119741190D01*
X137359248Y-119765000D01*
X137383057Y-119788810D01*
X137406867Y-119836429D01*
X137406867Y-119907857D01*
X137383057Y-119955476D01*
X137359248Y-119979286D01*
X137311629Y-120003095D01*
X137121153Y-120003095D01*
X137573534Y-119741190D02*
X137883057Y-119741190D01*
X137716391Y-119931667D01*
X137787819Y-119931667D01*
X137835438Y-119955476D01*
X137859248Y-119979286D01*
X137883057Y-120026905D01*
X137883057Y-120145952D01*
X137859248Y-120193571D01*
X137835438Y-120217381D01*
X137787819Y-120241190D01*
X137644962Y-120241190D01*
X137597343Y-120217381D01*
X137573534Y-120193571D01*
X109270896Y-78737590D02*
X109104229Y-78499495D01*
X108985182Y-78737590D02*
X108985182Y-78237590D01*
X109175658Y-78237590D01*
X109223277Y-78261400D01*
X109247086Y-78285210D01*
X109270896Y-78332829D01*
X109270896Y-78404257D01*
X109247086Y-78451876D01*
X109223277Y-78475686D01*
X109175658Y-78499495D01*
X108985182Y-78499495D01*
X109366134Y-78785210D02*
X109747086Y-78785210D01*
X109866134Y-78475686D02*
X110032800Y-78475686D01*
X110104229Y-78737590D02*
X109866134Y-78737590D01*
X109866134Y-78237590D01*
X110104229Y-78237590D01*
X110318515Y-78737590D02*
X110318515Y-78237590D01*
X110604229Y-78737590D01*
X110604229Y-78237590D01*
X111104229Y-78737590D02*
X110818515Y-78737590D01*
X110961372Y-78737590D02*
X110961372Y-78237590D01*
X110913753Y-78309019D01*
X110866134Y-78356638D01*
X110818515Y-78380448D01*
X138519887Y-111460790D02*
X138519887Y-111865552D01*
X138543696Y-111913171D01*
X138567506Y-111936981D01*
X138615125Y-111960790D01*
X138710363Y-111960790D01*
X138757982Y-111936981D01*
X138781791Y-111913171D01*
X138805601Y-111865552D01*
X138805601Y-111460790D01*
X138924649Y-112008410D02*
X139305601Y-112008410D01*
X139448458Y-111960790D02*
X139543696Y-111960790D01*
X139591315Y-111936981D01*
X139615125Y-111913171D01*
X139662744Y-111841743D01*
X139686553Y-111746505D01*
X139686553Y-111556029D01*
X139662744Y-111508410D01*
X139638934Y-111484600D01*
X139591315Y-111460790D01*
X139496077Y-111460790D01*
X139448458Y-111484600D01*
X139424649Y-111508410D01*
X139400839Y-111556029D01*
X139400839Y-111675076D01*
X139424649Y-111722695D01*
X139448458Y-111746505D01*
X139496077Y-111770314D01*
X139591315Y-111770314D01*
X139638934Y-111746505D01*
X139662744Y-111722695D01*
X139686553Y-111675076D01*
X140186553Y-111960790D02*
X140019886Y-111722695D01*
X139900839Y-111960790D02*
X139900839Y-111460790D01*
X140091315Y-111460790D01*
X140138934Y-111484600D01*
X140162743Y-111508410D01*
X140186553Y-111556029D01*
X140186553Y-111627457D01*
X140162743Y-111675076D01*
X140138934Y-111698886D01*
X140091315Y-111722695D01*
X139900839Y-111722695D01*
X140400839Y-111698886D02*
X140567505Y-111698886D01*
X140638934Y-111960790D02*
X140400839Y-111960790D01*
X140400839Y-111460790D01*
X140638934Y-111460790D01*
X141115124Y-111484600D02*
X141067505Y-111460790D01*
X140996077Y-111460790D01*
X140924648Y-111484600D01*
X140877029Y-111532219D01*
X140853220Y-111579838D01*
X140829410Y-111675076D01*
X140829410Y-111746505D01*
X140853220Y-111841743D01*
X140877029Y-111889362D01*
X140924648Y-111936981D01*
X140996077Y-111960790D01*
X141043696Y-111960790D01*
X141115124Y-111936981D01*
X141138934Y-111913171D01*
X141138934Y-111746505D01*
X141043696Y-111746505D01*
X141591315Y-111460790D02*
X141353220Y-111460790D01*
X141329410Y-111698886D01*
X141353220Y-111675076D01*
X141400839Y-111651267D01*
X141519886Y-111651267D01*
X141567505Y-111675076D01*
X141591315Y-111698886D01*
X141615124Y-111746505D01*
X141615124Y-111865552D01*
X141591315Y-111913171D01*
X141567505Y-111936981D01*
X141519886Y-111960790D01*
X141400839Y-111960790D01*
X141353220Y-111936981D01*
X141329410Y-111913171D01*
X99802190Y-68463028D02*
X100206952Y-68463028D01*
X100254571Y-68439219D01*
X100278381Y-68415409D01*
X100302190Y-68367790D01*
X100302190Y-68272552D01*
X100278381Y-68224933D01*
X100254571Y-68201124D01*
X100206952Y-68177314D01*
X99802190Y-68177314D01*
X100349810Y-68058266D02*
X100349810Y-67677314D01*
X99802190Y-67605885D02*
X100302190Y-67486838D01*
X99945048Y-67391600D01*
X100302190Y-67296362D01*
X99802190Y-67177314D01*
X100302190Y-66748742D02*
X100302190Y-66986837D01*
X99802190Y-66986837D01*
X100040286Y-66582075D02*
X100040286Y-66415409D01*
X100302190Y-66343980D02*
X100302190Y-66582075D01*
X99802190Y-66582075D01*
X99802190Y-66343980D01*
X100302190Y-66129694D02*
X99802190Y-66129694D01*
X99802190Y-66010647D01*
X99826000Y-65939218D01*
X99873619Y-65891599D01*
X99921238Y-65867790D01*
X100016476Y-65843980D01*
X100087905Y-65843980D01*
X100183143Y-65867790D01*
X100230762Y-65891599D01*
X100278381Y-65939218D01*
X100302190Y-66010647D01*
X100302190Y-66129694D01*
X100302190Y-65629694D02*
X99802190Y-65629694D01*
X100159333Y-65463028D01*
X99802190Y-65296361D01*
X100302190Y-65296361D01*
X99802190Y-65058265D02*
X100206952Y-65058265D01*
X100254571Y-65034456D01*
X100278381Y-65010646D01*
X100302190Y-64963027D01*
X100302190Y-64867789D01*
X100278381Y-64820170D01*
X100254571Y-64796361D01*
X100206952Y-64772551D01*
X99802190Y-64772551D01*
X99802190Y-64582074D02*
X100302190Y-64248741D01*
X99802190Y-64248741D02*
X100302190Y-64582074D01*
X100302190Y-63796361D02*
X100302190Y-64082075D01*
X100302190Y-63939218D02*
X99802190Y-63939218D01*
X99873619Y-63986837D01*
X99921238Y-64034456D01*
X99945048Y-64082075D01*
X131540478Y-62726095D02*
X131540478Y-62964190D01*
X131373811Y-62464190D02*
X131540478Y-62726095D01*
X131707144Y-62464190D01*
X131754763Y-63011810D02*
X132135715Y-63011810D01*
X132230953Y-62821333D02*
X132469048Y-62821333D01*
X132183334Y-62964190D02*
X132350001Y-62464190D01*
X132516667Y-62964190D01*
X132611905Y-62464190D02*
X132778572Y-62964190D01*
X132945238Y-62464190D01*
X133397619Y-62964190D02*
X133230952Y-62726095D01*
X133111905Y-62964190D02*
X133111905Y-62464190D01*
X133302381Y-62464190D01*
X133350000Y-62488000D01*
X133373809Y-62511810D01*
X133397619Y-62559429D01*
X133397619Y-62630857D01*
X133373809Y-62678476D01*
X133350000Y-62702286D01*
X133302381Y-62726095D01*
X133111905Y-62726095D01*
X133897619Y-62916571D02*
X133873809Y-62940381D01*
X133802381Y-62964190D01*
X133754762Y-62964190D01*
X133683333Y-62940381D01*
X133635714Y-62892762D01*
X133611905Y-62845143D01*
X133588095Y-62749905D01*
X133588095Y-62678476D01*
X133611905Y-62583238D01*
X133635714Y-62535619D01*
X133683333Y-62488000D01*
X133754762Y-62464190D01*
X133802381Y-62464190D01*
X133873809Y-62488000D01*
X133897619Y-62511810D01*
X134350000Y-62964190D02*
X134111905Y-62964190D01*
X134111905Y-62464190D01*
X134516667Y-62964190D02*
X134516667Y-62464190D01*
X134802381Y-62964190D02*
X134588095Y-62678476D01*
X134802381Y-62464190D02*
X134516667Y-62749905D01*
X135278571Y-62964190D02*
X134992857Y-62964190D01*
X135135714Y-62964190D02*
X135135714Y-62464190D01*
X135088095Y-62535619D01*
X135040476Y-62583238D01*
X134992857Y-62607048D01*
X100381571Y-76592809D02*
X100405381Y-76616619D01*
X100429190Y-76688047D01*
X100429190Y-76735666D01*
X100405381Y-76807095D01*
X100357762Y-76854714D01*
X100310143Y-76878523D01*
X100214905Y-76902333D01*
X100143476Y-76902333D01*
X100048238Y-76878523D01*
X100000619Y-76854714D01*
X99953000Y-76807095D01*
X99929190Y-76735666D01*
X99929190Y-76688047D01*
X99953000Y-76616619D01*
X99976810Y-76592809D01*
X100476810Y-76497571D02*
X100476810Y-76116619D01*
X100167286Y-75830905D02*
X100191095Y-75759476D01*
X100214905Y-75735667D01*
X100262524Y-75711857D01*
X100333952Y-75711857D01*
X100381571Y-75735667D01*
X100405381Y-75759476D01*
X100429190Y-75807095D01*
X100429190Y-75997571D01*
X99929190Y-75997571D01*
X99929190Y-75830905D01*
X99953000Y-75783286D01*
X99976810Y-75759476D01*
X100024429Y-75735667D01*
X100072048Y-75735667D01*
X100119667Y-75759476D01*
X100143476Y-75783286D01*
X100167286Y-75830905D01*
X100167286Y-75997571D01*
X100429190Y-75497571D02*
X99929190Y-75497571D01*
X99929190Y-75307095D01*
X99953000Y-75259476D01*
X99976810Y-75235667D01*
X100024429Y-75211857D01*
X100095857Y-75211857D01*
X100143476Y-75235667D01*
X100167286Y-75259476D01*
X100191095Y-75307095D01*
X100191095Y-75497571D01*
X99929190Y-74759476D02*
X99929190Y-74997571D01*
X100167286Y-75021381D01*
X100143476Y-74997571D01*
X100119667Y-74949952D01*
X100119667Y-74830905D01*
X100143476Y-74783286D01*
X100167286Y-74759476D01*
X100214905Y-74735667D01*
X100333952Y-74735667D01*
X100381571Y-74759476D01*
X100405381Y-74783286D01*
X100429190Y-74830905D01*
X100429190Y-74949952D01*
X100405381Y-74997571D01*
X100381571Y-75021381D01*
X132683525Y-58654190D02*
X132683525Y-59011333D01*
X132659715Y-59082762D01*
X132612096Y-59130381D01*
X132540668Y-59154190D01*
X132493049Y-59154190D01*
X132802572Y-59201810D02*
X133183524Y-59201810D01*
X133302572Y-59154190D02*
X133302572Y-58654190D01*
X133469238Y-59011333D01*
X133635905Y-58654190D01*
X133635905Y-59154190D01*
X133850191Y-59011333D02*
X134088286Y-59011333D01*
X133802572Y-59154190D02*
X133969239Y-58654190D01*
X134135905Y-59154190D01*
X134302572Y-59154190D02*
X134302572Y-58654190D01*
X134540667Y-59154190D02*
X134540667Y-58654190D01*
X134826381Y-59154190D01*
X134826381Y-58654190D01*
X135040667Y-58701810D02*
X135064477Y-58678000D01*
X135112096Y-58654190D01*
X135231143Y-58654190D01*
X135278762Y-58678000D01*
X135302572Y-58701810D01*
X135326381Y-58749429D01*
X135326381Y-58797048D01*
X135302572Y-58868476D01*
X135016858Y-59154190D01*
X135326381Y-59154190D01*
X135516857Y-59011333D02*
X135754952Y-59011333D01*
X135469238Y-59154190D02*
X135635905Y-58654190D01*
X135802571Y-59154190D01*
X135969238Y-58654190D02*
X135969238Y-59058952D01*
X135993047Y-59106571D01*
X136016857Y-59130381D01*
X136064476Y-59154190D01*
X136159714Y-59154190D01*
X136207333Y-59130381D01*
X136231142Y-59106571D01*
X136254952Y-59058952D01*
X136254952Y-58654190D01*
X136445429Y-58654190D02*
X136778762Y-59154190D01*
X136778762Y-58654190D02*
X136445429Y-59154190D01*
X137231142Y-59154190D02*
X136945428Y-59154190D01*
X137088285Y-59154190D02*
X137088285Y-58654190D01*
X137040666Y-58725619D01*
X136993047Y-58773238D01*
X136945428Y-58797048D01*
X140982144Y-76617190D02*
X140982144Y-77021952D01*
X141005953Y-77069571D01*
X141029763Y-77093381D01*
X141077382Y-77117190D01*
X141172620Y-77117190D01*
X141220239Y-77093381D01*
X141244048Y-77069571D01*
X141267858Y-77021952D01*
X141267858Y-76617190D01*
X141386906Y-77164810D02*
X141767858Y-77164810D01*
X141886906Y-77117190D02*
X141886906Y-76617190D01*
X142005953Y-76617190D01*
X142077382Y-76641000D01*
X142125001Y-76688619D01*
X142148810Y-76736238D01*
X142172620Y-76831476D01*
X142172620Y-76902905D01*
X142148810Y-76998143D01*
X142125001Y-77045762D01*
X142077382Y-77093381D01*
X142005953Y-77117190D01*
X141886906Y-77117190D01*
X142386906Y-77117190D02*
X142386906Y-76617190D01*
X142886905Y-76641000D02*
X142839286Y-76617190D01*
X142767858Y-76617190D01*
X142696429Y-76641000D01*
X142648810Y-76688619D01*
X142625001Y-76736238D01*
X142601191Y-76831476D01*
X142601191Y-76902905D01*
X142625001Y-76998143D01*
X142648810Y-77045762D01*
X142696429Y-77093381D01*
X142767858Y-77117190D01*
X142815477Y-77117190D01*
X142886905Y-77093381D01*
X142910715Y-77069571D01*
X142910715Y-76902905D01*
X142815477Y-76902905D01*
X143125001Y-77117190D02*
X143125001Y-76617190D01*
X143315477Y-76617190D01*
X143363096Y-76641000D01*
X143386905Y-76664810D01*
X143410715Y-76712429D01*
X143410715Y-76783857D01*
X143386905Y-76831476D01*
X143363096Y-76855286D01*
X143315477Y-76879095D01*
X143125001Y-76879095D01*
X143720239Y-76617190D02*
X143815477Y-76617190D01*
X143863096Y-76641000D01*
X143910715Y-76688619D01*
X143934524Y-76783857D01*
X143934524Y-76950524D01*
X143910715Y-77045762D01*
X143863096Y-77093381D01*
X143815477Y-77117190D01*
X143720239Y-77117190D01*
X143672620Y-77093381D01*
X143625001Y-77045762D01*
X143601191Y-76950524D01*
X143601191Y-76783857D01*
X143625001Y-76688619D01*
X143672620Y-76641000D01*
X143720239Y-76617190D01*
X144077382Y-76617190D02*
X144363096Y-76617190D01*
X144220239Y-77117190D02*
X144220239Y-76617190D01*
X144791667Y-77117190D02*
X144505953Y-77117190D01*
X144648810Y-77117190D02*
X144648810Y-76617190D01*
X144601191Y-76688619D01*
X144553572Y-76736238D01*
X144505953Y-76760048D01*
X96111190Y-106095609D02*
X95611190Y-106095609D01*
X95611190Y-105976562D01*
X95635000Y-105905133D01*
X95682619Y-105857514D01*
X95730238Y-105833705D01*
X95825476Y-105809895D01*
X95896905Y-105809895D01*
X95992143Y-105833705D01*
X96039762Y-105857514D01*
X96087381Y-105905133D01*
X96111190Y-105976562D01*
X96111190Y-106095609D01*
X96158810Y-105714657D02*
X96158810Y-105333705D01*
X95611190Y-105262276D02*
X96111190Y-105143229D01*
X95754048Y-105047991D01*
X96111190Y-104952753D01*
X95611190Y-104833705D01*
X96111190Y-104405133D02*
X96111190Y-104643228D01*
X95611190Y-104643228D01*
X95849286Y-104238466D02*
X95849286Y-104071800D01*
X96111190Y-104000371D02*
X96111190Y-104238466D01*
X95611190Y-104238466D01*
X95611190Y-104000371D01*
X96111190Y-103786085D02*
X95611190Y-103786085D01*
X95611190Y-103667038D01*
X95635000Y-103595609D01*
X95682619Y-103547990D01*
X95730238Y-103524181D01*
X95825476Y-103500371D01*
X95896905Y-103500371D01*
X95992143Y-103524181D01*
X96039762Y-103547990D01*
X96087381Y-103595609D01*
X96111190Y-103667038D01*
X96111190Y-103786085D01*
X95611190Y-103071800D02*
X95611190Y-103167038D01*
X95635000Y-103214657D01*
X95658810Y-103238466D01*
X95730238Y-103286085D01*
X95825476Y-103309895D01*
X96015952Y-103309895D01*
X96063571Y-103286085D01*
X96087381Y-103262276D01*
X96111190Y-103214657D01*
X96111190Y-103119419D01*
X96087381Y-103071800D01*
X96063571Y-103047990D01*
X96015952Y-103024181D01*
X95896905Y-103024181D01*
X95849286Y-103047990D01*
X95825476Y-103071800D01*
X95801667Y-103119419D01*
X95801667Y-103214657D01*
X95825476Y-103262276D01*
X95849286Y-103286085D01*
X95896905Y-103309895D01*
X96111190Y-98501009D02*
X95611190Y-98501009D01*
X95611190Y-98381962D01*
X95635000Y-98310533D01*
X95682619Y-98262914D01*
X95730238Y-98239105D01*
X95825476Y-98215295D01*
X95896905Y-98215295D01*
X95992143Y-98239105D01*
X96039762Y-98262914D01*
X96087381Y-98310533D01*
X96111190Y-98381962D01*
X96111190Y-98501009D01*
X96158810Y-98120057D02*
X96158810Y-97739105D01*
X95611190Y-97667676D02*
X96111190Y-97548629D01*
X95754048Y-97453391D01*
X96111190Y-97358153D01*
X95611190Y-97239105D01*
X96111190Y-96810533D02*
X96111190Y-97048628D01*
X95611190Y-97048628D01*
X95849286Y-96643866D02*
X95849286Y-96477200D01*
X96111190Y-96405771D02*
X96111190Y-96643866D01*
X95611190Y-96643866D01*
X95611190Y-96405771D01*
X96111190Y-96191485D02*
X95611190Y-96191485D01*
X95611190Y-96072438D01*
X95635000Y-96001009D01*
X95682619Y-95953390D01*
X95730238Y-95929581D01*
X95825476Y-95905771D01*
X95896905Y-95905771D01*
X95992143Y-95929581D01*
X96039762Y-95953390D01*
X96087381Y-96001009D01*
X96111190Y-96072438D01*
X96111190Y-96191485D01*
X95611190Y-95453390D02*
X95611190Y-95691485D01*
X95849286Y-95715295D01*
X95825476Y-95691485D01*
X95801667Y-95643866D01*
X95801667Y-95524819D01*
X95825476Y-95477200D01*
X95849286Y-95453390D01*
X95896905Y-95429581D01*
X96015952Y-95429581D01*
X96063571Y-95453390D01*
X96087381Y-95477200D01*
X96111190Y-95524819D01*
X96111190Y-95643866D01*
X96087381Y-95691485D01*
X96063571Y-95715295D01*
X96085790Y-91033409D02*
X95585790Y-91033409D01*
X95585790Y-90914362D01*
X95609600Y-90842933D01*
X95657219Y-90795314D01*
X95704838Y-90771505D01*
X95800076Y-90747695D01*
X95871505Y-90747695D01*
X95966743Y-90771505D01*
X96014362Y-90795314D01*
X96061981Y-90842933D01*
X96085790Y-90914362D01*
X96085790Y-91033409D01*
X96133410Y-90652457D02*
X96133410Y-90271505D01*
X95585790Y-90200076D02*
X96085790Y-90081029D01*
X95728648Y-89985791D01*
X96085790Y-89890553D01*
X95585790Y-89771505D01*
X96085790Y-89342933D02*
X96085790Y-89581028D01*
X95585790Y-89581028D01*
X95823886Y-89176266D02*
X95823886Y-89009600D01*
X96085790Y-88938171D02*
X96085790Y-89176266D01*
X95585790Y-89176266D01*
X95585790Y-88938171D01*
X96085790Y-88723885D02*
X95585790Y-88723885D01*
X95585790Y-88604838D01*
X95609600Y-88533409D01*
X95657219Y-88485790D01*
X95704838Y-88461981D01*
X95800076Y-88438171D01*
X95871505Y-88438171D01*
X95966743Y-88461981D01*
X96014362Y-88485790D01*
X96061981Y-88533409D01*
X96085790Y-88604838D01*
X96085790Y-88723885D01*
X95752457Y-88009600D02*
X96085790Y-88009600D01*
X95561981Y-88128647D02*
X95919124Y-88247695D01*
X95919124Y-87938171D01*
X96111190Y-83337209D02*
X95611190Y-83337209D01*
X95611190Y-83218162D01*
X95635000Y-83146733D01*
X95682619Y-83099114D01*
X95730238Y-83075305D01*
X95825476Y-83051495D01*
X95896905Y-83051495D01*
X95992143Y-83075305D01*
X96039762Y-83099114D01*
X96087381Y-83146733D01*
X96111190Y-83218162D01*
X96111190Y-83337209D01*
X96158810Y-82956257D02*
X96158810Y-82575305D01*
X95611190Y-82503876D02*
X96111190Y-82384829D01*
X95754048Y-82289591D01*
X96111190Y-82194353D01*
X95611190Y-82075305D01*
X96111190Y-81646733D02*
X96111190Y-81884828D01*
X95611190Y-81884828D01*
X95849286Y-81480066D02*
X95849286Y-81313400D01*
X96111190Y-81241971D02*
X96111190Y-81480066D01*
X95611190Y-81480066D01*
X95611190Y-81241971D01*
X96111190Y-81027685D02*
X95611190Y-81027685D01*
X95611190Y-80908638D01*
X95635000Y-80837209D01*
X95682619Y-80789590D01*
X95730238Y-80765781D01*
X95825476Y-80741971D01*
X95896905Y-80741971D01*
X95992143Y-80765781D01*
X96039762Y-80789590D01*
X96087381Y-80837209D01*
X96111190Y-80908638D01*
X96111190Y-81027685D01*
X95611190Y-80575304D02*
X95611190Y-80265781D01*
X95801667Y-80432447D01*
X95801667Y-80361019D01*
X95825476Y-80313400D01*
X95849286Y-80289590D01*
X95896905Y-80265781D01*
X96015952Y-80265781D01*
X96063571Y-80289590D01*
X96087381Y-80313400D01*
X96111190Y-80361019D01*
X96111190Y-80503876D01*
X96087381Y-80551495D01*
X96063571Y-80575304D01*
X96060390Y-76022009D02*
X95560390Y-76022009D01*
X95560390Y-75902962D01*
X95584200Y-75831533D01*
X95631819Y-75783914D01*
X95679438Y-75760105D01*
X95774676Y-75736295D01*
X95846105Y-75736295D01*
X95941343Y-75760105D01*
X95988962Y-75783914D01*
X96036581Y-75831533D01*
X96060390Y-75902962D01*
X96060390Y-76022009D01*
X96108010Y-75641057D02*
X96108010Y-75260105D01*
X95560390Y-75188676D02*
X96060390Y-75069629D01*
X95703248Y-74974391D01*
X96060390Y-74879153D01*
X95560390Y-74760105D01*
X96060390Y-74331533D02*
X96060390Y-74569628D01*
X95560390Y-74569628D01*
X95798486Y-74164866D02*
X95798486Y-73998200D01*
X96060390Y-73926771D02*
X96060390Y-74164866D01*
X95560390Y-74164866D01*
X95560390Y-73926771D01*
X96060390Y-73712485D02*
X95560390Y-73712485D01*
X95560390Y-73593438D01*
X95584200Y-73522009D01*
X95631819Y-73474390D01*
X95679438Y-73450581D01*
X95774676Y-73426771D01*
X95846105Y-73426771D01*
X95941343Y-73450581D01*
X95988962Y-73474390D01*
X96036581Y-73522009D01*
X96060390Y-73593438D01*
X96060390Y-73712485D01*
X95608010Y-73236295D02*
X95584200Y-73212485D01*
X95560390Y-73164866D01*
X95560390Y-73045819D01*
X95584200Y-72998200D01*
X95608010Y-72974390D01*
X95655629Y-72950581D01*
X95703248Y-72950581D01*
X95774676Y-72974390D01*
X96060390Y-73260104D01*
X96060390Y-72950581D01*
X106318182Y-78737590D02*
X106318182Y-78237590D01*
X106437229Y-78237590D01*
X106508658Y-78261400D01*
X106556277Y-78309019D01*
X106580086Y-78356638D01*
X106603896Y-78451876D01*
X106603896Y-78523305D01*
X106580086Y-78618543D01*
X106556277Y-78666162D01*
X106508658Y-78713781D01*
X106437229Y-78737590D01*
X106318182Y-78737590D01*
X106699134Y-78785210D02*
X107080086Y-78785210D01*
X107199134Y-78475686D02*
X107365800Y-78475686D01*
X107437229Y-78737590D02*
X107199134Y-78737590D01*
X107199134Y-78237590D01*
X107437229Y-78237590D01*
X107651515Y-78737590D02*
X107651515Y-78237590D01*
X107937229Y-78737590D01*
X107937229Y-78237590D01*
X108437229Y-78737590D02*
X108151515Y-78737590D01*
X108294372Y-78737590D02*
X108294372Y-78237590D01*
X108246753Y-78309019D01*
X108199134Y-78356638D01*
X108151515Y-78380448D01*
X121969981Y-83506238D02*
X121993790Y-83434809D01*
X121993790Y-83315762D01*
X121969981Y-83268143D01*
X121946171Y-83244333D01*
X121898552Y-83220524D01*
X121850933Y-83220524D01*
X121803314Y-83244333D01*
X121779505Y-83268143D01*
X121755695Y-83315762D01*
X121731886Y-83411000D01*
X121708076Y-83458619D01*
X121684267Y-83482428D01*
X121636648Y-83506238D01*
X121589029Y-83506238D01*
X121541410Y-83482428D01*
X121517600Y-83458619D01*
X121493790Y-83411000D01*
X121493790Y-83291952D01*
X121517600Y-83220524D01*
X121493790Y-83053857D02*
X121993790Y-82934810D01*
X121636648Y-82839572D01*
X121993790Y-82744334D01*
X121493790Y-82625286D01*
X122041410Y-82553857D02*
X122041410Y-82172905D01*
X121731886Y-81887191D02*
X121731886Y-82053857D01*
X121993790Y-82053857D02*
X121493790Y-82053857D01*
X121493790Y-81815762D01*
X121493790Y-81625286D02*
X121898552Y-81625286D01*
X121946171Y-81601477D01*
X121969981Y-81577667D01*
X121993790Y-81530048D01*
X121993790Y-81434810D01*
X121969981Y-81387191D01*
X121946171Y-81363382D01*
X121898552Y-81339572D01*
X121493790Y-81339572D01*
X121993790Y-81101476D02*
X121493790Y-81101476D01*
X121993790Y-80815762D01*
X121493790Y-80815762D01*
X121946171Y-80291952D02*
X121969981Y-80315762D01*
X121993790Y-80387190D01*
X121993790Y-80434809D01*
X121969981Y-80506238D01*
X121922362Y-80553857D01*
X121874743Y-80577666D01*
X121779505Y-80601476D01*
X121708076Y-80601476D01*
X121612838Y-80577666D01*
X121565219Y-80553857D01*
X121517600Y-80506238D01*
X121493790Y-80434809D01*
X121493790Y-80387190D01*
X121517600Y-80315762D01*
X121541410Y-80291952D01*
X121993790Y-79815762D02*
X121993790Y-80101476D01*
X121993790Y-79958619D02*
X121493790Y-79958619D01*
X121565219Y-80006238D01*
X121612838Y-80053857D01*
X121636648Y-80101476D01*
X132278572Y-104755190D02*
X132278572Y-105112333D01*
X132254762Y-105183762D01*
X132207143Y-105231381D01*
X132135715Y-105255190D01*
X132088096Y-105255190D01*
X132397619Y-105302810D02*
X132778571Y-105302810D01*
X132992857Y-104755190D02*
X133088095Y-104755190D01*
X133135714Y-104779000D01*
X133183333Y-104826619D01*
X133207142Y-104921857D01*
X133207142Y-105088524D01*
X133183333Y-105183762D01*
X133135714Y-105231381D01*
X133088095Y-105255190D01*
X132992857Y-105255190D01*
X132945238Y-105231381D01*
X132897619Y-105183762D01*
X132873809Y-105088524D01*
X132873809Y-104921857D01*
X132897619Y-104826619D01*
X132945238Y-104779000D01*
X132992857Y-104755190D01*
X133421429Y-104755190D02*
X133421429Y-105159952D01*
X133445238Y-105207571D01*
X133469048Y-105231381D01*
X133516667Y-105255190D01*
X133611905Y-105255190D01*
X133659524Y-105231381D01*
X133683333Y-105207571D01*
X133707143Y-105159952D01*
X133707143Y-104755190D01*
X133873810Y-104755190D02*
X134159524Y-104755190D01*
X134016667Y-105255190D02*
X134016667Y-104755190D01*
X134588095Y-105255190D02*
X134302381Y-105255190D01*
X134445238Y-105255190D02*
X134445238Y-104755190D01*
X134397619Y-104826619D01*
X134350000Y-104874238D01*
X134302381Y-104898048D01*
X133552381Y-137489238D02*
X133576190Y-137417809D01*
X133576190Y-137298762D01*
X133552381Y-137251143D01*
X133528571Y-137227333D01*
X133480952Y-137203524D01*
X133433333Y-137203524D01*
X133385714Y-137227333D01*
X133361905Y-137251143D01*
X133338095Y-137298762D01*
X133314286Y-137394000D01*
X133290476Y-137441619D01*
X133266667Y-137465428D01*
X133219048Y-137489238D01*
X133171429Y-137489238D01*
X133123810Y-137465428D01*
X133100000Y-137441619D01*
X133076190Y-137394000D01*
X133076190Y-137274952D01*
X133100000Y-137203524D01*
X133076190Y-137036857D02*
X133576190Y-136917810D01*
X133219048Y-136822572D01*
X133576190Y-136727334D01*
X133076190Y-136608286D01*
X133623810Y-136536857D02*
X133623810Y-136155905D01*
X133314286Y-136036857D02*
X133314286Y-135870191D01*
X133576190Y-135798762D02*
X133576190Y-136036857D01*
X133076190Y-136036857D01*
X133076190Y-135798762D01*
X133576190Y-135584476D02*
X133076190Y-135584476D01*
X133576190Y-135298762D01*
X133076190Y-135298762D01*
X133576190Y-134798762D02*
X133576190Y-135084476D01*
X133576190Y-134941619D02*
X133076190Y-134941619D01*
X133147619Y-134989238D01*
X133195238Y-135036857D01*
X133219048Y-135084476D01*
X129317858Y-110089190D02*
X129317858Y-110446333D01*
X129294048Y-110517762D01*
X129246429Y-110565381D01*
X129175001Y-110589190D01*
X129127382Y-110589190D01*
X129436905Y-110636810D02*
X129817857Y-110636810D01*
X129936905Y-110589190D02*
X129936905Y-110089190D01*
X130055952Y-110089190D01*
X130127381Y-110113000D01*
X130175000Y-110160619D01*
X130198809Y-110208238D01*
X130222619Y-110303476D01*
X130222619Y-110374905D01*
X130198809Y-110470143D01*
X130175000Y-110517762D01*
X130127381Y-110565381D01*
X130055952Y-110589190D01*
X129936905Y-110589190D01*
X130722619Y-110541571D02*
X130698809Y-110565381D01*
X130627381Y-110589190D01*
X130579762Y-110589190D01*
X130508333Y-110565381D01*
X130460714Y-110517762D01*
X130436905Y-110470143D01*
X130413095Y-110374905D01*
X130413095Y-110303476D01*
X130436905Y-110208238D01*
X130460714Y-110160619D01*
X130508333Y-110113000D01*
X130579762Y-110089190D01*
X130627381Y-110089190D01*
X130698809Y-110113000D01*
X130722619Y-110136810D01*
X131198809Y-110589190D02*
X130913095Y-110589190D01*
X131055952Y-110589190D02*
X131055952Y-110089190D01*
X131008333Y-110160619D01*
X130960714Y-110208238D01*
X130913095Y-110232048D01*
M02*
