G04 #@! TF.FileFunction,Copper,L2,Bot,Signal*
%FSLAX46Y46*%
G04 Gerber Fmt 4.6, Leading zero omitted, Abs format (unit mm)*
G04 Created by KiCad (PCBNEW 4.0.7) date 06/02/18 16:03:12*
%MOMM*%
%LPD*%
G01*
G04 APERTURE LIST*
%ADD10C,0.100000*%
%ADD11C,2.000000*%
%ADD12R,1.700000X1.700000*%
%ADD13O,1.700000X1.700000*%
%ADD14C,1.800000*%
%ADD15C,4.000000*%
%ADD16R,1.500000X1.250000*%
%ADD17C,0.600000*%
%ADD18R,1.300000X1.500000*%
%ADD19C,1.500000*%
%ADD20R,1.998980X1.998980*%
%ADD21R,1.500000X1.300000*%
%ADD22C,2.000000*%
%ADD23O,5.000000X4.000000*%
%ADD24O,3.000000X4.000000*%
%ADD25R,3.500000X3.500000*%
%ADD26C,1.000000*%
%ADD27C,0.500000*%
%ADD28C,0.250000*%
%ADD29C,0.254000*%
G04 APERTURE END LIST*
D10*
D11*
X127913000Y-110109000D02*
X129413000Y-110109000D01*
X133985000Y-110109000D02*
X132485000Y-110109000D01*
D12*
X94716600Y-60833000D03*
D13*
X97256600Y-60833000D03*
X99796600Y-60833000D03*
X102336600Y-60833000D03*
X104876600Y-60833000D03*
X107416600Y-60833000D03*
X109956600Y-60833000D03*
X112496600Y-60833000D03*
D14*
X113781200Y-76123800D03*
X116281200Y-76123800D03*
X118781200Y-76123800D03*
D15*
X111881200Y-69123800D03*
X120681200Y-69123800D03*
D16*
X116860000Y-63500000D03*
X119360000Y-63500000D03*
D17*
X149240000Y-113169700D03*
X147840000Y-113169700D03*
X146440000Y-113169700D03*
X145040000Y-113169700D03*
X143640000Y-113169700D03*
X152136300Y-118769700D03*
X150736300Y-118769700D03*
X152136300Y-117369700D03*
X150736300Y-117369700D03*
X152136300Y-115969700D03*
X150736300Y-115969700D03*
X152136300Y-114569700D03*
X150736300Y-114569700D03*
X152136300Y-113169700D03*
X150736300Y-113169700D03*
X142220600Y-118769700D03*
X140820600Y-118769700D03*
X139420600Y-118769700D03*
X142220600Y-117369700D03*
X140820600Y-117369700D03*
X139420600Y-117369700D03*
X142220600Y-115969700D03*
X140820600Y-115969700D03*
X139420600Y-115969700D03*
X142220600Y-114569700D03*
X140820600Y-114569700D03*
X139420600Y-114569700D03*
X142214600Y-113169700D03*
X140820600Y-113169700D03*
D12*
X143129000Y-55499000D03*
D13*
X140589000Y-55499000D03*
X138049000Y-55499000D03*
X135509000Y-55499000D03*
D18*
X121920000Y-73580000D03*
X121920000Y-76280000D03*
X97282000Y-64690000D03*
X97282000Y-67390000D03*
X97282000Y-72310000D03*
X97282000Y-75010000D03*
X97282000Y-79676000D03*
X97282000Y-82376000D03*
X97282000Y-87296000D03*
X97282000Y-89996000D03*
X97282000Y-94662000D03*
X97282000Y-97362000D03*
X97282000Y-102282000D03*
X97282000Y-104982000D03*
D19*
X133350000Y-66675000D03*
X133350000Y-71555000D03*
D16*
X144061500Y-67246500D03*
X141561500Y-67246500D03*
D18*
X104876600Y-66214000D03*
X104876600Y-68914000D03*
D12*
X127254000Y-60706000D03*
D13*
X129794000Y-60706000D03*
X132334000Y-60706000D03*
X134874000Y-60706000D03*
X137414000Y-60706000D03*
X139954000Y-60706000D03*
X142494000Y-60706000D03*
X145034000Y-60706000D03*
D20*
X134747000Y-110109000D03*
X130937000Y-110109000D03*
X127127000Y-110109000D03*
D17*
X139420600Y-113169700D03*
D21*
X116760000Y-61036200D03*
X119460000Y-61036200D03*
D22*
X119481600Y-79193000D03*
X119481600Y-83693000D03*
X112981600Y-79193000D03*
X112981600Y-83693000D03*
D23*
X145392000Y-108965000D03*
X145265000Y-92965000D03*
X138915000Y-108965000D03*
X138915000Y-92965000D03*
X151915000Y-92965000D03*
X151892000Y-108965000D03*
D24*
X140335000Y-128905000D03*
X140335000Y-133985000D03*
X136334500Y-133985000D03*
X136334500Y-128905000D03*
X144335500Y-128841500D03*
X144335500Y-133985000D03*
D25*
X135128000Y-115697000D03*
X129128000Y-115697000D03*
X132128000Y-120397000D03*
D17*
X142290800Y-123647200D03*
X136601200Y-121335800D03*
X128270000Y-129286000D03*
X144081500Y-68770500D03*
X96012000Y-64262000D03*
X95859600Y-72313800D03*
X95885000Y-79676000D03*
X95935800Y-87299800D03*
X95834200Y-94665800D03*
X95859596Y-102285800D03*
X142163800Y-78943200D03*
X142138400Y-75692000D03*
X140970000Y-71247000D03*
X138531600Y-76885800D03*
X145605500Y-66611500D03*
X140182600Y-77495400D03*
X143408400Y-72136000D03*
X136245600Y-72517000D03*
X105155996Y-70662800D03*
X105511600Y-63372996D03*
X115316000Y-63373000D03*
X102971600Y-73533000D03*
X102870000Y-77698600D03*
X107442000Y-84201000D03*
X94488000Y-68961000D03*
X94488000Y-106807000D03*
X94488000Y-99060000D03*
X94488000Y-91567000D03*
X94488000Y-83947000D03*
X94488000Y-76454000D03*
X108585000Y-67183000D03*
X99796596Y-81762600D03*
X116840000Y-59436000D03*
X145732500Y-68834000D03*
X129540000Y-69024500D03*
X139954000Y-69596000D03*
X139954000Y-68008500D03*
X147066000Y-86360000D03*
X145923000Y-85217000D03*
X140208000Y-83439000D03*
D26*
X130937000Y-110109000D02*
X130937000Y-112903000D01*
D27*
X144061500Y-67246500D02*
X144081500Y-68770500D01*
D28*
X96012000Y-64262000D02*
X96854000Y-64262000D01*
X96854000Y-64262000D02*
X97282000Y-64690000D01*
X95863400Y-72310000D02*
X95859600Y-72313800D01*
X97282000Y-72310000D02*
X95863400Y-72310000D01*
X95885000Y-79676000D02*
X97282000Y-79676000D01*
X97282000Y-87296000D02*
X95939600Y-87296000D01*
X95939600Y-87296000D02*
X95935800Y-87299800D01*
X95838000Y-94662000D02*
X95834200Y-94665800D01*
X97282000Y-94662000D02*
X95838000Y-94662000D01*
X95863396Y-102282000D02*
X95859596Y-102285800D01*
X97282000Y-102282000D02*
X95863396Y-102282000D01*
X142163800Y-75717400D02*
X142163800Y-78943200D01*
X142138400Y-75692000D02*
X142163800Y-75717400D01*
X138506200Y-73710800D02*
X140970000Y-71247000D01*
X138506200Y-76860400D02*
X138506200Y-73710800D01*
X138531600Y-76885800D02*
X138506200Y-76860400D01*
X145605500Y-66611500D02*
X145605500Y-61277500D01*
X145605500Y-61277500D02*
X145034000Y-60706000D01*
X142976600Y-72136000D02*
X143408400Y-72136000D01*
X140182600Y-74930000D02*
X142976600Y-72136000D01*
X140182600Y-77495400D02*
X140182600Y-74930000D01*
X142494000Y-62230000D02*
X142494000Y-60706000D01*
X141655800Y-63068200D02*
X142494000Y-62230000D01*
X136779000Y-63068200D02*
X141655800Y-63068200D01*
X135636000Y-64211200D02*
X136779000Y-63068200D01*
X135636000Y-71907400D02*
X135636000Y-64211200D01*
X136245600Y-72517000D02*
X135636000Y-71907400D01*
X120650000Y-73580000D02*
X120650000Y-78024600D01*
X120650000Y-78024600D02*
X119481600Y-79193000D01*
X118030000Y-71120000D02*
X118030000Y-71675000D01*
X119935000Y-73580000D02*
X120650000Y-73580000D01*
X120650000Y-73580000D02*
X121920000Y-73580000D01*
X118030000Y-71675000D02*
X119935000Y-73580000D01*
X119360000Y-63500000D02*
X119360000Y-64750000D01*
X119360000Y-64750000D02*
X118030000Y-66080000D01*
X118030000Y-66080000D02*
X118030000Y-71120000D01*
X119360000Y-63500000D02*
X119360000Y-61136200D01*
X119360000Y-61136200D02*
X119460000Y-61036200D01*
X104876600Y-70383404D02*
X105155996Y-70662800D01*
X104876600Y-68914000D02*
X104876600Y-70383404D01*
D27*
X104876600Y-66214000D02*
X104876600Y-64007996D01*
X104876600Y-64007996D02*
X105211601Y-63672995D01*
X105211601Y-63672995D02*
X105511600Y-63372996D01*
X102971600Y-73533000D02*
X102971600Y-66903600D01*
X102971600Y-66903600D02*
X103661200Y-66214000D01*
X103661200Y-66214000D02*
X104876600Y-66214000D01*
X110464600Y-78167608D02*
X110464600Y-81176000D01*
X110464600Y-81176000D02*
X112981600Y-83693000D01*
X113781200Y-76123800D02*
X112508408Y-76123800D01*
X112508408Y-76123800D02*
X110464600Y-78167608D01*
D28*
X115316000Y-63373000D02*
X116733000Y-63373000D01*
X116733000Y-63373000D02*
X116860000Y-63500000D01*
X97256600Y-60833000D02*
X97256600Y-60198000D01*
X97256600Y-61468000D02*
X97256600Y-60833000D01*
X99796600Y-81762596D02*
X99796596Y-81762600D01*
X99796600Y-60833000D02*
X99796600Y-81762596D01*
X116840000Y-59436000D02*
X116840000Y-60956200D01*
X116840000Y-60956200D02*
X116760000Y-61036200D01*
X112522000Y-63881000D02*
X116312400Y-67671400D01*
X116312400Y-67671400D02*
X116312400Y-75783200D01*
X112522000Y-62060481D02*
X112522000Y-63881000D01*
X112496600Y-60833000D02*
X112496600Y-62035081D01*
X112496600Y-62035081D02*
X112522000Y-62060481D01*
D26*
X127127000Y-110109000D02*
X127127000Y-107442000D01*
D28*
X145923000Y-85217000D02*
X147066000Y-86360000D01*
D26*
X134747000Y-110109000D02*
X134747000Y-107442000D01*
D29*
G36*
X115904838Y-59621167D02*
X115957507Y-59748637D01*
X115774683Y-59783038D01*
X115558559Y-59922110D01*
X115413569Y-60134310D01*
X115362560Y-60386200D01*
X115362560Y-61686200D01*
X115406838Y-61921517D01*
X115545910Y-62137641D01*
X115758110Y-62282631D01*
X115834021Y-62298003D01*
X115658559Y-62410910D01*
X115609629Y-62482522D01*
X115502799Y-62438162D01*
X115130833Y-62437838D01*
X114787057Y-62579883D01*
X114523808Y-62842673D01*
X114381162Y-63186201D01*
X114380838Y-63558167D01*
X114522883Y-63901943D01*
X114785673Y-64165192D01*
X115129201Y-64307838D01*
X115497024Y-64308158D01*
X115506838Y-64360317D01*
X115645910Y-64576441D01*
X115858110Y-64721431D01*
X116110000Y-64772440D01*
X117610000Y-64772440D01*
X117845317Y-64728162D01*
X118061441Y-64589090D01*
X118109134Y-64519289D01*
X118145910Y-64576441D01*
X118331767Y-64703431D01*
X117492599Y-65542599D01*
X117327852Y-65789161D01*
X117270000Y-66080000D01*
X117270000Y-71675000D01*
X117327852Y-71965839D01*
X117492599Y-72212401D01*
X119397599Y-74117401D01*
X119644161Y-74282148D01*
X119890000Y-74331049D01*
X119890000Y-77592230D01*
X119808248Y-77558284D01*
X119157805Y-77557716D01*
X118556657Y-77806106D01*
X118096322Y-78265637D01*
X117846884Y-78866352D01*
X117846316Y-79516795D01*
X118094706Y-80117943D01*
X118554237Y-80578278D01*
X119154952Y-80827716D01*
X119805395Y-80828284D01*
X120406543Y-80579894D01*
X120866878Y-80120363D01*
X121116316Y-79519648D01*
X121116884Y-78869205D01*
X121047681Y-78701721D01*
X121187401Y-78562001D01*
X121352148Y-78315439D01*
X121410000Y-78024600D01*
X121410000Y-74977440D01*
X122570000Y-74977440D01*
X122581600Y-74975257D01*
X122581600Y-85777000D01*
X99415600Y-85777000D01*
X99143895Y-85831046D01*
X98913554Y-85984954D01*
X98759646Y-86215295D01*
X98705600Y-86487000D01*
X98705600Y-109399000D01*
X93521600Y-109399000D01*
X93521600Y-102470967D01*
X94924434Y-102470967D01*
X95066479Y-102814743D01*
X95329269Y-103077992D01*
X95672797Y-103220638D01*
X96020112Y-103220941D01*
X96028838Y-103267317D01*
X96167910Y-103483441D01*
X96380110Y-103628431D01*
X96632000Y-103679440D01*
X97932000Y-103679440D01*
X98167317Y-103635162D01*
X98383441Y-103496090D01*
X98528431Y-103283890D01*
X98579440Y-103032000D01*
X98579440Y-101532000D01*
X98535162Y-101296683D01*
X98396090Y-101080559D01*
X98183890Y-100935569D01*
X97932000Y-100884560D01*
X96632000Y-100884560D01*
X96396683Y-100928838D01*
X96180559Y-101067910D01*
X96035569Y-101280110D01*
X96021226Y-101350940D01*
X95674429Y-101350638D01*
X95330653Y-101492683D01*
X95067404Y-101755473D01*
X94924758Y-102099001D01*
X94924434Y-102470967D01*
X93521600Y-102470967D01*
X93521600Y-94850967D01*
X94899038Y-94850967D01*
X95041083Y-95194743D01*
X95303873Y-95457992D01*
X95647401Y-95600638D01*
X96019367Y-95600962D01*
X96020062Y-95600675D01*
X96028838Y-95647317D01*
X96167910Y-95863441D01*
X96380110Y-96008431D01*
X96632000Y-96059440D01*
X97932000Y-96059440D01*
X98167317Y-96015162D01*
X98383441Y-95876090D01*
X98528431Y-95663890D01*
X98579440Y-95412000D01*
X98579440Y-93912000D01*
X98535162Y-93676683D01*
X98396090Y-93460559D01*
X98183890Y-93315569D01*
X97932000Y-93264560D01*
X96632000Y-93264560D01*
X96396683Y-93308838D01*
X96180559Y-93447910D01*
X96035569Y-93660110D01*
X96021204Y-93731047D01*
X96020999Y-93730962D01*
X95649033Y-93730638D01*
X95305257Y-93872683D01*
X95042008Y-94135473D01*
X94899362Y-94479001D01*
X94899038Y-94850967D01*
X93521600Y-94850967D01*
X93521600Y-87484967D01*
X95000638Y-87484967D01*
X95142683Y-87828743D01*
X95405473Y-88091992D01*
X95749001Y-88234638D01*
X96020099Y-88234874D01*
X96028838Y-88281317D01*
X96167910Y-88497441D01*
X96380110Y-88642431D01*
X96632000Y-88693440D01*
X97932000Y-88693440D01*
X98167317Y-88649162D01*
X98383441Y-88510090D01*
X98528431Y-88297890D01*
X98579440Y-88046000D01*
X98579440Y-86546000D01*
X98535162Y-86310683D01*
X98396090Y-86094559D01*
X98183890Y-85949569D01*
X97932000Y-85898560D01*
X96632000Y-85898560D01*
X96396683Y-85942838D01*
X96180559Y-86081910D01*
X96035569Y-86294110D01*
X96021239Y-86364874D01*
X95750633Y-86364638D01*
X95406857Y-86506683D01*
X95143608Y-86769473D01*
X95000962Y-87113001D01*
X95000638Y-87484967D01*
X93521600Y-87484967D01*
X93521600Y-79861167D01*
X94949838Y-79861167D01*
X95091883Y-80204943D01*
X95354673Y-80468192D01*
X95698201Y-80610838D01*
X96019392Y-80611118D01*
X96028838Y-80661317D01*
X96167910Y-80877441D01*
X96380110Y-81022431D01*
X96632000Y-81073440D01*
X97932000Y-81073440D01*
X98167317Y-81029162D01*
X98383441Y-80890090D01*
X98528431Y-80677890D01*
X98579440Y-80426000D01*
X98579440Y-78926000D01*
X98535162Y-78690683D01*
X98396090Y-78474559D01*
X98183890Y-78329569D01*
X97932000Y-78278560D01*
X96632000Y-78278560D01*
X96396683Y-78322838D01*
X96180559Y-78461910D01*
X96035569Y-78674110D01*
X96021999Y-78741119D01*
X95699833Y-78740838D01*
X95356057Y-78882883D01*
X95092808Y-79145673D01*
X94950162Y-79489201D01*
X94949838Y-79861167D01*
X93521600Y-79861167D01*
X93521600Y-72498967D01*
X94924438Y-72498967D01*
X95066483Y-72842743D01*
X95329273Y-73105992D01*
X95672801Y-73248638D01*
X96020112Y-73248941D01*
X96028838Y-73295317D01*
X96167910Y-73511441D01*
X96380110Y-73656431D01*
X96632000Y-73707440D01*
X97932000Y-73707440D01*
X98167317Y-73663162D01*
X98383441Y-73524090D01*
X98528431Y-73311890D01*
X98579440Y-73060000D01*
X98579440Y-71560000D01*
X98535162Y-71324683D01*
X98396090Y-71108559D01*
X98183890Y-70963569D01*
X97932000Y-70912560D01*
X96632000Y-70912560D01*
X96396683Y-70956838D01*
X96180559Y-71095910D01*
X96035569Y-71308110D01*
X96021226Y-71378940D01*
X95674433Y-71378638D01*
X95330657Y-71520683D01*
X95067408Y-71783473D01*
X94924762Y-72127001D01*
X94924438Y-72498967D01*
X93521600Y-72498967D01*
X93521600Y-64447167D01*
X95076838Y-64447167D01*
X95218883Y-64790943D01*
X95481673Y-65054192D01*
X95825201Y-65196838D01*
X95984560Y-65196977D01*
X95984560Y-65440000D01*
X96028838Y-65675317D01*
X96167910Y-65891441D01*
X96380110Y-66036431D01*
X96632000Y-66087440D01*
X97932000Y-66087440D01*
X98167317Y-66043162D01*
X98383441Y-65904090D01*
X98528431Y-65691890D01*
X98579440Y-65440000D01*
X98579440Y-63940000D01*
X98535162Y-63704683D01*
X98396090Y-63488559D01*
X98183890Y-63343569D01*
X97932000Y-63292560D01*
X96632000Y-63292560D01*
X96396683Y-63336838D01*
X96328211Y-63380899D01*
X96198799Y-63327162D01*
X95826833Y-63326838D01*
X95483057Y-63468883D01*
X95219808Y-63731673D01*
X95077162Y-64075201D01*
X95076838Y-64447167D01*
X93521600Y-64447167D01*
X93521600Y-60803907D01*
X95771600Y-60803907D01*
X95771600Y-60862093D01*
X95884639Y-61430378D01*
X96206546Y-61912147D01*
X96688315Y-62234054D01*
X97256600Y-62347093D01*
X97824885Y-62234054D01*
X98306654Y-61912147D01*
X98526600Y-61582974D01*
X98746546Y-61912147D01*
X99036600Y-62105954D01*
X99036600Y-81200133D01*
X99004404Y-81232273D01*
X98861758Y-81575801D01*
X98861434Y-81947767D01*
X99003479Y-82291543D01*
X99266269Y-82554792D01*
X99609797Y-82697438D01*
X99981763Y-82697762D01*
X100325539Y-82555717D01*
X100588788Y-82292927D01*
X100731434Y-81949399D01*
X100731758Y-81577433D01*
X100589713Y-81233657D01*
X100556600Y-81200486D01*
X100556600Y-73718167D01*
X102036438Y-73718167D01*
X102178483Y-74061943D01*
X102441273Y-74325192D01*
X102784801Y-74467838D01*
X103156767Y-74468162D01*
X103500543Y-74326117D01*
X103763792Y-74063327D01*
X103906438Y-73719799D01*
X103906762Y-73347833D01*
X103856600Y-73226431D01*
X103856600Y-70179730D01*
X103974710Y-70260431D01*
X104116600Y-70289164D01*
X104116600Y-70383404D01*
X104174452Y-70674243D01*
X104220925Y-70743795D01*
X104220834Y-70847967D01*
X104362879Y-71191743D01*
X104625669Y-71454992D01*
X104969197Y-71597638D01*
X105341163Y-71597962D01*
X105684939Y-71455917D01*
X105948188Y-71193127D01*
X106090834Y-70849599D01*
X106091158Y-70477633D01*
X105953307Y-70144006D01*
X105978041Y-70128090D01*
X106123031Y-69915890D01*
X106174040Y-69664000D01*
X106174040Y-69645634D01*
X109245743Y-69645634D01*
X109646053Y-70614458D01*
X110386643Y-71356342D01*
X111354767Y-71758342D01*
X112403034Y-71759257D01*
X113371858Y-71358947D01*
X114113742Y-70618357D01*
X114515742Y-69650233D01*
X114516657Y-68601966D01*
X114116347Y-67633142D01*
X113375757Y-66891258D01*
X112407633Y-66489258D01*
X111359366Y-66488343D01*
X110390542Y-66888653D01*
X109648658Y-67629243D01*
X109246658Y-68597367D01*
X109245743Y-69645634D01*
X106174040Y-69645634D01*
X106174040Y-68164000D01*
X106129762Y-67928683D01*
X105990690Y-67712559D01*
X105778490Y-67567569D01*
X105765403Y-67564919D01*
X105978041Y-67428090D01*
X106123031Y-67215890D01*
X106174040Y-66964000D01*
X106174040Y-65464000D01*
X106129762Y-65228683D01*
X105990690Y-65012559D01*
X105778490Y-64867569D01*
X105761600Y-64864149D01*
X105761600Y-64374575D01*
X105837388Y-64298787D01*
X105837391Y-64298785D01*
X105920435Y-64215740D01*
X106040543Y-64166113D01*
X106303792Y-63903323D01*
X106446438Y-63559795D01*
X106446762Y-63187829D01*
X106304717Y-62844053D01*
X106041927Y-62580804D01*
X105698399Y-62438158D01*
X105326433Y-62437834D01*
X104982657Y-62579879D01*
X104719408Y-62842669D01*
X104669034Y-62963982D01*
X104585811Y-63047205D01*
X104585809Y-63047208D01*
X104250810Y-63382206D01*
X104058967Y-63669321D01*
X104058967Y-63669322D01*
X103991599Y-64007996D01*
X103991600Y-64008001D01*
X103991600Y-64860778D01*
X103991283Y-64860838D01*
X103775159Y-64999910D01*
X103630169Y-65212110D01*
X103604202Y-65340337D01*
X103378716Y-65385190D01*
X103322525Y-65396367D01*
X103035410Y-65588210D01*
X103035408Y-65588213D01*
X102345810Y-66277810D01*
X102153967Y-66564925D01*
X102153967Y-66564926D01*
X102086599Y-66903600D01*
X102086600Y-66903605D01*
X102086600Y-73226178D01*
X102036762Y-73346201D01*
X102036438Y-73718167D01*
X100556600Y-73718167D01*
X100556600Y-62105954D01*
X100846654Y-61912147D01*
X101066600Y-61582974D01*
X101286546Y-61912147D01*
X101768315Y-62234054D01*
X102336600Y-62347093D01*
X102904885Y-62234054D01*
X103386654Y-61912147D01*
X103606600Y-61582974D01*
X103826546Y-61912147D01*
X104308315Y-62234054D01*
X104876600Y-62347093D01*
X105444885Y-62234054D01*
X105926654Y-61912147D01*
X106146600Y-61582974D01*
X106366546Y-61912147D01*
X106848315Y-62234054D01*
X107416600Y-62347093D01*
X107984885Y-62234054D01*
X108466654Y-61912147D01*
X108686600Y-61582974D01*
X108906546Y-61912147D01*
X109388315Y-62234054D01*
X109956600Y-62347093D01*
X110524885Y-62234054D01*
X111006654Y-61912147D01*
X111226600Y-61582974D01*
X111446546Y-61912147D01*
X111752859Y-62116818D01*
X111762000Y-62162774D01*
X111762000Y-63881000D01*
X111819852Y-64171839D01*
X111984599Y-64418401D01*
X115552400Y-67986202D01*
X115552400Y-74764062D01*
X115412829Y-74821732D01*
X115030912Y-75202982D01*
X114651843Y-74823249D01*
X114087870Y-74589067D01*
X113477209Y-74588535D01*
X112912829Y-74821732D01*
X112491704Y-75242122D01*
X112225924Y-75294990D01*
X112169733Y-75306167D01*
X111882618Y-75498010D01*
X111882616Y-75498013D01*
X109838810Y-77541818D01*
X109646967Y-77828933D01*
X109646967Y-77828934D01*
X109579599Y-78167608D01*
X109579600Y-78167613D01*
X109579600Y-81175995D01*
X109579599Y-81176000D01*
X109635790Y-81458484D01*
X109646967Y-81514675D01*
X109812622Y-81762596D01*
X109838810Y-81801790D01*
X111363458Y-83326437D01*
X111346884Y-83366352D01*
X111346316Y-84016795D01*
X111594706Y-84617943D01*
X112054237Y-85078278D01*
X112654952Y-85327716D01*
X113305395Y-85328284D01*
X113906543Y-85079894D01*
X114366878Y-84620363D01*
X114616316Y-84019648D01*
X114616318Y-84016795D01*
X117846316Y-84016795D01*
X118094706Y-84617943D01*
X118554237Y-85078278D01*
X119154952Y-85327716D01*
X119805395Y-85328284D01*
X120406543Y-85079894D01*
X120866878Y-84620363D01*
X121116316Y-84019648D01*
X121116884Y-83369205D01*
X120868494Y-82768057D01*
X120408963Y-82307722D01*
X119808248Y-82058284D01*
X119157805Y-82057716D01*
X118556657Y-82306106D01*
X118096322Y-82765637D01*
X117846884Y-83366352D01*
X117846316Y-84016795D01*
X114616318Y-84016795D01*
X114616884Y-83369205D01*
X114368494Y-82768057D01*
X113908963Y-82307722D01*
X113308248Y-82058284D01*
X112657805Y-82057716D01*
X112615412Y-82075233D01*
X111349600Y-80809420D01*
X111349600Y-79524743D01*
X111594706Y-80117943D01*
X112054237Y-80578278D01*
X112654952Y-80827716D01*
X113305395Y-80828284D01*
X113906543Y-80579894D01*
X114366878Y-80120363D01*
X114616316Y-79519648D01*
X114616884Y-78869205D01*
X114368494Y-78268057D01*
X113908963Y-77807722D01*
X113549833Y-77658599D01*
X114085191Y-77659065D01*
X114649571Y-77425868D01*
X115031488Y-77044618D01*
X115410557Y-77424351D01*
X115974530Y-77658533D01*
X116585191Y-77659065D01*
X117149571Y-77425868D01*
X117581751Y-76994443D01*
X117815933Y-76430470D01*
X117816465Y-75819809D01*
X117583268Y-75255429D01*
X117151843Y-74823249D01*
X117072400Y-74790261D01*
X117072400Y-67671400D01*
X117014548Y-67380561D01*
X116849801Y-67133999D01*
X113282000Y-63566198D01*
X113282000Y-62088983D01*
X113546654Y-61912147D01*
X113868561Y-61430378D01*
X113981600Y-60862093D01*
X113981600Y-60803907D01*
X113868561Y-60235622D01*
X113546654Y-59753853D01*
X113064885Y-59431946D01*
X112496600Y-59318907D01*
X111928315Y-59431946D01*
X111446546Y-59753853D01*
X111226600Y-60083026D01*
X111006654Y-59753853D01*
X110524885Y-59431946D01*
X109956600Y-59318907D01*
X109388315Y-59431946D01*
X108906546Y-59753853D01*
X108686600Y-60083026D01*
X108466654Y-59753853D01*
X107984885Y-59431946D01*
X107416600Y-59318907D01*
X106848315Y-59431946D01*
X106366546Y-59753853D01*
X106146600Y-60083026D01*
X105926654Y-59753853D01*
X105444885Y-59431946D01*
X104876600Y-59318907D01*
X104308315Y-59431946D01*
X103826546Y-59753853D01*
X103606600Y-60083026D01*
X103386654Y-59753853D01*
X102904885Y-59431946D01*
X102336600Y-59318907D01*
X101768315Y-59431946D01*
X101286546Y-59753853D01*
X101066600Y-60083026D01*
X100846654Y-59753853D01*
X100364885Y-59431946D01*
X99796600Y-59318907D01*
X99228315Y-59431946D01*
X98746546Y-59753853D01*
X98526600Y-60083026D01*
X98306654Y-59753853D01*
X97824885Y-59431946D01*
X97256600Y-59318907D01*
X96688315Y-59431946D01*
X96206546Y-59753853D01*
X95884639Y-60235622D01*
X95771600Y-60803907D01*
X93521600Y-60803907D01*
X93521600Y-59257000D01*
X115905155Y-59257000D01*
X115904838Y-59621167D01*
X115904838Y-59621167D01*
G37*
X115904838Y-59621167D02*
X115957507Y-59748637D01*
X115774683Y-59783038D01*
X115558559Y-59922110D01*
X115413569Y-60134310D01*
X115362560Y-60386200D01*
X115362560Y-61686200D01*
X115406838Y-61921517D01*
X115545910Y-62137641D01*
X115758110Y-62282631D01*
X115834021Y-62298003D01*
X115658559Y-62410910D01*
X115609629Y-62482522D01*
X115502799Y-62438162D01*
X115130833Y-62437838D01*
X114787057Y-62579883D01*
X114523808Y-62842673D01*
X114381162Y-63186201D01*
X114380838Y-63558167D01*
X114522883Y-63901943D01*
X114785673Y-64165192D01*
X115129201Y-64307838D01*
X115497024Y-64308158D01*
X115506838Y-64360317D01*
X115645910Y-64576441D01*
X115858110Y-64721431D01*
X116110000Y-64772440D01*
X117610000Y-64772440D01*
X117845317Y-64728162D01*
X118061441Y-64589090D01*
X118109134Y-64519289D01*
X118145910Y-64576441D01*
X118331767Y-64703431D01*
X117492599Y-65542599D01*
X117327852Y-65789161D01*
X117270000Y-66080000D01*
X117270000Y-71675000D01*
X117327852Y-71965839D01*
X117492599Y-72212401D01*
X119397599Y-74117401D01*
X119644161Y-74282148D01*
X119890000Y-74331049D01*
X119890000Y-77592230D01*
X119808248Y-77558284D01*
X119157805Y-77557716D01*
X118556657Y-77806106D01*
X118096322Y-78265637D01*
X117846884Y-78866352D01*
X117846316Y-79516795D01*
X118094706Y-80117943D01*
X118554237Y-80578278D01*
X119154952Y-80827716D01*
X119805395Y-80828284D01*
X120406543Y-80579894D01*
X120866878Y-80120363D01*
X121116316Y-79519648D01*
X121116884Y-78869205D01*
X121047681Y-78701721D01*
X121187401Y-78562001D01*
X121352148Y-78315439D01*
X121410000Y-78024600D01*
X121410000Y-74977440D01*
X122570000Y-74977440D01*
X122581600Y-74975257D01*
X122581600Y-85777000D01*
X99415600Y-85777000D01*
X99143895Y-85831046D01*
X98913554Y-85984954D01*
X98759646Y-86215295D01*
X98705600Y-86487000D01*
X98705600Y-109399000D01*
X93521600Y-109399000D01*
X93521600Y-102470967D01*
X94924434Y-102470967D01*
X95066479Y-102814743D01*
X95329269Y-103077992D01*
X95672797Y-103220638D01*
X96020112Y-103220941D01*
X96028838Y-103267317D01*
X96167910Y-103483441D01*
X96380110Y-103628431D01*
X96632000Y-103679440D01*
X97932000Y-103679440D01*
X98167317Y-103635162D01*
X98383441Y-103496090D01*
X98528431Y-103283890D01*
X98579440Y-103032000D01*
X98579440Y-101532000D01*
X98535162Y-101296683D01*
X98396090Y-101080559D01*
X98183890Y-100935569D01*
X97932000Y-100884560D01*
X96632000Y-100884560D01*
X96396683Y-100928838D01*
X96180559Y-101067910D01*
X96035569Y-101280110D01*
X96021226Y-101350940D01*
X95674429Y-101350638D01*
X95330653Y-101492683D01*
X95067404Y-101755473D01*
X94924758Y-102099001D01*
X94924434Y-102470967D01*
X93521600Y-102470967D01*
X93521600Y-94850967D01*
X94899038Y-94850967D01*
X95041083Y-95194743D01*
X95303873Y-95457992D01*
X95647401Y-95600638D01*
X96019367Y-95600962D01*
X96020062Y-95600675D01*
X96028838Y-95647317D01*
X96167910Y-95863441D01*
X96380110Y-96008431D01*
X96632000Y-96059440D01*
X97932000Y-96059440D01*
X98167317Y-96015162D01*
X98383441Y-95876090D01*
X98528431Y-95663890D01*
X98579440Y-95412000D01*
X98579440Y-93912000D01*
X98535162Y-93676683D01*
X98396090Y-93460559D01*
X98183890Y-93315569D01*
X97932000Y-93264560D01*
X96632000Y-93264560D01*
X96396683Y-93308838D01*
X96180559Y-93447910D01*
X96035569Y-93660110D01*
X96021204Y-93731047D01*
X96020999Y-93730962D01*
X95649033Y-93730638D01*
X95305257Y-93872683D01*
X95042008Y-94135473D01*
X94899362Y-94479001D01*
X94899038Y-94850967D01*
X93521600Y-94850967D01*
X93521600Y-87484967D01*
X95000638Y-87484967D01*
X95142683Y-87828743D01*
X95405473Y-88091992D01*
X95749001Y-88234638D01*
X96020099Y-88234874D01*
X96028838Y-88281317D01*
X96167910Y-88497441D01*
X96380110Y-88642431D01*
X96632000Y-88693440D01*
X97932000Y-88693440D01*
X98167317Y-88649162D01*
X98383441Y-88510090D01*
X98528431Y-88297890D01*
X98579440Y-88046000D01*
X98579440Y-86546000D01*
X98535162Y-86310683D01*
X98396090Y-86094559D01*
X98183890Y-85949569D01*
X97932000Y-85898560D01*
X96632000Y-85898560D01*
X96396683Y-85942838D01*
X96180559Y-86081910D01*
X96035569Y-86294110D01*
X96021239Y-86364874D01*
X95750633Y-86364638D01*
X95406857Y-86506683D01*
X95143608Y-86769473D01*
X95000962Y-87113001D01*
X95000638Y-87484967D01*
X93521600Y-87484967D01*
X93521600Y-79861167D01*
X94949838Y-79861167D01*
X95091883Y-80204943D01*
X95354673Y-80468192D01*
X95698201Y-80610838D01*
X96019392Y-80611118D01*
X96028838Y-80661317D01*
X96167910Y-80877441D01*
X96380110Y-81022431D01*
X96632000Y-81073440D01*
X97932000Y-81073440D01*
X98167317Y-81029162D01*
X98383441Y-80890090D01*
X98528431Y-80677890D01*
X98579440Y-80426000D01*
X98579440Y-78926000D01*
X98535162Y-78690683D01*
X98396090Y-78474559D01*
X98183890Y-78329569D01*
X97932000Y-78278560D01*
X96632000Y-78278560D01*
X96396683Y-78322838D01*
X96180559Y-78461910D01*
X96035569Y-78674110D01*
X96021999Y-78741119D01*
X95699833Y-78740838D01*
X95356057Y-78882883D01*
X95092808Y-79145673D01*
X94950162Y-79489201D01*
X94949838Y-79861167D01*
X93521600Y-79861167D01*
X93521600Y-72498967D01*
X94924438Y-72498967D01*
X95066483Y-72842743D01*
X95329273Y-73105992D01*
X95672801Y-73248638D01*
X96020112Y-73248941D01*
X96028838Y-73295317D01*
X96167910Y-73511441D01*
X96380110Y-73656431D01*
X96632000Y-73707440D01*
X97932000Y-73707440D01*
X98167317Y-73663162D01*
X98383441Y-73524090D01*
X98528431Y-73311890D01*
X98579440Y-73060000D01*
X98579440Y-71560000D01*
X98535162Y-71324683D01*
X98396090Y-71108559D01*
X98183890Y-70963569D01*
X97932000Y-70912560D01*
X96632000Y-70912560D01*
X96396683Y-70956838D01*
X96180559Y-71095910D01*
X96035569Y-71308110D01*
X96021226Y-71378940D01*
X95674433Y-71378638D01*
X95330657Y-71520683D01*
X95067408Y-71783473D01*
X94924762Y-72127001D01*
X94924438Y-72498967D01*
X93521600Y-72498967D01*
X93521600Y-64447167D01*
X95076838Y-64447167D01*
X95218883Y-64790943D01*
X95481673Y-65054192D01*
X95825201Y-65196838D01*
X95984560Y-65196977D01*
X95984560Y-65440000D01*
X96028838Y-65675317D01*
X96167910Y-65891441D01*
X96380110Y-66036431D01*
X96632000Y-66087440D01*
X97932000Y-66087440D01*
X98167317Y-66043162D01*
X98383441Y-65904090D01*
X98528431Y-65691890D01*
X98579440Y-65440000D01*
X98579440Y-63940000D01*
X98535162Y-63704683D01*
X98396090Y-63488559D01*
X98183890Y-63343569D01*
X97932000Y-63292560D01*
X96632000Y-63292560D01*
X96396683Y-63336838D01*
X96328211Y-63380899D01*
X96198799Y-63327162D01*
X95826833Y-63326838D01*
X95483057Y-63468883D01*
X95219808Y-63731673D01*
X95077162Y-64075201D01*
X95076838Y-64447167D01*
X93521600Y-64447167D01*
X93521600Y-60803907D01*
X95771600Y-60803907D01*
X95771600Y-60862093D01*
X95884639Y-61430378D01*
X96206546Y-61912147D01*
X96688315Y-62234054D01*
X97256600Y-62347093D01*
X97824885Y-62234054D01*
X98306654Y-61912147D01*
X98526600Y-61582974D01*
X98746546Y-61912147D01*
X99036600Y-62105954D01*
X99036600Y-81200133D01*
X99004404Y-81232273D01*
X98861758Y-81575801D01*
X98861434Y-81947767D01*
X99003479Y-82291543D01*
X99266269Y-82554792D01*
X99609797Y-82697438D01*
X99981763Y-82697762D01*
X100325539Y-82555717D01*
X100588788Y-82292927D01*
X100731434Y-81949399D01*
X100731758Y-81577433D01*
X100589713Y-81233657D01*
X100556600Y-81200486D01*
X100556600Y-73718167D01*
X102036438Y-73718167D01*
X102178483Y-74061943D01*
X102441273Y-74325192D01*
X102784801Y-74467838D01*
X103156767Y-74468162D01*
X103500543Y-74326117D01*
X103763792Y-74063327D01*
X103906438Y-73719799D01*
X103906762Y-73347833D01*
X103856600Y-73226431D01*
X103856600Y-70179730D01*
X103974710Y-70260431D01*
X104116600Y-70289164D01*
X104116600Y-70383404D01*
X104174452Y-70674243D01*
X104220925Y-70743795D01*
X104220834Y-70847967D01*
X104362879Y-71191743D01*
X104625669Y-71454992D01*
X104969197Y-71597638D01*
X105341163Y-71597962D01*
X105684939Y-71455917D01*
X105948188Y-71193127D01*
X106090834Y-70849599D01*
X106091158Y-70477633D01*
X105953307Y-70144006D01*
X105978041Y-70128090D01*
X106123031Y-69915890D01*
X106174040Y-69664000D01*
X106174040Y-69645634D01*
X109245743Y-69645634D01*
X109646053Y-70614458D01*
X110386643Y-71356342D01*
X111354767Y-71758342D01*
X112403034Y-71759257D01*
X113371858Y-71358947D01*
X114113742Y-70618357D01*
X114515742Y-69650233D01*
X114516657Y-68601966D01*
X114116347Y-67633142D01*
X113375757Y-66891258D01*
X112407633Y-66489258D01*
X111359366Y-66488343D01*
X110390542Y-66888653D01*
X109648658Y-67629243D01*
X109246658Y-68597367D01*
X109245743Y-69645634D01*
X106174040Y-69645634D01*
X106174040Y-68164000D01*
X106129762Y-67928683D01*
X105990690Y-67712559D01*
X105778490Y-67567569D01*
X105765403Y-67564919D01*
X105978041Y-67428090D01*
X106123031Y-67215890D01*
X106174040Y-66964000D01*
X106174040Y-65464000D01*
X106129762Y-65228683D01*
X105990690Y-65012559D01*
X105778490Y-64867569D01*
X105761600Y-64864149D01*
X105761600Y-64374575D01*
X105837388Y-64298787D01*
X105837391Y-64298785D01*
X105920435Y-64215740D01*
X106040543Y-64166113D01*
X106303792Y-63903323D01*
X106446438Y-63559795D01*
X106446762Y-63187829D01*
X106304717Y-62844053D01*
X106041927Y-62580804D01*
X105698399Y-62438158D01*
X105326433Y-62437834D01*
X104982657Y-62579879D01*
X104719408Y-62842669D01*
X104669034Y-62963982D01*
X104585811Y-63047205D01*
X104585809Y-63047208D01*
X104250810Y-63382206D01*
X104058967Y-63669321D01*
X104058967Y-63669322D01*
X103991599Y-64007996D01*
X103991600Y-64008001D01*
X103991600Y-64860778D01*
X103991283Y-64860838D01*
X103775159Y-64999910D01*
X103630169Y-65212110D01*
X103604202Y-65340337D01*
X103378716Y-65385190D01*
X103322525Y-65396367D01*
X103035410Y-65588210D01*
X103035408Y-65588213D01*
X102345810Y-66277810D01*
X102153967Y-66564925D01*
X102153967Y-66564926D01*
X102086599Y-66903600D01*
X102086600Y-66903605D01*
X102086600Y-73226178D01*
X102036762Y-73346201D01*
X102036438Y-73718167D01*
X100556600Y-73718167D01*
X100556600Y-62105954D01*
X100846654Y-61912147D01*
X101066600Y-61582974D01*
X101286546Y-61912147D01*
X101768315Y-62234054D01*
X102336600Y-62347093D01*
X102904885Y-62234054D01*
X103386654Y-61912147D01*
X103606600Y-61582974D01*
X103826546Y-61912147D01*
X104308315Y-62234054D01*
X104876600Y-62347093D01*
X105444885Y-62234054D01*
X105926654Y-61912147D01*
X106146600Y-61582974D01*
X106366546Y-61912147D01*
X106848315Y-62234054D01*
X107416600Y-62347093D01*
X107984885Y-62234054D01*
X108466654Y-61912147D01*
X108686600Y-61582974D01*
X108906546Y-61912147D01*
X109388315Y-62234054D01*
X109956600Y-62347093D01*
X110524885Y-62234054D01*
X111006654Y-61912147D01*
X111226600Y-61582974D01*
X111446546Y-61912147D01*
X111752859Y-62116818D01*
X111762000Y-62162774D01*
X111762000Y-63881000D01*
X111819852Y-64171839D01*
X111984599Y-64418401D01*
X115552400Y-67986202D01*
X115552400Y-74764062D01*
X115412829Y-74821732D01*
X115030912Y-75202982D01*
X114651843Y-74823249D01*
X114087870Y-74589067D01*
X113477209Y-74588535D01*
X112912829Y-74821732D01*
X112491704Y-75242122D01*
X112225924Y-75294990D01*
X112169733Y-75306167D01*
X111882618Y-75498010D01*
X111882616Y-75498013D01*
X109838810Y-77541818D01*
X109646967Y-77828933D01*
X109646967Y-77828934D01*
X109579599Y-78167608D01*
X109579600Y-78167613D01*
X109579600Y-81175995D01*
X109579599Y-81176000D01*
X109635790Y-81458484D01*
X109646967Y-81514675D01*
X109812622Y-81762596D01*
X109838810Y-81801790D01*
X111363458Y-83326437D01*
X111346884Y-83366352D01*
X111346316Y-84016795D01*
X111594706Y-84617943D01*
X112054237Y-85078278D01*
X112654952Y-85327716D01*
X113305395Y-85328284D01*
X113906543Y-85079894D01*
X114366878Y-84620363D01*
X114616316Y-84019648D01*
X114616318Y-84016795D01*
X117846316Y-84016795D01*
X118094706Y-84617943D01*
X118554237Y-85078278D01*
X119154952Y-85327716D01*
X119805395Y-85328284D01*
X120406543Y-85079894D01*
X120866878Y-84620363D01*
X121116316Y-84019648D01*
X121116884Y-83369205D01*
X120868494Y-82768057D01*
X120408963Y-82307722D01*
X119808248Y-82058284D01*
X119157805Y-82057716D01*
X118556657Y-82306106D01*
X118096322Y-82765637D01*
X117846884Y-83366352D01*
X117846316Y-84016795D01*
X114616318Y-84016795D01*
X114616884Y-83369205D01*
X114368494Y-82768057D01*
X113908963Y-82307722D01*
X113308248Y-82058284D01*
X112657805Y-82057716D01*
X112615412Y-82075233D01*
X111349600Y-80809420D01*
X111349600Y-79524743D01*
X111594706Y-80117943D01*
X112054237Y-80578278D01*
X112654952Y-80827716D01*
X113305395Y-80828284D01*
X113906543Y-80579894D01*
X114366878Y-80120363D01*
X114616316Y-79519648D01*
X114616884Y-78869205D01*
X114368494Y-78268057D01*
X113908963Y-77807722D01*
X113549833Y-77658599D01*
X114085191Y-77659065D01*
X114649571Y-77425868D01*
X115031488Y-77044618D01*
X115410557Y-77424351D01*
X115974530Y-77658533D01*
X116585191Y-77659065D01*
X117149571Y-77425868D01*
X117581751Y-76994443D01*
X117815933Y-76430470D01*
X117816465Y-75819809D01*
X117583268Y-75255429D01*
X117151843Y-74823249D01*
X117072400Y-74790261D01*
X117072400Y-67671400D01*
X117014548Y-67380561D01*
X116849801Y-67133999D01*
X113282000Y-63566198D01*
X113282000Y-62088983D01*
X113546654Y-61912147D01*
X113868561Y-61430378D01*
X113981600Y-60862093D01*
X113981600Y-60803907D01*
X113868561Y-60235622D01*
X113546654Y-59753853D01*
X113064885Y-59431946D01*
X112496600Y-59318907D01*
X111928315Y-59431946D01*
X111446546Y-59753853D01*
X111226600Y-60083026D01*
X111006654Y-59753853D01*
X110524885Y-59431946D01*
X109956600Y-59318907D01*
X109388315Y-59431946D01*
X108906546Y-59753853D01*
X108686600Y-60083026D01*
X108466654Y-59753853D01*
X107984885Y-59431946D01*
X107416600Y-59318907D01*
X106848315Y-59431946D01*
X106366546Y-59753853D01*
X106146600Y-60083026D01*
X105926654Y-59753853D01*
X105444885Y-59431946D01*
X104876600Y-59318907D01*
X104308315Y-59431946D01*
X103826546Y-59753853D01*
X103606600Y-60083026D01*
X103386654Y-59753853D01*
X102904885Y-59431946D01*
X102336600Y-59318907D01*
X101768315Y-59431946D01*
X101286546Y-59753853D01*
X101066600Y-60083026D01*
X100846654Y-59753853D01*
X100364885Y-59431946D01*
X99796600Y-59318907D01*
X99228315Y-59431946D01*
X98746546Y-59753853D01*
X98526600Y-60083026D01*
X98306654Y-59753853D01*
X97824885Y-59431946D01*
X97256600Y-59318907D01*
X96688315Y-59431946D01*
X96206546Y-59753853D01*
X95884639Y-60235622D01*
X95771600Y-60803907D01*
X93521600Y-60803907D01*
X93521600Y-59257000D01*
X115905155Y-59257000D01*
X115904838Y-59621167D01*
G36*
X137795000Y-120370600D02*
X137805006Y-120420010D01*
X137833447Y-120461635D01*
X137875841Y-120488915D01*
X137922000Y-120497600D01*
X144907000Y-120497600D01*
X144907000Y-122910600D01*
X144917006Y-122960010D01*
X144945447Y-123001635D01*
X144987841Y-123028915D01*
X145034000Y-123037600D01*
X147828000Y-123037600D01*
X147877410Y-123027594D01*
X147919035Y-122999153D01*
X147946315Y-122956759D01*
X147955000Y-122910600D01*
X147955000Y-120497600D01*
X150596600Y-120497600D01*
X150596600Y-125881761D01*
X145669638Y-125857002D01*
X145669000Y-125857000D01*
X141909800Y-125857000D01*
X141860390Y-125867006D01*
X141818765Y-125895447D01*
X141791485Y-125937841D01*
X141782802Y-125984655D01*
X141787032Y-126805189D01*
X141152029Y-126380894D01*
X140335000Y-126218377D01*
X139517971Y-126380894D01*
X138825327Y-126843704D01*
X138362517Y-127536348D01*
X138334750Y-127675942D01*
X138306983Y-127536348D01*
X137844173Y-126843704D01*
X137151529Y-126380894D01*
X136334500Y-126218377D01*
X135517471Y-126380894D01*
X134824827Y-126843704D01*
X134362017Y-127536348D01*
X134199500Y-128353377D01*
X134199500Y-129456623D01*
X134362017Y-130273652D01*
X134703422Y-130784600D01*
X126059000Y-130784600D01*
X126059000Y-113947000D01*
X126730560Y-113947000D01*
X126730560Y-117447000D01*
X126774838Y-117682317D01*
X126913910Y-117898441D01*
X127126110Y-118043431D01*
X127378000Y-118094440D01*
X130064045Y-118094440D01*
X129926559Y-118182910D01*
X129781569Y-118395110D01*
X129730560Y-118647000D01*
X129730560Y-122147000D01*
X129774838Y-122382317D01*
X129913910Y-122598441D01*
X130126110Y-122743431D01*
X130378000Y-122794440D01*
X133878000Y-122794440D01*
X134113317Y-122750162D01*
X134329441Y-122611090D01*
X134474431Y-122398890D01*
X134525440Y-122147000D01*
X134525440Y-118647000D01*
X134481162Y-118411683D01*
X134342090Y-118195559D01*
X134175891Y-118082000D01*
X134842250Y-118082000D01*
X135001000Y-117923250D01*
X135001000Y-115824000D01*
X135255000Y-115824000D01*
X135255000Y-117923250D01*
X135413750Y-118082000D01*
X137004309Y-118082000D01*
X137237698Y-117985327D01*
X137416327Y-117806699D01*
X137513000Y-117573310D01*
X137513000Y-115982750D01*
X137354250Y-115824000D01*
X135255000Y-115824000D01*
X135001000Y-115824000D01*
X132901750Y-115824000D01*
X132743000Y-115982750D01*
X132743000Y-117573310D01*
X132839673Y-117806699D01*
X133018302Y-117985327D01*
X133052663Y-117999560D01*
X131191955Y-117999560D01*
X131329441Y-117911090D01*
X131474431Y-117698890D01*
X131525440Y-117447000D01*
X131525440Y-113947000D01*
X131501674Y-113820690D01*
X132743000Y-113820690D01*
X132743000Y-115411250D01*
X132901750Y-115570000D01*
X135001000Y-115570000D01*
X135001000Y-113470750D01*
X135255000Y-113470750D01*
X135255000Y-115570000D01*
X137354250Y-115570000D01*
X137513000Y-115411250D01*
X137513000Y-113820690D01*
X137416327Y-113587301D01*
X137237698Y-113408673D01*
X137004309Y-113312000D01*
X135413750Y-113312000D01*
X135255000Y-113470750D01*
X135001000Y-113470750D01*
X134842250Y-113312000D01*
X133251691Y-113312000D01*
X133018302Y-113408673D01*
X132839673Y-113587301D01*
X132743000Y-113820690D01*
X131501674Y-113820690D01*
X131481162Y-113711683D01*
X131342090Y-113495559D01*
X131129890Y-113350569D01*
X130878000Y-113299560D01*
X127378000Y-113299560D01*
X127142683Y-113343838D01*
X126926559Y-113482910D01*
X126781569Y-113695110D01*
X126730560Y-113947000D01*
X126059000Y-113947000D01*
X126059000Y-111963200D01*
X137795000Y-111963200D01*
X137795000Y-120370600D01*
X137795000Y-120370600D01*
G37*
X137795000Y-120370600D02*
X137805006Y-120420010D01*
X137833447Y-120461635D01*
X137875841Y-120488915D01*
X137922000Y-120497600D01*
X144907000Y-120497600D01*
X144907000Y-122910600D01*
X144917006Y-122960010D01*
X144945447Y-123001635D01*
X144987841Y-123028915D01*
X145034000Y-123037600D01*
X147828000Y-123037600D01*
X147877410Y-123027594D01*
X147919035Y-122999153D01*
X147946315Y-122956759D01*
X147955000Y-122910600D01*
X147955000Y-120497600D01*
X150596600Y-120497600D01*
X150596600Y-125881761D01*
X145669638Y-125857002D01*
X145669000Y-125857000D01*
X141909800Y-125857000D01*
X141860390Y-125867006D01*
X141818765Y-125895447D01*
X141791485Y-125937841D01*
X141782802Y-125984655D01*
X141787032Y-126805189D01*
X141152029Y-126380894D01*
X140335000Y-126218377D01*
X139517971Y-126380894D01*
X138825327Y-126843704D01*
X138362517Y-127536348D01*
X138334750Y-127675942D01*
X138306983Y-127536348D01*
X137844173Y-126843704D01*
X137151529Y-126380894D01*
X136334500Y-126218377D01*
X135517471Y-126380894D01*
X134824827Y-126843704D01*
X134362017Y-127536348D01*
X134199500Y-128353377D01*
X134199500Y-129456623D01*
X134362017Y-130273652D01*
X134703422Y-130784600D01*
X126059000Y-130784600D01*
X126059000Y-113947000D01*
X126730560Y-113947000D01*
X126730560Y-117447000D01*
X126774838Y-117682317D01*
X126913910Y-117898441D01*
X127126110Y-118043431D01*
X127378000Y-118094440D01*
X130064045Y-118094440D01*
X129926559Y-118182910D01*
X129781569Y-118395110D01*
X129730560Y-118647000D01*
X129730560Y-122147000D01*
X129774838Y-122382317D01*
X129913910Y-122598441D01*
X130126110Y-122743431D01*
X130378000Y-122794440D01*
X133878000Y-122794440D01*
X134113317Y-122750162D01*
X134329441Y-122611090D01*
X134474431Y-122398890D01*
X134525440Y-122147000D01*
X134525440Y-118647000D01*
X134481162Y-118411683D01*
X134342090Y-118195559D01*
X134175891Y-118082000D01*
X134842250Y-118082000D01*
X135001000Y-117923250D01*
X135001000Y-115824000D01*
X135255000Y-115824000D01*
X135255000Y-117923250D01*
X135413750Y-118082000D01*
X137004309Y-118082000D01*
X137237698Y-117985327D01*
X137416327Y-117806699D01*
X137513000Y-117573310D01*
X137513000Y-115982750D01*
X137354250Y-115824000D01*
X135255000Y-115824000D01*
X135001000Y-115824000D01*
X132901750Y-115824000D01*
X132743000Y-115982750D01*
X132743000Y-117573310D01*
X132839673Y-117806699D01*
X133018302Y-117985327D01*
X133052663Y-117999560D01*
X131191955Y-117999560D01*
X131329441Y-117911090D01*
X131474431Y-117698890D01*
X131525440Y-117447000D01*
X131525440Y-113947000D01*
X131501674Y-113820690D01*
X132743000Y-113820690D01*
X132743000Y-115411250D01*
X132901750Y-115570000D01*
X135001000Y-115570000D01*
X135001000Y-113470750D01*
X135255000Y-113470750D01*
X135255000Y-115570000D01*
X137354250Y-115570000D01*
X137513000Y-115411250D01*
X137513000Y-113820690D01*
X137416327Y-113587301D01*
X137237698Y-113408673D01*
X137004309Y-113312000D01*
X135413750Y-113312000D01*
X135255000Y-113470750D01*
X135001000Y-113470750D01*
X134842250Y-113312000D01*
X133251691Y-113312000D01*
X133018302Y-113408673D01*
X132839673Y-113587301D01*
X132743000Y-113820690D01*
X131501674Y-113820690D01*
X131481162Y-113711683D01*
X131342090Y-113495559D01*
X131129890Y-113350569D01*
X130878000Y-113299560D01*
X127378000Y-113299560D01*
X127142683Y-113343838D01*
X126926559Y-113482910D01*
X126781569Y-113695110D01*
X126730560Y-113947000D01*
X126059000Y-113947000D01*
X126059000Y-111963200D01*
X137795000Y-111963200D01*
X137795000Y-120370600D01*
G36*
X149150000Y-58420000D02*
X149204046Y-58691705D01*
X149357954Y-58922046D01*
X149588295Y-59075954D01*
X149860000Y-59130000D01*
X155119000Y-59130000D01*
X155119000Y-78740000D01*
X143256000Y-78740000D01*
X143206590Y-78750006D01*
X143164965Y-78778447D01*
X143137685Y-78820841D01*
X143129000Y-78867000D01*
X143129000Y-81280000D01*
X133096000Y-81280000D01*
X133046590Y-81290006D01*
X133004965Y-81318447D01*
X132977685Y-81360841D01*
X132969000Y-81407000D01*
X132969000Y-107950000D01*
X126059000Y-107950000D01*
X126059000Y-77070967D01*
X137596438Y-77070967D01*
X137738483Y-77414743D01*
X138001273Y-77677992D01*
X138344801Y-77820638D01*
X138716767Y-77820962D01*
X139060543Y-77678917D01*
X139247602Y-77492184D01*
X139247438Y-77680567D01*
X139389483Y-78024343D01*
X139652273Y-78287592D01*
X139995801Y-78430238D01*
X140367767Y-78430562D01*
X140711543Y-78288517D01*
X140974792Y-78025727D01*
X141117438Y-77682199D01*
X141117762Y-77310233D01*
X140975717Y-76966457D01*
X140942600Y-76933282D01*
X140942600Y-75877167D01*
X141203238Y-75877167D01*
X141345283Y-76220943D01*
X141403800Y-76279562D01*
X141403800Y-78380737D01*
X141371608Y-78412873D01*
X141228962Y-78756401D01*
X141228638Y-79128367D01*
X141370683Y-79472143D01*
X141633473Y-79735392D01*
X141977001Y-79878038D01*
X142348967Y-79878362D01*
X142692743Y-79736317D01*
X142955992Y-79473527D01*
X143098638Y-79129999D01*
X143098962Y-78758033D01*
X142956917Y-78414257D01*
X142923800Y-78381082D01*
X142923800Y-76229107D01*
X142930592Y-76222327D01*
X143073238Y-75878799D01*
X143073562Y-75506833D01*
X142931517Y-75163057D01*
X142668727Y-74899808D01*
X142325199Y-74757162D01*
X141953233Y-74756838D01*
X141609457Y-74898883D01*
X141346208Y-75161673D01*
X141203562Y-75505201D01*
X141203238Y-75877167D01*
X140942600Y-75877167D01*
X140942600Y-75244802D01*
X143147382Y-73040020D01*
X143221601Y-73070838D01*
X143593567Y-73071162D01*
X143937343Y-72929117D01*
X144200592Y-72666327D01*
X144343238Y-72322799D01*
X144343562Y-71950833D01*
X144201517Y-71607057D01*
X143938727Y-71343808D01*
X143595199Y-71201162D01*
X143223233Y-71200838D01*
X142879457Y-71342883D01*
X142813853Y-71408373D01*
X142685761Y-71433852D01*
X142439199Y-71598599D01*
X139645199Y-74392599D01*
X139480452Y-74639161D01*
X139422600Y-74930000D01*
X139422600Y-76593753D01*
X139324717Y-76356857D01*
X139266200Y-76298238D01*
X139266200Y-74025602D01*
X141109680Y-72182122D01*
X141155167Y-72182162D01*
X141498943Y-72040117D01*
X141762192Y-71777327D01*
X141904838Y-71433799D01*
X141905162Y-71061833D01*
X141763117Y-70718057D01*
X141500327Y-70454808D01*
X141156799Y-70312162D01*
X140784833Y-70311838D01*
X140441057Y-70453883D01*
X140177808Y-70716673D01*
X140035162Y-71060201D01*
X140035121Y-71107077D01*
X137968799Y-73173399D01*
X137804052Y-73419961D01*
X137746200Y-73710800D01*
X137746200Y-76348693D01*
X137739408Y-76355473D01*
X137596762Y-76699001D01*
X137596438Y-77070967D01*
X126059000Y-77070967D01*
X126059000Y-71829285D01*
X131964760Y-71829285D01*
X132175169Y-72338515D01*
X132564436Y-72728461D01*
X133073298Y-72939759D01*
X133624285Y-72940240D01*
X134133515Y-72729831D01*
X134523461Y-72340564D01*
X134734759Y-71831702D01*
X134735240Y-71280715D01*
X134524831Y-70771485D01*
X134135564Y-70381539D01*
X133626702Y-70170241D01*
X133075715Y-70169760D01*
X132566485Y-70380169D01*
X132176539Y-70769436D01*
X131965241Y-71278298D01*
X131964760Y-71829285D01*
X126059000Y-71829285D01*
X126059000Y-66949285D01*
X131964760Y-66949285D01*
X132175169Y-67458515D01*
X132564436Y-67848461D01*
X133073298Y-68059759D01*
X133624285Y-68060240D01*
X134133515Y-67849831D01*
X134523461Y-67460564D01*
X134734759Y-66951702D01*
X134735240Y-66400715D01*
X134524831Y-65891485D01*
X134135564Y-65501539D01*
X133626702Y-65290241D01*
X133075715Y-65289760D01*
X132566485Y-65500169D01*
X132176539Y-65889436D01*
X131965241Y-66398298D01*
X131964760Y-66949285D01*
X126059000Y-66949285D01*
X126059000Y-62100416D01*
X126277690Y-62191000D01*
X126968250Y-62191000D01*
X127127000Y-62032250D01*
X127127000Y-60833000D01*
X127107000Y-60833000D01*
X127107000Y-60579000D01*
X127127000Y-60579000D01*
X127127000Y-59379750D01*
X127381000Y-59379750D01*
X127381000Y-60579000D01*
X127401000Y-60579000D01*
X127401000Y-60833000D01*
X127381000Y-60833000D01*
X127381000Y-62032250D01*
X127539750Y-62191000D01*
X128230310Y-62191000D01*
X128463699Y-62094327D01*
X128642327Y-61915698D01*
X128714597Y-61741223D01*
X128743946Y-61785147D01*
X129225715Y-62107054D01*
X129794000Y-62220093D01*
X130362285Y-62107054D01*
X130844054Y-61785147D01*
X131064000Y-61455974D01*
X131283946Y-61785147D01*
X131765715Y-62107054D01*
X132334000Y-62220093D01*
X132902285Y-62107054D01*
X133384054Y-61785147D01*
X133604000Y-61455974D01*
X133823946Y-61785147D01*
X134305715Y-62107054D01*
X134874000Y-62220093D01*
X135442285Y-62107054D01*
X135924054Y-61785147D01*
X136144000Y-61455974D01*
X136363946Y-61785147D01*
X136845715Y-62107054D01*
X137414000Y-62220093D01*
X137982285Y-62107054D01*
X138464054Y-61785147D01*
X138684000Y-61455974D01*
X138903946Y-61785147D01*
X139385715Y-62107054D01*
X139954000Y-62220093D01*
X140522285Y-62107054D01*
X141004054Y-61785147D01*
X141224000Y-61455974D01*
X141443946Y-61785147D01*
X141695781Y-61953417D01*
X141340998Y-62308200D01*
X136779000Y-62308200D01*
X136488161Y-62366052D01*
X136241599Y-62530799D01*
X135098599Y-63673799D01*
X134933852Y-63920361D01*
X134876000Y-64211200D01*
X134876000Y-71907400D01*
X134933852Y-72198239D01*
X135098599Y-72444801D01*
X135310478Y-72656680D01*
X135310438Y-72702167D01*
X135452483Y-73045943D01*
X135715273Y-73309192D01*
X136058801Y-73451838D01*
X136430767Y-73452162D01*
X136774543Y-73310117D01*
X137037792Y-73047327D01*
X137180438Y-72703799D01*
X137180762Y-72331833D01*
X137038717Y-71988057D01*
X136775927Y-71724808D01*
X136432399Y-71582162D01*
X136396000Y-71582130D01*
X136396000Y-67532250D01*
X140176500Y-67532250D01*
X140176500Y-67997810D01*
X140273173Y-68231199D01*
X140451802Y-68409827D01*
X140685191Y-68506500D01*
X141275750Y-68506500D01*
X141434500Y-68347750D01*
X141434500Y-67373500D01*
X140335250Y-67373500D01*
X140176500Y-67532250D01*
X136396000Y-67532250D01*
X136396000Y-66495190D01*
X140176500Y-66495190D01*
X140176500Y-66960750D01*
X140335250Y-67119500D01*
X141434500Y-67119500D01*
X141434500Y-66145250D01*
X141275750Y-65986500D01*
X140685191Y-65986500D01*
X140451802Y-66083173D01*
X140273173Y-66261801D01*
X140176500Y-66495190D01*
X136396000Y-66495190D01*
X136396000Y-64526002D01*
X137093802Y-63828200D01*
X141655800Y-63828200D01*
X141946639Y-63770348D01*
X142193201Y-63605601D01*
X143031401Y-62767401D01*
X143196148Y-62520839D01*
X143254000Y-62230000D01*
X143254000Y-61978954D01*
X143544054Y-61785147D01*
X143764000Y-61455974D01*
X143983946Y-61785147D01*
X144465715Y-62107054D01*
X144845500Y-62182598D01*
X144845500Y-65980945D01*
X144811500Y-65974060D01*
X143311500Y-65974060D01*
X143076183Y-66018338D01*
X142860059Y-66157410D01*
X142813531Y-66225506D01*
X142671198Y-66083173D01*
X142437809Y-65986500D01*
X141847250Y-65986500D01*
X141688500Y-66145250D01*
X141688500Y-67119500D01*
X141708500Y-67119500D01*
X141708500Y-67373500D01*
X141688500Y-67373500D01*
X141688500Y-68347750D01*
X141847250Y-68506500D01*
X142437809Y-68506500D01*
X142671198Y-68409827D01*
X142812436Y-68268590D01*
X142847410Y-68322941D01*
X143059610Y-68467931D01*
X143184253Y-68493172D01*
X143146662Y-68583701D01*
X143146338Y-68955667D01*
X143288383Y-69299443D01*
X143551173Y-69562692D01*
X143894701Y-69705338D01*
X144266667Y-69705662D01*
X144610443Y-69563617D01*
X144873692Y-69300827D01*
X145016338Y-68957299D01*
X145016662Y-68585333D01*
X144976408Y-68487910D01*
X145046817Y-68474662D01*
X145262941Y-68335590D01*
X145407931Y-68123390D01*
X145458940Y-67871500D01*
X145458940Y-67546373D01*
X145790667Y-67546662D01*
X146134443Y-67404617D01*
X146397692Y-67141827D01*
X146540338Y-66798299D01*
X146540662Y-66426333D01*
X146398617Y-66082557D01*
X146365500Y-66049382D01*
X146365500Y-61363932D01*
X146405961Y-61303378D01*
X146519000Y-60735093D01*
X146519000Y-60676907D01*
X146405961Y-60108622D01*
X146084054Y-59626853D01*
X145602285Y-59304946D01*
X145034000Y-59191907D01*
X144465715Y-59304946D01*
X143983946Y-59626853D01*
X143764000Y-59956026D01*
X143544054Y-59626853D01*
X143062285Y-59304946D01*
X142494000Y-59191907D01*
X141925715Y-59304946D01*
X141443946Y-59626853D01*
X141224000Y-59956026D01*
X141004054Y-59626853D01*
X140522285Y-59304946D01*
X139954000Y-59191907D01*
X139385715Y-59304946D01*
X138903946Y-59626853D01*
X138684000Y-59956026D01*
X138464054Y-59626853D01*
X137982285Y-59304946D01*
X137414000Y-59191907D01*
X136845715Y-59304946D01*
X136363946Y-59626853D01*
X136144000Y-59956026D01*
X135924054Y-59626853D01*
X135442285Y-59304946D01*
X134874000Y-59191907D01*
X134305715Y-59304946D01*
X133823946Y-59626853D01*
X133604000Y-59956026D01*
X133384054Y-59626853D01*
X132902285Y-59304946D01*
X132334000Y-59191907D01*
X131765715Y-59304946D01*
X131283946Y-59626853D01*
X131064000Y-59956026D01*
X130844054Y-59626853D01*
X130362285Y-59304946D01*
X129794000Y-59191907D01*
X129225715Y-59304946D01*
X128743946Y-59626853D01*
X128714597Y-59670777D01*
X128642327Y-59496302D01*
X128463699Y-59317673D01*
X128230310Y-59221000D01*
X127539750Y-59221000D01*
X127381000Y-59379750D01*
X127127000Y-59379750D01*
X126968250Y-59221000D01*
X126277690Y-59221000D01*
X126059000Y-59311584D01*
X126059000Y-59130000D01*
X131318000Y-59130000D01*
X131589705Y-59075954D01*
X131820046Y-58922046D01*
X131973954Y-58691705D01*
X132028000Y-58420000D01*
X132028000Y-55469907D01*
X134024000Y-55469907D01*
X134024000Y-55528093D01*
X134137039Y-56096378D01*
X134458946Y-56578147D01*
X134940715Y-56900054D01*
X135509000Y-57013093D01*
X136077285Y-56900054D01*
X136559054Y-56578147D01*
X136779000Y-56248974D01*
X136998946Y-56578147D01*
X137480715Y-56900054D01*
X138049000Y-57013093D01*
X138617285Y-56900054D01*
X139099054Y-56578147D01*
X139319000Y-56248974D01*
X139538946Y-56578147D01*
X140020715Y-56900054D01*
X140589000Y-57013093D01*
X141157285Y-56900054D01*
X141639054Y-56578147D01*
X141666850Y-56536548D01*
X141675838Y-56584317D01*
X141814910Y-56800441D01*
X142027110Y-56945431D01*
X142279000Y-56996440D01*
X143979000Y-56996440D01*
X144214317Y-56952162D01*
X144430441Y-56813090D01*
X144575431Y-56600890D01*
X144626440Y-56349000D01*
X144626440Y-54649000D01*
X144582162Y-54413683D01*
X144443090Y-54197559D01*
X144230890Y-54052569D01*
X143979000Y-54001560D01*
X142279000Y-54001560D01*
X142043683Y-54045838D01*
X141827559Y-54184910D01*
X141682569Y-54397110D01*
X141668914Y-54464541D01*
X141639054Y-54419853D01*
X141157285Y-54097946D01*
X140589000Y-53984907D01*
X140020715Y-54097946D01*
X139538946Y-54419853D01*
X139319000Y-54749026D01*
X139099054Y-54419853D01*
X138617285Y-54097946D01*
X138049000Y-53984907D01*
X137480715Y-54097946D01*
X136998946Y-54419853D01*
X136779000Y-54749026D01*
X136559054Y-54419853D01*
X136077285Y-54097946D01*
X135509000Y-53984907D01*
X134940715Y-54097946D01*
X134458946Y-54419853D01*
X134137039Y-54901622D01*
X134024000Y-55469907D01*
X132028000Y-55469907D01*
X132028000Y-53161000D01*
X149150000Y-53161000D01*
X149150000Y-58420000D01*
X149150000Y-58420000D01*
G37*
X149150000Y-58420000D02*
X149204046Y-58691705D01*
X149357954Y-58922046D01*
X149588295Y-59075954D01*
X149860000Y-59130000D01*
X155119000Y-59130000D01*
X155119000Y-78740000D01*
X143256000Y-78740000D01*
X143206590Y-78750006D01*
X143164965Y-78778447D01*
X143137685Y-78820841D01*
X143129000Y-78867000D01*
X143129000Y-81280000D01*
X133096000Y-81280000D01*
X133046590Y-81290006D01*
X133004965Y-81318447D01*
X132977685Y-81360841D01*
X132969000Y-81407000D01*
X132969000Y-107950000D01*
X126059000Y-107950000D01*
X126059000Y-77070967D01*
X137596438Y-77070967D01*
X137738483Y-77414743D01*
X138001273Y-77677992D01*
X138344801Y-77820638D01*
X138716767Y-77820962D01*
X139060543Y-77678917D01*
X139247602Y-77492184D01*
X139247438Y-77680567D01*
X139389483Y-78024343D01*
X139652273Y-78287592D01*
X139995801Y-78430238D01*
X140367767Y-78430562D01*
X140711543Y-78288517D01*
X140974792Y-78025727D01*
X141117438Y-77682199D01*
X141117762Y-77310233D01*
X140975717Y-76966457D01*
X140942600Y-76933282D01*
X140942600Y-75877167D01*
X141203238Y-75877167D01*
X141345283Y-76220943D01*
X141403800Y-76279562D01*
X141403800Y-78380737D01*
X141371608Y-78412873D01*
X141228962Y-78756401D01*
X141228638Y-79128367D01*
X141370683Y-79472143D01*
X141633473Y-79735392D01*
X141977001Y-79878038D01*
X142348967Y-79878362D01*
X142692743Y-79736317D01*
X142955992Y-79473527D01*
X143098638Y-79129999D01*
X143098962Y-78758033D01*
X142956917Y-78414257D01*
X142923800Y-78381082D01*
X142923800Y-76229107D01*
X142930592Y-76222327D01*
X143073238Y-75878799D01*
X143073562Y-75506833D01*
X142931517Y-75163057D01*
X142668727Y-74899808D01*
X142325199Y-74757162D01*
X141953233Y-74756838D01*
X141609457Y-74898883D01*
X141346208Y-75161673D01*
X141203562Y-75505201D01*
X141203238Y-75877167D01*
X140942600Y-75877167D01*
X140942600Y-75244802D01*
X143147382Y-73040020D01*
X143221601Y-73070838D01*
X143593567Y-73071162D01*
X143937343Y-72929117D01*
X144200592Y-72666327D01*
X144343238Y-72322799D01*
X144343562Y-71950833D01*
X144201517Y-71607057D01*
X143938727Y-71343808D01*
X143595199Y-71201162D01*
X143223233Y-71200838D01*
X142879457Y-71342883D01*
X142813853Y-71408373D01*
X142685761Y-71433852D01*
X142439199Y-71598599D01*
X139645199Y-74392599D01*
X139480452Y-74639161D01*
X139422600Y-74930000D01*
X139422600Y-76593753D01*
X139324717Y-76356857D01*
X139266200Y-76298238D01*
X139266200Y-74025602D01*
X141109680Y-72182122D01*
X141155167Y-72182162D01*
X141498943Y-72040117D01*
X141762192Y-71777327D01*
X141904838Y-71433799D01*
X141905162Y-71061833D01*
X141763117Y-70718057D01*
X141500327Y-70454808D01*
X141156799Y-70312162D01*
X140784833Y-70311838D01*
X140441057Y-70453883D01*
X140177808Y-70716673D01*
X140035162Y-71060201D01*
X140035121Y-71107077D01*
X137968799Y-73173399D01*
X137804052Y-73419961D01*
X137746200Y-73710800D01*
X137746200Y-76348693D01*
X137739408Y-76355473D01*
X137596762Y-76699001D01*
X137596438Y-77070967D01*
X126059000Y-77070967D01*
X126059000Y-71829285D01*
X131964760Y-71829285D01*
X132175169Y-72338515D01*
X132564436Y-72728461D01*
X133073298Y-72939759D01*
X133624285Y-72940240D01*
X134133515Y-72729831D01*
X134523461Y-72340564D01*
X134734759Y-71831702D01*
X134735240Y-71280715D01*
X134524831Y-70771485D01*
X134135564Y-70381539D01*
X133626702Y-70170241D01*
X133075715Y-70169760D01*
X132566485Y-70380169D01*
X132176539Y-70769436D01*
X131965241Y-71278298D01*
X131964760Y-71829285D01*
X126059000Y-71829285D01*
X126059000Y-66949285D01*
X131964760Y-66949285D01*
X132175169Y-67458515D01*
X132564436Y-67848461D01*
X133073298Y-68059759D01*
X133624285Y-68060240D01*
X134133515Y-67849831D01*
X134523461Y-67460564D01*
X134734759Y-66951702D01*
X134735240Y-66400715D01*
X134524831Y-65891485D01*
X134135564Y-65501539D01*
X133626702Y-65290241D01*
X133075715Y-65289760D01*
X132566485Y-65500169D01*
X132176539Y-65889436D01*
X131965241Y-66398298D01*
X131964760Y-66949285D01*
X126059000Y-66949285D01*
X126059000Y-62100416D01*
X126277690Y-62191000D01*
X126968250Y-62191000D01*
X127127000Y-62032250D01*
X127127000Y-60833000D01*
X127107000Y-60833000D01*
X127107000Y-60579000D01*
X127127000Y-60579000D01*
X127127000Y-59379750D01*
X127381000Y-59379750D01*
X127381000Y-60579000D01*
X127401000Y-60579000D01*
X127401000Y-60833000D01*
X127381000Y-60833000D01*
X127381000Y-62032250D01*
X127539750Y-62191000D01*
X128230310Y-62191000D01*
X128463699Y-62094327D01*
X128642327Y-61915698D01*
X128714597Y-61741223D01*
X128743946Y-61785147D01*
X129225715Y-62107054D01*
X129794000Y-62220093D01*
X130362285Y-62107054D01*
X130844054Y-61785147D01*
X131064000Y-61455974D01*
X131283946Y-61785147D01*
X131765715Y-62107054D01*
X132334000Y-62220093D01*
X132902285Y-62107054D01*
X133384054Y-61785147D01*
X133604000Y-61455974D01*
X133823946Y-61785147D01*
X134305715Y-62107054D01*
X134874000Y-62220093D01*
X135442285Y-62107054D01*
X135924054Y-61785147D01*
X136144000Y-61455974D01*
X136363946Y-61785147D01*
X136845715Y-62107054D01*
X137414000Y-62220093D01*
X137982285Y-62107054D01*
X138464054Y-61785147D01*
X138684000Y-61455974D01*
X138903946Y-61785147D01*
X139385715Y-62107054D01*
X139954000Y-62220093D01*
X140522285Y-62107054D01*
X141004054Y-61785147D01*
X141224000Y-61455974D01*
X141443946Y-61785147D01*
X141695781Y-61953417D01*
X141340998Y-62308200D01*
X136779000Y-62308200D01*
X136488161Y-62366052D01*
X136241599Y-62530799D01*
X135098599Y-63673799D01*
X134933852Y-63920361D01*
X134876000Y-64211200D01*
X134876000Y-71907400D01*
X134933852Y-72198239D01*
X135098599Y-72444801D01*
X135310478Y-72656680D01*
X135310438Y-72702167D01*
X135452483Y-73045943D01*
X135715273Y-73309192D01*
X136058801Y-73451838D01*
X136430767Y-73452162D01*
X136774543Y-73310117D01*
X137037792Y-73047327D01*
X137180438Y-72703799D01*
X137180762Y-72331833D01*
X137038717Y-71988057D01*
X136775927Y-71724808D01*
X136432399Y-71582162D01*
X136396000Y-71582130D01*
X136396000Y-67532250D01*
X140176500Y-67532250D01*
X140176500Y-67997810D01*
X140273173Y-68231199D01*
X140451802Y-68409827D01*
X140685191Y-68506500D01*
X141275750Y-68506500D01*
X141434500Y-68347750D01*
X141434500Y-67373500D01*
X140335250Y-67373500D01*
X140176500Y-67532250D01*
X136396000Y-67532250D01*
X136396000Y-66495190D01*
X140176500Y-66495190D01*
X140176500Y-66960750D01*
X140335250Y-67119500D01*
X141434500Y-67119500D01*
X141434500Y-66145250D01*
X141275750Y-65986500D01*
X140685191Y-65986500D01*
X140451802Y-66083173D01*
X140273173Y-66261801D01*
X140176500Y-66495190D01*
X136396000Y-66495190D01*
X136396000Y-64526002D01*
X137093802Y-63828200D01*
X141655800Y-63828200D01*
X141946639Y-63770348D01*
X142193201Y-63605601D01*
X143031401Y-62767401D01*
X143196148Y-62520839D01*
X143254000Y-62230000D01*
X143254000Y-61978954D01*
X143544054Y-61785147D01*
X143764000Y-61455974D01*
X143983946Y-61785147D01*
X144465715Y-62107054D01*
X144845500Y-62182598D01*
X144845500Y-65980945D01*
X144811500Y-65974060D01*
X143311500Y-65974060D01*
X143076183Y-66018338D01*
X142860059Y-66157410D01*
X142813531Y-66225506D01*
X142671198Y-66083173D01*
X142437809Y-65986500D01*
X141847250Y-65986500D01*
X141688500Y-66145250D01*
X141688500Y-67119500D01*
X141708500Y-67119500D01*
X141708500Y-67373500D01*
X141688500Y-67373500D01*
X141688500Y-68347750D01*
X141847250Y-68506500D01*
X142437809Y-68506500D01*
X142671198Y-68409827D01*
X142812436Y-68268590D01*
X142847410Y-68322941D01*
X143059610Y-68467931D01*
X143184253Y-68493172D01*
X143146662Y-68583701D01*
X143146338Y-68955667D01*
X143288383Y-69299443D01*
X143551173Y-69562692D01*
X143894701Y-69705338D01*
X144266667Y-69705662D01*
X144610443Y-69563617D01*
X144873692Y-69300827D01*
X145016338Y-68957299D01*
X145016662Y-68585333D01*
X144976408Y-68487910D01*
X145046817Y-68474662D01*
X145262941Y-68335590D01*
X145407931Y-68123390D01*
X145458940Y-67871500D01*
X145458940Y-67546373D01*
X145790667Y-67546662D01*
X146134443Y-67404617D01*
X146397692Y-67141827D01*
X146540338Y-66798299D01*
X146540662Y-66426333D01*
X146398617Y-66082557D01*
X146365500Y-66049382D01*
X146365500Y-61363932D01*
X146405961Y-61303378D01*
X146519000Y-60735093D01*
X146519000Y-60676907D01*
X146405961Y-60108622D01*
X146084054Y-59626853D01*
X145602285Y-59304946D01*
X145034000Y-59191907D01*
X144465715Y-59304946D01*
X143983946Y-59626853D01*
X143764000Y-59956026D01*
X143544054Y-59626853D01*
X143062285Y-59304946D01*
X142494000Y-59191907D01*
X141925715Y-59304946D01*
X141443946Y-59626853D01*
X141224000Y-59956026D01*
X141004054Y-59626853D01*
X140522285Y-59304946D01*
X139954000Y-59191907D01*
X139385715Y-59304946D01*
X138903946Y-59626853D01*
X138684000Y-59956026D01*
X138464054Y-59626853D01*
X137982285Y-59304946D01*
X137414000Y-59191907D01*
X136845715Y-59304946D01*
X136363946Y-59626853D01*
X136144000Y-59956026D01*
X135924054Y-59626853D01*
X135442285Y-59304946D01*
X134874000Y-59191907D01*
X134305715Y-59304946D01*
X133823946Y-59626853D01*
X133604000Y-59956026D01*
X133384054Y-59626853D01*
X132902285Y-59304946D01*
X132334000Y-59191907D01*
X131765715Y-59304946D01*
X131283946Y-59626853D01*
X131064000Y-59956026D01*
X130844054Y-59626853D01*
X130362285Y-59304946D01*
X129794000Y-59191907D01*
X129225715Y-59304946D01*
X128743946Y-59626853D01*
X128714597Y-59670777D01*
X128642327Y-59496302D01*
X128463699Y-59317673D01*
X128230310Y-59221000D01*
X127539750Y-59221000D01*
X127381000Y-59379750D01*
X127127000Y-59379750D01*
X126968250Y-59221000D01*
X126277690Y-59221000D01*
X126059000Y-59311584D01*
X126059000Y-59130000D01*
X131318000Y-59130000D01*
X131589705Y-59075954D01*
X131820046Y-58922046D01*
X131973954Y-58691705D01*
X132028000Y-58420000D01*
X132028000Y-55469907D01*
X134024000Y-55469907D01*
X134024000Y-55528093D01*
X134137039Y-56096378D01*
X134458946Y-56578147D01*
X134940715Y-56900054D01*
X135509000Y-57013093D01*
X136077285Y-56900054D01*
X136559054Y-56578147D01*
X136779000Y-56248974D01*
X136998946Y-56578147D01*
X137480715Y-56900054D01*
X138049000Y-57013093D01*
X138617285Y-56900054D01*
X139099054Y-56578147D01*
X139319000Y-56248974D01*
X139538946Y-56578147D01*
X140020715Y-56900054D01*
X140589000Y-57013093D01*
X141157285Y-56900054D01*
X141639054Y-56578147D01*
X141666850Y-56536548D01*
X141675838Y-56584317D01*
X141814910Y-56800441D01*
X142027110Y-56945431D01*
X142279000Y-56996440D01*
X143979000Y-56996440D01*
X144214317Y-56952162D01*
X144430441Y-56813090D01*
X144575431Y-56600890D01*
X144626440Y-56349000D01*
X144626440Y-54649000D01*
X144582162Y-54413683D01*
X144443090Y-54197559D01*
X144230890Y-54052569D01*
X143979000Y-54001560D01*
X142279000Y-54001560D01*
X142043683Y-54045838D01*
X141827559Y-54184910D01*
X141682569Y-54397110D01*
X141668914Y-54464541D01*
X141639054Y-54419853D01*
X141157285Y-54097946D01*
X140589000Y-53984907D01*
X140020715Y-54097946D01*
X139538946Y-54419853D01*
X139319000Y-54749026D01*
X139099054Y-54419853D01*
X138617285Y-54097946D01*
X138049000Y-53984907D01*
X137480715Y-54097946D01*
X136998946Y-54419853D01*
X136779000Y-54749026D01*
X136559054Y-54419853D01*
X136077285Y-54097946D01*
X135509000Y-53984907D01*
X134940715Y-54097946D01*
X134458946Y-54419853D01*
X134137039Y-54901622D01*
X134024000Y-55469907D01*
X132028000Y-55469907D01*
X132028000Y-53161000D01*
X149150000Y-53161000D01*
X149150000Y-58420000D01*
G36*
X155119000Y-131116000D02*
X149860000Y-131116000D01*
X149588295Y-131170046D01*
X149357954Y-131323954D01*
X149204046Y-131554295D01*
X149150000Y-131826000D01*
X149150000Y-137085000D01*
X132028000Y-137085000D01*
X132028000Y-132100437D01*
X134718090Y-132083447D01*
X134362017Y-132616348D01*
X134199500Y-133433377D01*
X134199500Y-134536623D01*
X134362017Y-135353652D01*
X134824827Y-136046296D01*
X135517471Y-136509106D01*
X136334500Y-136671623D01*
X137151529Y-136509106D01*
X137844173Y-136046296D01*
X138306983Y-135353652D01*
X138334750Y-135214058D01*
X138362517Y-135353652D01*
X138825327Y-136046296D01*
X139517971Y-136509106D01*
X140335000Y-136671623D01*
X141152029Y-136509106D01*
X141844673Y-136046296D01*
X142307483Y-135353652D01*
X142335250Y-135214058D01*
X142363017Y-135353652D01*
X142825827Y-136046296D01*
X143518471Y-136509106D01*
X144335500Y-136671623D01*
X145152529Y-136509106D01*
X145845173Y-136046296D01*
X146307983Y-135353652D01*
X146470500Y-134536623D01*
X146470500Y-133433377D01*
X146307983Y-132616348D01*
X145845173Y-131923704D01*
X145152529Y-131460894D01*
X144913006Y-131413250D01*
X145152529Y-131365606D01*
X145845173Y-130902796D01*
X146307983Y-130210152D01*
X146470500Y-129393123D01*
X146470500Y-128289877D01*
X146307983Y-127472848D01*
X145877540Y-126828645D01*
X151509427Y-126898390D01*
X151558958Y-126888997D01*
X151600931Y-126861074D01*
X151628734Y-126819021D01*
X151638000Y-126771400D01*
X151638000Y-120484900D01*
X154000200Y-120484900D01*
X154049610Y-120474894D01*
X154091235Y-120446453D01*
X154118515Y-120404059D01*
X154127200Y-120357900D01*
X154127200Y-111201200D01*
X154117194Y-111151790D01*
X154088753Y-111110165D01*
X154046359Y-111082885D01*
X154000200Y-111074200D01*
X153948519Y-111074200D01*
X154316644Y-110828226D01*
X154887841Y-109973371D01*
X155088418Y-108965000D01*
X154887841Y-107956629D01*
X154316644Y-107101774D01*
X153461789Y-106530577D01*
X152453418Y-106330000D01*
X151330582Y-106330000D01*
X150322211Y-106530577D01*
X149467356Y-107101774D01*
X148896159Y-107956629D01*
X148695582Y-108965000D01*
X148896159Y-109973371D01*
X149467356Y-110828226D01*
X149835481Y-111074200D01*
X147448519Y-111074200D01*
X147816644Y-110828226D01*
X148387841Y-109973371D01*
X148588418Y-108965000D01*
X148387841Y-107956629D01*
X147816644Y-107101774D01*
X146961789Y-106530577D01*
X145953418Y-106330000D01*
X144830582Y-106330000D01*
X143822211Y-106530577D01*
X142967356Y-107101774D01*
X142396159Y-107956629D01*
X142195582Y-108965000D01*
X142396159Y-109973371D01*
X142967356Y-110828226D01*
X143335481Y-111074200D01*
X140971519Y-111074200D01*
X141339644Y-110828226D01*
X141910841Y-109973371D01*
X142111418Y-108965000D01*
X141910841Y-107956629D01*
X141339644Y-107101774D01*
X140484789Y-106530577D01*
X139476418Y-106330000D01*
X138353582Y-106330000D01*
X137345211Y-106530577D01*
X136490356Y-107101774D01*
X135919159Y-107956629D01*
X135915425Y-107975400D01*
X133884696Y-107975400D01*
X134037171Y-92965000D01*
X135718582Y-92965000D01*
X135919159Y-93973371D01*
X136490356Y-94828226D01*
X137345211Y-95399423D01*
X138353582Y-95600000D01*
X139476418Y-95600000D01*
X140484789Y-95399423D01*
X141339644Y-94828226D01*
X141910841Y-93973371D01*
X142090000Y-93072676D01*
X142269159Y-93973371D01*
X142840356Y-94828226D01*
X143695211Y-95399423D01*
X144703582Y-95600000D01*
X145826418Y-95600000D01*
X146834789Y-95399423D01*
X147689644Y-94828226D01*
X148260841Y-93973371D01*
X148354570Y-93502162D01*
X148835333Y-93502162D01*
X148931976Y-93856038D01*
X149461971Y-94738424D01*
X150289296Y-95350822D01*
X151288000Y-95600000D01*
X151788000Y-95600000D01*
X151788000Y-93092000D01*
X152042000Y-93092000D01*
X152042000Y-95600000D01*
X152542000Y-95600000D01*
X153540704Y-95350822D01*
X154368029Y-94738424D01*
X154898024Y-93856038D01*
X154994667Y-93502162D01*
X154887991Y-93092000D01*
X152042000Y-93092000D01*
X151788000Y-93092000D01*
X148942009Y-93092000D01*
X148835333Y-93502162D01*
X148354570Y-93502162D01*
X148461418Y-92965000D01*
X148354571Y-92427838D01*
X148835333Y-92427838D01*
X148942009Y-92838000D01*
X151788000Y-92838000D01*
X151788000Y-90330000D01*
X152042000Y-90330000D01*
X152042000Y-92838000D01*
X154887991Y-92838000D01*
X154994667Y-92427838D01*
X154898024Y-92073962D01*
X154368029Y-91191576D01*
X153540704Y-90579178D01*
X152542000Y-90330000D01*
X152042000Y-90330000D01*
X151788000Y-90330000D01*
X151288000Y-90330000D01*
X150289296Y-90579178D01*
X149461971Y-91191576D01*
X148931976Y-92073962D01*
X148835333Y-92427838D01*
X148354571Y-92427838D01*
X148260841Y-91956629D01*
X147689644Y-91101774D01*
X146834789Y-90530577D01*
X145826418Y-90330000D01*
X144703582Y-90330000D01*
X143695211Y-90530577D01*
X142840356Y-91101774D01*
X142269159Y-91956629D01*
X142090000Y-92857324D01*
X141910841Y-91956629D01*
X141339644Y-91101774D01*
X140484789Y-90530577D01*
X139476418Y-90330000D01*
X138353582Y-90330000D01*
X137345211Y-90530577D01*
X136490356Y-91101774D01*
X135919159Y-91956629D01*
X135718582Y-92965000D01*
X134037171Y-92965000D01*
X134111993Y-85599290D01*
X134112000Y-85598000D01*
X134112000Y-82042000D01*
X143764000Y-82042000D01*
X143813410Y-82031994D01*
X143855035Y-82003553D01*
X143882315Y-81961159D01*
X143891000Y-81915000D01*
X143891000Y-79502000D01*
X155119000Y-79502000D01*
X155119000Y-131116000D01*
X155119000Y-131116000D01*
G37*
X155119000Y-131116000D02*
X149860000Y-131116000D01*
X149588295Y-131170046D01*
X149357954Y-131323954D01*
X149204046Y-131554295D01*
X149150000Y-131826000D01*
X149150000Y-137085000D01*
X132028000Y-137085000D01*
X132028000Y-132100437D01*
X134718090Y-132083447D01*
X134362017Y-132616348D01*
X134199500Y-133433377D01*
X134199500Y-134536623D01*
X134362017Y-135353652D01*
X134824827Y-136046296D01*
X135517471Y-136509106D01*
X136334500Y-136671623D01*
X137151529Y-136509106D01*
X137844173Y-136046296D01*
X138306983Y-135353652D01*
X138334750Y-135214058D01*
X138362517Y-135353652D01*
X138825327Y-136046296D01*
X139517971Y-136509106D01*
X140335000Y-136671623D01*
X141152029Y-136509106D01*
X141844673Y-136046296D01*
X142307483Y-135353652D01*
X142335250Y-135214058D01*
X142363017Y-135353652D01*
X142825827Y-136046296D01*
X143518471Y-136509106D01*
X144335500Y-136671623D01*
X145152529Y-136509106D01*
X145845173Y-136046296D01*
X146307983Y-135353652D01*
X146470500Y-134536623D01*
X146470500Y-133433377D01*
X146307983Y-132616348D01*
X145845173Y-131923704D01*
X145152529Y-131460894D01*
X144913006Y-131413250D01*
X145152529Y-131365606D01*
X145845173Y-130902796D01*
X146307983Y-130210152D01*
X146470500Y-129393123D01*
X146470500Y-128289877D01*
X146307983Y-127472848D01*
X145877540Y-126828645D01*
X151509427Y-126898390D01*
X151558958Y-126888997D01*
X151600931Y-126861074D01*
X151628734Y-126819021D01*
X151638000Y-126771400D01*
X151638000Y-120484900D01*
X154000200Y-120484900D01*
X154049610Y-120474894D01*
X154091235Y-120446453D01*
X154118515Y-120404059D01*
X154127200Y-120357900D01*
X154127200Y-111201200D01*
X154117194Y-111151790D01*
X154088753Y-111110165D01*
X154046359Y-111082885D01*
X154000200Y-111074200D01*
X153948519Y-111074200D01*
X154316644Y-110828226D01*
X154887841Y-109973371D01*
X155088418Y-108965000D01*
X154887841Y-107956629D01*
X154316644Y-107101774D01*
X153461789Y-106530577D01*
X152453418Y-106330000D01*
X151330582Y-106330000D01*
X150322211Y-106530577D01*
X149467356Y-107101774D01*
X148896159Y-107956629D01*
X148695582Y-108965000D01*
X148896159Y-109973371D01*
X149467356Y-110828226D01*
X149835481Y-111074200D01*
X147448519Y-111074200D01*
X147816644Y-110828226D01*
X148387841Y-109973371D01*
X148588418Y-108965000D01*
X148387841Y-107956629D01*
X147816644Y-107101774D01*
X146961789Y-106530577D01*
X145953418Y-106330000D01*
X144830582Y-106330000D01*
X143822211Y-106530577D01*
X142967356Y-107101774D01*
X142396159Y-107956629D01*
X142195582Y-108965000D01*
X142396159Y-109973371D01*
X142967356Y-110828226D01*
X143335481Y-111074200D01*
X140971519Y-111074200D01*
X141339644Y-110828226D01*
X141910841Y-109973371D01*
X142111418Y-108965000D01*
X141910841Y-107956629D01*
X141339644Y-107101774D01*
X140484789Y-106530577D01*
X139476418Y-106330000D01*
X138353582Y-106330000D01*
X137345211Y-106530577D01*
X136490356Y-107101774D01*
X135919159Y-107956629D01*
X135915425Y-107975400D01*
X133884696Y-107975400D01*
X134037171Y-92965000D01*
X135718582Y-92965000D01*
X135919159Y-93973371D01*
X136490356Y-94828226D01*
X137345211Y-95399423D01*
X138353582Y-95600000D01*
X139476418Y-95600000D01*
X140484789Y-95399423D01*
X141339644Y-94828226D01*
X141910841Y-93973371D01*
X142090000Y-93072676D01*
X142269159Y-93973371D01*
X142840356Y-94828226D01*
X143695211Y-95399423D01*
X144703582Y-95600000D01*
X145826418Y-95600000D01*
X146834789Y-95399423D01*
X147689644Y-94828226D01*
X148260841Y-93973371D01*
X148354570Y-93502162D01*
X148835333Y-93502162D01*
X148931976Y-93856038D01*
X149461971Y-94738424D01*
X150289296Y-95350822D01*
X151288000Y-95600000D01*
X151788000Y-95600000D01*
X151788000Y-93092000D01*
X152042000Y-93092000D01*
X152042000Y-95600000D01*
X152542000Y-95600000D01*
X153540704Y-95350822D01*
X154368029Y-94738424D01*
X154898024Y-93856038D01*
X154994667Y-93502162D01*
X154887991Y-93092000D01*
X152042000Y-93092000D01*
X151788000Y-93092000D01*
X148942009Y-93092000D01*
X148835333Y-93502162D01*
X148354570Y-93502162D01*
X148461418Y-92965000D01*
X148354571Y-92427838D01*
X148835333Y-92427838D01*
X148942009Y-92838000D01*
X151788000Y-92838000D01*
X151788000Y-90330000D01*
X152042000Y-90330000D01*
X152042000Y-92838000D01*
X154887991Y-92838000D01*
X154994667Y-92427838D01*
X154898024Y-92073962D01*
X154368029Y-91191576D01*
X153540704Y-90579178D01*
X152542000Y-90330000D01*
X152042000Y-90330000D01*
X151788000Y-90330000D01*
X151288000Y-90330000D01*
X150289296Y-90579178D01*
X149461971Y-91191576D01*
X148931976Y-92073962D01*
X148835333Y-92427838D01*
X148354571Y-92427838D01*
X148260841Y-91956629D01*
X147689644Y-91101774D01*
X146834789Y-90530577D01*
X145826418Y-90330000D01*
X144703582Y-90330000D01*
X143695211Y-90530577D01*
X142840356Y-91101774D01*
X142269159Y-91956629D01*
X142090000Y-92857324D01*
X141910841Y-91956629D01*
X141339644Y-91101774D01*
X140484789Y-90530577D01*
X139476418Y-90330000D01*
X138353582Y-90330000D01*
X137345211Y-90530577D01*
X136490356Y-91101774D01*
X135919159Y-91956629D01*
X135718582Y-92965000D01*
X134037171Y-92965000D01*
X134111993Y-85599290D01*
X134112000Y-85598000D01*
X134112000Y-82042000D01*
X143764000Y-82042000D01*
X143813410Y-82031994D01*
X143855035Y-82003553D01*
X143882315Y-81961159D01*
X143891000Y-81915000D01*
X143891000Y-79502000D01*
X155119000Y-79502000D01*
X155119000Y-131116000D01*
G36*
X153289000Y-119507000D02*
X138557000Y-119507000D01*
X138557000Y-112395000D01*
X153289000Y-112395000D01*
X153289000Y-119507000D01*
X153289000Y-119507000D01*
G37*
X153289000Y-119507000D02*
X138557000Y-119507000D01*
X138557000Y-112395000D01*
X153289000Y-112395000D01*
X153289000Y-119507000D01*
M02*
